<svg width="979" height="119" viewBox="0 0 979 119" fill="none" xmlns="http://www.w3.org/2000/svg">
<path d="M51.4606 89.144C48.6446 89.144 46.6606 88.024 45.5086 85.784C44.3566 83.608 43.7806 81.048 43.7806 78.104C43.7806 75.48 44.1326 72.888 44.8366 70.328C45.6046 67.768 46.5006 65.816 47.5246 64.472C45.7966 66.52 43.6526 68.856 41.0926 71.48C38.5326 74.104 35.7166 76.632 32.6446 79.064C29.5726 81.496 26.4046 83.512 23.1406 85.112C19.8766 86.712 16.6446 87.512 13.4446 87.512C12.4846 87.512 11.5246 87.416 10.5646 87.224C9.66863 87.096 8.77263 86.84 7.87663 86.456C5.50863 85.496 3.74863 83.8 2.59663 81.368C1.44463 78.872 0.868625 75.896 0.868625 72.44C0.868625 68.792 1.47663 64.888 2.69263 60.728C3.97263 56.504 5.82863 52.216 8.26063 47.864C9.41263 45.752 10.6926 43.672 12.1006 41.624C13.5726 39.512 15.1406 37.528 16.8046 35.672C14.8206 34.776 12.9966 33.784 11.3326 32.696C9.66863 31.544 8.26063 30.296 7.10863 28.952C6.34063 28.056 5.76463 27 5.38063 25.784C4.99663 24.568 4.80463 23.384 4.80463 22.232C4.80463 20.184 5.28463 18.84 6.24463 18.2C6.56463 17.688 6.94863 17.432 7.39663 17.432C7.97263 17.432 8.26063 17.784 8.26063 18.488C8.26063 18.936 8.13263 19.416 7.87663 19.928C7.55663 20.76 7.39663 21.528 7.39663 22.232C7.39663 23.256 7.65263 24.216 8.16463 25.112C8.67663 25.944 9.28463 26.744 9.98863 27.512C12.0366 29.944 14.8526 31.96 18.4366 33.56C22.5326 29.08 27.0126 24.952 31.8766 21.176C36.8046 17.336 42.0846 14.264 47.7166 11.96C53.3486 9.656 59.2686 8.504 65.4766 8.504C70.6606 8.504 74.7246 9.656 77.6686 11.96C80.6126 14.2 82.0846 17.112 82.0846 20.696C82.0846 22.424 81.5726 24.312 80.5486 26.36C79.5246 28.344 77.8606 30.296 75.5566 32.216C73.2526 34.072 70.1806 35.704 66.3406 37.112C62.5646 38.456 57.8606 39.384 52.2286 39.896C50.2446 40.088 48.4526 40.248 46.8526 40.376C45.3166 40.44 43.6526 40.472 41.8606 40.472C38.5326 40.472 35.3006 40.248 32.1646 39.8C29.0926 39.352 26.0206 38.648 22.9486 37.688C21.7966 39.288 20.3246 41.464 18.5326 44.216C16.8046 46.968 15.0766 49.912 13.3486 53.048C11.6206 56.184 10.1806 59.16 9.02863 61.976C8.00463 64.664 7.23663 67.128 6.72463 69.368C6.21263 71.544 5.95663 73.496 5.95663 75.224C5.95663 78.36 6.69263 80.728 8.16463 82.328C9.63663 83.864 11.6206 84.632 14.1166 84.632C16.5486 84.632 19.3006 83.928 22.3726 82.52C25.5086 81.112 28.7726 79 32.1646 76.184C35.5566 73.368 38.8526 70.2 42.0526 66.68C45.3166 63.16 48.2926 59.576 50.9806 55.928C53.6686 52.28 55.8446 48.92 57.5086 45.848C58.5966 43.8 59.6526 42.36 60.6766 41.528C61.7006 40.632 62.5646 40.184 63.2686 40.184C63.9726 40.184 64.5166 40.472 64.9006 41.048C65.2846 41.56 65.4766 42.264 65.4766 43.16C65.4766 44.952 64.6766 46.744 63.0766 48.536C61.2846 50.52 59.5246 52.952 57.7966 55.832C56.0686 58.712 54.5326 61.752 53.1886 64.952C51.8446 68.152 50.8846 71.288 50.3086 74.36C50.1166 75.384 49.9886 76.344 49.9246 77.24C49.8606 78.136 49.8286 78.936 49.8286 79.64C49.8286 82.008 50.1806 83.704 50.8846 84.728C51.6526 85.752 52.6446 86.264 53.8606 86.264C55.3326 86.264 57.0286 85.592 58.9486 84.248C60.8686 82.904 62.7246 81.112 64.5166 78.872C66.0526 76.824 67.5246 74.648 68.9326 72.344C70.4046 70.04 71.7486 67.64 72.9646 65.144C73.1566 64.696 73.4126 64.376 73.7326 64.184C74.1166 63.928 74.3726 63.8 74.5006 63.8C74.8206 63.8 74.9806 63.992 74.9806 64.376C74.9806 64.632 74.8846 65.016 74.6926 65.528C74.1166 66.808 73.3486 68.344 72.3886 70.136C71.4286 71.928 70.3726 73.784 69.2206 75.704C68.0686 77.56 66.8846 79.288 65.6686 80.888C64.0046 83.064 61.8926 84.984 59.3326 86.648C56.8366 88.312 54.2126 89.144 51.4606 89.144ZM40.9966 38.168C44.3246 38.168 48.0366 37.976 52.1326 37.592C57.4446 37.144 62.0526 36.088 65.9566 34.424C69.8606 32.76 72.8686 30.648 74.9806 28.088C77.0926 25.528 78.1486 22.68 78.1486 19.544C78.1486 16.728 76.9646 14.584 74.5966 13.112C72.2926 11.64 69.3486 10.904 65.7646 10.904C59.8126 10.904 54.3726 12.088 49.4446 14.456C44.5806 16.76 40.1006 19.8 36.0046 23.576C31.9726 27.352 28.1326 31.416 24.4846 35.768C29.3486 37.368 34.8526 38.168 40.9966 38.168ZM90.6114 83.672C88.8834 83.48 87.3154 82.68 85.9074 81.272C84.5634 79.8 83.6354 77.848 83.1234 75.416C83.0594 74.968 82.9954 74.584 82.9314 74.264C82.9314 73.88 82.9314 73.464 82.9314 73.016C82.9314 70.456 83.5074 68.408 84.6594 66.872C85.8114 65.272 86.8674 64.44 87.8274 64.376C88.8514 64.44 90.0994 64.216 91.5714 63.704C93.0434 63.128 94.3234 62.36 95.4114 61.4C97.2674 59.928 98.1954 58.424 98.1954 56.888C98.1954 55.288 97.2674 54.488 95.4114 54.488C94.3874 54.488 93.0754 54.84 91.4754 55.544C89.9394 56.248 88.1474 57.464 86.0994 59.192C83.5394 61.368 80.8834 64.28 78.1314 67.928C77.7474 68.76 77.2994 70.008 76.7874 71.672C76.2754 73.272 75.8274 74.936 75.4434 76.664C75.1234 78.392 74.9634 79.864 74.9634 81.08C74.9634 82.04 75.1234 82.68 75.4434 83H69.3954C68.6914 83 68.3394 82.712 68.3394 82.136C68.3394 81.944 68.3714 81.784 68.4354 81.656C68.4994 81.528 68.5634 81.272 68.6274 80.888C69.5234 77.56 70.7074 74.424 72.1794 71.48C73.6514 68.536 75.1234 65.432 76.5954 62.168C74.3554 66.328 72.3074 70.008 70.4514 73.208C68.6594 76.344 67.2834 78.36 66.3234 79.256C66.1954 79.384 66.0354 79.448 65.8434 79.448C65.5874 79.448 65.4274 79.288 65.3634 78.968C65.2354 78.648 65.2994 78.328 65.5554 78.008C66.8994 76.216 68.4354 73.752 70.1634 70.616C71.9554 67.48 73.8434 63.992 75.8274 60.152C77.8114 56.248 79.8274 52.312 81.8754 48.344C83.9234 44.376 85.9074 40.632 87.8274 37.112C89.8114 33.592 91.6034 30.616 93.2034 28.184C94.3554 26.456 95.4434 25.24 96.4674 24.536C97.4914 23.768 98.5474 23.384 99.6354 23.384H100.115C100.691 23.384 101.331 23.48 102.035 23.672C102.803 23.864 103.507 23.896 104.147 23.768C102.931 24.728 101.459 26.296 99.7314 28.472C98.0034 30.648 96.1794 33.24 94.2594 36.248C92.3394 39.256 90.3874 42.456 88.4034 45.848C86.4834 49.24 84.6594 52.6 82.9314 55.928C82.2914 57.208 81.6834 58.552 81.1074 59.96C80.5314 61.368 79.9874 62.776 79.4754 64.184C80.8194 62.52 82.3554 60.792 84.0834 59C85.8114 57.208 87.6034 55.576 89.4594 54.104C91.3794 52.568 93.2674 51.448 95.1234 50.744C97.2354 49.976 98.9954 49.592 100.403 49.592C101.875 49.592 102.931 49.944 103.571 50.648C104.275 51.352 104.627 52.248 104.627 53.336C104.627 54.552 104.147 56.024 103.187 57.752C102.227 59.416 100.915 60.856 99.2514 62.072C97.8434 63.032 96.3714 63.864 94.8354 64.568C93.2994 65.272 91.4754 65.72 89.3634 65.912C88.9794 66.808 88.6914 67.736 88.4994 68.696C88.3714 69.592 88.3074 70.488 88.3074 71.384C88.3074 73.88 88.8834 76.088 90.0354 78.008C91.1874 79.864 92.6914 80.792 94.5474 80.792C95.4434 80.792 96.4034 80.536 97.4274 80.024C98.5154 79.512 99.6354 78.648 100.787 77.432C102.067 76.152 103.347 74.328 104.627 71.96C105.971 69.592 107.315 67 108.659 64.184C108.915 63.672 109.203 63.416 109.523 63.416C109.907 63.416 110.099 63.672 110.099 64.184C110.099 64.44 110.003 64.76 109.811 65.144C107.955 69.432 106.163 72.856 104.435 75.416C102.771 77.912 101.139 79.8 99.5394 81.08C98.0034 82.296 96.4994 83.064 95.0274 83.384C93.5554 83.704 92.0834 83.8 90.6114 83.672ZM111.276 83C110.572 83 109.708 82.84 108.684 82.52C107.724 82.2 106.86 81.624 106.092 80.792C105.388 79.896 105.036 78.584 105.036 76.856C105.036 75.192 105.42 73.592 106.188 72.056C107.02 70.456 107.788 68.92 108.492 67.448C108.3 67.448 108.076 67.384 107.82 67.256C107.628 67.128 107.532 66.936 107.532 66.68C107.532 66.424 107.596 66.168 107.724 65.912C107.98 65.4 108.268 64.856 108.588 64.28C108.908 63.704 109.196 63.096 109.452 62.456C110.412 60.472 111.372 58.584 112.332 56.792C113.292 54.936 114.124 53.304 114.828 51.896C115.532 50.488 116.748 49.784 118.476 49.784H124.428C123.34 50.616 122.348 51.544 121.452 52.568C120.62 53.528 119.564 55.32 118.284 57.944C118.284 57.944 118.06 58.392 117.612 59.288C117.164 60.184 116.588 61.336 115.884 62.744C115.244 64.088 114.572 65.464 113.868 66.872C113.228 68.28 112.684 69.464 112.236 70.424C111.404 72.216 110.86 73.656 110.604 74.744C110.348 75.768 110.22 76.728 110.22 77.624C110.22 79.736 110.924 80.792 112.332 80.792C113.868 80.792 115.724 79.544 117.9 77.048C119.692 74.936 121.452 72.408 123.18 69.464C124.908 66.52 126.54 63.48 128.076 60.344C129.676 57.208 131.084 54.392 132.3 51.896C133.004 50.488 134.252 49.784 136.044 49.784H141.324C140.364 50.552 139.564 51.288 138.924 51.992C138.284 52.632 137.644 53.528 137.004 54.68C136.428 55.768 135.628 57.336 134.604 59.384C133.772 61.112 132.876 62.968 131.916 64.952C131.02 66.872 130.22 68.696 129.516 70.424C128.812 72.152 128.364 73.56 128.172 74.648C128.108 75.288 128.044 75.768 127.98 76.088C127.916 76.408 127.884 76.76 127.884 77.144C127.884 78.36 128.076 79.224 128.46 79.736C128.908 80.248 129.42 80.504 129.996 80.504C131.532 80.504 133.068 79.64 134.604 77.912C136.204 76.184 137.708 74.072 139.116 71.576C140.588 69.08 141.836 66.712 142.86 64.472C143.244 63.768 143.596 63.416 143.916 63.416C144.3 63.416 144.492 63.64 144.492 64.088C144.492 64.408 144.364 64.792 144.108 65.24C143.404 66.776 142.54 68.536 141.516 70.52C140.492 72.504 139.34 74.456 138.06 76.376C136.78 78.296 135.372 79.896 133.836 81.176C132.3 82.392 130.636 83 128.844 83C127.244 83 125.932 82.424 124.908 81.272C123.884 80.056 123.372 78.36 123.372 76.184C123.372 74.456 123.692 72.6 124.332 70.616C123.244 72.536 121.996 74.456 120.588 76.376C119.18 78.296 117.676 79.896 116.076 81.176C114.476 82.392 112.876 83 111.276 83ZM187.034 118.904C181.082 118.904 175.77 118.04 171.098 116.312C166.426 114.584 162.746 112.056 160.058 108.728C157.37 105.464 156.026 101.496 156.026 96.824C156.026 95.032 156.25 93.144 156.698 91.16C157.082 89.24 157.722 87.192 158.618 85.016C159.514 82.904 160.858 80.92 162.65 79.064C164.442 77.208 166.266 75.704 168.122 74.552C169.978 73.4 171.418 72.824 172.442 72.824H172.73C173.306 72.824 173.594 72.92 173.594 73.112C173.594 73.24 173.466 73.4 173.21 73.592C172.954 73.784 172.666 73.944 172.346 74.072C171.258 74.52 169.882 75.48 168.218 76.952C166.554 78.36 164.954 80.152 163.418 82.328C161.946 84.44 160.826 86.776 160.058 89.336C159.482 91.448 159.194 93.464 159.194 95.384C159.194 98.84 160.058 101.848 161.786 104.408C163.514 106.968 165.786 109.08 168.602 110.744C171.418 112.472 174.522 113.752 177.914 114.584C181.306 115.416 184.634 115.832 187.898 115.832C189.178 115.832 190.426 115.768 191.642 115.64C192.858 115.576 194.01 115.416 195.098 115.16C200.73 113.88 205.882 111.736 210.554 108.728C215.29 105.784 219.61 102.264 223.514 98.168C227.418 94.072 230.938 89.656 234.074 84.92C237.274 80.248 240.122 75.512 242.618 70.712C245.114 65.912 247.354 61.336 249.338 56.984C251.322 52.632 253.05 48.792 254.522 45.464C256.826 40.472 259.002 35.992 261.05 32.024C263.162 27.992 264.986 24.6 266.522 21.848C268.122 19.096 269.274 17.176 269.978 16.088C266.842 16.6 263.354 17.432 259.514 18.584C255.738 19.672 251.898 21.112 247.994 22.904C244.154 24.696 240.538 26.808 237.146 29.24C233.818 31.672 231.002 34.424 228.698 37.496C226.458 40.568 225.018 43.992 224.378 47.768C224.314 48.344 224.25 48.856 224.186 49.304C224.186 49.752 224.186 50.232 224.186 50.744C224.186 53.56 224.826 55.896 226.106 57.752C227.386 59.544 229.21 60.44 231.578 60.44C232.602 60.44 233.882 60.184 235.418 59.672C237.978 58.776 239.93 57.528 241.274 55.928C242.682 54.328 243.674 52.632 244.25 50.84C244.826 49.048 245.114 47.48 245.114 46.136C245.114 44.536 244.858 43.48 244.346 42.968C243.962 42.776 243.77 42.52 243.77 42.2C243.77 41.624 244.122 41.336 244.826 41.336C245.402 41.336 245.914 41.624 246.362 42.2C246.938 43.608 247.226 45.08 247.226 46.616C247.226 48.728 246.682 50.84 245.594 52.952C244.57 55 243.162 56.824 241.37 58.424C239.642 60.024 237.658 61.208 235.418 61.976C233.69 62.616 231.898 62.936 230.042 62.936C226.522 62.936 223.578 61.784 221.21 59.48C218.842 57.112 217.658 53.976 217.658 50.072C217.658 49.112 217.754 48.12 217.946 47.096C218.65 42.616 220.378 38.68 223.13 35.288C225.882 31.832 229.274 28.856 233.306 26.36C237.338 23.8 241.626 21.656 246.17 19.928C250.714 18.2 255.194 16.824 259.61 15.8C264.09 14.712 268.09 13.944 271.61 13.496C271.93 13.048 272.506 12.28 273.338 11.192C274.17 10.104 275.13 9.016 276.218 7.92799C277.306 6.84 278.394 6.136 279.482 5.816C280.186 5.624 280.858 5.528 281.498 5.528C282.458 5.528 283.258 5.784 283.898 6.296C284.538 6.744 284.858 7.448 284.858 8.408C284.858 10.392 283.994 11.832 282.266 12.728C280.602 13.624 278.842 14.36 276.986 14.936C276.41 14.936 275.674 15.064 274.778 15.32C273.882 15.576 273.242 15.704 272.858 15.704C269.722 21.08 267.066 26.616 264.89 32.312C262.778 38.008 260.698 43.928 258.65 50.072C256.602 56.152 254.202 62.424 251.45 68.888C248.698 75.288 245.114 81.912 240.698 88.76C237.882 93.176 234.586 97.112 230.81 100.568C227.034 104.024 223.066 106.968 218.906 109.4C214.81 111.896 210.81 113.88 206.906 115.352C203.002 116.824 199.45 117.784 196.25 118.232C194.65 118.488 193.082 118.648 191.546 118.712C190.01 118.84 188.506 118.904 187.034 118.904ZM274.586 13.304C277.21 12.856 278.97 12.312 279.866 11.672C280.762 10.968 281.21 10.328 281.21 9.752C281.21 9.432 281.082 9.176 280.826 8.984C280.634 8.728 280.442 8.6 280.25 8.6C279.866 8.408 279.322 8.59999 278.618 9.17599C277.978 9.752 277.274 10.456 276.506 11.288C275.802 12.056 275.162 12.728 274.586 13.304ZM281.659 83.288C280.955 83.352 280.155 83.192 279.259 82.808C278.363 82.424 277.563 81.72 276.859 80.696C276.219 79.672 275.899 78.232 275.899 76.376C275.899 74.84 276.187 72.984 276.763 70.808C275.995 72.024 275.003 73.528 273.787 75.32C272.571 77.048 271.259 78.584 269.851 79.928C268.635 81.08 267.483 81.912 266.395 82.424C265.307 82.936 264.315 83.192 263.419 83.192C261.755 83.192 260.411 82.456 259.387 80.984C258.363 79.448 257.851 77.464 257.851 75.032C257.851 72.472 258.491 69.56 259.771 66.296C261.051 63.032 263.131 59.64 266.011 56.12C267.867 53.88 270.107 52.088 272.731 50.744C275.419 49.336 278.043 48.632 280.603 48.632C282.075 48.632 283.483 48.888 284.827 49.4C286.171 49.848 287.355 50.616 288.379 51.704C288.827 52.152 289.051 52.664 289.051 53.24C289.051 53.624 288.891 53.944 288.571 54.2C288.251 54.456 287.835 54.52 287.323 54.392C286.619 52.152 285.115 51.032 282.811 51.032C281.723 51.032 280.475 51.384 279.067 52.088C276.891 53.24 274.619 55.128 272.251 57.752C269.947 60.376 267.931 63.096 266.203 65.912C265.947 66.296 265.531 67.032 264.955 68.12C264.443 69.208 263.931 70.424 263.419 71.768C262.907 73.112 262.555 74.424 262.363 75.704C262.299 76.088 262.267 76.376 262.267 76.568C262.267 76.696 262.267 76.92 262.267 77.24C262.267 79.352 263.067 80.408 264.667 80.408C266.587 80.408 268.763 79 271.195 76.184C272.859 74.136 274.363 71.992 275.707 69.752C277.051 67.512 278.427 65.112 279.835 62.552C280.795 60.824 281.691 59.384 282.523 58.232C283.355 57.08 284.539 56.504 286.075 56.504C286.779 56.504 287.483 56.6 288.187 56.792C288.891 56.984 289.627 57.016 290.395 56.888C289.883 57.4 289.179 58.36 288.283 59.768C287.451 61.176 286.555 62.776 285.595 64.568C284.635 66.36 283.771 68.184 283.003 70.04C282.235 71.896 281.691 73.496 281.371 74.84C281.307 75.224 281.211 75.768 281.083 76.472C281.019 77.176 280.987 77.688 280.987 78.008C280.987 79.8 281.499 80.696 282.523 80.696C283.547 80.696 284.635 80.088 285.787 78.872C287.003 77.656 288.187 76.152 289.339 74.36C290.491 72.568 291.547 70.776 292.507 68.984C293.467 67.128 294.235 65.624 294.811 64.472C295.067 63.832 295.451 63.512 295.963 63.512C296.283 63.512 296.443 63.736 296.443 64.184C296.443 64.376 296.347 64.728 296.155 65.24C295.387 66.84 294.459 68.664 293.371 70.712C292.283 72.696 291.099 74.648 289.819 76.568C288.539 78.424 287.195 79.992 285.787 81.272C284.443 82.488 283.067 83.16 281.659 83.288ZM315.889 83C314.161 83 312.721 82.136 311.569 80.408C311.249 79.896 310.961 79.224 310.705 78.392C310.449 77.56 310.321 76.632 310.321 75.608C310.321 75.032 310.353 74.456 310.417 73.88C310.481 73.24 310.609 72.6 310.801 71.96C309.905 73.368 308.849 74.936 307.633 76.664C306.481 78.328 305.137 79.8 303.601 81.08C302.129 82.296 300.465 82.904 298.609 82.904C297.969 82.904 297.297 82.808 296.593 82.616C294.865 82.104 293.617 81.208 292.849 79.928C292.145 78.648 291.793 77.112 291.793 75.32C291.793 73.336 292.177 71.16 292.945 68.792C293.777 66.424 294.801 64.12 296.017 61.88C297.297 59.64 298.609 57.72 299.953 56.12C301.873 53.88 304.081 52.088 306.577 50.744C309.073 49.4 311.601 48.728 314.161 48.728C316.465 48.728 318.641 49.336 320.689 50.552C321.649 48.76 322.673 46.776 323.761 44.6C324.849 42.36 325.937 40.152 327.025 37.976C328.113 35.8 329.073 33.816 329.905 32.024C330.737 30.168 331.377 28.76 331.825 27.8C332.785 25.56 333.681 24.152 334.513 23.576C335.409 22.936 336.465 22.616 337.681 22.616C338.385 22.616 339.153 22.712 339.985 22.904C340.881 23.032 341.745 23.064 342.577 23C342.193 23.384 341.393 24.504 340.177 26.36C339.025 28.152 337.649 30.456 336.049 33.272C334.449 36.088 332.721 39.192 330.865 42.584C329.073 45.912 327.281 49.304 325.489 52.76C323.761 56.152 322.129 59.384 320.593 62.456C319.121 65.464 317.937 68.056 317.041 70.232C316.785 70.744 316.401 71.8 315.889 73.4C315.441 74.936 315.217 76.28 315.217 77.432C315.217 78.264 315.409 79 315.793 79.64C316.177 80.216 316.817 80.504 317.713 80.504C318.929 80.504 320.145 79.896 321.361 78.68C322.641 77.4 323.857 75.864 325.009 74.072C326.161 72.216 327.185 70.424 328.081 68.696C328.977 66.904 329.649 65.496 330.097 64.472C330.417 63.768 330.801 63.416 331.249 63.416C331.633 63.416 331.825 63.704 331.825 64.28C331.825 64.344 331.825 64.472 331.825 64.664C331.825 64.792 331.761 64.952 331.633 65.144C331.057 66.488 330.257 68.152 329.233 70.136C328.273 72.12 327.121 74.104 325.777 76.088C324.433 78.072 322.929 79.736 321.265 81.08C319.601 82.36 317.809 83 315.889 83ZM299.281 80.12C300.177 80.12 301.297 79.64 302.641 78.68C303.985 77.656 305.425 76.056 306.961 73.88C308.753 71.32 310.801 68.12 313.105 64.28C315.409 60.44 317.681 56.376 319.921 52.088C319.089 51.32 318.129 50.936 317.041 50.936C315.249 50.936 313.233 51.768 310.993 53.432C308.817 55.096 306.673 57.208 304.561 59.768C302.513 62.328 300.785 64.92 299.377 67.544C298.417 69.336 297.713 70.968 297.265 72.44C296.881 73.912 296.689 75.192 296.689 76.28C296.689 78.84 297.553 80.12 299.281 80.12ZM340.862 44.024C339.902 44.024 339.102 43.704 338.462 43.064C337.886 42.36 337.598 41.528 337.598 40.568C337.598 39.352 338.078 38.296 339.038 37.4C339.998 36.504 341.054 36.056 342.206 36.056C343.23 36.056 344.062 36.376 344.702 37.016C345.342 37.656 345.662 38.424 345.662 39.32C345.662 40.536 345.182 41.624 344.222 42.584C343.262 43.544 342.142 44.024 340.862 44.024ZM333.086 83C330.718 83 329.054 82.328 328.094 80.984C327.134 79.576 326.654 77.976 326.654 76.184C326.654 75.224 326.75 74.264 326.942 73.304C327.198 72.28 327.486 71.352 327.806 70.52L334.238 54.104C334.43 53.592 334.526 53.144 334.526 52.76C334.526 52.12 334.366 51.576 334.046 51.128C333.726 50.616 333.502 50.264 333.374 50.072L338.654 49.88C339.614 49.816 340.286 49.944 340.67 50.264C341.118 50.52 341.342 50.84 341.342 51.224C341.342 51.608 341.118 52.312 340.67 53.336L332.702 72.056C332.702 72.056 332.51 72.472 332.126 73.304C331.806 74.072 331.614 74.584 331.55 74.84C331.358 75.8 331.23 76.408 331.166 76.664C331.102 76.92 331.07 77.08 331.07 77.144C331.07 77.208 331.07 77.464 331.07 77.912C331.07 78.744 331.262 79.448 331.646 80.024C332.094 80.6 332.83 80.888 333.854 80.888C334.494 80.888 335.23 80.696 336.062 80.312C336.894 79.928 337.502 79.544 337.886 79.16C339.486 77.496 341.054 75.32 342.59 72.632C344.19 69.88 345.662 67.16 347.006 64.472C347.262 63.832 347.582 63.512 347.966 63.512C348.286 63.512 348.446 63.736 348.446 64.184C348.446 64.44 348.35 64.824 348.158 65.336C347.518 66.68 346.718 68.344 345.758 70.328C344.798 72.312 343.646 74.296 342.302 76.28C341.022 78.2 339.614 79.8 338.078 81.08C336.542 82.36 334.878 83 333.086 83ZM391.315 118.904C385.363 118.904 380.051 118.04 375.379 116.312C370.707 114.584 367.027 112.056 364.339 108.728C361.651 105.464 360.307 101.496 360.307 96.824C360.307 95.032 360.531 93.144 360.979 91.16C361.363 89.24 362.003 87.192 362.899 85.016C363.795 82.904 365.139 80.92 366.931 79.064C368.723 77.208 370.547 75.704 372.403 74.552C374.259 73.4 375.699 72.824 376.723 72.824H377.011C377.587 72.824 377.875 72.92 377.875 73.112C377.875 73.24 377.747 73.4 377.491 73.592C377.235 73.784 376.947 73.944 376.627 74.072C375.539 74.52 374.163 75.48 372.499 76.952C370.835 78.36 369.235 80.152 367.699 82.328C366.227 84.44 365.107 86.776 364.339 89.336C363.763 91.448 363.475 93.464 363.475 95.384C363.475 98.84 364.339 101.848 366.067 104.408C367.795 106.968 370.067 109.08 372.883 110.744C375.699 112.472 378.803 113.752 382.195 114.584C385.587 115.416 388.915 115.832 392.179 115.832C393.459 115.832 394.707 115.768 395.923 115.64C397.139 115.576 398.291 115.416 399.379 115.16C405.011 113.88 410.163 111.736 414.835 108.728C419.571 105.784 423.891 102.264 427.795 98.168C431.699 94.072 435.219 89.656 438.355 84.92C441.555 80.248 444.403 75.512 446.899 70.712C449.395 65.912 451.635 61.336 453.619 56.984C455.603 52.632 457.331 48.792 458.803 45.464C461.107 40.472 463.283 35.992 465.331 32.024C467.443 27.992 469.267 24.6 470.803 21.848C472.403 19.096 473.555 17.176 474.259 16.088C471.123 16.6 467.635 17.432 463.795 18.584C460.019 19.672 456.179 21.112 452.275 22.904C448.435 24.696 444.819 26.808 441.427 29.24C438.099 31.672 435.283 34.424 432.979 37.496C430.739 40.568 429.299 43.992 428.659 47.768C428.595 48.344 428.531 48.856 428.467 49.304C428.467 49.752 428.467 50.232 428.467 50.744C428.467 53.56 429.107 55.896 430.387 57.752C431.667 59.544 433.491 60.44 435.859 60.44C436.883 60.44 438.163 60.184 439.699 59.672C442.259 58.776 444.211 57.528 445.555 55.928C446.963 54.328 447.955 52.632 448.531 50.84C449.107 49.048 449.395 47.48 449.395 46.136C449.395 44.536 449.139 43.48 448.627 42.968C448.243 42.776 448.051 42.52 448.051 42.2C448.051 41.624 448.403 41.336 449.107 41.336C449.683 41.336 450.195 41.624 450.643 42.2C451.219 43.608 451.507 45.08 451.507 46.616C451.507 48.728 450.963 50.84 449.875 52.952C448.851 55 447.443 56.824 445.651 58.424C443.923 60.024 441.939 61.208 439.699 61.976C437.971 62.616 436.179 62.936 434.323 62.936C430.803 62.936 427.859 61.784 425.491 59.48C423.123 57.112 421.939 53.976 421.939 50.072C421.939 49.112 422.035 48.12 422.227 47.096C422.931 42.616 424.659 38.68 427.411 35.288C430.163 31.832 433.555 28.856 437.587 26.36C441.619 23.8 445.907 21.656 450.451 19.928C454.995 18.2 459.475 16.824 463.891 15.8C468.371 14.712 472.371 13.944 475.891 13.496C476.211 13.048 476.787 12.28 477.619 11.192C478.451 10.104 479.411 9.016 480.499 7.92799C481.587 6.84 482.675 6.136 483.763 5.816C484.467 5.624 485.139 5.528 485.779 5.528C486.739 5.528 487.539 5.784 488.179 6.296C488.819 6.744 489.139 7.448 489.139 8.408C489.139 10.392 488.275 11.832 486.547 12.728C484.883 13.624 483.123 14.36 481.267 14.936C480.691 14.936 479.955 15.064 479.059 15.32C478.163 15.576 477.523 15.704 477.139 15.704C474.003 21.08 471.347 26.616 469.171 32.312C467.059 38.008 464.979 43.928 462.931 50.072C460.883 56.152 458.483 62.424 455.731 68.888C452.979 75.288 449.395 81.912 444.979 88.76C442.163 93.176 438.867 97.112 435.091 100.568C431.315 104.024 427.347 106.968 423.187 109.4C419.091 111.896 415.091 113.88 411.187 115.352C407.283 116.824 403.731 117.784 400.531 118.232C398.931 118.488 397.363 118.648 395.827 118.712C394.291 118.84 392.787 118.904 391.315 118.904ZM478.867 13.304C481.491 12.856 483.251 12.312 484.147 11.672C485.043 10.968 485.491 10.328 485.491 9.752C485.491 9.432 485.363 9.176 485.107 8.984C484.915 8.728 484.723 8.6 484.531 8.6C484.147 8.408 483.603 8.59999 482.899 9.17599C482.259 9.752 481.555 10.456 480.787 11.288C480.083 12.056 479.443 12.728 478.867 13.304ZM485.94 83.288C485.236 83.352 484.436 83.192 483.54 82.808C482.644 82.424 481.844 81.72 481.14 80.696C480.5 79.672 480.18 78.232 480.18 76.376C480.18 74.84 480.468 72.984 481.044 70.808C480.276 72.024 479.284 73.528 478.068 75.32C476.852 77.048 475.54 78.584 474.132 79.928C472.916 81.08 471.764 81.912 470.676 82.424C469.588 82.936 468.596 83.192 467.7 83.192C466.036 83.192 464.692 82.456 463.668 80.984C462.644 79.448 462.132 77.464 462.132 75.032C462.132 72.472 462.772 69.56 464.052 66.296C465.332 63.032 467.412 59.64 470.292 56.12C472.148 53.88 474.388 52.088 477.012 50.744C479.7 49.336 482.324 48.632 484.884 48.632C486.356 48.632 487.764 48.888 489.108 49.4C490.452 49.848 491.636 50.616 492.66 51.704C493.108 52.152 493.332 52.664 493.332 53.24C493.332 53.624 493.172 53.944 492.852 54.2C492.532 54.456 492.116 54.52 491.604 54.392C490.9 52.152 489.396 51.032 487.092 51.032C486.004 51.032 484.756 51.384 483.348 52.088C481.172 53.24 478.9 55.128 476.532 57.752C474.228 60.376 472.212 63.096 470.484 65.912C470.228 66.296 469.812 67.032 469.236 68.12C468.724 69.208 468.212 70.424 467.7 71.768C467.188 73.112 466.836 74.424 466.644 75.704C466.58 76.088 466.548 76.376 466.548 76.568C466.548 76.696 466.548 76.92 466.548 77.24C466.548 79.352 467.348 80.408 468.948 80.408C470.868 80.408 473.044 79 475.476 76.184C477.14 74.136 478.644 71.992 479.988 69.752C481.332 67.512 482.708 65.112 484.116 62.552C485.076 60.824 485.972 59.384 486.804 58.232C487.636 57.08 488.82 56.504 490.356 56.504C491.06 56.504 491.764 56.6 492.468 56.792C493.172 56.984 493.908 57.016 494.676 56.888C494.164 57.4 493.46 58.36 492.564 59.768C491.732 61.176 490.836 62.776 489.876 64.568C488.916 66.36 488.052 68.184 487.284 70.04C486.516 71.896 485.972 73.496 485.652 74.84C485.588 75.224 485.492 75.768 485.364 76.472C485.3 77.176 485.268 77.688 485.268 78.008C485.268 79.8 485.78 80.696 486.804 80.696C487.828 80.696 488.916 80.088 490.068 78.872C491.284 77.656 492.468 76.152 493.62 74.36C494.772 72.568 495.828 70.776 496.788 68.984C497.748 67.128 498.516 65.624 499.092 64.472C499.348 63.832 499.732 63.512 500.244 63.512C500.564 63.512 500.724 63.736 500.724 64.184C500.724 64.376 500.628 64.728 500.436 65.24C499.668 66.84 498.74 68.664 497.652 70.712C496.564 72.696 495.38 74.648 494.1 76.568C492.82 78.424 491.476 79.992 490.068 81.272C488.724 82.488 487.348 83.16 485.94 83.288ZM502.026 83C501.322 83 500.458 82.84 499.434 82.52C498.474 82.2 497.61 81.624 496.842 80.792C496.138 79.896 495.786 78.584 495.786 76.856C495.786 75.192 496.17 73.592 496.938 72.056C497.77 70.456 498.538 68.92 499.242 67.448C499.05 67.448 498.826 67.384 498.57 67.256C498.378 67.128 498.282 66.936 498.282 66.68C498.282 66.424 498.346 66.168 498.474 65.912C498.73 65.4 499.018 64.856 499.338 64.28C499.658 63.704 499.946 63.096 500.202 62.456C501.162 60.472 502.122 58.584 503.082 56.792C504.042 54.936 504.874 53.304 505.578 51.896C506.282 50.488 507.498 49.784 509.226 49.784H515.178C514.09 50.616 513.098 51.544 512.202 52.568C511.37 53.528 510.314 55.32 509.034 57.944C509.034 57.944 508.81 58.392 508.362 59.288C507.914 60.184 507.338 61.336 506.634 62.744C505.994 64.088 505.322 65.464 504.618 66.872C503.978 68.28 503.434 69.464 502.986 70.424C502.154 72.216 501.61 73.656 501.354 74.744C501.098 75.768 500.97 76.728 500.97 77.624C500.97 79.736 501.674 80.792 503.082 80.792C504.618 80.792 506.474 79.544 508.65 77.048C510.442 74.936 512.202 72.408 513.93 69.464C515.658 66.52 517.29 63.48 518.826 60.344C520.426 57.208 521.834 54.392 523.05 51.896C523.754 50.488 525.002 49.784 526.794 49.784H532.074C531.114 50.552 530.314 51.288 529.674 51.992C529.034 52.632 528.394 53.528 527.754 54.68C527.178 55.768 526.378 57.336 525.354 59.384C524.522 61.112 523.626 62.968 522.666 64.952C521.77 66.872 520.97 68.696 520.266 70.424C519.562 72.152 519.114 73.56 518.922 74.648C518.858 75.288 518.794 75.768 518.73 76.088C518.666 76.408 518.634 76.76 518.634 77.144C518.634 78.36 518.826 79.224 519.21 79.736C519.658 80.248 520.17 80.504 520.746 80.504C522.282 80.504 523.818 79.64 525.354 77.912C526.954 76.184 528.458 74.072 529.866 71.576C531.338 69.08 532.586 66.712 533.61 64.472C533.994 63.768 534.346 63.416 534.666 63.416C535.05 63.416 535.242 63.64 535.242 64.088C535.242 64.408 535.114 64.792 534.858 65.24C534.154 66.776 533.29 68.536 532.266 70.52C531.242 72.504 530.09 74.456 528.81 76.376C527.53 78.296 526.122 79.896 524.586 81.176C523.05 82.392 521.386 83 519.594 83C517.994 83 516.682 82.424 515.658 81.272C514.634 80.056 514.122 78.36 514.122 76.184C514.122 74.456 514.442 72.6 515.082 70.616C513.994 72.536 512.746 74.456 511.338 76.376C509.93 78.296 508.426 79.896 506.826 81.176C505.226 82.392 503.626 83 502.026 83ZM524.238 83.768C526.926 78.264 529.71 72.504 532.59 66.488C535.534 60.408 538.542 54.296 541.614 48.152C544.686 42.008 547.726 36.152 550.734 30.584C551.822 28.664 552.814 27.16 553.71 26.072C554.67 24.984 555.918 24.44 557.454 24.44C558.03 24.44 558.702 24.536 559.47 24.728C560.238 24.92 560.974 24.952 561.678 24.824C560.846 25.72 559.694 27.288 558.222 29.528C556.814 31.768 555.214 34.456 553.422 37.592C551.694 40.728 549.838 44.12 547.854 47.768C545.934 51.352 544.014 55 542.094 58.712C540.238 62.36 538.51 65.784 536.91 68.984C538.19 67.32 539.502 65.752 540.846 64.28C542.19 62.808 543.502 61.528 544.782 60.44C546.19 59.16 547.95 57.816 550.062 56.408C552.238 55 554.382 53.784 556.494 52.76C558.67 51.736 560.398 51.224 561.678 51.224C562.126 51.224 562.446 51.256 562.638 51.32C562.638 51.32 562.286 51.96 561.582 53.24C560.878 54.52 559.982 56.152 558.894 58.136C557.87 60.12 556.782 62.264 555.63 64.568C554.542 66.872 553.582 69.08 552.75 71.192C551.918 73.24 551.374 74.936 551.118 76.28C550.926 77.304 550.83 78.168 550.83 78.872C550.83 79.896 551.022 80.6 551.406 80.984C551.79 81.304 552.206 81.464 552.654 81.464C553.742 81.464 554.926 80.792 556.206 79.448C557.486 78.104 558.734 76.472 559.95 74.552C561.166 72.568 562.254 70.648 563.214 68.792C564.238 66.936 565.006 65.496 565.518 64.472C565.902 63.768 566.286 63.416 566.67 63.416C567.054 63.416 567.246 63.672 567.246 64.184C567.246 64.44 567.15 64.824 566.958 65.336C566.126 67 565.166 68.888 564.078 71C563.054 73.048 561.87 75.032 560.526 76.952C559.246 78.808 557.806 80.344 556.206 81.56C554.67 82.776 553.006 83.384 551.214 83.384C549.934 83.384 548.622 82.936 547.278 82.04C545.934 81.144 545.262 79.512 545.262 77.144C545.262 76.44 545.326 75.704 545.454 74.936C545.582 74.104 545.806 73.176 546.126 72.152C546.51 70.872 547.15 69.464 548.046 67.928C548.942 66.328 550.094 64.344 551.502 61.976C552.142 60.888 552.462 60.024 552.462 59.384C552.462 58.616 552.078 58.232 551.31 58.232C550.67 58.232 549.806 58.552 548.718 59.192C547.63 59.832 546.254 60.952 544.59 62.552C542.99 64.088 541.006 66.328 538.638 69.272C536.27 72.216 533.742 76.344 531.054 81.656C530.606 82.488 530.094 82.936 529.518 83C529.006 83 528.302 83.032 527.406 83.096C526.83 83.16 526.254 83.192 525.678 83.192C525.102 83.256 524.622 83.448 524.238 83.768ZM662.742 111.992C662.166 111.992 662.038 111.544 662.358 110.648C662.742 109.816 663.094 109.048 663.414 108.344C663.99 107.192 664.278 105.4 664.278 102.968C664.278 100.856 663.894 98.584 663.126 96.152C662.358 93.72 660.854 91.512 658.614 89.528C655.542 86.712 652.086 84.472 648.246 82.808C644.406 81.144 640.374 79.8 636.15 78.776C631.99 77.752 627.862 76.856 623.766 76.088C621.27 79.544 618.582 82.648 615.702 85.4C612.886 88.152 609.878 90.264 606.678 91.736C604.886 92.568 603.158 93.176 601.494 93.56C599.83 94.008 598.262 94.232 596.79 94.232C593.206 94.232 590.262 93.272 587.958 91.352C585.718 89.496 584.598 87.288 584.598 84.728C584.598 82.296 585.686 79.928 587.862 77.624C590.102 75.256 593.782 73.304 598.902 71.768C600.95 71.192 603.222 70.776 605.718 70.52C608.214 70.2 610.806 70.04 613.494 70.04C615.158 70.04 616.79 70.104 618.39 70.232C620.054 70.296 621.59 70.488 622.998 70.808C624.854 67.992 626.582 65.08 628.182 62.072C629.782 59 631.446 55.672 633.174 52.088C628.118 52.216 623.734 51.48 620.022 49.88C616.31 48.216 613.43 46.008 611.382 43.256C609.398 40.504 608.406 37.56 608.406 34.424C608.406 31.864 609.142 29.368 610.614 26.936C612.086 24.44 614.39 22.2 617.526 20.216C620.726 18.168 624.79 16.568 629.718 15.416C630.038 15.288 630.326 15.224 630.582 15.224C630.902 15.224 631.19 15.224 631.446 15.224C632.406 15.224 632.886 15.416 632.886 15.8C632.886 16.44 631.862 16.888 629.814 17.144C626.486 17.528 623.542 18.712 620.982 20.696C618.486 22.68 616.534 25.048 615.126 27.8C613.782 30.552 613.11 33.336 613.11 36.152C613.11 38.584 613.686 40.856 614.838 42.968C615.99 45.08 617.814 46.808 620.31 48.152C622.806 49.432 626.038 50.072 630.006 50.072C631.414 50.072 632.918 49.976 634.518 49.784C634.774 49.272 635.19 48.248 635.766 46.712C636.406 45.112 637.11 43.32 637.878 41.336C638.646 39.352 639.382 37.432 640.086 35.576C640.854 33.72 641.462 32.184 641.91 30.968C642.422 29.688 642.678 29.048 642.678 29.048C645.622 21.688 648.63 15.928 651.702 11.768C654.838 7.544 657.846 4.568 660.726 2.84C663.67 1.112 666.294 0.247995 668.598 0.247995C671.094 0.247995 673.142 0.983995 674.742 2.456C676.406 3.928 677.302 5.592 677.43 7.44799C677.494 8.02399 677.526 8.43999 677.526 8.696C677.526 8.952 677.526 9.272 677.526 9.65599C677.526 13.432 676.758 17.208 675.222 20.984C673.75 24.76 671.67 28.344 668.982 31.736C666.358 35.128 663.318 38.2 659.862 40.952C656.47 43.704 652.822 46.008 648.918 47.864C645.078 49.72 641.174 51 637.206 51.704C636.246 53.624 635.382 55.352 634.614 56.888C633.91 58.36 633.11 59.96 632.214 61.688C631.318 63.416 630.134 65.624 628.662 68.312C628.214 69.144 627.862 69.752 627.606 70.136C627.414 70.456 627.094 70.968 626.646 71.672C629.846 72.44 633.334 73.528 637.11 74.936C640.886 76.28 644.598 77.912 648.246 79.832C651.958 81.688 655.254 83.736 658.134 85.976C661.718 88.728 664.246 91.832 665.718 95.288C667.254 98.744 668.022 101.784 668.022 104.408C668.022 106.264 667.734 107.672 667.158 108.632C666.326 110.04 665.494 110.936 664.662 111.32C663.83 111.768 663.19 111.992 662.742 111.992ZM638.55 49.112C642.902 48.152 647.158 46.424 651.318 43.928C655.478 41.368 659.222 38.296 662.55 34.712C665.878 31.064 668.534 27.128 670.518 22.904C672.502 18.616 673.494 14.264 673.494 9.848C673.494 8.76 673.206 7.864 672.63 7.16C672.054 6.456 671.222 6.10399 670.134 6.10399C668.662 6.10399 666.774 6.936 664.47 8.6C662.166 10.2 659.542 12.92 656.598 16.76C653.654 20.536 650.486 25.752 647.094 32.408C647.094 32.408 646.646 33.24 645.75 34.904C644.918 36.568 643.83 38.68 642.486 41.24C641.206 43.736 639.894 46.36 638.55 49.112ZM595.446 91.448C596.854 91.448 598.358 91.256 599.958 90.872C601.622 90.488 603.35 89.88 605.142 89.048C610.518 86.424 615.478 81.88 620.022 75.416C618.55 75.096 617.014 74.872 615.414 74.744C613.814 74.552 612.182 74.456 610.518 74.456C608.79 74.456 606.998 74.552 605.142 74.744C603.35 74.936 601.59 75.288 599.862 75.8C595.574 76.952 592.278 78.424 589.974 80.216C587.734 82.008 586.614 83.832 586.614 85.688C586.614 87.288 587.414 88.632 589.014 89.72C590.614 90.872 592.758 91.448 595.446 91.448ZM665.989 83.384C663.621 83.384 661.477 82.616 659.557 81.08C657.701 79.544 656.773 77.208 656.773 74.072C656.773 71.192 657.477 68.12 658.885 64.856C660.293 61.528 662.085 58.616 664.261 56.12C666.117 53.944 668.197 52.152 670.501 50.744C672.805 49.336 674.981 48.632 677.029 48.632C678.437 48.632 679.653 49.016 680.677 49.784C681.765 50.616 682.309 51.8 682.309 53.336C682.309 54.936 681.701 56.696 680.485 58.616C679.269 60.536 677.541 62.328 675.301 63.992C674.341 64.696 673.125 65.368 671.653 66.008C670.181 66.648 668.709 67.192 667.237 67.64C665.765 68.024 664.549 68.216 663.589 68.216C663.269 68.984 662.949 70.008 662.629 71.288C662.373 72.568 662.245 73.88 662.245 75.224C662.245 76.824 662.565 78.264 663.205 79.544C663.845 80.824 665.029 81.464 666.757 81.464C668.869 81.464 670.789 80.856 672.517 79.64C674.245 78.424 675.781 76.92 677.125 75.128C678.469 73.272 679.589 71.416 680.485 69.56C681.445 67.704 682.213 66.136 682.789 64.856C683.173 63.96 683.685 63.512 684.325 63.512C684.645 63.512 684.805 63.672 684.805 63.992C684.805 64.248 684.709 64.568 684.517 64.952C683.621 66.872 682.661 68.92 681.637 71.096C680.613 73.208 679.397 75.224 677.989 77.144C676.581 79 674.885 80.504 672.901 81.656C670.981 82.808 668.677 83.384 665.989 83.384ZM664.261 66.488C665.157 66.488 666.661 66.168 668.773 65.528C670.885 64.824 672.805 63.736 674.533 62.264C676.197 60.792 677.477 59.192 678.373 57.464C679.269 55.672 679.717 54.168 679.717 52.952C679.717 51.544 679.205 50.84 678.181 50.84C677.413 50.84 676.357 51.352 675.013 52.376C673.669 53.4 672.005 55.128 670.021 57.56C668.805 59.096 667.653 60.76 666.565 62.552C665.477 64.344 664.709 65.656 664.261 66.488ZM689.897 83.096C687.145 83.096 685.097 82.392 683.753 80.984C682.409 79.576 681.737 77.816 681.737 75.704C681.737 74.68 681.865 73.688 682.121 72.728C682.505 71.256 683.049 69.624 683.753 67.832C684.521 65.976 685.385 64.088 686.345 62.168C684.105 66.52 682.057 70.2 680.201 73.208C678.409 76.152 677.033 78.072 676.073 78.968C675.881 79.16 675.689 79.256 675.497 79.256C675.177 79.256 675.017 79.096 675.017 78.776C675.017 78.52 675.113 78.264 675.305 78.008C676.649 76.216 678.185 73.752 679.913 70.616C681.705 67.48 683.593 63.992 685.577 60.152C687.561 56.248 689.577 52.312 691.625 48.344C693.673 44.376 695.657 40.632 697.577 37.112C699.561 33.592 701.353 30.616 702.953 28.184C704.105 26.456 705.193 25.24 706.217 24.536C707.241 23.768 708.297 23.384 709.385 23.384H709.865C710.441 23.384 711.081 23.48 711.785 23.672C712.553 23.864 713.257 23.896 713.897 23.768C713.065 24.664 711.785 26.264 710.057 28.568C708.393 30.808 706.505 33.464 704.393 36.536C702.345 39.544 700.265 42.744 698.153 46.136C696.105 49.464 694.281 52.728 692.681 55.928C691.145 59 689.769 62.296 688.553 65.816C687.401 69.272 686.825 72.312 686.825 74.936C686.825 76.472 687.081 77.752 687.593 78.776C688.105 79.8 688.969 80.44 690.185 80.696C692.233 81.144 694.985 79.32 698.441 75.224C699.785 73.624 701.129 71.736 702.473 69.56C703.817 67.32 704.873 65.24 705.641 63.32C706.729 60.76 707.273 58.424 707.273 56.312C707.273 54.712 706.857 53.432 706.025 52.472C705.257 51.512 703.945 51.128 702.089 51.32H701.705C700.553 51.32 699.977 51 699.977 50.36C699.977 50.104 700.137 49.848 700.457 49.592C700.841 49.336 701.353 49.208 701.993 49.208C702.185 49.208 702.377 49.24 702.569 49.304C702.825 49.304 703.081 49.336 703.337 49.4C706.217 49.848 708.265 51.032 709.481 52.952C710.761 54.808 711.401 56.952 711.401 59.384C711.401 59.896 711.369 60.472 711.305 61.112C711.241 61.688 711.145 62.328 711.017 63.032C710.505 65.656 709.513 68.344 708.041 71.096C706.569 73.784 704.745 76.152 702.569 78.2C700.457 80.248 698.089 81.624 695.465 82.328C694.377 82.584 693.353 82.776 692.393 82.904C691.497 83.032 690.665 83.096 689.897 83.096ZM727.019 44.024C726.059 44.024 725.259 43.704 724.619 43.064C724.043 42.36 723.755 41.528 723.755 40.568C723.755 39.352 724.235 38.296 725.195 37.4C726.155 36.504 727.211 36.056 728.363 36.056C729.387 36.056 730.219 36.376 730.859 37.016C731.499 37.656 731.819 38.424 731.819 39.32C731.819 40.536 731.339 41.624 730.379 42.584C729.419 43.544 728.299 44.024 727.019 44.024ZM719.243 83C716.875 83 715.211 82.328 714.251 80.984C713.291 79.576 712.811 77.976 712.811 76.184C712.811 75.224 712.907 74.264 713.099 73.304C713.355 72.28 713.643 71.352 713.963 70.52L720.395 54.104C720.587 53.592 720.683 53.144 720.683 52.76C720.683 52.12 720.523 51.576 720.203 51.128C719.883 50.616 719.659 50.264 719.531 50.072L724.811 49.88C725.771 49.816 726.443 49.944 726.827 50.264C727.275 50.52 727.499 50.84 727.499 51.224C727.499 51.608 727.275 52.312 726.827 53.336L718.859 72.056C718.859 72.056 718.667 72.472 718.283 73.304C717.963 74.072 717.771 74.584 717.707 74.84C717.515 75.8 717.387 76.408 717.323 76.664C717.259 76.92 717.227 77.08 717.227 77.144C717.227 77.208 717.227 77.464 717.227 77.912C717.227 78.744 717.419 79.448 717.803 80.024C718.251 80.6 718.987 80.888 720.011 80.888C720.651 80.888 721.387 80.696 722.219 80.312C723.051 79.928 723.659 79.544 724.043 79.16C725.643 77.496 727.211 75.32 728.747 72.632C730.347 69.88 731.819 67.16 733.163 64.472C733.419 63.832 733.739 63.512 734.123 63.512C734.443 63.512 734.603 63.736 734.603 64.184C734.603 64.44 734.507 64.824 734.315 65.336C733.675 66.68 732.875 68.344 731.915 70.328C730.955 72.312 729.803 74.296 728.459 76.28C727.179 78.2 725.771 79.8 724.235 81.08C722.699 82.36 721.035 83 719.243 83ZM723.926 83.768C726.614 78.264 729.398 72.504 732.278 66.488C735.222 60.408 738.23 54.296 741.302 48.152C744.374 42.008 747.414 36.152 750.422 30.584C751.51 28.664 752.502 27.16 753.398 26.072C754.358 24.984 755.606 24.44 757.142 24.44C757.718 24.44 758.39 24.536 759.158 24.728C759.926 24.92 760.662 24.952 761.366 24.824C760.534 25.72 759.382 27.288 757.91 29.528C756.502 31.768 754.902 34.456 753.11 37.592C751.382 40.728 749.526 44.12 747.542 47.768C745.622 51.352 743.702 55 741.782 58.712C739.926 62.36 738.198 65.784 736.598 68.984C737.878 67.32 739.19 65.752 740.534 64.28C741.878 62.808 743.19 61.528 744.47 60.44C745.878 59.16 747.638 57.816 749.75 56.408C751.926 55 754.07 53.784 756.182 52.76C758.358 51.736 760.086 51.224 761.366 51.224C761.814 51.224 762.134 51.256 762.326 51.32C762.326 51.32 761.974 51.96 761.27 53.24C760.566 54.52 759.67 56.152 758.582 58.136C757.558 60.12 756.47 62.264 755.318 64.568C754.23 66.872 753.27 69.08 752.438 71.192C751.606 73.24 751.062 74.936 750.806 76.28C750.614 77.304 750.518 78.168 750.518 78.872C750.518 79.896 750.71 80.6 751.094 80.984C751.478 81.304 751.894 81.464 752.342 81.464C753.43 81.464 754.614 80.792 755.894 79.448C757.174 78.104 758.422 76.472 759.638 74.552C760.854 72.568 761.942 70.648 762.902 68.792C763.926 66.936 764.694 65.496 765.206 64.472C765.59 63.768 765.974 63.416 766.358 63.416C766.742 63.416 766.934 63.672 766.934 64.184C766.934 64.44 766.838 64.824 766.646 65.336C765.814 67 764.854 68.888 763.766 71C762.742 73.048 761.558 75.032 760.214 76.952C758.934 78.808 757.494 80.344 755.894 81.56C754.358 82.776 752.694 83.384 750.902 83.384C749.622 83.384 748.31 82.936 746.966 82.04C745.622 81.144 744.95 79.512 744.95 77.144C744.95 76.44 745.014 75.704 745.142 74.936C745.27 74.104 745.494 73.176 745.814 72.152C746.198 70.872 746.838 69.464 747.734 67.928C748.63 66.328 749.782 64.344 751.19 61.976C751.83 60.888 752.15 60.024 752.15 59.384C752.15 58.616 751.766 58.232 750.998 58.232C750.358 58.232 749.494 58.552 748.406 59.192C747.318 59.832 745.942 60.952 744.278 62.552C742.678 64.088 740.694 66.328 738.326 69.272C735.958 72.216 733.43 76.344 730.742 81.656C730.294 82.488 729.782 82.936 729.206 83C728.694 83 727.99 83.032 727.094 83.096C726.518 83.16 725.942 83.192 725.366 83.192C724.79 83.256 724.31 83.448 723.926 83.768ZM801.854 86.744C800.446 86.744 799.006 86.648 797.534 86.456C793.502 85.944 790.526 84.76 788.606 82.904C786.75 81.048 785.822 79.032 785.822 76.856C785.822 74.488 786.878 72.344 788.99 70.424C791.102 68.44 794.078 67.448 797.918 67.448C800.478 67.448 803.262 67.96 806.27 68.984C807.934 69.56 809.918 70.52 812.222 71.864C814.526 73.208 817.182 74.616 820.19 76.088C823.39 73.016 826.302 69.208 828.926 64.664C831.614 60.12 834.27 55.256 836.894 50.072C839.582 44.824 842.462 39.576 845.534 34.328C848.67 29.08 852.286 24.152 856.382 19.544L861.95 13.304C859.582 12.92 857.118 12.632 854.558 12.44C851.998 12.184 849.342 12.056 846.59 12.056C843.134 12.056 839.582 12.248 835.934 12.632C832.286 12.952 828.638 13.496 824.99 14.264C818.974 15.544 813.886 17.592 809.726 20.408C805.566 23.224 802.398 26.296 800.222 29.624C798.11 32.888 797.054 35.96 797.054 38.84C797.054 40.824 797.598 42.616 798.686 44.216C799.838 45.752 801.534 46.872 803.774 47.576C805.182 48.024 806.622 48.248 808.094 48.248C810.27 48.248 812.19 47.8 813.854 46.904C815.518 46.008 816.926 44.92 818.078 43.64C819.23 42.296 820.062 41.016 820.574 39.8C821.15 38.584 821.406 37.688 821.342 37.112C821.342 36.664 821.662 36.44 822.302 36.44C822.942 36.44 823.262 36.92 823.262 37.88V37.976C823.262 40.6 822.462 42.872 820.862 44.792C819.262 46.712 817.246 48.184 814.814 49.208C812.446 50.232 810.046 50.744 807.614 50.744C806.078 50.744 804.478 50.488 802.814 49.976C799.358 48.76 796.798 47 795.134 44.696C793.47 42.328 792.638 39.736 792.638 36.92C792.638 34.296 793.342 31.608 794.75 28.856C796.222 26.04 798.366 23.384 801.182 20.888C803.998 18.328 807.486 16.12 811.646 14.264C815.87 12.408 820.734 11.096 826.238 10.328C829.182 9.88 832.094 9.56 834.974 9.368C837.854 9.176 840.638 9.08 843.326 9.08C847.038 9.08 850.654 9.272 854.174 9.65599C857.758 9.97599 861.118 10.488 864.254 11.192C865.15 10.424 866.046 9.752 866.942 9.17599C867.902 8.59999 868.766 8.15199 869.534 7.832C869.982 7.64 870.366 7.512 870.686 7.44799C871.006 7.384 871.262 7.352 871.454 7.352C871.838 7.352 872.03 7.48 872.03 7.736C872.03 8.056 871.55 8.568 870.59 9.272C869.95 9.72 869.342 10.232 868.766 10.808C868.19 11.32 867.838 11.704 867.71 11.96C874.238 13.624 879.518 15.928 883.55 18.872C887.646 21.752 889.694 25.176 889.694 29.144C889.694 31.192 889.022 33.432 887.678 35.864C886.27 38.232 884.318 40.152 881.822 41.624C879.326 43.032 876.67 44.088 873.854 44.792C871.038 45.432 868.414 45.816 865.982 45.944C868.094 46.584 870.398 47.544 872.894 48.824C875.454 50.04 877.79 51.544 879.902 53.336C882.078 55.128 883.518 57.24 884.222 59.672C884.67 61.208 884.894 62.776 884.894 64.376C884.894 67.768 883.902 70.84 881.918 73.592C879.998 76.344 877.406 78.712 874.142 80.696C870.942 82.616 867.422 84.088 863.582 85.112C859.742 86.2 855.934 86.744 852.158 86.744C850.75 86.744 849.31 86.648 847.838 86.456C841.694 85.688 836.606 84.728 832.574 83.576C828.606 82.424 825.118 81.144 822.11 79.736C815.902 84.408 809.15 86.744 801.854 86.744ZM850.814 83.96C854.782 83.96 858.398 83.352 861.662 82.136C864.926 80.92 867.742 79.32 870.11 77.336C872.542 75.352 874.398 73.144 875.678 70.712C877.022 68.28 877.694 65.88 877.694 63.512C877.694 61.272 877.022 59.096 875.678 56.984C874.334 54.872 872.222 53.112 869.342 51.704C866.846 50.488 864.254 49.496 861.566 48.728C858.942 47.896 856.67 47.192 854.75 46.616C852.83 45.976 851.71 45.336 851.39 44.696C851.39 43.928 851.71 43.416 852.35 43.16C853.054 42.84 853.95 42.68 855.038 42.68C856.318 42.68 857.854 42.776 859.646 42.968C861.438 43.16 863.326 43.256 865.31 43.256C867.358 43.256 869.438 42.808 871.55 41.912C873.726 40.952 875.71 39.704 877.502 38.168C879.294 36.568 880.734 34.84 881.822 32.984C882.974 31.064 883.55 29.112 883.55 27.128C883.55 25.336 882.942 23.576 881.726 21.848C880.51 20.12 878.494 18.616 875.678 17.336C872.862 16.056 869.822 15.032 866.558 14.264C863.358 18.68 860.158 23.64 856.958 29.144C853.758 34.584 850.558 40.12 847.358 45.752C844.158 51.32 840.926 56.6 837.662 61.592C834.398 66.584 831.134 70.872 827.87 74.456C827.102 75.288 826.494 75.928 826.046 76.376C825.598 76.76 824.99 77.304 824.222 78.008C827.23 79.224 830.654 80.376 834.494 81.464C838.334 82.552 842.718 83.32 847.646 83.768C848.158 83.832 848.67 83.864 849.182 83.864C849.758 83.928 850.302 83.96 850.814 83.96ZM799.934 83.768C803.518 83.96 806.782 83.544 809.726 82.52C812.734 81.432 815.518 79.928 818.078 78.008C815.838 76.92 813.534 75.8 811.166 74.648C808.862 73.432 806.398 72.344 803.774 71.384C801.918 70.744 800.222 70.424 798.686 70.424C796.318 70.424 794.526 71.064 793.31 72.344C792.094 73.56 791.486 74.968 791.486 76.568C791.486 78.232 792.19 79.832 793.598 81.368C795.006 82.84 797.118 83.64 799.934 83.768ZM911.378 83.288C910.674 83.352 909.874 83.192 908.978 82.808C908.082 82.424 907.282 81.72 906.578 80.696C905.938 79.672 905.618 78.232 905.618 76.376C905.618 74.84 905.906 72.984 906.482 70.808C905.714 72.024 904.722 73.528 903.506 75.32C902.29 77.048 900.978 78.584 899.57 79.928C898.354 81.08 897.202 81.912 896.114 82.424C895.026 82.936 894.034 83.192 893.138 83.192C891.474 83.192 890.13 82.456 889.106 80.984C888.082 79.448 887.57 77.464 887.57 75.032C887.57 72.472 888.21 69.56 889.49 66.296C890.77 63.032 892.85 59.64 895.73 56.12C897.586 53.88 899.826 52.088 902.45 50.744C905.138 49.336 907.762 48.632 910.322 48.632C911.794 48.632 913.202 48.888 914.546 49.4C915.89 49.848 917.074 50.616 918.098 51.704C918.546 52.152 918.77 52.664 918.77 53.24C918.77 53.624 918.61 53.944 918.29 54.2C917.97 54.456 917.554 54.52 917.042 54.392C916.338 52.152 914.834 51.032 912.53 51.032C911.442 51.032 910.194 51.384 908.786 52.088C906.61 53.24 904.338 55.128 901.97 57.752C899.666 60.376 897.65 63.096 895.922 65.912C895.666 66.296 895.25 67.032 894.674 68.12C894.162 69.208 893.65 70.424 893.138 71.768C892.626 73.112 892.274 74.424 892.082 75.704C892.018 76.088 891.986 76.376 891.986 76.568C891.986 76.696 891.986 76.92 891.986 77.24C891.986 79.352 892.786 80.408 894.386 80.408C896.306 80.408 898.482 79 900.914 76.184C902.578 74.136 904.082 71.992 905.426 69.752C906.77 67.512 908.146 65.112 909.554 62.552C910.514 60.824 911.41 59.384 912.242 58.232C913.074 57.08 914.258 56.504 915.794 56.504C916.498 56.504 917.202 56.6 917.906 56.792C918.61 56.984 919.346 57.016 920.114 56.888C919.602 57.4 918.898 58.36 918.002 59.768C917.17 61.176 916.274 62.776 915.314 64.568C914.354 66.36 913.49 68.184 912.722 70.04C911.954 71.896 911.41 73.496 911.09 74.84C911.026 75.224 910.93 75.768 910.802 76.472C910.738 77.176 910.706 77.688 910.706 78.008C910.706 79.8 911.218 80.696 912.242 80.696C913.266 80.696 914.354 80.088 915.506 78.872C916.722 77.656 917.906 76.152 919.058 74.36C920.21 72.568 921.266 70.776 922.226 68.984C923.186 67.128 923.954 65.624 924.53 64.472C924.786 63.832 925.17 63.512 925.682 63.512C926.002 63.512 926.162 63.736 926.162 64.184C926.162 64.376 926.066 64.728 925.874 65.24C925.106 66.84 924.178 68.664 923.09 70.712C922.002 72.696 920.818 74.648 919.538 76.568C918.258 78.424 916.914 79.992 915.506 81.272C914.162 82.488 912.786 83.16 911.378 83.288ZM935.144 44.024C934.184 44.024 933.384 43.704 932.744 43.064C932.168 42.36 931.88 41.528 931.88 40.568C931.88 39.352 932.36 38.296 933.32 37.4C934.28 36.504 935.336 36.056 936.488 36.056C937.512 36.056 938.344 36.376 938.984 37.016C939.624 37.656 939.944 38.424 939.944 39.32C939.944 40.536 939.464 41.624 938.504 42.584C937.544 43.544 936.424 44.024 935.144 44.024ZM927.368 83C925 83 923.336 82.328 922.376 80.984C921.416 79.576 920.936 77.976 920.936 76.184C920.936 75.224 921.032 74.264 921.224 73.304C921.48 72.28 921.768 71.352 922.088 70.52L928.52 54.104C928.712 53.592 928.808 53.144 928.808 52.76C928.808 52.12 928.648 51.576 928.328 51.128C928.008 50.616 927.784 50.264 927.656 50.072L932.936 49.88C933.896 49.816 934.568 49.944 934.952 50.264C935.4 50.52 935.624 50.84 935.624 51.224C935.624 51.608 935.4 52.312 934.952 53.336L926.984 72.056C926.984 72.056 926.792 72.472 926.408 73.304C926.088 74.072 925.896 74.584 925.832 74.84C925.64 75.8 925.512 76.408 925.448 76.664C925.384 76.92 925.352 77.08 925.352 77.144C925.352 77.208 925.352 77.464 925.352 77.912C925.352 78.744 925.544 79.448 925.928 80.024C926.376 80.6 927.112 80.888 928.136 80.888C928.776 80.888 929.512 80.696 930.344 80.312C931.176 79.928 931.784 79.544 932.168 79.16C933.768 77.496 935.336 75.32 936.872 72.632C938.472 69.88 939.944 67.16 941.288 64.472C941.544 63.832 941.864 63.512 942.248 63.512C942.568 63.512 942.728 63.736 942.728 64.184C942.728 64.44 942.632 64.824 942.44 65.336C941.8 66.68 941 68.344 940.04 70.328C939.08 72.312 937.928 74.296 936.584 76.28C935.304 78.2 933.896 79.8 932.36 81.08C930.824 82.36 929.16 83 927.368 83ZM958.643 83.672C956.915 83.48 955.347 82.68 953.939 81.272C952.595 79.8 951.667 77.848 951.155 75.416C951.091 74.968 951.027 74.584 950.963 74.264C950.963 73.88 950.963 73.464 950.963 73.016C950.963 70.456 951.539 68.408 952.691 66.872C953.843 65.272 954.899 64.44 955.859 64.376C956.883 64.44 958.131 64.216 959.603 63.704C961.075 63.128 962.355 62.36 963.443 61.4C965.299 59.928 966.227 58.424 966.227 56.888C966.227 55.288 965.299 54.488 963.443 54.488C962.419 54.488 961.107 54.84 959.507 55.544C957.971 56.248 956.179 57.464 954.131 59.192C951.571 61.368 948.915 64.28 946.163 67.928C945.779 68.76 945.331 70.008 944.819 71.672C944.307 73.272 943.859 74.936 943.475 76.664C943.155 78.392 942.995 79.864 942.995 81.08C942.995 82.04 943.155 82.68 943.475 83H937.427C936.723 83 936.371 82.712 936.371 82.136C936.371 81.944 936.403 81.784 936.467 81.656C936.531 81.528 936.595 81.272 936.659 80.888C937.555 77.56 938.739 74.424 940.211 71.48C941.683 68.536 943.155 65.432 944.627 62.168C942.387 66.328 940.339 70.008 938.483 73.208C936.691 76.344 935.315 78.36 934.355 79.256C934.227 79.384 934.067 79.448 933.875 79.448C933.619 79.448 933.459 79.288 933.395 78.968C933.267 78.648 933.331 78.328 933.587 78.008C934.931 76.216 936.467 73.752 938.195 70.616C939.987 67.48 941.875 63.992 943.859 60.152C945.843 56.248 947.859 52.312 949.907 48.344C951.955 44.376 953.939 40.632 955.859 37.112C957.843 33.592 959.635 30.616 961.235 28.184C962.387 26.456 963.475 25.24 964.499 24.536C965.523 23.768 966.579 23.384 967.667 23.384H968.147C968.723 23.384 969.363 23.48 970.067 23.672C970.835 23.864 971.539 23.896 972.179 23.768C970.963 24.728 969.491 26.296 967.763 28.472C966.035 30.648 964.211 33.24 962.291 36.248C960.371 39.256 958.419 42.456 956.435 45.848C954.515 49.24 952.691 52.6 950.963 55.928C950.323 57.208 949.715 58.552 949.139 59.96C948.563 61.368 948.019 62.776 947.507 64.184C948.851 62.52 950.387 60.792 952.115 59C953.843 57.208 955.635 55.576 957.491 54.104C959.411 52.568 961.299 51.448 963.155 50.744C965.267 49.976 967.027 49.592 968.435 49.592C969.907 49.592 970.963 49.944 971.603 50.648C972.307 51.352 972.659 52.248 972.659 53.336C972.659 54.552 972.179 56.024 971.219 57.752C970.259 59.416 968.947 60.856 967.283 62.072C965.875 63.032 964.403 63.864 962.867 64.568C961.331 65.272 959.507 65.72 957.395 65.912C957.011 66.808 956.723 67.736 956.531 68.696C956.403 69.592 956.339 70.488 956.339 71.384C956.339 73.88 956.915 76.088 958.067 78.008C959.219 79.864 960.723 80.792 962.579 80.792C963.475 80.792 964.435 80.536 965.459 80.024C966.547 79.512 967.667 78.648 968.819 77.432C970.099 76.152 971.379 74.328 972.659 71.96C974.003 69.592 975.347 67 976.691 64.184C976.947 63.672 977.235 63.416 977.555 63.416C977.939 63.416 978.131 63.672 978.131 64.184C978.131 64.44 978.035 64.76 977.843 65.144C975.987 69.432 974.195 72.856 972.467 75.416C970.803 77.912 969.171 79.8 967.571 81.08C966.035 82.296 964.531 83.064 963.059 83.384C961.587 83.704 960.115 83.8 958.643 83.672Z" fill="white"/>
</svg>
