<svg width="682" height="122" viewBox="0 0 682 122" fill="none" xmlns="http://www.w3.org/2000/svg">
<path d="M30.5433 98.072C24.7193 98.072 19.5033 97.208 14.8953 95.48C10.3513 93.816 6.76725 91.352 4.14325 88.088C1.51925 84.824 0.20725 80.856 0.20725 76.184C0.20725 72.984 0.94325 69.432 2.41525 65.528C3.24725 63.352 4.49525 61.336 6.15925 59.48C7.88725 57.56 9.64725 55.992 11.4393 54.776C13.2313 53.56 14.6393 52.92 15.6633 52.856H15.9513C16.5273 52.856 16.8153 52.952 16.8153 53.144C16.8153 53.464 16.3993 53.816 15.5673 54.2C14.5433 54.648 13.2313 55.608 11.6313 57.08C10.0953 58.552 8.62325 60.376 7.21525 62.552C5.80725 64.664 4.75125 67.064 4.04725 69.752C3.79125 70.648 3.59925 71.544 3.47125 72.44C3.40725 73.336 3.37525 74.2 3.37525 75.032C3.37525 78.488 4.17525 81.464 5.77525 83.96C7.43925 86.456 9.61525 88.504 12.3033 90.104C15.0553 91.768 18.0633 92.984 21.3273 93.752C24.5913 94.584 27.8553 95 31.1193 95C32.5913 95 34.0313 94.904 35.4393 94.712C36.9113 94.584 38.2873 94.36 39.5673 94.04C45.1993 92.632 50.3193 90.488 54.9272 87.608C59.5353 84.728 63.6633 81.432 67.3113 77.72C71.0233 74.008 74.2553 70.168 77.0073 66.2C79.7593 62.168 82.0953 58.296 84.0153 54.584C85.9353 50.872 87.4073 47.576 88.4313 44.696C90.3513 39.576 92.2713 34.872 94.1913 30.584C96.1753 26.296 97.9673 22.68 99.5673 19.736C101.167 16.728 102.319 14.648 103.023 13.496C99.5673 14.264 95.8553 15.16 91.8873 16.184C87.9833 17.144 84.1113 18.392 80.2713 19.928C76.4313 21.4 72.8153 23.224 69.4233 25.4C66.0953 27.576 63.2473 30.2 60.8793 33.272C58.5113 36.344 56.8473 39.96 55.8873 44.12C55.5673 45.592 55.4073 46.872 55.4073 47.96C55.4073 50.776 56.0793 53.08 57.4233 54.872C58.8313 56.6 60.7193 57.464 63.0873 57.464C64.4313 57.464 65.8073 57.176 67.2153 56.6C69.5833 55.64 71.4073 54.392 72.6873 52.856C74.0313 51.256 74.9593 49.624 75.4713 47.96C75.9833 46.232 76.2393 44.696 76.2393 43.352C76.2393 41.432 75.9513 40.248 75.3753 39.8C75.3753 39.736 75.3433 39.704 75.2793 39.704C75.2793 39.704 75.2793 39.672 75.2793 39.608C75.2793 39.288 75.4073 38.968 75.6633 38.648C75.9833 38.328 76.3033 38.168 76.6233 38.168C76.9433 38.168 77.1993 38.392 77.3913 38.84C78.1593 40.376 78.5433 41.976 78.5433 43.64C78.5433 45.688 78.0313 47.736 77.0073 49.784C76.0473 51.832 74.7033 53.656 72.9753 55.256C71.3113 56.856 69.4553 58.04 67.4073 58.808C65.4873 59.576 63.5673 59.96 61.6473 59.96C58.1913 59.96 55.2153 58.808 52.7192 56.504C50.2873 54.136 49.0713 51.096 49.0713 47.384C49.0713 46.232 49.1993 45.144 49.4553 44.12C50.4793 39.576 52.4313 35.608 55.3113 32.216C58.1913 28.824 61.6793 25.912 65.7753 23.48C69.8713 21.048 74.1913 19.032 78.7353 17.432C83.3433 15.768 87.8873 14.424 92.3673 13.4C96.8473 12.376 100.911 11.544 104.559 10.904C104.815 10.392 105.327 9.592 106.095 8.504C106.863 7.352 107.759 6.264 108.783 5.23999C109.807 4.152 110.831 3.448 111.855 3.128C112.623 2.872 113.455 2.744 114.351 2.744C115.247 2.744 115.983 2.968 116.559 3.41599C117.135 3.864 117.423 4.568 117.423 5.528C117.423 7.384 116.623 8.792 115.023 9.752C113.487 10.648 111.791 11.448 109.935 12.152C109.359 12.152 108.655 12.312 107.823 12.632C107.055 12.888 106.447 13.016 105.999 13.016C103.631 17.304 101.679 21.528 100.143 25.688C98.6073 29.848 97.1993 33.944 95.9193 37.976C94.7033 41.944 93.4233 45.912 92.0793 49.88C90.7353 53.784 89.0713 57.72 87.0873 61.688C85.1033 65.592 82.5753 69.528 79.5033 73.496C74.2553 80.28 68.3353 85.624 61.7433 89.528C55.2153 93.432 48.4633 95.96 41.4873 97.112C39.5673 97.432 37.6793 97.656 35.8233 97.784C33.9673 97.976 32.2073 98.072 30.5433 98.072ZM107.631 10.52C110.127 10.008 111.791 9.432 112.623 8.79199C113.519 8.15199 113.967 7.576 113.967 7.064C113.967 6.68 113.839 6.392 113.583 6.2C113.327 5.944 113.071 5.816 112.815 5.816C112.495 5.688 112.015 5.91199 111.375 6.488C110.735 7 110.063 7.672 109.359 8.504C108.719 9.272 108.143 9.94399 107.631 10.52ZM192.664 111.992C192.088 111.992 191.96 111.544 192.28 110.648C192.664 109.816 193.016 109.048 193.336 108.344C193.912 107.192 194.2 105.4 194.2 102.968C194.2 100.856 193.816 98.584 193.048 96.152C192.28 93.72 190.776 91.512 188.536 89.528C185.464 86.712 182.008 84.472 178.168 82.808C174.328 81.144 170.296 79.8 166.072 78.776C161.912 77.752 157.784 76.856 153.688 76.088C151.192 79.544 148.504 82.648 145.624 85.4C142.808 88.152 139.8 90.264 136.6 91.736C134.808 92.568 133.08 93.176 131.416 93.56C129.752 94.008 128.184 94.232 126.712 94.232C123.128 94.232 120.184 93.272 117.88 91.352C115.64 89.496 114.52 87.288 114.52 84.728C114.52 82.296 115.608 79.928 117.784 77.624C120.024 75.256 123.704 73.304 128.824 71.768C130.872 71.192 133.144 70.776 135.64 70.52C138.136 70.2 140.728 70.04 143.416 70.04C145.08 70.04 146.712 70.104 148.312 70.232C149.976 70.296 151.512 70.488 152.92 70.808C154.776 67.992 156.504 65.08 158.104 62.072C159.704 59 161.368 55.672 163.096 52.088C158.04 52.216 153.656 51.48 149.944 49.88C146.232 48.216 143.352 46.008 141.304 43.256C139.32 40.504 138.328 37.56 138.328 34.424C138.328 31.864 139.064 29.368 140.536 26.936C142.008 24.44 144.312 22.2 147.448 20.216C150.648 18.168 154.712 16.568 159.64 15.416C159.96 15.288 160.248 15.224 160.504 15.224C160.824 15.224 161.112 15.224 161.368 15.224C162.328 15.224 162.808 15.416 162.808 15.8C162.808 16.44 161.784 16.888 159.736 17.144C156.408 17.528 153.464 18.712 150.904 20.696C148.408 22.68 146.456 25.048 145.048 27.8C143.704 30.552 143.032 33.336 143.032 36.152C143.032 38.584 143.608 40.856 144.76 42.968C145.912 45.08 147.736 46.808 150.232 48.152C152.728 49.432 155.96 50.072 159.928 50.072C161.336 50.072 162.84 49.976 164.44 49.784C164.696 49.272 165.112 48.248 165.688 46.712C166.328 45.112 167.032 43.32 167.8 41.336C168.568 39.352 169.304 37.432 170.008 35.576C170.776 33.72 171.384 32.184 171.832 30.968C172.344 29.688 172.6 29.048 172.6 29.048C175.544 21.688 178.552 15.928 181.624 11.768C184.76 7.544 187.768 4.568 190.648 2.84C193.592 1.112 196.216 0.247995 198.52 0.247995C201.016 0.247995 203.064 0.983995 204.664 2.456C206.328 3.928 207.224 5.592 207.352 7.44799C207.416 8.02399 207.448 8.43999 207.448 8.696C207.448 8.952 207.448 9.272 207.448 9.65599C207.448 13.432 206.68 17.208 205.144 20.984C203.672 24.76 201.592 28.344 198.904 31.736C196.28 35.128 193.24 38.2 189.784 40.952C186.392 43.704 182.744 46.008 178.84 47.864C175 49.72 171.096 51 167.128 51.704C166.168 53.624 165.304 55.352 164.536 56.888C163.832 58.36 163.032 59.96 162.136 61.688C161.24 63.416 160.056 65.624 158.584 68.312C158.136 69.144 157.784 69.752 157.528 70.136C157.336 70.456 157.016 70.968 156.568 71.672C159.768 72.44 163.256 73.528 167.032 74.936C170.808 76.28 174.52 77.912 178.168 79.832C181.88 81.688 185.176 83.736 188.056 85.976C191.64 88.728 194.168 91.832 195.64 95.288C197.176 98.744 197.944 101.784 197.944 104.408C197.944 106.264 197.656 107.672 197.08 108.632C196.248 110.04 195.416 110.936 194.584 111.32C193.752 111.768 193.112 111.992 192.664 111.992ZM168.472 49.112C172.824 48.152 177.08 46.424 181.24 43.928C185.4 41.368 189.144 38.296 192.472 34.712C195.8 31.064 198.456 27.128 200.44 22.904C202.424 18.616 203.416 14.264 203.416 9.848C203.416 8.76 203.128 7.864 202.552 7.16C201.976 6.456 201.144 6.10399 200.056 6.10399C198.584 6.10399 196.696 6.936 194.392 8.6C192.088 10.2 189.464 12.92 186.52 16.76C183.576 20.536 180.408 25.752 177.016 32.408C177.016 32.408 176.568 33.24 175.672 34.904C174.84 36.568 173.752 38.68 172.408 41.24C171.128 43.736 169.816 46.36 168.472 49.112ZM125.368 91.448C126.776 91.448 128.28 91.256 129.88 90.872C131.544 90.488 133.272 89.88 135.064 89.048C140.44 86.424 145.4 81.88 149.944 75.416C148.472 75.096 146.936 74.872 145.336 74.744C143.736 74.552 142.104 74.456 140.44 74.456C138.712 74.456 136.92 74.552 135.064 74.744C133.272 74.936 131.512 75.288 129.784 75.8C125.496 76.952 122.2 78.424 119.896 80.216C117.656 82.008 116.536 83.832 116.536 85.688C116.536 87.288 117.336 88.632 118.936 89.72C120.536 90.872 122.68 91.448 125.368 91.448ZM193.703 83C191.271 83 189.479 82.2 188.327 80.6C187.175 78.936 186.599 76.92 186.599 74.552C186.599 71.672 187.271 68.664 188.615 65.528C189.895 62.584 191.527 59.896 193.511 57.464C195.495 55.032 197.639 53.08 199.943 51.608C202.247 50.072 204.487 49.304 206.663 49.304C209.095 49.304 210.887 50.104 212.039 51.704C213.191 53.304 213.767 55.32 213.767 57.752C213.767 60.696 213.095 63.704 211.751 66.776C210.983 68.504 209.895 70.424 208.487 72.536C207.079 74.584 205.479 76.472 203.687 78.2C204.071 78.904 204.615 79.512 205.319 80.024C206.023 80.472 206.983 80.696 208.199 80.696C209.735 80.696 211.175 80.056 212.519 78.776C213.927 77.496 215.207 75.96 216.359 74.168C217.511 72.312 218.535 70.456 219.431 68.6C220.327 66.744 221.063 65.24 221.639 64.088C221.831 63.704 222.151 63.512 222.599 63.512C222.855 63.512 223.047 63.64 223.175 63.896C223.303 64.088 223.271 64.408 223.079 64.856C222.695 65.816 222.055 67.256 221.159 69.176C220.263 71.032 219.175 72.984 217.895 75.032C216.615 77.016 215.143 78.712 213.479 80.12C211.815 81.528 209.959 82.232 207.911 82.232C206.503 82.232 205.287 82.008 204.263 81.56C203.239 81.048 202.407 80.44 201.767 79.736C200.423 80.76 199.079 81.56 197.735 82.136C196.391 82.712 195.047 83 193.703 83ZM195.143 80.888C196.871 80.888 198.727 80.056 200.711 78.392C200.199 77.624 199.815 76.824 199.559 75.992C199.303 75.16 199.175 74.392 199.175 73.688C199.175 72.536 199.431 71.544 199.943 70.712C200.519 69.88 201.383 69.464 202.535 69.464C203.367 69.464 204.039 69.784 204.551 70.424C205.127 71 205.415 71.672 205.415 72.44C205.415 72.632 205.383 72.824 205.319 73.016C205.319 73.144 205.287 73.304 205.223 73.496C206.311 72.024 207.335 70.296 208.295 68.312C210.407 63.768 211.463 60.024 211.463 57.08C211.463 55.608 211.175 54.456 210.599 53.624C210.023 52.792 209.159 52.376 208.007 52.376C206.663 52.376 205.191 52.952 203.591 54.104C202.055 55.256 200.551 56.792 199.079 58.712C197.671 60.632 196.423 62.776 195.335 65.144C194.311 67.32 193.479 69.432 192.839 71.48C192.263 73.464 191.975 75.192 191.975 76.664C191.975 77.944 192.231 78.968 192.743 79.736C193.255 80.504 194.055 80.888 195.143 80.888ZM224.707 83.672C222.723 83.672 221.347 83.16 220.579 82.136C219.811 81.112 219.427 79.8 219.427 78.2C219.427 76.536 219.715 74.648 220.291 72.536C220.931 70.424 221.603 68.344 222.307 66.296C221.859 66.936 221.411 67.256 220.963 67.256C220.707 67.256 220.515 67.128 220.387 66.872C220.259 66.616 220.291 66.328 220.483 66.008C220.803 65.432 221.123 64.888 221.443 64.376C221.763 63.8 222.051 63.224 222.307 62.648C222.819 61.56 223.235 60.28 223.555 58.808C223.939 57.272 224.131 55.864 224.131 54.584C224.131 53.56 224.003 52.696 223.747 51.992C223.491 51.288 223.107 50.872 222.595 50.744C222.595 50.744 222.915 50.68 223.555 50.552C224.259 50.424 224.995 50.296 225.763 50.168C226.531 50.04 227.043 49.976 227.299 49.976C227.683 49.912 228.035 49.88 228.355 49.88C228.675 49.816 228.963 49.784 229.219 49.784C229.859 49.784 230.275 50.04 230.467 50.552C230.723 51.064 230.819 52.184 230.755 53.912C230.691 55.512 230.371 57.464 229.795 59.768C229.219 62.008 228.611 63.96 227.971 65.624C227.139 67.8 226.371 70.008 225.667 72.248C224.963 74.488 224.611 76.344 224.611 77.816C224.611 79.096 224.963 79.928 225.667 80.312C226.179 80.504 226.627 80.6 227.011 80.6C228.483 80.6 229.923 79.864 231.331 78.392C232.803 76.92 234.211 74.968 235.555 72.536C236.899 70.04 238.147 67.384 239.299 64.568C238.851 63.672 238.531 62.68 238.339 61.592C238.147 60.504 238.051 59.448 238.051 58.424C238.051 57.208 238.211 56.056 238.531 54.968C239.299 52.408 240.355 50.584 241.699 49.496C243.107 48.344 244.291 47.768 245.251 47.768C246.467 47.768 247.075 48.312 247.075 49.4C247.075 49.656 246.979 50.04 246.787 50.552C246.659 50.68 246.595 50.872 246.595 51.128C246.147 52.472 245.475 54.424 244.579 56.984C243.747 59.544 242.691 62.36 241.411 65.432C240.195 68.44 238.723 71.352 236.995 74.168C235.331 76.92 233.475 79.192 231.427 80.984C229.379 82.776 227.139 83.672 224.707 83.672ZM253.38 83.384C251.012 83.384 248.868 82.616 246.948 81.08C245.092 79.544 244.164 77.208 244.164 74.072C244.164 71.192 244.868 68.12 246.276 64.856C247.684 61.528 249.476 58.616 251.652 56.12C253.508 53.944 255.588 52.152 257.892 50.744C260.196 49.336 262.372 48.632 264.42 48.632C265.828 48.632 267.043 49.016 268.068 49.784C269.156 50.616 269.7 51.8 269.7 53.336C269.7 54.936 269.092 56.696 267.876 58.616C266.66 60.536 264.932 62.328 262.692 63.992C261.732 64.696 260.516 65.368 259.044 66.008C257.572 66.648 256.1 67.192 254.628 67.64C253.156 68.024 251.94 68.216 250.98 68.216C250.66 68.984 250.34 70.008 250.02 71.288C249.764 72.568 249.636 73.88 249.636 75.224C249.636 76.824 249.956 78.264 250.596 79.544C251.236 80.824 252.42 81.464 254.148 81.464C256.26 81.464 258.18 80.856 259.908 79.64C261.636 78.424 263.172 76.92 264.516 75.128C265.86 73.272 266.98 71.416 267.876 69.56C268.836 67.704 269.604 66.136 270.18 64.856C270.564 63.96 271.076 63.512 271.716 63.512C272.036 63.512 272.196 63.672 272.196 63.992C272.196 64.248 272.1 64.568 271.908 64.952C271.012 66.872 270.052 68.92 269.028 71.096C268.004 73.208 266.788 75.224 265.38 77.144C263.972 79 262.276 80.504 260.292 81.656C258.372 82.808 256.068 83.384 253.38 83.384ZM251.652 66.488C252.548 66.488 254.052 66.168 256.164 65.528C258.276 64.824 260.196 63.736 261.924 62.264C263.588 60.792 264.868 59.192 265.764 57.464C266.66 55.672 267.108 54.168 267.108 52.952C267.108 51.544 266.596 50.84 265.572 50.84C264.804 50.84 263.748 51.352 262.404 52.376C261.06 53.4 259.396 55.128 257.412 57.56C256.196 59.096 255.044 60.76 253.956 62.552C252.868 64.344 252.1 65.656 251.652 66.488ZM325.65 121.4C321.17 121.4 317.522 120.568 314.706 118.904C311.954 117.24 310.578 115.224 310.578 112.856C310.578 111.128 311.474 109.24 313.266 107.192C315.122 105.144 318.098 103.288 322.194 101.624C328.466 99 335.122 97.304 342.162 96.536C349.202 95.832 356.466 95.48 363.954 95.48C366.45 89.272 368.818 83.096 371.058 76.952C373.298 70.808 375.282 64.536 377.01 58.136C375.858 60.76 374.322 63.736 372.402 67.064C370.482 70.392 368.274 73.624 365.778 76.76C363.282 79.832 360.53 82.392 357.522 84.44C353.81 86.936 349.97 88.184 346.002 88.184C343.058 88.184 340.53 87.32 338.417 85.592C336.306 83.864 335.25 81.144 335.25 77.432C335.25 77.048 335.25 76.632 335.25 76.184C335.314 75.736 335.378 75.288 335.442 74.84C335.954 71.64 336.978 68.184 338.514 64.472C340.114 60.76 341.906 57.112 343.89 53.528C345.938 49.88 347.826 46.616 349.554 43.736C351.602 40.408 353.394 37.016 354.93 33.56C356.466 30.104 357.65 26.776 358.482 23.576C359.314 20.376 359.73 17.56 359.73 15.128C359.73 13.272 359.442 11.64 358.866 10.232C358.354 8.76 357.49 7.64 356.274 6.872C353.458 5.08 350.13 4.184 346.29 4.184C342.194 4.184 337.874 5.112 333.33 6.96799C328.786 8.824 324.338 11.352 319.986 14.552C315.698 17.688 311.858 21.272 308.466 25.304C305.074 29.336 302.45 33.528 300.594 37.88C299.442 40.632 298.578 43.192 298.002 45.56C297.49 47.928 297.234 50.104 297.234 52.088C297.234 55.544 297.906 58.424 299.25 60.728C300.594 62.968 302.354 64.664 304.53 65.816C306.706 66.968 309.042 67.544 311.538 67.544C313.586 67.544 315.634 67.192 317.682 66.488C319.922 65.72 322.002 64.44 323.922 62.648C325.906 60.856 327.634 58.84 329.106 56.6C330.642 54.36 331.826 52.088 332.658 49.784C333.49 47.48 333.906 45.4 333.906 43.544C333.906 41.688 333.426 40.184 332.466 39.032C331.57 37.816 330.066 37.208 327.954 37.208C327.186 37.208 326.354 37.304 325.458 37.496C325.202 37.56 324.978 37.592 324.786 37.592C324.594 37.592 324.434 37.592 324.306 37.592C323.73 37.592 323.442 37.464 323.442 37.208C323.442 37.08 323.634 36.888 324.018 36.632C324.402 36.312 324.818 36.12 325.266 36.056C327.122 35.608 328.69 35.384 329.97 35.384C332.594 35.384 334.514 36.12 335.73 37.592C336.946 39.064 337.554 40.952 337.554 43.256C337.554 45.944 336.722 48.952 335.058 52.28C333.458 55.544 331.154 58.68 328.146 61.688C325.138 64.632 321.522 66.968 317.298 68.696C314.994 69.656 312.626 70.136 310.194 70.136C306.994 70.136 303.986 69.336 301.17 67.736C298.418 66.072 296.178 63.736 294.45 60.728C292.722 57.72 291.858 54.168 291.858 50.072C291.858 47.576 292.178 45.144 292.818 42.776C293.458 40.344 294.386 37.848 295.602 35.288C297.97 30.36 301.106 25.88 305.01 21.848C308.914 17.752 313.202 14.2 317.874 11.192C322.61 8.184 327.41 5.88 332.274 4.27999C337.138 2.616 341.714 1.784 346.002 1.784C347.858 1.784 349.618 1.944 351.282 2.264C352.946 2.52 354.482 3 355.89 3.704C359.282 5.176 361.682 7.256 363.09 9.944C364.498 12.568 365.202 15.512 365.202 18.776C365.202 22.424 364.466 26.328 362.994 30.488C361.522 34.584 359.634 38.584 357.33 42.488C355.154 46.136 353.01 49.944 350.898 53.912C348.85 57.88 347.058 61.72 345.522 65.432C343.986 69.144 342.898 72.472 342.258 75.416C342.13 76.056 342.034 76.696 341.97 77.336C341.906 77.976 341.874 78.552 341.874 79.064C341.874 81.304 342.418 82.936 343.506 83.96C344.594 84.984 345.97 85.496 347.634 85.496C350.322 85.496 353.17 84.44 356.178 82.328C358.546 80.664 360.818 78.456 362.994 75.704C365.234 72.952 367.314 69.944 369.234 66.68C371.154 63.352 372.882 60.024 374.418 56.696C375.954 53.304 377.266 50.136 378.354 47.192C379.442 44.248 380.274 41.784 380.85 39.8C380.978 39.224 381.458 38.552 382.29 37.784C383.122 37.016 383.922 36.632 384.69 36.632C385.202 36.632 385.618 36.888 385.938 37.4C386.322 37.912 386.514 38.808 386.514 40.088C386.514 41.368 386.226 43.32 385.65 45.944C384.818 49.656 383.794 53.72 382.578 58.136C381.362 62.488 379.986 66.936 378.45 71.48C376.978 75.96 375.378 80.248 373.65 84.344C371.986 88.504 370.29 92.184 368.562 95.384C373.298 95.384 377.682 95.224 381.714 94.904C385.81 94.584 388.754 93.912 390.546 92.888C392.658 91.672 394.226 90.616 395.25 89.72C396.338 88.888 396.882 87.544 396.882 85.688V85.112C396.882 84.536 396.978 84.248 397.17 84.248C397.426 84.248 397.714 84.76 398.034 85.784C398.098 85.976 398.13 86.168 398.13 86.36C398.194 86.552 398.226 86.776 398.226 87.032C398.226 88.376 397.65 89.88 396.498 91.544C395.41 93.272 393.554 94.68 390.93 95.768C388.562 96.728 385.202 97.304 380.85 97.496C376.562 97.688 371.954 97.816 367.026 97.88C363.826 102.744 359.794 106.936 354.93 110.456C350.13 113.976 345.266 116.664 340.338 118.52C337.65 119.544 335.058 120.28 332.562 120.728C330.13 121.176 327.826 121.4 325.65 121.4ZM326.322 118.712C328.178 118.712 330.194 118.52 332.37 118.136C334.546 117.752 336.69 117.176 338.802 116.408C343.154 114.808 347.442 112.472 351.666 109.4C355.954 106.392 359.57 102.552 362.514 97.88C355.986 97.88 349.394 98.36 342.738 99.32C336.082 100.344 329.874 102.52 324.114 105.848C321.234 107.448 319.154 108.952 317.874 110.36C316.658 111.768 316.05 113.016 316.05 114.104C316.05 115.512 317.01 116.632 318.93 117.464C320.914 118.296 323.378 118.712 326.322 118.712ZM392.359 83C389.927 83 388.135 82.2 386.983 80.6C385.831 78.936 385.255 76.92 385.255 74.552C385.255 71.672 385.927 68.664 387.271 65.528C388.551 62.584 390.183 59.896 392.167 57.464C394.151 55.032 396.295 53.08 398.599 51.608C400.903 50.072 403.143 49.304 405.319 49.304C407.751 49.304 409.543 50.104 410.695 51.704C411.847 53.304 412.423 55.32 412.423 57.752C412.423 60.696 411.751 63.704 410.407 66.776C409.639 68.504 408.551 70.424 407.143 72.536C405.735 74.584 404.135 76.472 402.343 78.2C402.727 78.904 403.271 79.512 403.975 80.024C404.679 80.472 405.639 80.696 406.855 80.696C408.391 80.696 409.831 80.056 411.175 78.776C412.583 77.496 413.863 75.96 415.015 74.168C416.167 72.312 417.191 70.456 418.087 68.6C418.983 66.744 419.719 65.24 420.295 64.088C420.487 63.704 420.807 63.512 421.255 63.512C421.511 63.512 421.703 63.64 421.831 63.896C421.959 64.088 421.927 64.408 421.735 64.856C421.351 65.816 420.711 67.256 419.815 69.176C418.919 71.032 417.831 72.984 416.551 75.032C415.271 77.016 413.799 78.712 412.135 80.12C410.471 81.528 408.615 82.232 406.567 82.232C405.159 82.232 403.943 82.008 402.919 81.56C401.895 81.048 401.063 80.44 400.423 79.736C399.079 80.76 397.735 81.56 396.391 82.136C395.047 82.712 393.703 83 392.359 83ZM393.799 80.888C395.527 80.888 397.383 80.056 399.367 78.392C398.855 77.624 398.471 76.824 398.215 75.992C397.959 75.16 397.831 74.392 397.831 73.688C397.831 72.536 398.087 71.544 398.599 70.712C399.175 69.88 400.039 69.464 401.191 69.464C402.023 69.464 402.695 69.784 403.207 70.424C403.783 71 404.071 71.672 404.071 72.44C404.071 72.632 404.039 72.824 403.975 73.016C403.975 73.144 403.943 73.304 403.879 73.496C404.967 72.024 405.991 70.296 406.951 68.312C409.063 63.768 410.119 60.024 410.119 57.08C410.119 55.608 409.831 54.456 409.255 53.624C408.679 52.792 407.815 52.376 406.663 52.376C405.319 52.376 403.847 52.952 402.247 54.104C400.711 55.256 399.207 56.792 397.735 58.712C396.327 60.632 395.079 62.776 393.991 65.144C392.967 67.32 392.135 69.432 391.495 71.48C390.919 73.464 390.631 75.192 390.631 76.664C390.631 77.944 390.887 78.968 391.399 79.736C391.911 80.504 392.711 80.888 393.799 80.888ZM422.979 83C422.275 83 421.411 82.84 420.387 82.52C419.427 82.2 418.563 81.624 417.795 80.792C417.091 79.896 416.739 78.584 416.739 76.856C416.739 75.192 417.123 73.592 417.891 72.056C418.723 70.456 419.491 68.92 420.195 67.448C420.003 67.448 419.779 67.384 419.523 67.256C419.331 67.128 419.235 66.936 419.235 66.68C419.235 66.424 419.299 66.168 419.427 65.912C419.683 65.4 419.971 64.856 420.291 64.28C420.611 63.704 420.899 63.096 421.155 62.456C422.115 60.472 423.075 58.584 424.035 56.792C424.995 54.936 425.827 53.304 426.531 51.896C427.235 50.488 428.451 49.784 430.179 49.784H436.131C435.043 50.616 434.051 51.544 433.155 52.568C432.323 53.528 431.267 55.32 429.987 57.944C429.987 57.944 429.763 58.392 429.315 59.288C428.867 60.184 428.291 61.336 427.587 62.744C426.947 64.088 426.275 65.464 425.571 66.872C424.931 68.28 424.387 69.464 423.939 70.424C423.107 72.216 422.563 73.656 422.307 74.744C422.051 75.768 421.923 76.728 421.923 77.624C421.923 79.736 422.627 80.792 424.035 80.792C425.571 80.792 427.427 79.544 429.603 77.048C431.395 74.936 433.155 72.408 434.883 69.464C436.611 66.52 438.243 63.48 439.779 60.344C441.379 57.208 442.787 54.392 444.003 51.896C444.707 50.488 445.955 49.784 447.747 49.784H453.027C452.067 50.552 451.267 51.288 450.627 51.992C449.987 52.632 449.347 53.528 448.707 54.68C448.131 55.768 447.331 57.336 446.307 59.384C445.475 61.112 444.579 62.968 443.619 64.952C442.723 66.872 441.923 68.696 441.219 70.424C440.515 72.152 440.067 73.56 439.875 74.648C439.811 75.288 439.747 75.768 439.683 76.088C439.619 76.408 439.587 76.76 439.587 77.144C439.587 78.36 439.779 79.224 440.163 79.736C440.611 80.248 441.123 80.504 441.699 80.504C443.235 80.504 444.771 79.64 446.307 77.912C447.907 76.184 449.411 74.072 450.819 71.576C452.291 69.08 453.539 66.712 454.563 64.472C454.947 63.768 455.299 63.416 455.619 63.416C456.003 63.416 456.195 63.64 456.195 64.088C456.195 64.408 456.067 64.792 455.811 65.24C455.107 66.776 454.243 68.536 453.219 70.52C452.195 72.504 451.043 74.456 449.763 76.376C448.483 78.296 447.075 79.896 445.539 81.176C444.003 82.392 442.339 83 440.547 83C438.947 83 437.635 82.424 436.611 81.272C435.587 80.056 435.075 78.36 435.075 76.184C435.075 74.456 435.395 72.6 436.035 70.616C434.947 72.536 433.699 74.456 432.291 76.376C430.883 78.296 429.379 79.896 427.779 81.176C426.179 82.392 424.579 83 422.979 83ZM559.793 87.032C558.001 87.032 556.209 86.616 554.417 85.784C552.689 84.952 551.057 83.736 549.521 82.136C547.281 79.832 545.329 77.08 543.665 73.88C542.065 70.616 540.689 67.288 539.537 63.896C538.385 60.44 537.489 57.304 536.849 54.488C536.209 51.608 535.761 49.4 535.505 47.864C533.137 52.408 530.673 56.92 528.113 61.4C525.617 65.816 522.417 70.168 518.513 74.456C514.801 78.488 510.737 81.528 506.321 83.576C501.905 85.688 497.329 86.744 492.593 86.744C491.121 86.744 489.617 86.648 488.081 86.456C483.857 85.944 480.753 84.728 478.769 82.808C476.785 80.888 475.793 78.84 475.793 76.664C475.793 74.296 476.849 72.152 478.961 70.232C481.073 68.312 484.081 67.352 487.985 67.352C489.265 67.352 490.641 67.48 492.113 67.736C493.585 67.992 495.121 68.408 496.721 68.984C497.425 69.24 497.777 69.528 497.777 69.848C497.777 70.104 497.521 70.232 497.009 70.232C496.689 70.232 496.433 70.2 496.241 70.136C494.129 69.368 492.241 68.984 490.577 68.984C487.889 68.984 485.841 69.784 484.433 71.384C483.025 72.92 482.321 74.616 482.321 76.472C482.321 78.264 483.089 79.928 484.625 81.464C486.161 83 488.529 83.768 491.729 83.768C495.761 83.768 499.473 82.84 502.865 80.984C506.257 79.064 509.425 76.472 512.369 73.208C515.313 69.88 518.129 66.136 520.817 61.976C523.505 57.752 526.129 53.368 528.689 48.824C532.977 41.208 536.849 34.296 540.305 28.088C543.825 21.816 547.537 16.504 551.441 12.152C549.713 11.96 547.953 11.832 546.161 11.768C544.369 11.704 542.545 11.672 540.689 11.672C536.657 11.672 532.465 11.896 528.113 12.344C523.825 12.728 519.665 13.368 515.633 14.264C510.193 15.416 505.521 17.144 501.617 19.448C497.713 21.688 494.609 24.216 492.305 27.032C490.065 29.784 488.657 32.568 488.081 35.384C487.889 36.408 487.793 37.4 487.793 38.36C487.793 41.624 488.881 44.152 491.057 45.944C493.233 47.736 495.729 48.632 498.545 48.632C500.337 48.632 502.129 48.28 503.921 47.576C505.777 46.808 507.441 45.624 508.913 44.024C510.129 42.744 511.025 41.56 511.601 40.472C512.177 39.32 512.497 38.456 512.561 37.88C512.625 36.984 512.817 36.536 513.137 36.536C513.329 36.536 513.489 36.696 513.617 37.016C513.809 37.336 513.873 37.656 513.809 37.976C513.553 39.448 513.105 40.888 512.465 42.296C511.825 43.704 511.057 44.888 510.161 45.848C508.369 47.704 506.321 49.08 504.017 49.976C501.713 50.872 499.505 51.32 497.393 51.32C494.897 51.32 492.529 50.776 490.289 49.688C488.113 48.6 486.353 47.032 485.009 44.984C483.665 42.872 482.993 40.28 482.993 37.208C482.993 33.624 484.241 29.976 486.737 26.264C489.233 22.488 492.977 19.16 497.969 16.28C503.025 13.4 509.297 11.416 516.785 10.328C520.561 9.816 524.209 9.432 527.729 9.17599C531.313 8.856 534.769 8.696 538.097 8.696C540.785 8.696 543.409 8.792 545.969 8.984C548.529 9.176 551.057 9.432 553.553 9.752C555.217 8.024 556.337 7.16 556.913 7.16C557.361 7.16 557.585 7.512 557.585 8.216C557.585 8.472 557.553 8.792 557.489 9.17599C557.425 9.56 557.329 9.944 557.201 10.328C558.929 10.584 560.593 10.872 562.193 11.192C563.857 11.448 565.329 11.768 566.609 12.152C571.665 13.56 575.345 15.416 577.649 17.72C580.017 19.96 581.201 22.392 581.201 25.016C581.201 27.832 579.921 30.648 577.361 33.464C574.865 36.28 571.313 38.776 566.705 40.952C562.161 43.128 556.817 44.728 550.673 45.752C548.689 46.072 546.929 46.296 545.393 46.424C543.921 46.552 542.641 46.648 541.553 46.712C541.681 47.352 541.969 48.696 542.417 50.744C542.865 52.792 543.505 55.224 544.337 58.04C545.169 60.792 546.225 63.704 547.505 66.776C548.849 69.848 550.449 72.76 552.305 75.512C553.777 77.688 555.281 79.48 556.817 80.888C558.353 82.296 559.985 83 561.713 83C562.801 83 563.921 82.712 565.073 82.136C566.289 81.56 567.537 80.632 568.817 79.352C570.353 77.816 571.729 76.088 572.945 74.168C574.225 72.184 575.313 70.328 576.209 68.6C577.105 66.872 577.713 65.656 578.033 64.952C578.545 64.056 579.089 63.608 579.665 63.608C579.857 63.608 579.953 63.736 579.953 63.992C579.953 64.12 579.857 64.44 579.665 64.952C579.345 65.656 578.865 66.744 578.225 68.216C577.585 69.624 576.817 71.192 575.921 72.92C575.025 74.648 574.065 76.344 573.041 78.008C572.017 79.672 570.993 81.08 569.969 82.232C568.497 83.832 566.833 85.016 564.977 85.784C563.185 86.616 561.457 87.032 559.793 87.032ZM537.521 44.12C539.377 43.8 541.361 43.576 543.473 43.448C545.585 43.32 547.665 43.128 549.713 42.872C553.041 42.424 556.177 41.56 559.121 40.28C562.065 38.936 564.657 37.336 566.897 35.48C569.201 33.624 570.993 31.672 572.273 29.624C573.553 27.512 574.193 25.496 574.193 23.576C574.193 19.224 571.281 16.216 565.457 14.552C564.305 14.232 562.801 13.912 560.945 13.592C559.153 13.272 557.521 12.984 556.049 12.728C552.977 17.976 549.809 23.128 546.545 28.184C543.345 33.24 540.337 38.552 537.521 44.12ZM598.893 83.288C598.189 83.352 597.389 83.192 596.493 82.808C595.597 82.424 594.797 81.72 594.093 80.696C593.453 79.672 593.133 78.232 593.133 76.376C593.133 74.84 593.421 72.984 593.997 70.808C593.229 72.024 592.237 73.528 591.021 75.32C589.805 77.048 588.493 78.584 587.085 79.928C585.869 81.08 584.717 81.912 583.629 82.424C582.541 82.936 581.549 83.192 580.653 83.192C578.989 83.192 577.645 82.456 576.621 80.984C575.597 79.448 575.085 77.464 575.085 75.032C575.085 72.472 575.725 69.56 577.005 66.296C578.285 63.032 580.365 59.64 583.245 56.12C585.101 53.88 587.341 52.088 589.965 50.744C592.653 49.336 595.277 48.632 597.837 48.632C599.309 48.632 600.717 48.888 602.061 49.4C603.405 49.848 604.589 50.616 605.613 51.704C606.061 52.152 606.285 52.664 606.285 53.24C606.285 53.624 606.125 53.944 605.805 54.2C605.485 54.456 605.069 54.52 604.557 54.392C603.853 52.152 602.349 51.032 600.045 51.032C598.957 51.032 597.709 51.384 596.301 52.088C594.125 53.24 591.853 55.128 589.485 57.752C587.181 60.376 585.165 63.096 583.437 65.912C583.181 66.296 582.765 67.032 582.189 68.12C581.677 69.208 581.165 70.424 580.653 71.768C580.141 73.112 579.789 74.424 579.597 75.704C579.533 76.088 579.501 76.376 579.501 76.568C579.501 76.696 579.501 76.92 579.501 77.24C579.501 79.352 580.301 80.408 581.901 80.408C583.821 80.408 585.997 79 588.429 76.184C590.093 74.136 591.597 71.992 592.941 69.752C594.285 67.512 595.661 65.112 597.069 62.552C598.029 60.824 598.925 59.384 599.757 58.232C600.589 57.08 601.773 56.504 603.309 56.504C604.013 56.504 604.717 56.6 605.421 56.792C606.125 56.984 606.861 57.016 607.629 56.888C607.117 57.4 606.413 58.36 605.517 59.768C604.685 61.176 603.789 62.776 602.829 64.568C601.869 66.36 601.005 68.184 600.237 70.04C599.469 71.896 598.925 73.496 598.605 74.84C598.541 75.224 598.445 75.768 598.317 76.472C598.253 77.176 598.221 77.688 598.221 78.008C598.221 79.8 598.733 80.696 599.757 80.696C600.781 80.696 601.869 80.088 603.021 78.872C604.237 77.656 605.421 76.152 606.573 74.36C607.725 72.568 608.781 70.776 609.741 68.984C610.701 67.128 611.469 65.624 612.045 64.472C612.301 63.832 612.685 63.512 613.197 63.512C613.517 63.512 613.677 63.736 613.677 64.184C613.677 64.376 613.581 64.728 613.389 65.24C612.621 66.84 611.693 68.664 610.605 70.712C609.517 72.696 608.333 74.648 607.053 76.568C605.773 78.424 604.429 79.992 603.021 81.272C601.677 82.488 600.301 83.16 598.893 83.288ZM602.787 83.768C605.091 79.096 607.299 74.488 609.411 69.944C611.587 65.336 613.795 60.952 616.035 56.792C617.315 54.488 618.371 52.888 619.203 51.992C620.099 51.032 621.283 50.552 622.755 50.552C623.267 50.552 623.811 50.648 624.387 50.84C624.963 50.968 625.539 51.032 626.115 51.032C626.499 51.032 626.787 51 626.979 50.936C626.083 51.448 624.931 52.728 623.523 54.776C622.115 56.76 620.675 59.064 619.203 61.688C617.731 64.312 616.419 66.776 615.267 69.08C616.483 67.608 617.731 66.136 619.011 64.664C620.355 63.192 621.827 61.784 623.427 60.44C624.963 59.096 626.787 57.72 628.899 56.312C631.075 54.84 633.187 53.624 635.235 52.664C637.283 51.704 638.915 51.224 640.131 51.224C640.579 51.224 640.899 51.256 641.091 51.32C641.091 51.32 640.739 51.96 640.035 53.24C639.331 54.456 638.435 56.088 637.347 58.136C636.323 60.12 635.267 62.264 634.179 64.568C633.091 66.808 632.099 68.984 631.203 71.096C630.371 73.144 629.827 74.872 629.571 76.28C629.379 77.112 629.283 77.88 629.283 78.584C629.283 79.608 629.475 80.28 629.859 80.6C630.243 80.92 630.659 81.08 631.107 81.08C632.323 81.08 633.603 80.44 634.947 79.16C636.291 77.816 637.571 76.184 638.787 74.264C640.067 72.344 641.187 70.488 642.147 68.696C643.171 66.84 643.907 65.432 644.355 64.472C644.611 63.96 644.803 63.672 644.931 63.608C645.059 63.48 645.251 63.416 645.507 63.416C645.891 63.416 646.083 63.672 646.083 64.184C646.083 64.504 645.987 64.856 645.795 65.24C645.027 66.712 644.099 68.472 643.011 70.52C641.987 72.568 640.803 74.584 639.459 76.568C638.115 78.488 636.643 80.12 635.043 81.464C633.443 82.744 631.715 83.384 629.859 83.384C628.579 83.384 627.235 82.936 625.827 82.04C624.483 81.144 623.811 79.48 623.811 77.048C623.811 76.344 623.875 75.608 624.003 74.84C624.131 74.008 624.355 73.112 624.675 72.152C625.187 70.872 625.795 69.496 626.499 68.024C627.203 66.552 628.355 64.536 629.955 61.976C630.403 61.272 630.659 60.728 630.723 60.344C630.851 59.96 630.915 59.64 630.915 59.384C630.915 58.616 630.563 58.232 629.859 58.232C629.283 58.232 628.419 58.552 627.267 59.192C626.179 59.832 624.803 60.952 623.139 62.552C621.539 64.088 619.619 66.264 617.379 69.08C615.203 71.896 612.675 76.056 609.795 81.56C609.347 82.392 608.835 82.84 608.259 82.904C607.747 82.968 607.011 83.032 606.051 83.096C605.411 83.16 604.803 83.192 604.227 83.192C603.651 83.256 603.171 83.448 602.787 83.768ZM648.861 83C647.069 83 645.469 82.392 644.061 81.176C642.653 79.896 641.949 77.912 641.949 75.224C641.949 73.112 642.333 70.52 643.101 67.448C643.933 64.312 644.925 61.08 646.077 57.752C647.293 54.36 648.477 51.288 649.629 48.536H644.541C644.093 48.536 643.869 48.216 643.869 47.576C643.869 47.256 643.933 46.968 644.061 46.712C644.253 46.456 644.509 46.328 644.829 46.328H650.589C651.677 43.896 652.829 41.528 654.045 39.224C655.261 36.92 656.445 34.744 657.597 32.696C659.069 30.136 660.637 28.216 662.301 26.936C663.965 25.656 665.405 25.016 666.621 25.016C667.581 25.016 668.381 25.4 669.021 26.168C669.661 26.872 669.981 27.96 669.981 29.432C669.981 30.328 669.789 31.576 669.405 33.176C669.021 34.712 668.413 36.344 667.581 38.072C667.133 38.968 666.493 40.248 665.661 41.912C664.893 43.576 664.125 45.048 663.357 46.328H667.965C668.413 46.328 668.637 46.648 668.637 47.288C668.637 47.544 668.573 47.832 668.445 48.152C668.317 48.408 668.125 48.536 667.869 48.536H662.205C660.605 51.288 658.781 53.976 656.733 56.6C654.685 59.224 652.253 61.848 649.437 64.472C649.245 65.048 648.989 65.88 648.669 66.968C648.413 68.056 648.157 69.176 647.901 70.328C647.709 71.416 647.517 72.344 647.325 73.112C647.197 73.88 647.133 74.264 647.133 74.264C646.941 75.096 646.845 75.864 646.845 76.568C646.845 77.912 647.165 78.904 647.805 79.544C648.445 80.12 649.181 80.408 650.013 80.408C650.525 80.408 651.037 80.344 651.549 80.216C652.061 80.024 652.637 79.704 653.277 79.256C655.517 77.656 657.469 75.48 659.133 72.728C660.861 69.976 662.365 67.32 663.645 64.76C664.029 63.992 664.413 63.608 664.797 63.608C665.053 63.608 665.181 63.8 665.181 64.184C665.181 64.376 665.085 64.728 664.893 65.24C663.485 68.184 662.301 70.552 661.341 72.344C660.381 74.136 659.453 75.64 658.557 76.856C657.661 78.008 656.605 79.16 655.389 80.312C654.493 81.208 653.469 81.88 652.317 82.328C651.165 82.776 650.013 83 648.861 83ZM656.445 46.328H661.341C662.237 44.664 663.069 43.032 663.837 41.432C664.669 39.832 665.405 38.232 666.045 36.632C666.493 35.608 666.877 34.456 667.197 33.176C667.517 31.896 667.677 30.904 667.677 30.2C667.677 29.24 667.453 28.76 667.005 28.76C666.685 28.76 666.205 29.048 665.565 29.624C664.989 30.136 664.253 31.032 663.357 32.312C662.205 33.912 661.053 35.992 659.901 38.552C658.813 41.048 657.661 43.64 656.445 46.328ZM650.205 61.4C652.061 59.48 653.789 57.432 655.389 55.256C657.053 53.08 658.589 50.84 659.997 48.536H655.485C654.461 50.904 653.501 53.208 652.605 55.448C651.709 57.688 650.909 59.672 650.205 61.4ZM674.222 44.024C673.262 44.024 672.462 43.704 671.822 43.064C671.246 42.36 670.958 41.528 670.958 40.568C670.958 39.352 671.438 38.296 672.398 37.4C673.358 36.504 674.414 36.056 675.566 36.056C676.59 36.056 677.422 36.376 678.062 37.016C678.702 37.656 679.022 38.424 679.022 39.32C679.022 40.536 678.542 41.624 677.582 42.584C676.622 43.544 675.502 44.024 674.222 44.024ZM666.446 83C664.078 83 662.414 82.328 661.454 80.984C660.494 79.576 660.014 77.976 660.014 76.184C660.014 75.224 660.11 74.264 660.302 73.304C660.558 72.28 660.846 71.352 661.166 70.52L667.598 54.104C667.79 53.592 667.886 53.144 667.886 52.76C667.886 52.12 667.726 51.576 667.406 51.128C667.086 50.616 666.862 50.264 666.734 50.072L672.014 49.88C672.974 49.816 673.646 49.944 674.03 50.264C674.478 50.52 674.702 50.84 674.702 51.224C674.702 51.608 674.478 52.312 674.03 53.336L666.062 72.056C666.062 72.056 665.87 72.472 665.486 73.304C665.166 74.072 664.974 74.584 664.91 74.84C664.718 75.8 664.59 76.408 664.526 76.664C664.462 76.92 664.43 77.08 664.43 77.144C664.43 77.208 664.43 77.464 664.43 77.912C664.43 78.744 664.622 79.448 665.006 80.024C665.454 80.6 666.19 80.888 667.214 80.888C667.854 80.888 668.59 80.696 669.422 80.312C670.254 79.928 670.862 79.544 671.246 79.16C672.846 77.496 674.414 75.32 675.95 72.632C677.55 69.88 679.022 67.16 680.366 64.472C680.622 63.832 680.942 63.512 681.326 63.512C681.646 63.512 681.806 63.736 681.806 64.184C681.806 64.44 681.71 64.824 681.518 65.336C680.878 66.68 680.078 68.344 679.118 70.328C678.158 72.312 677.006 74.296 675.662 76.28C674.382 78.2 672.974 79.8 671.438 81.08C669.902 82.36 668.238 83 666.446 83Z" fill="white"/>
</svg>
