<svg width="878" height="121" viewBox="0 0 878 121" fill="none" xmlns="http://www.w3.org/2000/svg">
<path d="M30.9026 97.072C25.0786 97.072 19.8626 96.208 15.2546 94.48C10.7106 92.816 7.12663 90.352 4.50263 87.088C1.87862 83.824 0.566625 79.856 0.566625 75.184C0.566625 71.984 1.30262 68.432 2.77463 64.528C3.60663 62.352 4.85463 60.336 6.51863 58.48C8.24663 56.56 10.0066 54.992 11.7986 53.776C13.5906 52.56 14.9986 51.92 16.0226 51.856H16.3106C16.8866 51.856 17.1746 51.952 17.1746 52.144C17.1746 52.464 16.7586 52.816 15.9266 53.2C14.9026 53.648 13.5906 54.608 11.9906 56.08C10.4546 57.552 8.98263 59.376 7.57463 61.552C6.16663 63.664 5.11063 66.064 4.40663 68.752C4.15063 69.648 3.95863 70.544 3.83063 71.44C3.76663 72.336 3.73463 73.2 3.73463 74.032C3.73463 77.488 4.53463 80.464 6.13463 82.96C7.79863 85.456 9.97463 87.504 12.6626 89.104C15.4146 90.768 18.4226 91.984 21.6866 92.752C24.9506 93.584 28.2146 94 31.4786 94C32.9506 94 34.3906 93.904 35.7986 93.712C37.2706 93.584 38.6466 93.36 39.9266 93.04C45.5586 91.632 50.6786 89.488 55.2866 86.608C59.8946 83.728 64.0226 80.432 67.6706 76.72C71.3826 73.008 74.6146 69.168 77.3666 65.2C80.1186 61.168 82.4546 57.296 84.3746 53.584C86.2946 49.872 87.7666 46.576 88.7906 43.696C90.7106 38.576 92.6306 33.872 94.5506 29.584C96.5346 25.296 98.3266 21.68 99.9266 18.736C101.527 15.728 102.679 13.648 103.383 12.496C99.9266 13.264 96.2146 14.16 92.2466 15.184C88.3426 16.144 84.4706 17.392 80.6306 18.928C76.7906 20.4 73.1746 22.224 69.7826 24.4C66.4546 26.576 63.6066 29.2 61.2386 32.272C58.8706 35.344 57.2066 38.96 56.2466 43.12C55.9266 44.592 55.7666 45.872 55.7666 46.96C55.7666 49.776 56.4386 52.08 57.7826 53.872C59.1906 55.6 61.0786 56.464 63.4466 56.464C64.7906 56.464 66.1666 56.176 67.5746 55.6C69.9426 54.64 71.7666 53.392 73.0466 51.856C74.3906 50.256 75.3186 48.624 75.8306 46.96C76.3426 45.232 76.5986 43.696 76.5986 42.352C76.5986 40.432 76.3106 39.248 75.7346 38.8C75.7346 38.736 75.7026 38.704 75.6386 38.704C75.6386 38.704 75.6386 38.672 75.6386 38.608C75.6386 38.288 75.7666 37.968 76.0226 37.648C76.3426 37.328 76.6626 37.168 76.9826 37.168C77.3026 37.168 77.5586 37.392 77.7506 37.84C78.5186 39.376 78.9026 40.976 78.9026 42.64C78.9026 44.688 78.3906 46.736 77.3666 48.784C76.4066 50.832 75.0626 52.656 73.3346 54.256C71.6706 55.856 69.8146 57.04 67.7666 57.808C65.8466 58.576 63.9266 58.96 62.0066 58.96C58.5506 58.96 55.5746 57.808 53.0786 55.504C50.6466 53.136 49.4306 50.096 49.4306 46.384C49.4306 45.232 49.5586 44.144 49.8146 43.12C50.8386 38.576 52.7906 34.608 55.6706 31.216C58.5506 27.824 62.0386 24.912 66.1346 22.48C70.2306 20.048 74.5506 18.032 79.0946 16.432C83.7026 14.768 88.2466 13.424 92.7266 12.4C97.2066 11.376 101.271 10.544 104.919 9.904C105.175 9.39199 105.687 8.592 106.455 7.504C107.223 6.352 108.119 5.264 109.143 4.23999C110.167 3.152 111.191 2.448 112.215 2.128C112.983 1.872 113.815 1.744 114.711 1.744C115.607 1.744 116.343 1.968 116.919 2.41599C117.495 2.864 117.783 3.568 117.783 4.528C117.783 6.384 116.983 7.792 115.383 8.752C113.847 9.648 112.151 10.448 110.295 11.152C109.719 11.152 109.015 11.312 108.183 11.632C107.415 11.888 106.807 12.016 106.359 12.016C103.991 16.304 102.039 20.528 100.503 24.688C98.9666 28.848 97.5586 32.944 96.2786 36.976C95.0626 40.944 93.7826 44.912 92.4386 48.88C91.0946 52.784 89.4306 56.72 87.4466 60.688C85.4626 64.592 82.9346 68.528 79.8626 72.496C74.6146 79.28 68.6946 84.624 62.1026 88.528C55.5746 92.432 48.8226 94.96 41.8466 96.112C39.9266 96.432 38.0386 96.656 36.1826 96.784C34.3266 96.976 32.5666 97.072 30.9026 97.072ZM107.991 9.51999C110.487 9.008 112.151 8.432 112.983 7.79199C113.879 7.15199 114.327 6.576 114.327 6.064C114.327 5.68 114.199 5.392 113.943 5.2C113.687 4.944 113.431 4.816 113.175 4.816C112.855 4.688 112.375 4.91199 111.735 5.488C111.095 6 110.423 6.672 109.719 7.504C109.079 8.272 108.503 8.94399 107.991 9.51999ZM128.703 85.744C127.295 85.744 125.919 85.648 124.575 85.456C120.543 84.944 117.567 83.76 115.647 81.904C113.791 80.048 112.863 78.032 112.863 75.856C112.863 73.488 113.919 71.344 116.031 69.424C118.207 67.504 121.247 66.544 125.151 66.544C126.367 66.544 127.647 66.672 128.991 66.928C130.399 67.12 131.871 67.472 133.407 67.984C134.175 68.24 134.559 68.592 134.559 69.04C134.559 69.296 134.367 69.424 133.983 69.424C133.599 69.424 133.279 69.36 133.023 69.232C131.999 68.848 131.007 68.592 130.047 68.464C129.151 68.272 128.287 68.176 127.455 68.176C124.703 68.176 122.591 68.976 121.119 70.576C119.711 72.112 119.007 73.808 119.007 75.664C119.007 77.456 119.743 79.088 121.215 80.56C122.687 82.032 125.023 82.768 128.223 82.768C132.255 82.768 135.967 81.84 139.359 79.984C142.815 78.128 146.079 75.696 149.151 72.688C152.415 69.488 155.391 65.648 158.079 61.168C160.767 56.624 163.423 51.792 166.047 46.672C168.735 41.488 171.647 36.272 174.783 31.024C177.919 25.776 181.535 20.848 185.631 16.24C186.463 15.344 187.295 14.416 188.127 13.456C189.023 12.432 189.887 11.568 190.719 10.864C188.543 10.544 186.303 10.32 183.999 10.192C181.695 10 179.423 9.904 177.183 9.904C173.855 9.904 170.687 10.064 167.679 10.384C164.735 10.64 161.791 11.024 158.847 11.536C155.839 12.112 152.479 13.008 148.767 14.224C145.055 15.44 141.439 17.04 137.919 19.024C134.463 20.944 131.487 23.28 128.991 26.032C126.559 28.784 125.055 31.952 124.479 35.536C124.415 35.856 124.351 36.208 124.287 36.592C124.287 36.912 124.287 37.232 124.287 37.552C124.287 40.496 125.279 42.928 127.263 44.848C129.311 46.768 131.679 47.728 134.367 47.728C136.351 47.728 138.271 47.216 140.127 46.192C141.983 45.104 143.647 43.696 145.119 41.968C146.591 40.176 147.679 38.224 148.383 36.112C148.447 35.472 148.703 35.152 149.151 35.152C149.535 35.152 149.727 35.504 149.727 36.208C149.663 39.024 148.831 41.456 147.231 43.504C145.695 45.552 143.743 47.12 141.375 48.208C139.007 49.232 136.607 49.744 134.175 49.744C131.679 49.744 129.311 49.232 127.071 48.208C124.831 47.12 123.007 45.552 121.599 43.504C120.191 41.392 119.487 38.8 119.487 35.728C119.487 32.144 120.351 28.976 122.079 26.224C123.871 23.472 126.239 21.072 129.183 19.024C132.127 16.912 135.327 15.152 138.783 13.744C142.239 12.272 145.695 11.12 149.151 10.288C152.607 9.392 155.743 8.72 158.559 8.272C161.439 7.824 164.415 7.472 167.487 7.216C170.623 6.96 173.791 6.832 176.991 6.832C179.743 6.832 182.495 6.96 185.247 7.216C187.999 7.472 190.687 7.856 193.311 8.368C194.399 7.536 195.519 6.8 196.671 6.16C197.823 5.52 199.103 4.944 200.511 4.432C201.407 4.048 202.079 3.856 202.527 3.856C202.911 3.856 203.103 3.984 203.103 4.23999C203.103 4.688 202.591 5.232 201.567 5.872C201.055 6.128 200.415 6.576 199.647 7.216C198.879 7.856 198.047 8.592 197.151 9.424C201.311 10.448 205.055 11.984 208.383 14.032C212.031 16.208 214.623 18.512 216.159 20.944C217.759 23.376 218.559 25.872 218.559 28.432C218.559 31.376 217.663 34.32 215.871 37.264C214.079 40.144 211.743 42.832 208.863 45.328C205.983 47.824 202.815 50 199.359 51.856C195.903 53.648 192.479 54.96 189.087 55.792C185.823 56.624 182.527 57.232 179.199 57.616C175.871 58 172.895 58.192 170.271 58.192C169.823 58.192 169.343 58.192 168.831 58.192C168.383 58.192 167.935 58.16 167.487 58.096C165.311 61.168 163.071 64.176 160.767 67.12C158.463 70 155.871 72.816 152.991 75.568C149.471 78.896 145.631 81.424 141.471 83.152C137.311 84.88 133.055 85.744 128.703 85.744ZM168.831 55.984C171.263 56.048 173.983 55.856 176.991 55.408C179.999 54.96 183.007 54.288 186.015 53.392C191.007 51.856 195.487 49.648 199.455 46.768C203.487 43.888 206.655 40.688 208.959 37.168C211.327 33.648 212.511 30.192 212.511 26.8C212.511 24.752 211.999 22.8 210.975 20.944C210.015 19.088 208.415 17.424 206.175 15.952C204.703 14.992 203.039 14.16 201.183 13.456C199.327 12.752 197.375 12.176 195.327 11.728C192.063 16.336 188.991 21.136 186.111 26.128C183.295 31.12 180.479 36.144 177.663 41.2C174.911 46.256 171.967 51.184 168.831 55.984ZM221.691 82.096C220.475 82.096 219.259 81.616 218.043 80.656C216.827 79.632 216.219 78 216.219 75.76C216.219 74.032 216.635 72.048 217.467 69.808C218.235 67.632 219.259 65.52 220.539 63.472C221.883 61.424 222.843 59.76 223.419 58.48C223.611 57.968 223.707 57.52 223.707 57.136C223.707 55.984 222.971 55.152 221.499 54.64C220.091 54.128 218.235 53.84 215.931 53.776L214.779 56.944C214.075 58.992 213.083 61.392 211.803 64.144C210.587 66.896 209.211 69.552 207.675 72.112C206.203 74.672 204.667 76.72 203.067 78.256C202.939 78.384 202.779 78.448 202.587 78.448C202.331 78.448 202.171 78.288 202.107 77.968C201.979 77.648 202.107 77.264 202.491 76.816C204.987 73.488 207.227 69.808 209.211 65.776C211.195 61.68 212.859 57.52 214.203 53.296C215.611 49.072 216.635 45.168 217.275 41.584C217.467 40.56 217.819 39.824 218.331 39.376C218.843 38.864 219.387 38.608 219.963 38.608C220.795 38.608 221.563 39.024 222.267 39.856C222.971 40.624 223.323 41.744 223.323 43.216C223.323 43.472 223.291 43.76 223.227 44.08C223.227 44.4 223.195 44.72 223.131 45.04C222.875 46.384 222.107 47.664 220.827 48.88C219.611 50.032 218.619 50.896 217.851 51.472C218.491 51.536 219.163 51.6 219.867 51.664C220.571 51.664 221.339 51.664 222.171 51.664C225.179 51.664 228.155 51.472 231.099 51.088C231.227 51.472 231.291 51.76 231.291 51.952C231.291 52.784 231.035 53.84 230.523 55.12C230.075 56.4 229.595 57.552 229.083 58.576C228.827 59.152 228.315 60.208 227.547 61.744C226.779 63.216 225.947 64.912 225.051 66.832C224.155 68.688 223.387 70.544 222.747 72.4C222.171 74.192 221.883 75.728 221.883 77.008C221.883 78.672 222.523 79.504 223.803 79.504C224.763 79.504 225.819 78.896 226.971 77.68C228.123 76.4 229.243 74.864 230.331 73.072C231.483 71.216 232.507 69.424 233.403 67.696C234.363 65.904 235.099 64.496 235.611 63.472C235.867 62.832 236.219 62.512 236.667 62.512C236.923 62.512 237.051 62.736 237.051 63.184C237.051 63.44 236.955 63.824 236.763 64.336C236.059 65.808 235.227 67.472 234.267 69.328C233.307 71.184 232.219 73.008 231.003 74.8C229.851 76.592 228.571 78.16 227.163 79.504C225.819 80.784 224.347 81.616 222.747 82C222.555 82.064 222.203 82.096 221.691 82.096ZM242.114 82.384C239.746 82.384 237.602 81.616 235.682 80.08C233.826 78.544 232.898 76.208 232.898 73.072C232.898 70.192 233.602 67.12 235.01 63.856C236.418 60.528 238.21 57.616 240.386 55.12C242.242 52.944 244.322 51.152 246.626 49.744C248.93 48.336 251.106 47.632 253.154 47.632C254.562 47.632 255.778 48.016 256.802 48.784C257.89 49.616 258.434 50.8 258.434 52.336C258.434 53.936 257.826 55.696 256.61 57.616C255.394 59.536 253.666 61.328 251.426 62.992C250.466 63.696 249.25 64.368 247.778 65.008C246.306 65.648 244.834 66.192 243.362 66.64C241.89 67.024 240.674 67.216 239.714 67.216C239.394 67.984 239.074 69.008 238.754 70.288C238.498 71.568 238.37 72.88 238.37 74.224C238.37 75.824 238.69 77.264 239.33 78.544C239.97 79.824 241.154 80.464 242.882 80.464C244.994 80.464 246.914 79.856 248.642 78.64C250.37 77.424 251.906 75.92 253.25 74.128C254.594 72.272 255.714 70.416 256.61 68.56C257.57 66.704 258.338 65.136 258.914 63.856C259.298 62.96 259.81 62.512 260.45 62.512C260.77 62.512 260.93 62.672 260.93 62.992C260.93 63.248 260.834 63.568 260.642 63.952C259.746 65.872 258.786 67.92 257.762 70.096C256.738 72.208 255.522 74.224 254.114 76.144C252.706 78 251.01 79.504 249.026 80.656C247.106 81.808 244.802 82.384 242.114 82.384ZM240.386 65.488C241.282 65.488 242.786 65.168 244.898 64.528C247.01 63.824 248.93 62.736 250.658 61.264C252.322 59.792 253.602 58.192 254.498 56.464C255.394 54.672 255.842 53.168 255.842 51.952C255.842 50.544 255.33 49.84 254.306 49.84C253.538 49.84 252.482 50.352 251.138 51.376C249.794 52.4 248.13 54.128 246.146 56.56C244.93 58.096 243.778 59.76 242.69 61.552C241.602 63.344 240.834 64.656 240.386 65.488ZM261.318 82.384C258.182 82.384 255.942 81.584 254.598 79.984C253.318 78.32 252.678 76.592 252.678 74.8C252.678 73.328 253.03 71.984 253.734 70.768C254.502 69.552 255.398 68.912 256.422 68.848C257.702 66.352 259.078 63.632 260.55 60.688C262.086 57.744 263.494 54.896 264.774 52.144C265.67 50.288 266.79 48.496 268.134 46.768C269.542 45.04 271.078 44.048 272.742 43.792H273.702C274.214 43.792 274.662 43.824 275.046 43.888C275.494 43.952 275.942 44.08 276.39 44.272C277.094 44.592 277.446 45.072 277.446 45.712C277.446 46.096 277.222 46.288 276.774 46.288C276.582 46.288 276.326 46.192 276.006 46C275.238 45.68 274.566 45.52 273.99 45.52C273.606 45.52 273.254 45.616 272.934 45.808C271.718 46.448 270.854 47.344 270.342 48.496C269.894 49.648 269.67 50.864 269.67 52.144C269.67 53.168 269.766 54.224 269.958 55.312C270.214 56.336 270.502 57.264 270.822 58.096C271.526 59.888 272.262 61.648 273.03 63.376C273.862 65.104 274.278 66.96 274.278 68.944C274.278 70.864 273.638 72.912 272.358 75.088C271.078 77.2 269.446 78.896 267.462 80.176L268.134 80.272C268.454 80.336 268.678 80.368 268.806 80.368C268.934 80.368 269.03 80.368 269.094 80.368C270.566 80.368 271.942 79.952 273.222 79.12C274.566 78.224 275.75 77.136 276.774 75.856C277.798 74.576 278.95 72.784 280.23 70.48C281.574 68.176 282.854 65.744 284.07 63.184C284.262 62.864 284.486 62.704 284.742 62.704C285.062 62.704 285.286 62.832 285.414 63.088C285.606 63.28 285.638 63.536 285.51 63.856C284.678 65.648 283.718 67.6 282.63 69.712C281.606 71.76 280.422 73.744 279.078 75.664C277.734 77.52 276.166 79.056 274.374 80.272C272.646 81.424 270.694 82 268.518 82C268.006 82 267.462 81.968 266.886 81.904C266.31 81.84 265.734 81.712 265.158 81.52C264.518 81.776 263.846 81.968 263.142 82.096C262.502 82.288 261.894 82.384 261.318 82.384ZM264.198 79.504C265.286 78.608 266.246 77.296 267.078 75.568C267.974 73.84 268.422 71.568 268.422 68.752C268.422 66.256 268.166 63.6 267.654 60.784C267.142 57.968 266.886 55.472 266.886 53.296C266.886 52.848 266.886 52.464 266.886 52.144C266.95 51.76 267.014 51.408 267.078 51.088C266.246 52.816 265.286 54.832 264.198 57.136C263.11 59.376 262.022 61.552 260.934 63.664C259.846 65.776 258.918 67.568 258.15 69.04C258.15 69.04 258.31 69.072 258.63 69.136C259.014 69.136 259.366 69.36 259.686 69.808C260.006 70.192 260.134 70.992 260.07 72.208C260.006 73.808 260.358 75.312 261.126 76.72C261.958 78.064 262.982 78.992 264.198 79.504ZM260.55 80.848C260.934 80.848 261.286 80.816 261.606 80.752C261.926 80.624 262.214 80.528 262.47 80.464C261.51 79.76 260.646 78.832 259.878 77.68C259.174 76.464 258.758 74.928 258.63 73.072C257.478 74.288 256.902 75.6 256.902 77.008C256.902 78.032 257.222 78.928 257.862 79.696C258.502 80.464 259.398 80.848 260.55 80.848ZM290.583 82.384C288.215 82.384 286.071 81.616 284.151 80.08C282.295 78.544 281.367 76.208 281.367 73.072C281.367 70.192 282.071 67.12 283.479 63.856C284.887 60.528 286.679 57.616 288.855 55.12C290.711 52.944 292.791 51.152 295.095 49.744C297.399 48.336 299.575 47.632 301.623 47.632C303.031 47.632 304.247 48.016 305.271 48.784C306.359 49.616 306.903 50.8 306.903 52.336C306.903 53.936 306.295 55.696 305.079 57.616C303.863 59.536 302.135 61.328 299.895 62.992C298.935 63.696 297.719 64.368 296.247 65.008C294.775 65.648 293.303 66.192 291.831 66.64C290.359 67.024 289.143 67.216 288.183 67.216C287.863 67.984 287.543 69.008 287.223 70.288C286.967 71.568 286.839 72.88 286.839 74.224C286.839 75.824 287.159 77.264 287.799 78.544C288.439 79.824 289.623 80.464 291.351 80.464C293.463 80.464 295.383 79.856 297.111 78.64C298.839 77.424 300.375 75.92 301.719 74.128C303.063 72.272 304.183 70.416 305.079 68.56C306.039 66.704 306.807 65.136 307.383 63.856C307.767 62.96 308.279 62.512 308.919 62.512C309.239 62.512 309.399 62.672 309.399 62.992C309.399 63.248 309.303 63.568 309.111 63.952C308.215 65.872 307.255 67.92 306.231 70.096C305.207 72.208 303.991 74.224 302.583 76.144C301.175 78 299.479 79.504 297.495 80.656C295.575 81.808 293.271 82.384 290.583 82.384ZM288.855 65.488C289.751 65.488 291.255 65.168 293.367 64.528C295.479 63.824 297.399 62.736 299.127 61.264C300.791 59.792 302.071 58.192 302.967 56.464C303.863 54.672 304.311 53.168 304.311 51.952C304.311 50.544 303.799 49.84 302.775 49.84C302.007 49.84 300.951 50.352 299.607 51.376C298.263 52.4 296.599 54.128 294.615 56.56C293.399 58.096 292.247 59.76 291.159 61.552C290.071 63.344 289.303 64.656 288.855 65.488ZM298.459 82.768C300.763 78.096 302.971 73.488 305.083 68.944C307.259 64.336 309.467 59.952 311.707 55.792C312.987 53.488 314.043 51.888 314.875 50.992C315.771 50.032 316.955 49.552 318.427 49.552C318.939 49.552 319.483 49.648 320.059 49.84C320.635 49.968 321.211 50.032 321.787 50.032C322.171 50.032 322.459 50 322.651 49.936C321.755 50.448 320.603 51.728 319.195 53.776C317.787 55.76 316.347 58.064 314.875 60.688C313.403 63.312 312.091 65.776 310.939 68.08C312.155 66.608 313.403 65.136 314.683 63.664C316.027 62.192 317.499 60.784 319.099 59.44C320.635 58.096 322.459 56.72 324.571 55.312C326.747 53.84 328.859 52.624 330.907 51.664C332.955 50.704 334.587 50.224 335.803 50.224C336.251 50.224 336.571 50.256 336.763 50.32C336.763 50.32 336.411 50.96 335.707 52.24C335.003 53.456 334.107 55.088 333.019 57.136C331.995 59.12 330.939 61.264 329.851 63.568C328.763 65.808 327.771 67.984 326.875 70.096C326.043 72.144 325.499 73.872 325.243 75.28C325.051 76.112 324.955 76.88 324.955 77.584C324.955 78.608 325.147 79.28 325.531 79.6C325.915 79.92 326.331 80.08 326.779 80.08C327.995 80.08 329.275 79.44 330.619 78.16C331.963 76.816 333.243 75.184 334.459 73.264C335.739 71.344 336.859 69.488 337.819 67.696C338.843 65.84 339.579 64.432 340.027 63.472C340.283 62.96 340.475 62.672 340.603 62.608C340.731 62.48 340.923 62.416 341.179 62.416C341.563 62.416 341.755 62.672 341.755 63.184C341.755 63.504 341.659 63.856 341.467 64.24C340.699 65.712 339.771 67.472 338.683 69.52C337.659 71.568 336.475 73.584 335.131 75.568C333.787 77.488 332.315 79.12 330.715 80.464C329.115 81.744 327.387 82.384 325.531 82.384C324.251 82.384 322.907 81.936 321.499 81.04C320.155 80.144 319.483 78.48 319.483 76.048C319.483 75.344 319.547 74.608 319.675 73.84C319.803 73.008 320.027 72.112 320.347 71.152C320.859 69.872 321.467 68.496 322.171 67.024C322.875 65.552 324.027 63.536 325.627 60.976C326.075 60.272 326.331 59.728 326.395 59.344C326.523 58.96 326.587 58.64 326.587 58.384C326.587 57.616 326.235 57.232 325.531 57.232C324.955 57.232 324.091 57.552 322.939 58.192C321.851 58.832 320.475 59.952 318.811 61.552C317.211 63.088 315.291 65.264 313.051 68.08C310.875 70.896 308.347 75.056 305.467 80.56C305.019 81.392 304.507 81.84 303.931 81.904C303.419 81.968 302.683 82.032 301.723 82.096C301.083 82.16 300.475 82.192 299.899 82.192C299.323 82.256 298.843 82.448 298.459 82.768ZM344.533 82C342.741 82 341.141 81.392 339.733 80.176C338.325 78.896 337.621 76.912 337.621 74.224C337.621 72.112 338.005 69.52 338.773 66.448C339.605 63.312 340.597 60.08 341.749 56.752C342.965 53.36 344.149 50.288 345.301 47.536H340.213C339.765 47.536 339.541 47.216 339.541 46.576C339.541 46.256 339.605 45.968 339.733 45.712C339.925 45.456 340.181 45.328 340.501 45.328H346.261C347.349 42.896 348.501 40.528 349.717 38.224C350.933 35.92 352.117 33.744 353.269 31.696C354.741 29.136 356.309 27.216 357.973 25.936C359.637 24.656 361.077 24.016 362.293 24.016C363.253 24.016 364.053 24.4 364.693 25.168C365.333 25.872 365.653 26.96 365.653 28.432C365.653 29.328 365.461 30.576 365.077 32.176C364.693 33.712 364.085 35.344 363.253 37.072C362.805 37.968 362.165 39.248 361.333 40.912C360.565 42.576 359.797 44.048 359.029 45.328H363.637C364.085 45.328 364.309 45.648 364.309 46.288C364.309 46.544 364.245 46.832 364.117 47.152C363.989 47.408 363.797 47.536 363.541 47.536H357.877C356.277 50.288 354.453 52.976 352.405 55.6C350.357 58.224 347.925 60.848 345.109 63.472C344.917 64.048 344.661 64.88 344.341 65.968C344.085 67.056 343.829 68.176 343.573 69.328C343.381 70.416 343.189 71.344 342.997 72.112C342.869 72.88 342.805 73.264 342.805 73.264C342.613 74.096 342.517 74.864 342.517 75.568C342.517 76.912 342.837 77.904 343.477 78.544C344.117 79.12 344.853 79.408 345.685 79.408C346.197 79.408 346.709 79.344 347.221 79.216C347.733 79.024 348.309 78.704 348.949 78.256C351.189 76.656 353.141 74.48 354.805 71.728C356.533 68.976 358.037 66.32 359.317 63.76C359.701 62.992 360.085 62.608 360.469 62.608C360.725 62.608 360.853 62.8 360.853 63.184C360.853 63.376 360.757 63.728 360.565 64.24C359.157 67.184 357.973 69.552 357.013 71.344C356.053 73.136 355.125 74.64 354.229 75.856C353.333 77.008 352.277 78.16 351.061 79.312C350.165 80.208 349.141 80.88 347.989 81.328C346.837 81.776 345.685 82 344.533 82ZM352.117 45.328H357.013C357.909 43.664 358.741 42.032 359.509 40.432C360.341 38.832 361.077 37.232 361.717 35.632C362.165 34.608 362.549 33.456 362.869 32.176C363.189 30.896 363.349 29.904 363.349 29.2C363.349 28.24 363.125 27.76 362.677 27.76C362.357 27.76 361.877 28.048 361.237 28.624C360.661 29.136 359.925 30.032 359.029 31.312C357.877 32.912 356.725 34.992 355.573 37.552C354.485 40.048 353.333 42.64 352.117 45.328ZM345.877 60.4C347.733 58.48 349.461 56.432 351.061 54.256C352.725 52.08 354.261 49.84 355.669 47.536H351.157C350.133 49.904 349.173 52.208 348.277 54.448C347.381 56.688 346.581 58.672 345.877 60.4ZM417.679 91.024C413.071 91.024 408.623 90.448 404.335 89.296C400.047 88.208 396.207 86.544 392.815 84.304C389.423 82.064 386.703 79.248 384.655 75.856C382.671 72.464 381.679 68.464 381.679 63.856C381.679 60.464 382.287 56.848 383.503 53.008C384.207 50.832 385.199 48.976 386.479 47.44C387.823 45.904 389.199 44.72 390.607 43.888C392.015 43.056 393.135 42.64 393.967 42.64C395.055 42.64 395.503 43.152 395.311 44.176C394.927 44.624 394.255 45.168 393.295 45.808C392.399 46.384 391.407 47.152 390.319 48.112C389.295 49.072 388.303 50.32 387.343 51.856C386.447 53.328 385.807 55.216 385.423 57.52C385.295 58.352 385.167 59.184 385.039 60.016C384.975 60.848 384.943 61.648 384.943 62.416C384.943 66.576 385.839 70.256 387.631 73.456C389.423 76.656 391.759 79.312 394.639 81.424C397.583 83.536 400.783 85.104 404.239 86.128C407.759 87.216 411.215 87.728 414.607 87.664C419.791 87.536 424.399 86.8 428.431 85.456C432.463 84.176 436.047 82.448 439.183 80.272C442.319 78.096 445.071 75.696 447.439 73.072C449.423 70.896 451.407 68.24 453.391 65.104C455.375 61.968 457.295 58.608 459.151 55.024C461.071 51.376 462.863 47.76 464.527 44.176C466.255 40.592 467.855 37.2 469.327 34C470.799 30.8 472.079 28.08 473.167 25.84C474.255 23.536 475.151 21.936 475.855 21.04C470.799 19.504 465.935 18.32 461.263 17.488C456.655 16.592 451.727 16.016 446.479 15.76C441.679 15.504 437.391 16.048 433.615 17.392C429.903 18.736 426.735 20.56 424.111 22.864C421.551 25.104 419.567 27.568 418.159 30.256C416.815 32.944 416.143 35.536 416.143 38.032C416.143 40.208 416.687 42.16 417.775 43.888C418.927 45.552 420.655 46.768 422.959 47.536C424.495 47.984 425.999 48.208 427.471 48.208C429.775 48.208 431.791 47.728 433.519 46.768C435.247 45.808 436.687 44.656 437.839 43.312C439.055 41.904 439.951 40.592 440.527 39.376C441.167 38.096 441.487 37.168 441.487 36.592V36.496C441.807 36.112 442.127 35.92 442.447 35.92C443.087 35.92 443.407 36.368 443.407 37.264C443.087 40.016 442.095 42.416 440.431 44.464C438.831 46.512 436.879 48.08 434.575 49.168C432.271 50.256 429.839 50.8 427.279 50.8C425.487 50.8 423.759 50.512 422.095 49.936C418.575 48.656 415.919 46.608 414.127 43.792C412.335 40.912 411.439 37.808 411.439 34.48C411.439 31.664 412.047 28.88 413.263 26.128C414.479 23.312 416.335 20.752 418.831 18.448C421.327 16.08 424.431 14.192 428.143 12.784C431.855 11.376 436.207 10.672 441.199 10.672C442.031 10.672 442.703 10.672 443.215 10.672C443.727 10.672 444.591 10.736 445.807 10.864C448.815 11.12 451.855 11.632 454.927 12.4C457.999 13.104 460.943 13.904 463.759 14.8C466.575 15.696 469.167 16.56 471.535 17.392C473.903 18.224 475.855 18.832 477.391 19.216C477.583 18.96 478.127 18.512 479.023 17.872C479.983 17.232 480.943 16.56 481.903 15.856C482.927 15.152 483.727 14.544 484.303 14.032C484.879 13.52 484.911 13.264 484.399 13.264H484.303C484.495 13.2 484.751 13.168 485.071 13.168C485.711 13.168 486.191 13.392 486.511 13.84C486.831 14.224 486.991 14.64 486.991 15.088C486.991 15.92 486.607 16.336 485.839 16.336C485.711 16.336 485.455 16.272 485.071 16.144C484.815 15.888 484.335 16.016 483.631 16.528C482.991 17.04 482.319 17.648 481.615 18.352C480.975 18.992 480.463 19.536 480.079 19.984C481.487 20.432 483.247 20.976 485.359 21.616C487.535 22.192 489.839 22.8 492.271 23.44C494.767 24.016 497.199 24.496 499.567 24.88C501.935 25.264 504.047 25.456 505.903 25.456C507.695 25.456 509.103 25.232 510.127 24.784C511.215 24.336 511.759 23.6 511.759 22.576C511.759 22.192 511.823 21.872 511.951 21.616C512.143 21.296 512.463 21.136 512.911 21.136C513.231 21.136 513.455 21.424 513.583 22C513.711 22.512 513.775 22.928 513.775 23.248C513.775 24.784 512.943 26.032 511.279 26.992C509.679 27.952 507.663 28.432 505.231 28.432C504.847 28.432 504.463 28.432 504.079 28.432C503.695 28.368 503.279 28.304 502.831 28.24C495.663 27.344 490.063 26.192 486.031 24.784C482.063 23.376 479.567 22.448 478.543 22C475.663 26.608 473.295 31.344 471.439 36.208C469.583 41.072 467.823 45.936 466.159 50.8C464.559 55.664 462.671 60.368 460.495 64.912C458.383 69.456 455.567 73.744 452.047 77.776C449.487 80.656 446.351 83.088 442.639 85.072C438.991 87.056 435.023 88.528 430.735 89.488C426.447 90.512 422.095 91.024 417.679 91.024ZM463.457 82.768C466.145 77.264 468.929 71.504 471.809 65.488C474.753 59.408 477.761 53.296 480.833 47.152C483.905 41.008 486.945 35.152 489.953 29.584C491.041 27.664 492.033 26.16 492.929 25.072C493.889 23.984 495.137 23.44 496.673 23.44C497.249 23.44 497.921 23.536 498.689 23.728C499.457 23.92 500.193 23.952 500.897 23.824C500.065 24.72 498.913 26.288 497.441 28.528C496.033 30.768 494.433 33.456 492.641 36.592C490.913 39.728 489.057 43.12 487.073 46.768C485.153 50.352 483.233 54 481.313 57.712C479.457 61.36 477.729 64.784 476.129 67.984C477.409 66.32 478.721 64.752 480.065 63.28C481.409 61.808 482.721 60.528 484.001 59.44C485.409 58.16 487.169 56.816 489.281 55.408C491.457 54 493.601 52.784 495.713 51.76C497.889 50.736 499.617 50.224 500.897 50.224C501.345 50.224 501.665 50.256 501.857 50.32C501.857 50.32 501.505 50.96 500.801 52.24C500.097 53.52 499.201 55.152 498.113 57.136C497.089 59.12 496.001 61.264 494.849 63.568C493.761 65.872 492.801 68.08 491.969 70.192C491.137 72.24 490.593 73.936 490.337 75.28C490.145 76.304 490.049 77.168 490.049 77.872C490.049 78.896 490.241 79.6 490.625 79.984C491.009 80.304 491.425 80.464 491.873 80.464C492.961 80.464 494.145 79.792 495.425 78.448C496.705 77.104 497.953 75.472 499.169 73.552C500.385 71.568 501.473 69.648 502.433 67.792C503.457 65.936 504.225 64.496 504.737 63.472C505.121 62.768 505.505 62.416 505.889 62.416C506.273 62.416 506.465 62.672 506.465 63.184C506.465 63.44 506.369 63.824 506.177 64.336C505.345 66 504.385 67.888 503.297 70C502.273 72.048 501.089 74.032 499.745 75.952C498.465 77.808 497.025 79.344 495.425 80.56C493.889 81.776 492.225 82.384 490.433 82.384C489.153 82.384 487.841 81.936 486.497 81.04C485.153 80.144 484.481 78.512 484.481 76.144C484.481 75.44 484.545 74.704 484.673 73.936C484.801 73.104 485.025 72.176 485.345 71.152C485.729 69.872 486.369 68.464 487.265 66.928C488.161 65.328 489.313 63.344 490.721 60.976C491.361 59.888 491.681 59.024 491.681 58.384C491.681 57.616 491.297 57.232 490.529 57.232C489.889 57.232 489.025 57.552 487.937 58.192C486.849 58.832 485.473 59.952 483.809 61.552C482.209 63.088 480.225 65.328 477.857 68.272C475.489 71.216 472.961 75.344 470.273 80.656C469.825 81.488 469.313 81.936 468.737 82C468.225 82 467.521 82.032 466.625 82.096C466.049 82.16 465.473 82.192 464.897 82.192C464.321 82.256 463.841 82.448 463.457 82.768ZM515.487 43.024C514.527 43.024 513.727 42.704 513.087 42.064C512.511 41.36 512.223 40.528 512.223 39.568C512.223 38.352 512.703 37.296 513.663 36.4C514.623 35.504 515.679 35.056 516.831 35.056C517.855 35.056 518.687 35.376 519.327 36.016C519.967 36.656 520.287 37.424 520.287 38.32C520.287 39.536 519.807 40.624 518.847 41.584C517.887 42.544 516.767 43.024 515.487 43.024ZM507.711 82C505.343 82 503.679 81.328 502.719 79.984C501.759 78.576 501.279 76.976 501.279 75.184C501.279 74.224 501.375 73.264 501.567 72.304C501.823 71.28 502.111 70.352 502.431 69.52L508.863 53.104C509.055 52.592 509.151 52.144 509.151 51.76C509.151 51.12 508.991 50.576 508.671 50.128C508.351 49.616 508.127 49.264 507.999 49.072L513.279 48.88C514.239 48.816 514.911 48.944 515.295 49.264C515.743 49.52 515.967 49.84 515.967 50.224C515.967 50.608 515.743 51.312 515.295 52.336L507.327 71.056C507.327 71.056 507.135 71.472 506.751 72.304C506.431 73.072 506.239 73.584 506.175 73.84C505.983 74.8 505.855 75.408 505.791 75.664C505.727 75.92 505.695 76.08 505.695 76.144C505.695 76.208 505.695 76.464 505.695 76.912C505.695 77.744 505.887 78.448 506.271 79.024C506.719 79.6 507.455 79.888 508.479 79.888C509.119 79.888 509.855 79.696 510.687 79.312C511.519 78.928 512.127 78.544 512.511 78.16C514.111 76.496 515.679 74.32 517.215 71.632C518.815 68.88 520.287 66.16 521.631 63.472C521.887 62.832 522.207 62.512 522.591 62.512C522.911 62.512 523.071 62.736 523.071 63.184C523.071 63.44 522.975 63.824 522.783 64.336C522.143 65.68 521.343 67.344 520.383 69.328C519.423 71.312 518.271 73.296 516.927 75.28C515.647 77.2 514.239 78.8 512.703 80.08C511.167 81.36 509.503 82 507.711 82ZM523.818 82.384C520.682 82.384 518.442 81.584 517.098 79.984C515.818 78.32 515.178 76.592 515.178 74.8C515.178 73.328 515.53 71.984 516.234 70.768C517.002 69.552 517.898 68.912 518.922 68.848C520.202 66.352 521.578 63.632 523.05 60.688C524.586 57.744 525.994 54.896 527.274 52.144C528.17 50.288 529.29 48.496 530.634 46.768C532.042 45.04 533.578 44.048 535.242 43.792H536.202C536.714 43.792 537.162 43.824 537.546 43.888C537.994 43.952 538.442 44.08 538.89 44.272C539.594 44.592 539.946 45.072 539.946 45.712C539.946 46.096 539.722 46.288 539.274 46.288C539.082 46.288 538.826 46.192 538.506 46C537.738 45.68 537.066 45.52 536.49 45.52C536.106 45.52 535.754 45.616 535.434 45.808C534.218 46.448 533.354 47.344 532.842 48.496C532.394 49.648 532.17 50.864 532.17 52.144C532.17 53.168 532.266 54.224 532.458 55.312C532.714 56.336 533.002 57.264 533.322 58.096C534.026 59.888 534.762 61.648 535.53 63.376C536.362 65.104 536.778 66.96 536.778 68.944C536.778 70.864 536.138 72.912 534.858 75.088C533.578 77.2 531.946 78.896 529.962 80.176L530.634 80.272C530.954 80.336 531.178 80.368 531.306 80.368C531.434 80.368 531.53 80.368 531.594 80.368C533.066 80.368 534.442 79.952 535.722 79.12C537.066 78.224 538.25 77.136 539.274 75.856C540.298 74.576 541.45 72.784 542.73 70.48C544.074 68.176 545.354 65.744 546.57 63.184C546.762 62.864 546.986 62.704 547.242 62.704C547.562 62.704 547.786 62.832 547.914 63.088C548.106 63.28 548.138 63.536 548.01 63.856C547.178 65.648 546.218 67.6 545.13 69.712C544.106 71.76 542.922 73.744 541.578 75.664C540.234 77.52 538.666 79.056 536.874 80.272C535.146 81.424 533.194 82 531.018 82C530.506 82 529.962 81.968 529.386 81.904C528.81 81.84 528.234 81.712 527.658 81.52C527.018 81.776 526.346 81.968 525.642 82.096C525.002 82.288 524.394 82.384 523.818 82.384ZM526.698 79.504C527.786 78.608 528.746 77.296 529.578 75.568C530.474 73.84 530.922 71.568 530.922 68.752C530.922 66.256 530.666 63.6 530.154 60.784C529.642 57.968 529.386 55.472 529.386 53.296C529.386 52.848 529.386 52.464 529.386 52.144C529.45 51.76 529.514 51.408 529.578 51.088C528.746 52.816 527.786 54.832 526.698 57.136C525.61 59.376 524.522 61.552 523.434 63.664C522.346 65.776 521.418 67.568 520.65 69.04C520.65 69.04 520.81 69.072 521.13 69.136C521.514 69.136 521.866 69.36 522.186 69.808C522.506 70.192 522.634 70.992 522.57 72.208C522.506 73.808 522.858 75.312 523.626 76.72C524.458 78.064 525.482 78.992 526.698 79.504ZM523.05 80.848C523.434 80.848 523.786 80.816 524.106 80.752C524.426 80.624 524.714 80.528 524.97 80.464C524.01 79.76 523.146 78.832 522.378 77.68C521.674 76.464 521.258 74.928 521.13 73.072C519.978 74.288 519.402 75.6 519.402 77.008C519.402 78.032 519.722 78.928 520.362 79.696C521.002 80.464 521.898 80.848 523.05 80.848ZM604.804 91.024C600.196 91.024 595.748 90.448 591.46 89.296C587.172 88.208 583.332 86.544 579.94 84.304C576.548 82.064 573.828 79.248 571.78 75.856C569.796 72.464 568.804 68.464 568.804 63.856C568.804 60.464 569.412 56.848 570.628 53.008C571.332 50.832 572.324 48.976 573.604 47.44C574.948 45.904 576.324 44.72 577.732 43.888C579.14 43.056 580.26 42.64 581.092 42.64C582.18 42.64 582.628 43.152 582.436 44.176C582.052 44.624 581.38 45.168 580.42 45.808C579.524 46.384 578.532 47.152 577.444 48.112C576.42 49.072 575.428 50.32 574.468 51.856C573.572 53.328 572.932 55.216 572.548 57.52C572.42 58.352 572.292 59.184 572.164 60.016C572.1 60.848 572.068 61.648 572.068 62.416C572.068 66.576 572.964 70.256 574.756 73.456C576.548 76.656 578.884 79.312 581.764 81.424C584.708 83.536 587.908 85.104 591.364 86.128C594.884 87.216 598.34 87.728 601.732 87.664C606.916 87.536 611.524 86.8 615.556 85.456C619.588 84.176 623.172 82.448 626.308 80.272C629.444 78.096 632.196 75.696 634.564 73.072C636.548 70.896 638.532 68.24 640.516 65.104C642.5 61.968 644.42 58.608 646.276 55.024C648.196 51.376 649.988 47.76 651.652 44.176C653.38 40.592 654.98 37.2 656.452 34C657.924 30.8 659.204 28.08 660.292 25.84C661.38 23.536 662.276 21.936 662.98 21.04C657.924 19.504 653.06 18.32 648.388 17.488C643.78 16.592 638.852 16.016 633.604 15.76C628.804 15.504 624.516 16.048 620.74 17.392C617.028 18.736 613.86 20.56 611.236 22.864C608.676 25.104 606.692 27.568 605.284 30.256C603.94 32.944 603.268 35.536 603.268 38.032C603.268 40.208 603.812 42.16 604.9 43.888C606.052 45.552 607.78 46.768 610.084 47.536C611.62 47.984 613.124 48.208 614.596 48.208C616.9 48.208 618.916 47.728 620.644 46.768C622.372 45.808 623.812 44.656 624.964 43.312C626.18 41.904 627.076 40.592 627.652 39.376C628.292 38.096 628.612 37.168 628.612 36.592V36.496C628.932 36.112 629.252 35.92 629.572 35.92C630.212 35.92 630.532 36.368 630.532 37.264C630.212 40.016 629.22 42.416 627.556 44.464C625.956 46.512 624.004 48.08 621.7 49.168C619.396 50.256 616.964 50.8 614.404 50.8C612.612 50.8 610.884 50.512 609.22 49.936C605.7 48.656 603.044 46.608 601.252 43.792C599.46 40.912 598.564 37.808 598.564 34.48C598.564 31.664 599.172 28.88 600.388 26.128C601.604 23.312 603.46 20.752 605.956 18.448C608.452 16.08 611.556 14.192 615.268 12.784C618.98 11.376 623.332 10.672 628.324 10.672C629.156 10.672 629.828 10.672 630.34 10.672C630.852 10.672 631.716 10.736 632.932 10.864C635.94 11.12 638.98 11.632 642.052 12.4C645.124 13.104 648.068 13.904 650.884 14.8C653.7 15.696 656.292 16.56 658.66 17.392C661.028 18.224 662.98 18.832 664.516 19.216C664.708 18.96 665.252 18.512 666.148 17.872C667.108 17.232 668.068 16.56 669.028 15.856C670.052 15.152 670.852 14.544 671.428 14.032C672.004 13.52 672.036 13.264 671.524 13.264H671.428C671.62 13.2 671.876 13.168 672.196 13.168C672.836 13.168 673.316 13.392 673.636 13.84C673.956 14.224 674.116 14.64 674.116 15.088C674.116 15.92 673.732 16.336 672.964 16.336C672.836 16.336 672.58 16.272 672.196 16.144C671.94 15.888 671.46 16.016 670.756 16.528C670.116 17.04 669.444 17.648 668.74 18.352C668.1 18.992 667.588 19.536 667.204 19.984C668.612 20.432 670.372 20.976 672.484 21.616C674.66 22.192 676.964 22.8 679.396 23.44C681.892 24.016 684.324 24.496 686.692 24.88C689.06 25.264 691.172 25.456 693.028 25.456C694.82 25.456 696.228 25.232 697.252 24.784C698.34 24.336 698.884 23.6 698.884 22.576C698.884 22.192 698.948 21.872 699.076 21.616C699.268 21.296 699.588 21.136 700.036 21.136C700.356 21.136 700.58 21.424 700.708 22C700.836 22.512 700.9 22.928 700.9 23.248C700.9 24.784 700.068 26.032 698.404 26.992C696.804 27.952 694.788 28.432 692.356 28.432C691.972 28.432 691.588 28.432 691.204 28.432C690.82 28.368 690.404 28.304 689.956 28.24C682.788 27.344 677.188 26.192 673.156 24.784C669.188 23.376 666.692 22.448 665.668 22C662.788 26.608 660.42 31.344 658.564 36.208C656.708 41.072 654.948 45.936 653.284 50.8C651.684 55.664 649.796 60.368 647.62 64.912C645.508 69.456 642.692 73.744 639.172 77.776C636.612 80.656 633.476 83.088 629.764 85.072C626.116 87.056 622.148 88.528 617.86 89.488C613.572 90.512 609.22 91.024 604.804 91.024ZM664.406 82C661.974 82 660.182 81.2 659.03 79.6C657.878 77.936 657.302 75.92 657.302 73.552C657.302 70.672 657.974 67.664 659.318 64.528C660.598 61.584 662.23 58.896 664.214 56.464C666.198 54.032 668.342 52.08 670.646 50.608C672.95 49.072 675.19 48.304 677.366 48.304C679.798 48.304 681.59 49.104 682.742 50.704C683.894 52.304 684.47 54.32 684.47 56.752C684.47 59.696 683.798 62.704 682.454 65.776C681.686 67.504 680.598 69.424 679.19 71.536C677.782 73.584 676.182 75.472 674.39 77.2C674.774 77.904 675.318 78.512 676.022 79.024C676.726 79.472 677.686 79.696 678.902 79.696C680.438 79.696 681.878 79.056 683.222 77.776C684.63 76.496 685.91 74.96 687.062 73.168C688.214 71.312 689.238 69.456 690.134 67.6C691.03 65.744 691.766 64.24 692.342 63.088C692.534 62.704 692.854 62.512 693.302 62.512C693.558 62.512 693.75 62.64 693.878 62.896C694.006 63.088 693.974 63.408 693.782 63.856C693.398 64.816 692.758 66.256 691.862 68.176C690.966 70.032 689.878 71.984 688.598 74.032C687.318 76.016 685.846 77.712 684.182 79.12C682.518 80.528 680.662 81.232 678.614 81.232C677.206 81.232 675.99 81.008 674.966 80.56C673.942 80.048 673.11 79.44 672.47 78.736C671.126 79.76 669.782 80.56 668.438 81.136C667.094 81.712 665.75 82 664.406 82ZM665.846 79.888C667.574 79.888 669.43 79.056 671.414 77.392C670.902 76.624 670.518 75.824 670.262 74.992C670.006 74.16 669.878 73.392 669.878 72.688C669.878 71.536 670.134 70.544 670.646 69.712C671.222 68.88 672.086 68.464 673.238 68.464C674.07 68.464 674.742 68.784 675.254 69.424C675.83 70 676.118 70.672 676.118 71.44C676.118 71.632 676.086 71.824 676.022 72.016C676.022 72.144 675.99 72.304 675.926 72.496C677.014 71.024 678.038 69.296 678.998 67.312C681.11 62.768 682.166 59.024 682.166 56.08C682.166 54.608 681.878 53.456 681.302 52.624C680.726 51.792 679.862 51.376 678.71 51.376C677.366 51.376 675.894 51.952 674.294 53.104C672.758 54.256 671.254 55.792 669.782 57.712C668.374 59.632 667.126 61.776 666.038 64.144C665.014 66.32 664.182 68.432 663.542 70.48C662.966 72.464 662.678 74.192 662.678 75.664C662.678 76.944 662.934 77.968 663.446 78.736C663.958 79.504 664.758 79.888 665.846 79.888ZM747.228 120.4C742.748 120.4 739.1 119.568 736.284 117.904C733.532 116.24 732.156 114.224 732.156 111.856C732.156 110.128 733.052 108.24 734.844 106.192C736.7 104.144 739.676 102.288 743.772 100.624C750.044 98 756.7 96.304 763.74 95.536C770.78 94.832 778.044 94.48 785.532 94.48C788.028 88.272 790.396 82.096 792.636 75.952C794.876 69.808 796.86 63.536 798.588 57.136C797.436 59.76 795.9 62.736 793.98 66.064C792.06 69.392 789.852 72.624 787.356 75.76C784.86 78.832 782.108 81.392 779.1 83.44C775.388 85.936 771.548 87.184 767.58 87.184C764.636 87.184 762.108 86.32 759.996 84.592C757.884 82.864 756.828 80.144 756.828 76.432C756.828 76.048 756.828 75.632 756.828 75.184C756.892 74.736 756.956 74.288 757.02 73.84C757.532 70.64 758.556 67.184 760.092 63.472C761.692 59.76 763.484 56.112 765.468 52.528C767.516 48.88 769.404 45.616 771.132 42.736C773.18 39.408 774.972 36.016 776.508 32.56C778.044 29.104 779.228 25.776 780.06 22.576C780.892 19.376 781.308 16.56 781.308 14.128C781.308 12.272 781.02 10.64 780.444 9.232C779.932 7.76 779.068 6.64 777.852 5.872C775.036 4.08 771.708 3.184 767.868 3.184C763.772 3.184 759.452 4.112 754.908 5.96799C750.364 7.824 745.916 10.352 741.564 13.552C737.276 16.688 733.436 20.272 730.044 24.304C726.652 28.336 724.028 32.528 722.172 36.88C721.02 39.632 720.156 42.192 719.58 44.56C719.068 46.928 718.812 49.104 718.812 51.088C718.812 54.544 719.484 57.424 720.828 59.728C722.172 61.968 723.932 63.664 726.108 64.816C728.284 65.968 730.62 66.544 733.116 66.544C735.164 66.544 737.212 66.192 739.26 65.488C741.5 64.72 743.58 63.44 745.5 61.648C747.484 59.856 749.212 57.84 750.684 55.6C752.22 53.36 753.404 51.088 754.236 48.784C755.068 46.48 755.484 44.4 755.484 42.544C755.484 40.688 755.004 39.184 754.044 38.032C753.148 36.816 751.644 36.208 749.532 36.208C748.764 36.208 747.932 36.304 747.036 36.496C746.78 36.56 746.556 36.592 746.364 36.592C746.172 36.592 746.012 36.592 745.884 36.592C745.308 36.592 745.02 36.464 745.02 36.208C745.02 36.08 745.212 35.888 745.596 35.632C745.98 35.312 746.396 35.12 746.844 35.056C748.7 34.608 750.268 34.384 751.548 34.384C754.172 34.384 756.092 35.12 757.308 36.592C758.524 38.064 759.132 39.952 759.132 42.256C759.132 44.944 758.3 47.952 756.636 51.28C755.036 54.544 752.732 57.68 749.724 60.688C746.716 63.632 743.1 65.968 738.876 67.696C736.572 68.656 734.204 69.136 731.772 69.136C728.572 69.136 725.564 68.336 722.748 66.736C719.996 65.072 717.756 62.736 716.028 59.728C714.3 56.72 713.436 53.168 713.436 49.072C713.436 46.576 713.756 44.144 714.396 41.776C715.036 39.344 715.964 36.848 717.18 34.288C719.548 29.36 722.684 24.88 726.588 20.848C730.492 16.752 734.78 13.2 739.452 10.192C744.188 7.184 748.988 4.88 753.852 3.27999C758.716 1.616 763.292 0.783998 767.58 0.783998C769.436 0.783998 771.196 0.943998 772.86 1.264C774.524 1.52 776.06 2 777.468 2.704C780.86 4.176 783.26 6.256 784.668 8.944C786.076 11.568 786.78 14.512 786.78 17.776C786.78 21.424 786.044 25.328 784.572 29.488C783.1 33.584 781.212 37.584 778.908 41.488C776.732 45.136 774.588 48.944 772.476 52.912C770.428 56.88 768.636 60.72 767.1 64.432C765.564 68.144 764.476 71.472 763.836 74.416C763.708 75.056 763.612 75.696 763.548 76.336C763.484 76.976 763.452 77.552 763.452 78.064C763.452 80.304 763.996 81.936 765.084 82.96C766.172 83.984 767.548 84.496 769.212 84.496C771.9 84.496 774.748 83.44 777.756 81.328C780.124 79.664 782.396 77.456 784.572 74.704C786.812 71.952 788.892 68.944 790.812 65.68C792.732 62.352 794.46 59.024 795.996 55.696C797.532 52.304 798.844 49.136 799.932 46.192C801.02 43.248 801.852 40.784 802.428 38.8C802.556 38.224 803.036 37.552 803.868 36.784C804.7 36.016 805.5 35.632 806.268 35.632C806.78 35.632 807.196 35.888 807.516 36.4C807.9 36.912 808.092 37.808 808.092 39.088C808.092 40.368 807.804 42.32 807.228 44.944C806.396 48.656 805.372 52.72 804.156 57.136C802.94 61.488 801.564 65.936 800.028 70.48C798.556 74.96 796.956 79.248 795.228 83.344C793.564 87.504 791.868 91.184 790.14 94.384C794.876 94.384 799.26 94.224 803.292 93.904C807.388 93.584 810.332 92.912 812.124 91.888C814.236 90.672 815.804 89.616 816.828 88.72C817.916 87.888 818.46 86.544 818.46 84.688V84.112C818.46 83.536 818.556 83.248 818.748 83.248C819.004 83.248 819.292 83.76 819.612 84.784C819.676 84.976 819.708 85.168 819.708 85.36C819.772 85.552 819.804 85.776 819.804 86.032C819.804 87.376 819.228 88.88 818.076 90.544C816.988 92.272 815.132 93.68 812.508 94.768C810.14 95.728 806.78 96.304 802.428 96.496C798.14 96.688 793.532 96.816 788.604 96.88C785.404 101.744 781.372 105.936 776.508 109.456C771.708 112.976 766.844 115.664 761.916 117.52C759.228 118.544 756.636 119.28 754.14 119.728C751.708 120.176 749.404 120.4 747.228 120.4ZM747.9 117.712C749.756 117.712 751.772 117.52 753.948 117.136C756.124 116.752 758.268 116.176 760.38 115.408C764.732 113.808 769.02 111.472 773.244 108.4C777.532 105.392 781.148 101.552 784.092 96.88C777.564 96.88 770.972 97.36 764.316 98.32C757.66 99.344 751.452 101.52 745.692 104.848C742.812 106.448 740.732 107.952 739.452 109.36C738.236 110.768 737.628 112.016 737.628 113.104C737.628 114.512 738.588 115.632 740.508 116.464C742.492 117.296 744.956 117.712 747.9 117.712ZM813.937 82C811.505 82 809.713 81.2 808.561 79.6C807.409 77.936 806.833 75.92 806.833 73.552C806.833 70.672 807.505 67.664 808.849 64.528C810.129 61.584 811.761 58.896 813.745 56.464C815.729 54.032 817.873 52.08 820.177 50.608C822.481 49.072 824.721 48.304 826.897 48.304C829.329 48.304 831.121 49.104 832.273 50.704C833.425 52.304 834.001 54.32 834.001 56.752C834.001 59.696 833.329 62.704 831.985 65.776C831.217 67.504 830.129 69.424 828.721 71.536C827.313 73.584 825.713 75.472 823.921 77.2C824.305 77.904 824.849 78.512 825.553 79.024C826.257 79.472 827.217 79.696 828.433 79.696C829.969 79.696 831.409 79.056 832.753 77.776C834.161 76.496 835.441 74.96 836.593 73.168C837.745 71.312 838.769 69.456 839.665 67.6C840.561 65.744 841.297 64.24 841.873 63.088C842.065 62.704 842.385 62.512 842.833 62.512C843.089 62.512 843.281 62.64 843.409 62.896C843.537 63.088 843.505 63.408 843.313 63.856C842.929 64.816 842.289 66.256 841.393 68.176C840.497 70.032 839.409 71.984 838.129 74.032C836.849 76.016 835.377 77.712 833.713 79.12C832.049 80.528 830.193 81.232 828.145 81.232C826.737 81.232 825.521 81.008 824.497 80.56C823.473 80.048 822.641 79.44 822.001 78.736C820.657 79.76 819.313 80.56 817.969 81.136C816.625 81.712 815.281 82 813.937 82ZM815.377 79.888C817.105 79.888 818.961 79.056 820.945 77.392C820.433 76.624 820.049 75.824 819.793 74.992C819.537 74.16 819.409 73.392 819.409 72.688C819.409 71.536 819.665 70.544 820.177 69.712C820.753 68.88 821.617 68.464 822.769 68.464C823.601 68.464 824.273 68.784 824.785 69.424C825.361 70 825.649 70.672 825.649 71.44C825.649 71.632 825.617 71.824 825.553 72.016C825.553 72.144 825.521 72.304 825.457 72.496C826.545 71.024 827.569 69.296 828.529 67.312C830.641 62.768 831.697 59.024 831.697 56.08C831.697 54.608 831.409 53.456 830.833 52.624C830.257 51.792 829.393 51.376 828.241 51.376C826.897 51.376 825.425 51.952 823.825 53.104C822.289 54.256 820.785 55.792 819.313 57.712C817.905 59.632 816.657 61.776 815.569 64.144C814.545 66.32 813.713 68.432 813.073 70.48C812.497 72.464 812.209 74.192 812.209 75.664C812.209 76.944 812.465 77.968 812.977 78.736C813.489 79.504 814.289 79.888 815.377 79.888ZM844.557 82C843.853 82 842.989 81.84 841.965 81.52C841.005 81.2 840.141 80.624 839.373 79.792C838.669 78.896 838.317 77.584 838.317 75.856C838.317 74.192 838.701 72.592 839.469 71.056C840.301 69.456 841.069 67.92 841.773 66.448C841.581 66.448 841.357 66.384 841.101 66.256C840.909 66.128 840.813 65.936 840.813 65.68C840.813 65.424 840.877 65.168 841.005 64.912C841.261 64.4 841.549 63.856 841.869 63.28C842.189 62.704 842.477 62.096 842.733 61.456C843.693 59.472 844.653 57.584 845.613 55.792C846.573 53.936 847.405 52.304 848.109 50.896C848.813 49.488 850.029 48.784 851.757 48.784H857.709C856.621 49.616 855.629 50.544 854.733 51.568C853.901 52.528 852.845 54.32 851.565 56.944C851.565 56.944 851.341 57.392 850.893 58.288C850.445 59.184 849.869 60.336 849.165 61.744C848.525 63.088 847.853 64.464 847.149 65.872C846.509 67.28 845.965 68.464 845.517 69.424C844.685 71.216 844.141 72.656 843.885 73.744C843.629 74.768 843.501 75.728 843.501 76.624C843.501 78.736 844.205 79.792 845.613 79.792C847.149 79.792 849.005 78.544 851.181 76.048C852.973 73.936 854.733 71.408 856.461 68.464C858.189 65.52 859.821 62.48 861.357 59.344C862.957 56.208 864.365 53.392 865.581 50.896C866.285 49.488 867.533 48.784 869.325 48.784H874.605C873.645 49.552 872.845 50.288 872.205 50.992C871.565 51.632 870.925 52.528 870.285 53.68C869.709 54.768 868.909 56.336 867.885 58.384C867.053 60.112 866.157 61.968 865.197 63.952C864.301 65.872 863.501 67.696 862.797 69.424C862.093 71.152 861.645 72.56 861.453 73.648C861.389 74.288 861.325 74.768 861.261 75.088C861.197 75.408 861.165 75.76 861.165 76.144C861.165 77.36 861.357 78.224 861.741 78.736C862.189 79.248 862.701 79.504 863.277 79.504C864.813 79.504 866.349 78.64 867.885 76.912C869.485 75.184 870.989 73.072 872.397 70.576C873.869 68.08 875.117 65.712 876.141 63.472C876.525 62.768 876.877 62.416 877.197 62.416C877.581 62.416 877.773 62.64 877.773 63.088C877.773 63.408 877.645 63.792 877.389 64.24C876.685 65.776 875.821 67.536 874.797 69.52C873.773 71.504 872.621 73.456 871.341 75.376C870.061 77.296 868.653 78.896 867.117 80.176C865.581 81.392 863.917 82 862.125 82C860.525 82 859.213 81.424 858.189 80.272C857.165 79.056 856.653 77.36 856.653 75.184C856.653 73.456 856.973 71.6 857.613 69.616C856.525 71.536 855.277 73.456 853.869 75.376C852.461 77.296 850.957 78.896 849.357 80.176C847.757 81.392 846.157 82 844.557 82Z" fill="white"/>
</svg>
