<svg width="578" height="113" viewBox="0 0 578 113" fill="none" xmlns="http://www.w3.org/2000/svg">
<path d="M115.952 99.76C112.432 99.76 109.168 98.96 106.16 97.36C103.216 95.76 100.592 93.584 98.2881 90.832C95.9841 88.144 94.0641 85.104 92.5281 81.712C91.2481 78.832 90.1921 75.92 89.3601 72.976C88.5921 70.032 88.0161 67.28 87.6321 64.72C87.2481 62.16 87.0561 60.048 87.0561 58.384C87.0561 56.336 87.2801 55.184 87.7281 54.928C88.9441 55.056 90.9601 54.544 93.7761 53.392C96.6561 52.24 100.048 50.544 103.952 48.304C107.92 46.064 112.176 43.376 116.72 40.24C121.328 37.04 125.936 33.456 130.544 29.488C135.216 25.52 139.696 21.232 143.984 16.624C148.272 12.016 152.048 7.184 155.312 2.128C156.08 0.911999 156.816 0.303999 157.52 0.303999C158.096 0.303999 158.384 0.655998 158.384 1.36C158.384 1.936 158.16 2.576 157.712 3.27999C154.64 8.4 150.992 13.424 146.768 18.352C142.544 23.216 138.032 27.792 133.232 32.08C128.432 36.368 123.6 40.24 118.736 43.696C113.936 47.152 109.328 50.032 104.912 52.336C100.56 54.64 96.7201 56.208 93.3921 57.04C93.2001 56.912 93.1041 57.232 93.1041 58C93.1041 59.088 93.3281 60.848 93.7761 63.28C94.2241 65.648 94.8961 68.368 95.7921 71.44C96.7521 74.448 97.9041 77.52 99.2481 80.656C101.296 85.456 103.728 89.136 106.544 91.696C109.424 94.32 112.72 95.632 116.432 95.632C118.928 95.632 121.488 95.248 124.112 94.48C126.736 93.776 129.136 92.656 131.312 91.12C133.488 89.648 135.184 87.76 136.4 85.456C136.784 84.56 137.232 84.112 137.744 84.112C138 84.112 138.128 84.304 138.128 84.688C138.128 85.136 137.968 85.648 137.648 86.224C136.496 88.592 134.736 90.8 132.368 92.848C130 94.896 127.344 96.56 124.4 97.84C121.52 99.12 118.704 99.76 115.952 99.76ZM34.7361 98.512C30.3841 98.512 26.1601 97.904 22.0641 96.688C18.0321 95.536 14.3841 93.808 11.1201 91.504C7.92013 89.2 5.36013 86.384 3.44013 83.056C1.58413 79.728 0.656125 75.952 0.656125 71.728C0.656125 70.576 0.752125 69.392 0.944125 68.176C1.13612 66.896 1.39213 65.584 1.71213 64.24C2.35213 61.936 3.37613 59.952 4.78413 58.288C6.25613 56.56 7.76013 55.216 9.29613 54.256C10.8321 53.232 11.9841 52.688 12.7521 52.624H13.0401C13.6801 52.624 14.0001 52.816 14.0001 53.2C14.0001 53.52 13.8401 53.776 13.5201 53.968C12.9441 54.224 11.9521 54.96 10.5441 56.176C9.20013 57.328 7.85613 58.96 6.51213 61.072C5.16813 63.12 4.30413 65.584 3.92013 68.464C3.72813 69.68 3.63213 70.832 3.63213 71.92C3.63213 75.76 4.46413 79.056 6.12813 81.808C7.79213 84.496 9.96813 86.704 12.6561 88.432C15.3441 90.16 18.2881 91.408 21.4881 92.176C24.6881 93.008 27.8241 93.424 30.8961 93.424C32.1121 93.424 33.2961 93.36 34.4481 93.232C35.6001 93.168 36.6881 93.008 37.7121 92.752C44.6241 91.216 50.6081 88.752 55.6641 85.36C60.7841 81.968 65.2001 78.064 68.9121 73.648C72.6241 69.232 75.7601 64.688 78.3201 60.016C80.9441 55.344 83.1521 50.96 84.9441 46.864C85.3281 45.904 85.9681 44.4 86.8641 42.352C87.8241 40.304 88.8801 37.968 90.0321 35.344C91.2481 32.72 92.4641 30.064 93.6801 27.376C94.9601 24.688 96.1121 22.224 97.1361 19.984C98.1601 17.744 98.9921 16.016 99.6321 14.8C95.3441 15.312 90.7041 15.792 85.7121 16.24C80.7841 16.624 76.0801 17.456 71.6001 18.736C66.6081 20.144 62.5121 22.192 59.3121 24.88C56.1761 27.568 53.8401 30.512 52.3041 33.712C50.8321 36.912 50.0961 39.952 50.0961 42.832C50.0961 45.968 50.8961 48.592 52.4961 50.704C54.0961 52.816 56.3041 53.872 59.1201 53.872C60.5281 53.872 62.0321 53.584 63.6321 53.008C65.4881 52.368 67.0241 51.248 68.2401 49.648C69.4561 47.984 70.3521 46.128 70.9281 44.08C71.5681 41.968 71.8881 39.952 71.8881 38.032C71.8881 37.008 71.7921 36.016 71.6001 35.056V34.864C71.6001 34.608 71.7281 34.48 71.9841 34.48C72.4961 34.48 72.9441 34.864 73.3281 35.632C73.6481 36.272 73.8401 36.976 73.9041 37.744C74.0321 38.448 74.0961 39.152 74.0961 39.856C74.0961 41.904 73.6481 43.952 72.7521 46C71.8561 47.984 70.6721 49.776 69.2001 51.376C67.7281 52.976 66.0641 54.128 64.2081 54.832C63.1841 55.216 62.1921 55.504 61.2321 55.696C60.2721 55.824 59.3441 55.888 58.4481 55.888C55.6961 55.888 53.2321 55.184 51.0561 53.776C48.9441 52.304 47.2801 50.384 46.0641 48.016C44.9121 45.648 44.3361 43.088 44.3361 40.336C44.3361 37.2 45.2001 34.032 46.9281 30.832C48.6561 27.568 51.4401 24.624 55.2801 22C59.1201 19.312 64.1761 17.264 70.4481 15.856C75.6961 14.704 81.0401 13.968 86.4801 13.648C91.9201 13.264 96.7201 12.88 100.88 12.496C101.136 12.112 101.648 11.376 102.416 10.288C103.248 9.2 104.176 8.112 105.2 7.024C106.288 5.872 107.344 5.136 108.368 4.816C109.072 4.624 109.68 4.528 110.192 4.528C111.344 4.528 112.24 4.848 112.88 5.488C113.584 6.12799 113.936 6.89599 113.936 7.79199C113.936 9.072 113.04 10.448 111.248 11.92C109.52 13.328 106.576 14.256 102.416 14.704C100.368 18.48 98.4801 22.672 96.7521 27.28C95.0241 31.824 93.2961 36.592 91.5681 41.584C89.9041 46.512 88.0481 51.472 86.0001 56.464C84.0161 61.392 81.7441 66.16 79.1841 70.768C76.6241 75.312 73.5841 79.472 70.0641 83.248C66.6081 87.024 62.5121 90.192 57.7761 92.752C53.1041 95.312 47.6641 97.072 41.4561 98.032C40.3681 98.16 39.2481 98.256 38.0961 98.32C36.9441 98.448 35.8241 98.512 34.7361 98.512ZM104.24 12.304C106.224 11.984 107.632 11.6 108.464 11.152C109.36 10.64 110 10.128 110.384 9.616C110.832 9.104 111.056 8.656 111.056 8.272C111.056 7.632 110.736 7.31199 110.096 7.31199C109.52 7.31199 108.816 7.632 107.984 8.272C107.344 8.72 106.672 9.36 105.968 10.192C105.264 11.024 104.688 11.728 104.24 12.304ZM137.878 82.288C137.174 82.352 136.374 82.192 135.478 81.808C134.582 81.424 133.782 80.72 133.078 79.696C132.438 78.672 132.118 77.232 132.118 75.376C132.118 73.84 132.406 71.984 132.982 69.808C132.214 71.024 131.222 72.528 130.006 74.32C128.79 76.048 127.478 77.584 126.07 78.928C124.854 80.08 123.702 80.912 122.614 81.424C121.526 81.936 120.534 82.192 119.638 82.192C117.974 82.192 116.63 81.456 115.606 79.984C114.582 78.448 114.07 76.464 114.07 74.032C114.07 71.472 114.71 68.56 115.99 65.296C117.27 62.032 119.35 58.64 122.23 55.12C124.086 52.88 126.326 51.088 128.95 49.744C131.638 48.336 134.262 47.632 136.822 47.632C138.294 47.632 139.702 47.888 141.046 48.4C142.39 48.848 143.574 49.616 144.598 50.704C145.046 51.152 145.27 51.664 145.27 52.24C145.27 52.624 145.11 52.944 144.79 53.2C144.47 53.456 144.054 53.52 143.542 53.392C142.838 51.152 141.334 50.032 139.03 50.032C137.942 50.032 136.694 50.384 135.286 51.088C133.11 52.24 130.838 54.128 128.47 56.752C126.166 59.376 124.15 62.096 122.422 64.912C122.166 65.296 121.75 66.032 121.174 67.12C120.662 68.208 120.15 69.424 119.638 70.768C119.126 72.112 118.774 73.424 118.582 74.704C118.518 75.088 118.486 75.376 118.486 75.568C118.486 75.696 118.486 75.92 118.486 76.24C118.486 78.352 119.286 79.408 120.886 79.408C122.806 79.408 124.982 78 127.414 75.184C129.078 73.136 130.582 70.992 131.926 68.752C133.27 66.512 134.646 64.112 136.054 61.552C137.014 59.824 137.91 58.384 138.742 57.232C139.574 56.08 140.758 55.504 142.294 55.504C142.998 55.504 143.702 55.6 144.406 55.792C145.11 55.984 145.846 56.016 146.614 55.888C146.102 56.4 145.398 57.36 144.502 58.768C143.67 60.176 142.774 61.776 141.814 63.568C140.854 65.36 139.99 67.184 139.222 69.04C138.454 70.896 137.91 72.496 137.59 73.84C137.526 74.224 137.43 74.768 137.302 75.472C137.238 76.176 137.206 76.688 137.206 77.008C137.206 78.8 137.718 79.696 138.742 79.696C139.766 79.696 140.854 79.088 142.006 77.872C143.222 76.656 144.406 75.152 145.558 73.36C146.71 71.568 147.766 69.776 148.726 67.984C149.686 66.128 150.454 64.624 151.03 63.472C151.286 62.832 151.67 62.512 152.182 62.512C152.502 62.512 152.662 62.736 152.662 63.184C152.662 63.376 152.566 63.728 152.374 64.24C151.606 65.84 150.678 67.664 149.59 69.712C148.502 71.696 147.318 73.648 146.038 75.568C144.758 77.424 143.414 78.992 142.006 80.272C140.662 81.488 139.286 82.16 137.878 82.288ZM141.868 82.48C144.236 77.936 146.476 73.392 148.588 68.848C150.7 64.24 152.844 59.888 155.02 55.792C156.3 53.488 157.356 51.888 158.188 50.992C159.084 50.032 160.268 49.552 161.74 49.552C162.252 49.552 162.796 49.648 163.372 49.84C163.948 49.968 164.524 50.032 165.1 50.032C165.484 50.032 165.772 50 165.964 49.936C165.068 50.448 163.916 51.728 162.508 53.776C161.1 55.76 159.66 58.064 158.188 60.688C156.716 63.312 155.404 65.776 154.252 68.08C155.468 66.608 156.716 65.136 157.996 63.664C159.34 62.192 160.812 60.784 162.412 59.44C163.82 58.224 165.292 56.912 166.828 55.504C168.428 54.032 169.996 52.784 171.532 51.76C173.068 50.736 174.412 50.224 175.564 50.224C176.012 50.224 176.3 50.256 176.428 50.32C177.644 50.832 178.252 51.664 178.252 52.816C178.252 53.2 178.092 53.776 177.772 54.544C176.94 56.72 175.852 58.96 174.508 61.264C173.228 63.504 172.012 65.776 170.86 68.08C171.82 66.928 173.004 65.52 174.412 63.856C175.884 62.192 177.356 60.72 178.828 59.44C180.236 58.16 182.028 56.816 184.204 55.408C186.38 54 188.524 52.784 190.636 51.76C192.748 50.736 194.444 50.224 195.724 50.224C196.172 50.224 196.492 50.256 196.684 50.32C196.684 50.32 196.332 50.96 195.628 52.24C194.924 53.456 194.028 55.088 192.94 57.136C191.916 59.12 190.86 61.264 189.772 63.568C188.684 65.808 187.692 67.984 186.796 70.096C185.964 72.144 185.42 73.872 185.164 75.28C184.972 76.112 184.876 76.88 184.876 77.584C184.876 78.608 185.068 79.28 185.452 79.6C185.836 79.92 186.252 80.08 186.7 80.08C187.98 80.08 189.292 79.408 190.636 78.064C191.98 76.72 193.26 75.12 194.476 73.264C195.756 71.344 196.876 69.488 197.836 67.696C198.796 65.84 199.5 64.432 199.948 63.472C200.332 62.768 200.716 62.416 201.1 62.416C201.484 62.416 201.676 62.672 201.676 63.184C201.676 63.504 201.58 63.856 201.388 64.24C200.62 65.712 199.692 67.472 198.604 69.52C197.58 71.568 196.396 73.584 195.052 75.568C193.708 77.488 192.204 79.12 190.54 80.464C188.94 81.744 187.212 82.384 185.356 82.384C184.012 82.384 182.636 81.936 181.228 81.04C179.884 80.144 179.212 78.48 179.212 76.048C179.212 74.704 179.5 73.072 180.076 71.152C180.524 69.872 181.196 68.4 182.092 66.736C183.052 65.072 184.204 63.152 185.548 60.976C186.188 59.888 186.508 59.024 186.508 58.384C186.508 57.616 186.124 57.232 185.356 57.232C184.716 57.232 183.82 57.552 182.668 58.192C181.58 58.832 180.204 59.952 178.54 61.552C177.516 62.512 176.3 63.856 174.892 65.584C173.548 67.248 172.172 69.072 170.764 71.056C169.356 73.04 168.14 74.992 167.116 76.912C166.092 78.832 165.42 80.528 165.1 82C164.14 82 163.372 81.616 162.796 80.848C162.22 80.016 161.932 79.056 161.932 77.968C161.932 77.776 161.932 77.584 161.932 77.392C161.932 77.2 161.964 76.976 162.028 76.72C162.348 74.736 162.86 72.88 163.564 71.152C164.268 69.424 165.068 67.632 165.964 65.776C166.668 64.432 167.372 62.992 168.076 61.456C168.78 59.856 169.132 58.64 169.132 57.808C169.132 57.296 168.94 57.04 168.556 57.04C168.108 57.04 167.372 57.392 166.348 58.096C165.324 58.736 163.916 59.888 162.124 61.552C160.524 63.088 158.572 65.296 156.268 68.176C154.028 71.056 151.564 75.152 148.876 80.464C148.492 81.168 148.044 81.616 147.532 81.808C147.02 81.936 146.22 82 145.132 82C144.428 82 143.852 82 143.404 82C142.892 82.064 142.38 82.224 141.868 82.48ZM202.807 82C202.103 82 201.239 81.84 200.215 81.52C199.255 81.2 198.391 80.624 197.623 79.792C196.919 78.896 196.567 77.584 196.567 75.856C196.567 74.192 196.951 72.592 197.719 71.056C198.551 69.456 199.319 67.92 200.023 66.448C199.831 66.448 199.607 66.384 199.351 66.256C199.159 66.128 199.063 65.936 199.063 65.68C199.063 65.424 199.127 65.168 199.255 64.912C199.511 64.4 199.799 63.856 200.119 63.28C200.439 62.704 200.727 62.096 200.983 61.456C201.943 59.472 202.903 57.584 203.863 55.792C204.823 53.936 205.655 52.304 206.359 50.896C207.063 49.488 208.279 48.784 210.007 48.784H215.959C214.871 49.616 213.879 50.544 212.983 51.568C212.151 52.528 211.095 54.32 209.815 56.944C209.815 56.944 209.591 57.392 209.143 58.288C208.695 59.184 208.119 60.336 207.415 61.744C206.775 63.088 206.103 64.464 205.399 65.872C204.759 67.28 204.215 68.464 203.767 69.424C202.935 71.216 202.391 72.656 202.135 73.744C201.879 74.768 201.751 75.728 201.751 76.624C201.751 78.736 202.455 79.792 203.863 79.792C205.399 79.792 207.255 78.544 209.431 76.048C211.223 73.936 212.983 71.408 214.711 68.464C216.439 65.52 218.071 62.48 219.607 59.344C221.207 56.208 222.615 53.392 223.831 50.896C224.535 49.488 225.783 48.784 227.575 48.784H232.855C231.895 49.552 231.095 50.288 230.455 50.992C229.815 51.632 229.175 52.528 228.535 53.68C227.959 54.768 227.159 56.336 226.135 58.384C225.303 60.112 224.407 61.968 223.447 63.952C222.551 65.872 221.751 67.696 221.047 69.424C220.343 71.152 219.895 72.56 219.703 73.648C219.639 74.288 219.575 74.768 219.511 75.088C219.447 75.408 219.415 75.76 219.415 76.144C219.415 77.36 219.607 78.224 219.991 78.736C220.439 79.248 220.951 79.504 221.527 79.504C223.063 79.504 224.599 78.64 226.135 76.912C227.735 75.184 229.239 73.072 230.647 70.576C232.119 68.08 233.367 65.712 234.391 63.472C234.775 62.768 235.127 62.416 235.447 62.416C235.831 62.416 236.023 62.64 236.023 63.088C236.023 63.408 235.895 63.792 235.639 64.24C234.935 65.776 234.071 67.536 233.047 69.52C232.023 71.504 230.871 73.456 229.591 75.376C228.311 77.296 226.903 78.896 225.367 80.176C223.831 81.392 222.167 82 220.375 82C218.775 82 217.463 81.424 216.439 80.272C215.415 79.056 214.903 77.36 214.903 75.184C214.903 73.456 215.223 71.6 215.863 69.616C214.775 71.536 213.527 73.456 212.119 75.376C210.711 77.296 209.207 78.896 207.607 80.176C206.007 81.392 204.407 82 202.807 82ZM384.837 93.04C383.877 92.912 382.565 92.656 380.901 92.272C379.237 91.952 377.541 91.28 375.813 90.256C374.085 89.232 372.613 87.664 371.397 85.552C370.181 83.504 369.573 80.752 369.573 77.296C369.573 73.328 370.373 68.976 371.973 64.24C373.637 59.44 375.653 54.448 378.021 49.264C380.389 44.08 382.661 38.96 384.837 33.904C386.565 29.872 387.429 26.8 387.429 24.688C387.429 22.576 386.629 21.52 385.029 21.52C383.237 21.52 380.549 22.96 376.965 25.84C373.445 28.656 369.349 32.944 364.677 38.704C363.461 40.24 361.893 42.384 359.973 45.136C358.053 47.824 356.005 50.832 353.829 54.16C351.653 57.424 349.509 60.752 347.397 64.144C345.349 67.472 343.525 70.544 341.925 73.36C340.389 76.176 339.269 78.416 338.565 80.08C337.733 82.064 336.773 83.408 335.685 84.112C334.597 84.88 333.573 85.264 332.613 85.264C331.781 85.264 331.045 85.04 330.405 84.592C329.829 84.144 329.541 83.6 329.541 82.96C329.541 82.576 329.637 82.256 329.829 82C330.213 81.232 331.237 79.376 332.901 76.432C334.565 73.488 336.453 69.584 338.565 64.72C340.677 59.792 342.693 54.096 344.613 47.632C346.597 41.104 348.069 33.904 349.029 26.032C349.157 25.136 349.221 24.176 349.221 23.152C349.221 20.912 348.837 19.28 348.069 18.256C347.301 17.168 346.277 16.624 344.997 16.624C343.589 16.624 341.989 17.232 340.197 18.448C338.405 19.664 336.581 21.424 334.725 23.728C331.525 27.76 328.709 31.504 326.277 34.96C323.845 38.352 321.605 41.744 319.557 45.136C317.573 48.528 315.589 52.144 313.605 55.984C311.685 59.824 309.637 64.144 307.461 68.944C305.285 73.68 302.789 79.184 299.973 85.456C299.525 86.48 298.757 87.216 297.669 87.664C296.645 88.112 295.685 88.336 294.789 88.336C293.893 88.336 293.157 88.144 292.581 87.76C292.005 87.376 291.813 86.832 292.005 86.128C293.669 83.568 295.461 80.336 297.381 76.432C299.301 72.528 301.221 68.272 303.141 63.664C305.125 58.992 306.949 54.288 308.613 49.552C310.341 44.752 311.813 40.24 313.029 36.016C314.245 31.728 315.077 28.016 315.525 24.88C315.653 23.856 315.749 22.896 315.813 22C315.877 21.104 315.909 20.24 315.909 19.408C315.909 14.48 314.853 10.96 312.741 8.848C310.693 6.736 308.037 5.68 304.773 5.68C302.021 5.68 299.013 6.32 295.749 7.6C292.549 8.816 289.285 10.512 285.957 12.688C282.693 14.864 279.557 17.392 276.549 20.272C273.541 23.088 270.885 26.128 268.581 29.392C266.277 32.592 264.517 35.856 263.301 39.184C262.469 41.552 261.829 43.824 261.381 46C260.997 48.112 260.805 50.096 260.805 51.952C260.805 55.536 261.445 58.576 262.725 61.072C264.069 63.568 265.829 65.456 268.005 66.736C270.245 68.016 272.645 68.656 275.205 68.656C276.101 68.656 277.093 68.56 278.181 68.368C279.333 68.112 280.293 67.856 281.061 67.6C282.917 66.896 284.709 65.808 286.437 64.336C288.165 62.8 289.701 61.04 291.045 59.056C292.389 57.072 293.445 55.056 294.213 53.008C294.981 50.96 295.365 49.04 295.365 47.248C295.365 45.392 294.853 43.856 293.829 42.64C292.805 41.424 291.173 40.816 288.933 40.816C288.677 40.816 288.389 40.848 288.069 40.912C287.813 40.912 287.525 40.912 287.205 40.912H286.917C286.469 40.912 286.053 40.848 285.669 40.72C285.285 40.528 285.093 40.304 285.093 40.048C285.093 39.792 285.413 39.504 286.053 39.184C286.757 38.864 288.005 38.704 289.797 38.704C292.677 38.704 294.821 39.568 296.229 41.296C297.701 42.96 298.437 45.104 298.437 47.728C298.437 50.096 297.797 52.656 296.517 55.408C295.237 58.16 293.317 60.784 290.757 63.28C288.197 65.776 284.965 67.824 281.061 69.424C278.757 70.32 276.517 70.768 274.341 70.768C271.141 70.768 268.101 69.968 265.221 68.368C262.341 66.704 260.005 64.368 258.213 61.36C256.421 58.288 255.525 54.672 255.525 50.512C255.525 48.656 255.717 46.704 256.101 44.656C256.549 42.544 257.253 40.368 258.213 38.128C260.325 33.2 263.173 28.656 266.757 24.496C270.405 20.272 274.437 16.624 278.853 13.552C283.269 10.416 287.749 7.984 292.293 6.256C296.837 4.528 301.061 3.664 304.965 3.664C309.701 3.664 313.605 5.072 316.677 7.888C319.813 10.704 321.381 15.248 321.381 21.52C321.381 21.968 321.349 22.576 321.285 23.344C321.285 24.048 321.253 24.592 321.189 24.976C320.805 28.24 320.133 31.504 319.173 34.768C318.277 38.032 317.285 41.168 316.197 44.176C316.005 44.688 315.845 45.232 315.717 45.808C315.653 46.32 315.621 46.672 315.621 46.864C315.621 47.184 315.685 47.344 315.813 47.344C316.069 47.344 316.581 46.672 317.349 45.328C318.821 42.64 320.133 40.304 321.285 38.32C322.501 36.272 323.685 34.416 324.837 32.752C325.989 31.088 327.237 29.392 328.581 27.664C329.925 25.936 331.461 24.016 333.189 21.904C335.173 19.536 337.445 17.648 340.005 16.24C342.565 14.832 345.029 14.128 347.397 14.128C349.509 14.128 351.301 14.832 352.773 16.24C354.245 17.648 354.981 20.048 354.981 23.44C354.981 23.824 354.981 24.144 354.981 24.4C354.981 24.656 354.949 25.04 354.885 25.552C354.309 31.696 353.093 37.744 351.237 43.696C349.381 49.584 347.461 55.536 345.477 61.552C347.461 58.48 350.149 54.576 353.541 49.84C356.933 45.104 360.645 40.208 364.677 35.152C369.605 29.008 374.181 24.4 378.405 21.328C382.629 18.256 386.117 16.72 388.869 16.72C392.325 16.72 394.053 18.832 394.053 23.056C394.053 24.656 393.733 26.576 393.093 28.816C392.517 31.056 391.589 33.424 390.309 35.92C388.901 38.736 387.333 42 385.605 45.712C383.941 49.36 382.341 53.2 380.805 57.232C379.269 61.264 377.989 65.232 376.965 69.136C376.005 72.976 375.525 76.528 375.525 79.792C375.525 83.312 376.325 86.16 377.925 88.336C379.589 90.576 382.437 91.632 386.469 91.504H387.045C388.005 91.504 388.485 91.696 388.485 92.08C388.485 92.336 388.165 92.592 387.525 92.848C386.885 93.104 385.989 93.168 384.837 93.04ZM390.495 82C389.791 82 388.927 81.84 387.903 81.52C386.943 81.2 386.079 80.624 385.311 79.792C384.607 78.896 384.255 77.584 384.255 75.856C384.255 74.192 384.639 72.592 385.407 71.056C386.239 69.456 387.007 67.92 387.711 66.448C387.519 66.448 387.295 66.384 387.039 66.256C386.847 66.128 386.751 65.936 386.751 65.68C386.751 65.424 386.815 65.168 386.943 64.912C387.199 64.4 387.487 63.856 387.807 63.28C388.127 62.704 388.415 62.096 388.671 61.456C389.631 59.472 390.591 57.584 391.551 55.792C392.511 53.936 393.343 52.304 394.047 50.896C394.751 49.488 395.967 48.784 397.695 48.784H403.647C402.559 49.616 401.567 50.544 400.671 51.568C399.839 52.528 398.783 54.32 397.503 56.944C397.503 56.944 397.279 57.392 396.831 58.288C396.383 59.184 395.807 60.336 395.103 61.744C394.463 63.088 393.791 64.464 393.087 65.872C392.447 67.28 391.903 68.464 391.455 69.424C390.623 71.216 390.079 72.656 389.823 73.744C389.567 74.768 389.439 75.728 389.439 76.624C389.439 78.736 390.143 79.792 391.551 79.792C393.087 79.792 394.943 78.544 397.119 76.048C398.911 73.936 400.671 71.408 402.399 68.464C404.127 65.52 405.759 62.48 407.295 59.344C408.895 56.208 410.303 53.392 411.519 50.896C412.223 49.488 413.471 48.784 415.263 48.784H420.543C419.583 49.552 418.783 50.288 418.143 50.992C417.503 51.632 416.863 52.528 416.223 53.68C415.647 54.768 414.847 56.336 413.823 58.384C412.991 60.112 412.095 61.968 411.135 63.952C410.239 65.872 409.439 67.696 408.735 69.424C408.031 71.152 407.583 72.56 407.391 73.648C407.327 74.288 407.263 74.768 407.199 75.088C407.135 75.408 407.103 75.76 407.103 76.144C407.103 77.36 407.295 78.224 407.679 78.736C408.127 79.248 408.639 79.504 409.215 79.504C410.751 79.504 412.287 78.64 413.823 76.912C415.423 75.184 416.927 73.072 418.335 70.576C419.807 68.08 421.055 65.712 422.079 63.472C422.463 62.768 422.815 62.416 423.135 62.416C423.519 62.416 423.711 62.64 423.711 63.088C423.711 63.408 423.583 63.792 423.327 64.24C422.623 65.776 421.759 67.536 420.735 69.52C419.711 71.504 418.559 73.456 417.279 75.376C415.999 77.296 414.591 78.896 413.055 80.176C411.519 81.392 409.855 82 408.063 82C406.463 82 405.151 81.424 404.127 80.272C403.103 79.056 402.591 77.36 402.591 75.184C402.591 73.456 402.911 71.6 403.551 69.616C402.463 71.536 401.215 73.456 399.807 75.376C398.399 77.296 396.895 78.896 395.295 80.176C393.695 81.392 392.095 82 390.495 82ZM412.803 82.768C415.107 78.096 417.315 73.488 419.427 68.944C421.603 64.336 423.811 59.952 426.051 55.792C427.331 53.488 428.387 51.888 429.219 50.992C430.115 50.032 431.299 49.552 432.771 49.552C433.283 49.552 433.827 49.648 434.403 49.84C434.979 49.968 435.555 50.032 436.131 50.032C436.515 50.032 436.803 50 436.995 49.936C436.099 50.448 434.947 51.728 433.539 53.776C432.131 55.76 430.691 58.064 429.219 60.688C427.747 63.312 426.435 65.776 425.283 68.08C426.499 66.608 427.747 65.136 429.027 63.664C430.371 62.192 431.843 60.784 433.443 59.44C434.979 58.096 436.803 56.72 438.915 55.312C441.091 53.84 443.203 52.624 445.251 51.664C447.299 50.704 448.931 50.224 450.147 50.224C450.595 50.224 450.915 50.256 451.107 50.32C451.107 50.32 450.755 50.96 450.051 52.24C449.347 53.456 448.451 55.088 447.363 57.136C446.339 59.12 445.283 61.264 444.195 63.568C443.107 65.808 442.115 67.984 441.219 70.096C440.387 72.144 439.843 73.872 439.587 75.28C439.395 76.112 439.299 76.88 439.299 77.584C439.299 78.608 439.491 79.28 439.875 79.6C440.259 79.92 440.675 80.08 441.123 80.08C442.339 80.08 443.619 79.44 444.963 78.16C446.307 76.816 447.587 75.184 448.803 73.264C450.083 71.344 451.203 69.488 452.163 67.696C453.187 65.84 453.923 64.432 454.371 63.472C454.627 62.96 454.819 62.672 454.947 62.608C455.075 62.48 455.267 62.416 455.523 62.416C455.907 62.416 456.099 62.672 456.099 63.184C456.099 63.504 456.003 63.856 455.811 64.24C455.043 65.712 454.115 67.472 453.027 69.52C452.003 71.568 450.819 73.584 449.475 75.568C448.131 77.488 446.659 79.12 445.059 80.464C443.459 81.744 441.731 82.384 439.875 82.384C438.595 82.384 437.251 81.936 435.843 81.04C434.499 80.144 433.827 78.48 433.827 76.048C433.827 75.344 433.891 74.608 434.019 73.84C434.147 73.008 434.371 72.112 434.691 71.152C435.203 69.872 435.811 68.496 436.515 67.024C437.219 65.552 438.371 63.536 439.971 60.976C440.419 60.272 440.675 59.728 440.739 59.344C440.867 58.96 440.931 58.64 440.931 58.384C440.931 57.616 440.579 57.232 439.875 57.232C439.299 57.232 438.435 57.552 437.283 58.192C436.195 58.832 434.819 59.952 433.155 61.552C431.555 63.088 429.635 65.264 427.395 68.08C425.219 70.896 422.691 75.056 419.811 80.56C419.363 81.392 418.851 81.84 418.275 81.904C417.763 81.968 417.027 82.032 416.067 82.096C415.427 82.16 414.819 82.192 414.243 82.192C413.667 82.256 413.187 82.448 412.803 82.768ZM447.645 112.624C441.565 112.624 438.525 110.128 438.525 105.136C438.525 102.768 439.357 100.656 441.021 98.8C442.685 96.944 444.669 95.344 446.973 94C450.173 92.08 453.277 90.544 456.285 89.392C459.293 88.24 462.141 87.216 464.829 86.32C467.581 85.488 470.173 84.56 472.605 83.536C473.757 80.144 474.525 76.592 474.909 72.88C475.101 70.96 475.197 69.296 475.197 67.888C475.197 66.416 475.101 65.456 474.909 65.008C474.205 66.352 473.277 67.984 472.125 69.904C470.973 71.824 469.661 73.712 468.189 75.568C466.717 77.36 465.117 78.864 463.389 80.08C461.725 81.296 459.997 81.904 458.205 81.904C457.565 81.904 456.957 81.808 456.381 81.616C454.589 80.848 453.277 79.76 452.445 78.352C451.677 76.944 451.293 75.344 451.293 73.552C451.293 70.672 452.125 67.568 453.789 64.24C455.453 60.912 457.437 57.872 459.741 55.12C461.597 52.88 463.773 51.088 466.269 49.744C468.765 48.4 471.293 47.728 473.853 47.728C476.797 47.728 479.549 48.72 482.109 50.704C483.069 51.472 483.549 52.304 483.549 53.2C483.549 54.16 483.165 54.64 482.397 54.64C481.757 54.64 481.309 54.224 481.053 53.392C480.157 51.024 478.717 49.84 476.733 49.84C475.133 49.84 473.309 50.544 471.261 51.952C469.213 53.296 467.293 54.992 465.501 57.04C463.965 58.768 462.461 60.752 460.989 62.992C459.581 65.232 458.397 67.44 457.437 69.616C456.541 71.792 456.093 73.68 456.093 75.28C456.093 76.368 456.349 77.296 456.861 78.064C457.373 78.832 458.173 79.216 459.261 79.216C460.733 79.216 462.269 78.512 463.869 77.104C465.533 75.696 467.101 73.968 468.573 71.92C470.109 69.872 471.421 67.792 472.509 65.68C473.661 63.568 474.461 61.808 474.909 60.4C475.357 58.928 475.965 58.032 476.733 57.712C477.501 57.328 478.269 57.136 479.037 57.136C479.805 57.136 480.445 56.944 480.957 56.56C481.213 57.968 481.373 59.408 481.437 60.88C481.565 62.288 481.629 63.728 481.629 65.2C481.629 70.128 480.989 75.088 479.709 80.08C480.861 79.184 482.045 78.224 483.261 77.2C484.541 76.112 485.629 74.96 486.525 73.744C488.125 71.568 489.309 69.584 490.077 67.792C490.909 65.936 491.549 64.496 491.997 63.472C492.381 62.832 492.797 62.512 493.245 62.512C493.629 62.512 493.821 62.704 493.821 63.088C493.821 63.408 493.693 63.792 493.437 64.24C491.837 67.632 490.365 70.544 489.021 72.976C487.677 75.344 486.205 77.36 484.605 79.024C483.005 80.624 481.021 82 478.653 83.152C477.629 86.224 476.093 89.456 474.045 92.848C471.997 96.24 469.597 99.44 466.845 102.448C464.093 105.456 461.085 107.888 457.821 109.744C454.557 111.664 451.165 112.624 447.645 112.624ZM445.341 110.704C446.749 110.704 448.221 110.384 449.757 109.744C451.357 109.168 452.861 108.464 454.269 107.632C455.677 106.8 456.765 106.096 457.533 105.52C459.005 104.368 460.509 102.928 462.045 101.2C463.581 99.472 464.925 97.808 466.077 96.208C467.165 94.672 468.189 93.04 469.149 91.312C470.173 89.648 471.037 87.984 471.741 86.32C471.229 86.512 470.589 86.736 469.821 86.992C469.117 87.248 468.605 87.44 468.285 87.568C466.173 88.272 463.837 89.072 461.277 89.968C458.781 90.928 456.285 91.952 453.789 93.04C451.293 94.192 449.021 95.44 446.973 96.784C445.181 98 443.709 99.6 442.557 101.584C441.341 103.568 440.733 105.296 440.733 106.768C440.733 107.856 441.117 108.784 441.885 109.552C442.589 110.32 443.741 110.704 445.341 110.704ZM509.33 82.672C507.602 82.48 506.034 81.68 504.626 80.272C503.282 78.8 502.354 76.848 501.842 74.416C501.778 73.968 501.714 73.584 501.65 73.264C501.65 72.88 501.65 72.464 501.65 72.016C501.65 69.456 502.226 67.408 503.378 65.872C504.53 64.272 505.586 63.44 506.546 63.376C507.57 63.44 508.818 63.216 510.29 62.704C511.762 62.128 513.042 61.36 514.13 60.4C515.986 58.928 516.914 57.424 516.914 55.888C516.914 54.288 515.986 53.488 514.13 53.488C513.106 53.488 511.794 53.84 510.194 54.544C508.658 55.248 506.866 56.464 504.818 58.192C502.258 60.368 499.602 63.28 496.85 66.928C496.466 67.76 496.018 69.008 495.506 70.672C494.994 72.272 494.546 73.936 494.162 75.664C493.842 77.392 493.682 78.864 493.682 80.08C493.682 81.04 493.842 81.68 494.162 82H488.114C487.41 82 487.058 81.712 487.058 81.136C487.058 80.944 487.09 80.784 487.154 80.656C487.218 80.528 487.282 80.272 487.346 79.888C488.242 76.56 489.426 73.424 490.898 70.48C492.37 67.536 493.842 64.432 495.314 61.168C493.074 65.328 491.026 69.008 489.17 72.208C487.378 75.344 486.002 77.36 485.042 78.256C484.914 78.384 484.754 78.448 484.562 78.448C484.306 78.448 484.146 78.288 484.082 77.968C483.954 77.648 484.018 77.328 484.274 77.008C485.618 75.216 487.154 72.752 488.882 69.616C490.674 66.48 492.562 62.992 494.546 59.152C496.53 55.248 498.546 51.312 500.594 47.344C502.642 43.376 504.626 39.632 506.546 36.112C508.53 32.592 510.322 29.616 511.922 27.184C513.074 25.456 514.162 24.24 515.186 23.536C516.21 22.768 517.266 22.384 518.354 22.384H518.834C519.41 22.384 520.05 22.48 520.754 22.672C521.522 22.864 522.226 22.896 522.866 22.768C521.65 23.728 520.178 25.296 518.45 27.472C516.722 29.648 514.898 32.24 512.978 35.248C511.058 38.256 509.106 41.456 507.122 44.848C505.202 48.24 503.378 51.6 501.65 54.928C501.01 56.208 500.402 57.552 499.826 58.96C499.25 60.368 498.706 61.776 498.194 63.184C499.538 61.52 501.074 59.792 502.802 58C504.53 56.208 506.322 54.576 508.178 53.104C510.098 51.568 511.986 50.448 513.842 49.744C515.954 48.976 517.714 48.592 519.122 48.592C520.594 48.592 521.65 48.944 522.29 49.648C522.994 50.352 523.346 51.248 523.346 52.336C523.346 53.552 522.866 55.024 521.906 56.752C520.946 58.416 519.634 59.856 517.97 61.072C516.562 62.032 515.09 62.864 513.554 63.568C512.018 64.272 510.194 64.72 508.082 64.912C507.698 65.808 507.41 66.736 507.218 67.696C507.09 68.592 507.026 69.488 507.026 70.384C507.026 72.88 507.602 75.088 508.754 77.008C509.906 78.864 511.41 79.792 513.266 79.792C514.162 79.792 515.122 79.536 516.146 79.024C517.234 78.512 518.354 77.648 519.506 76.432C520.786 75.152 522.066 73.328 523.346 70.96C524.69 68.592 526.034 66 527.378 63.184C527.634 62.672 527.922 62.416 528.242 62.416C528.626 62.416 528.818 62.672 528.818 63.184C528.818 63.44 528.722 63.76 528.53 64.144C526.674 68.432 524.882 71.856 523.154 74.416C521.49 76.912 519.858 78.8 518.258 80.08C516.722 81.296 515.218 82.064 513.746 82.384C512.274 82.704 510.802 82.8 509.33 82.672ZM537.675 43.024C536.715 43.024 535.915 42.704 535.275 42.064C534.699 41.36 534.411 40.528 534.411 39.568C534.411 38.352 534.891 37.296 535.851 36.4C536.811 35.504 537.867 35.056 539.019 35.056C540.043 35.056 540.875 35.376 541.515 36.016C542.155 36.656 542.475 37.424 542.475 38.32C542.475 39.536 541.995 40.624 541.035 41.584C540.075 42.544 538.955 43.024 537.675 43.024ZM529.899 82C527.531 82 525.867 81.328 524.907 79.984C523.947 78.576 523.467 76.976 523.467 75.184C523.467 74.224 523.563 73.264 523.755 72.304C524.011 71.28 524.299 70.352 524.619 69.52L531.051 53.104C531.243 52.592 531.339 52.144 531.339 51.76C531.339 51.12 531.179 50.576 530.859 50.128C530.539 49.616 530.315 49.264 530.187 49.072L535.467 48.88C536.427 48.816 537.099 48.944 537.483 49.264C537.931 49.52 538.155 49.84 538.155 50.224C538.155 50.608 537.931 51.312 537.483 52.336L529.515 71.056C529.515 71.056 529.323 71.472 528.939 72.304C528.619 73.072 528.427 73.584 528.363 73.84C528.171 74.8 528.043 75.408 527.979 75.664C527.915 75.92 527.883 76.08 527.883 76.144C527.883 76.208 527.883 76.464 527.883 76.912C527.883 77.744 528.075 78.448 528.459 79.024C528.907 79.6 529.643 79.888 530.667 79.888C531.307 79.888 532.043 79.696 532.875 79.312C533.707 78.928 534.315 78.544 534.699 78.16C536.299 76.496 537.867 74.32 539.403 71.632C541.003 68.88 542.475 66.16 543.819 63.472C544.075 62.832 544.395 62.512 544.779 62.512C545.099 62.512 545.259 62.736 545.259 63.184C545.259 63.44 545.163 63.824 544.971 64.336C544.331 65.68 543.531 67.344 542.571 69.328C541.611 71.312 540.459 73.296 539.115 75.28C537.835 77.2 536.427 78.8 534.891 80.08C533.355 81.36 531.691 82 529.899 82ZM534.678 82.768C536.982 78.096 539.19 73.488 541.302 68.944C543.478 64.336 545.686 59.952 547.926 55.792C549.206 53.488 550.262 51.888 551.094 50.992C551.99 50.032 553.174 49.552 554.646 49.552C555.158 49.552 555.702 49.648 556.278 49.84C556.854 49.968 557.43 50.032 558.006 50.032C558.39 50.032 558.678 50 558.87 49.936C557.974 50.448 556.822 51.728 555.414 53.776C554.006 55.76 552.566 58.064 551.094 60.688C549.622 63.312 548.31 65.776 547.158 68.08C548.374 66.608 549.622 65.136 550.902 63.664C552.246 62.192 553.718 60.784 555.318 59.44C556.854 58.096 558.678 56.72 560.79 55.312C562.966 53.84 565.078 52.624 567.126 51.664C569.174 50.704 570.806 50.224 572.022 50.224C572.47 50.224 572.79 50.256 572.982 50.32C572.982 50.32 572.63 50.96 571.926 52.24C571.222 53.456 570.326 55.088 569.238 57.136C568.214 59.12 567.158 61.264 566.07 63.568C564.982 65.808 563.99 67.984 563.094 70.096C562.262 72.144 561.718 73.872 561.462 75.28C561.27 76.112 561.174 76.88 561.174 77.584C561.174 78.608 561.366 79.28 561.75 79.6C562.134 79.92 562.55 80.08 562.998 80.08C564.214 80.08 565.494 79.44 566.838 78.16C568.182 76.816 569.462 75.184 570.678 73.264C571.958 71.344 573.078 69.488 574.038 67.696C575.062 65.84 575.798 64.432 576.246 63.472C576.502 62.96 576.694 62.672 576.822 62.608C576.95 62.48 577.142 62.416 577.398 62.416C577.782 62.416 577.974 62.672 577.974 63.184C577.974 63.504 577.878 63.856 577.686 64.24C576.918 65.712 575.99 67.472 574.902 69.52C573.878 71.568 572.694 73.584 571.35 75.568C570.006 77.488 568.534 79.12 566.934 80.464C565.334 81.744 563.606 82.384 561.75 82.384C560.47 82.384 559.126 81.936 557.718 81.04C556.374 80.144 555.702 78.48 555.702 76.048C555.702 75.344 555.766 74.608 555.894 73.84C556.022 73.008 556.246 72.112 556.566 71.152C557.078 69.872 557.686 68.496 558.39 67.024C559.094 65.552 560.246 63.536 561.846 60.976C562.294 60.272 562.55 59.728 562.614 59.344C562.742 58.96 562.806 58.64 562.806 58.384C562.806 57.616 562.454 57.232 561.75 57.232C561.174 57.232 560.31 57.552 559.158 58.192C558.07 58.832 556.694 59.952 555.03 61.552C553.43 63.088 551.51 65.264 549.27 68.08C547.094 70.896 544.566 75.056 541.686 80.56C541.238 81.392 540.726 81.84 540.15 81.904C539.638 81.968 538.902 82.032 537.942 82.096C537.302 82.16 536.694 82.192 536.118 82.192C535.542 82.256 535.062 82.448 534.678 82.768Z" fill="white"/>
</svg>
