<svg width="804" height="112" viewBox="0 0 804 112" fill="none" xmlns="http://www.w3.org/2000/svg">
<path d="M78.8359 111.992C78.2599 111.992 78.1319 111.544 78.4519 110.648C78.8359 109.816 79.1879 109.048 79.5079 108.344C80.0839 107.192 80.3719 105.4 80.3719 102.968C80.3719 100.856 79.9879 98.584 79.2199 96.152C78.4519 93.72 76.9479 91.512 74.7079 89.528C71.6359 86.712 68.1799 84.472 64.3399 82.808C60.4999 81.144 56.4679 79.8 52.2439 78.776C48.0839 77.752 43.9559 76.856 39.8599 76.088C37.3639 79.544 34.6759 82.648 31.7959 85.4C28.9799 88.152 25.9719 90.264 22.7719 91.736C20.9799 92.568 19.2519 93.176 17.5879 93.56C15.9239 94.008 14.3559 94.232 12.8839 94.232C9.29988 94.232 6.35588 93.272 4.05188 91.352C1.81188 89.496 0.691875 87.288 0.691875 84.728C0.691875 82.296 1.77988 79.928 3.95588 77.624C6.19588 75.256 9.87588 73.304 14.9959 71.768C17.0439 71.192 19.3159 70.776 21.8119 70.52C24.3079 70.2 26.8999 70.04 29.5879 70.04C31.2519 70.04 32.8839 70.104 34.4839 70.232C36.1479 70.296 37.6839 70.488 39.0919 70.808C40.9479 67.992 42.6759 65.08 44.2759 62.072C45.8759 59 47.5399 55.672 49.2679 52.088C44.2119 52.216 39.8279 51.48 36.1159 49.88C32.4039 48.216 29.5239 46.008 27.4759 43.256C25.4919 40.504 24.4999 37.56 24.4999 34.424C24.4999 31.864 25.2359 29.368 26.7079 26.936C28.1799 24.44 30.4839 22.2 33.6199 20.216C36.8199 18.168 40.8839 16.568 45.8119 15.416C46.1319 15.288 46.4199 15.224 46.6759 15.224C46.9959 15.224 47.2839 15.224 47.5399 15.224C48.4999 15.224 48.9799 15.416 48.9799 15.8C48.9799 16.44 47.9559 16.888 45.9079 17.144C42.5799 17.528 39.6359 18.712 37.0759 20.696C34.5799 22.68 32.6279 25.048 31.2199 27.8C29.8759 30.552 29.2039 33.336 29.2039 36.152C29.2039 38.584 29.7799 40.856 30.9319 42.968C32.0839 45.08 33.9079 46.808 36.4039 48.152C38.8999 49.432 42.1319 50.072 46.0999 50.072C47.5079 50.072 49.0119 49.976 50.6119 49.784C50.8679 49.272 51.2839 48.248 51.8599 46.712C52.4999 45.112 53.2039 43.32 53.9719 41.336C54.7399 39.352 55.4759 37.432 56.1799 35.576C56.9479 33.72 57.5559 32.184 58.0039 30.968C58.5159 29.688 58.7719 29.048 58.7719 29.048C61.7159 21.688 64.7239 15.928 67.7959 11.768C70.9319 7.544 73.9399 4.568 76.8199 2.84C79.7639 1.112 82.3879 0.247995 84.6919 0.247995C87.1879 0.247995 89.2359 0.983995 90.8359 2.456C92.4999 3.928 93.3959 5.592 93.5239 7.44799C93.5879 8.02399 93.6199 8.43999 93.6199 8.696C93.6199 8.952 93.6199 9.272 93.6199 9.65599C93.6199 13.432 92.8519 17.208 91.3159 20.984C89.8439 24.76 87.7639 28.344 85.0759 31.736C82.4519 35.128 79.4119 38.2 75.9559 40.952C72.5639 43.704 68.9159 46.008 65.0119 47.864C61.1719 49.72 57.2679 51 53.2999 51.704C52.3399 53.624 51.4759 55.352 50.7079 56.888C50.0039 58.36 49.2039 59.96 48.3079 61.688C47.4119 63.416 46.2279 65.624 44.7559 68.312C44.3079 69.144 43.9559 69.752 43.6999 70.136C43.5079 70.456 43.1879 70.968 42.7399 71.672C45.9399 72.44 49.4279 73.528 53.2039 74.936C56.9799 76.28 60.6919 77.912 64.3399 79.832C68.0519 81.688 71.3479 83.736 74.2279 85.976C77.8119 88.728 80.3399 91.832 81.8119 95.288C83.3479 98.744 84.1159 101.784 84.1159 104.408C84.1159 106.264 83.8279 107.672 83.2519 108.632C82.4199 110.04 81.5879 110.936 80.7559 111.32C79.9239 111.768 79.2839 111.992 78.8359 111.992ZM54.6439 49.112C58.9959 48.152 63.2519 46.424 67.4119 43.928C71.5719 41.368 75.3159 38.296 78.6439 34.712C81.9719 31.064 84.6279 27.128 86.6119 22.904C88.5959 18.616 89.5879 14.264 89.5879 9.848C89.5879 8.76 89.2999 7.864 88.7239 7.16C88.1479 6.456 87.3159 6.10399 86.2279 6.10399C84.7559 6.10399 82.8679 6.936 80.5639 8.6C78.2599 10.2 75.6359 12.92 72.6919 16.76C69.7479 20.536 66.5799 25.752 63.1879 32.408C63.1879 32.408 62.7399 33.24 61.8439 34.904C61.0119 36.568 59.9239 38.68 58.5799 41.24C57.2999 43.736 55.9879 46.36 54.6439 49.112ZM11.5399 91.448C12.9479 91.448 14.4519 91.256 16.0519 90.872C17.7159 90.488 19.4439 89.88 21.2359 89.048C26.6119 86.424 31.5719 81.88 36.1159 75.416C34.6439 75.096 33.1079 74.872 31.5079 74.744C29.9079 74.552 28.2759 74.456 26.6119 74.456C24.8839 74.456 23.0919 74.552 21.2359 74.744C19.4439 74.936 17.6839 75.288 15.9559 75.8C11.6679 76.952 8.37188 78.424 6.06788 80.216C3.82788 82.008 2.70788 83.832 2.70788 85.688C2.70788 87.288 3.50788 88.632 5.10788 89.72C6.70788 90.872 8.85188 91.448 11.5399 91.448ZM86.0186 44.024C85.0586 44.024 84.2586 43.704 83.6186 43.064C83.0426 42.36 82.7546 41.528 82.7546 40.568C82.7546 39.352 83.2346 38.296 84.1946 37.4C85.1546 36.504 86.2106 36.056 87.3626 36.056C88.3866 36.056 89.2186 36.376 89.8586 37.016C90.4986 37.656 90.8186 38.424 90.8186 39.32C90.8186 40.536 90.3386 41.624 89.3786 42.584C88.4186 43.544 87.2986 44.024 86.0186 44.024ZM78.2426 83C75.8746 83 74.2106 82.328 73.2506 80.984C72.2906 79.576 71.8106 77.976 71.8106 76.184C71.8106 75.224 71.9066 74.264 72.0986 73.304C72.3546 72.28 72.6426 71.352 72.9626 70.52L79.3946 54.104C79.5866 53.592 79.6826 53.144 79.6826 52.76C79.6826 52.12 79.5226 51.576 79.2026 51.128C78.8826 50.616 78.6586 50.264 78.5306 50.072L83.8106 49.88C84.7706 49.816 85.4426 49.944 85.8266 50.264C86.2746 50.52 86.4986 50.84 86.4986 51.224C86.4986 51.608 86.2746 52.312 85.8266 53.336L77.8586 72.056C77.8586 72.056 77.6666 72.472 77.2826 73.304C76.9626 74.072 76.7706 74.584 76.7066 74.84C76.5146 75.8 76.3866 76.408 76.3226 76.664C76.2586 76.92 76.2266 77.08 76.2266 77.144C76.2266 77.208 76.2266 77.464 76.2266 77.912C76.2266 78.744 76.4186 79.448 76.8026 80.024C77.2506 80.6 77.9866 80.888 79.0106 80.888C79.6506 80.888 80.3866 80.696 81.2186 80.312C82.0506 79.928 82.6586 79.544 83.0426 79.16C84.6426 77.496 86.2106 75.32 87.7466 72.632C89.3466 69.88 90.8186 67.16 92.1626 64.472C92.4186 63.832 92.7386 63.512 93.1226 63.512C93.4426 63.512 93.6026 63.736 93.6026 64.184C93.6026 64.44 93.5066 64.824 93.3146 65.336C92.6746 66.68 91.8746 68.344 90.9146 70.328C89.9546 72.312 88.8026 74.296 87.4586 76.28C86.1786 78.2 84.7706 79.8 83.2346 81.08C81.6986 82.36 80.0346 83 78.2426 83ZM112.878 83.288C112.174 83.352 111.374 83.192 110.478 82.808C109.582 82.424 108.782 81.72 108.078 80.696C107.438 79.672 107.118 78.232 107.118 76.376C107.118 74.84 107.406 72.984 107.982 70.808C107.214 72.024 106.222 73.528 105.006 75.32C103.79 77.048 102.478 78.584 101.07 79.928C99.8536 81.08 98.7016 81.912 97.6136 82.424C96.5256 82.936 95.5336 83.192 94.6376 83.192C92.9736 83.192 91.6296 82.456 90.6056 80.984C89.5816 79.448 89.0696 77.464 89.0696 75.032C89.0696 72.472 89.7096 69.56 90.9896 66.296C92.2696 63.032 94.3496 59.64 97.2296 56.12C99.0856 53.88 101.326 52.088 103.95 50.744C106.638 49.336 109.262 48.632 111.822 48.632C113.294 48.632 114.702 48.888 116.046 49.4C117.39 49.848 118.574 50.616 119.598 51.704C120.046 52.152 120.27 52.664 120.27 53.24C120.27 53.624 120.11 53.944 119.79 54.2C119.47 54.456 119.054 54.52 118.542 54.392C117.838 52.152 116.334 51.032 114.03 51.032C112.942 51.032 111.694 51.384 110.286 52.088C108.11 53.24 105.838 55.128 103.47 57.752C101.166 60.376 99.1496 63.096 97.4216 65.912C97.1656 66.296 96.7496 67.032 96.1736 68.12C95.6616 69.208 95.1496 70.424 94.6376 71.768C94.1256 73.112 93.7736 74.424 93.5816 75.704C93.5176 76.088 93.4856 76.376 93.4856 76.568C93.4856 76.696 93.4856 76.92 93.4856 77.24C93.4856 79.352 94.2856 80.408 95.8856 80.408C97.8056 80.408 99.9816 79 102.414 76.184C104.078 74.136 105.582 71.992 106.926 69.752C108.27 67.512 109.646 65.112 111.054 62.552C112.014 60.824 112.91 59.384 113.742 58.232C114.574 57.08 115.758 56.504 117.294 56.504C117.998 56.504 118.702 56.6 119.406 56.792C120.11 56.984 120.846 57.016 121.614 56.888C121.102 57.4 120.398 58.36 119.502 59.768C118.67 61.176 117.774 62.776 116.814 64.568C115.854 66.36 114.99 68.184 114.222 70.04C113.454 71.896 112.91 73.496 112.59 74.84C112.526 75.224 112.43 75.768 112.302 76.472C112.238 77.176 112.206 77.688 112.206 78.008C112.206 79.8 112.718 80.696 113.742 80.696C114.766 80.696 115.854 80.088 117.006 78.872C118.222 77.656 119.406 76.152 120.558 74.36C121.71 72.568 122.766 70.776 123.726 68.984C124.686 67.128 125.454 65.624 126.03 64.472C126.286 63.832 126.67 63.512 127.182 63.512C127.502 63.512 127.662 63.736 127.662 64.184C127.662 64.376 127.566 64.728 127.374 65.24C126.606 66.84 125.678 68.664 124.59 70.712C123.502 72.696 122.318 74.648 121.038 76.568C119.758 78.424 118.414 79.992 117.006 81.272C115.662 82.488 114.286 83.16 112.878 83.288ZM130.596 83C128.804 83 127.204 82.392 125.796 81.176C124.388 79.896 123.684 77.912 123.684 75.224C123.684 73.112 124.068 70.52 124.836 67.448C125.668 64.312 126.66 61.08 127.812 57.752C129.028 54.36 130.212 51.288 131.364 48.536H126.276C125.828 48.536 125.604 48.216 125.604 47.576C125.604 47.256 125.668 46.968 125.796 46.712C125.988 46.456 126.244 46.328 126.564 46.328H132.324C133.412 43.896 134.564 41.528 135.78 39.224C136.996 36.92 138.18 34.744 139.332 32.696C140.804 30.136 142.372 28.216 144.036 26.936C145.7 25.656 147.14 25.016 148.356 25.016C149.316 25.016 150.116 25.4 150.756 26.168C151.396 26.872 151.716 27.96 151.716 29.432C151.716 30.328 151.524 31.576 151.14 33.176C150.756 34.712 150.148 36.344 149.316 38.072C148.868 38.968 148.228 40.248 147.396 41.912C146.628 43.576 145.86 45.048 145.092 46.328H149.7C150.148 46.328 150.372 46.648 150.372 47.288C150.372 47.544 150.308 47.832 150.18 48.152C150.052 48.408 149.86 48.536 149.604 48.536H143.94C142.34 51.288 140.516 53.976 138.468 56.6C136.42 59.224 133.988 61.848 131.172 64.472C130.98 65.048 130.724 65.88 130.404 66.968C130.148 68.056 129.892 69.176 129.636 70.328C129.444 71.416 129.252 72.344 129.06 73.112C128.932 73.88 128.868 74.264 128.868 74.264C128.676 75.096 128.58 75.864 128.58 76.568C128.58 77.912 128.9 78.904 129.54 79.544C130.18 80.12 130.916 80.408 131.748 80.408C132.26 80.408 132.772 80.344 133.284 80.216C133.796 80.024 134.372 79.704 135.012 79.256C137.252 77.656 139.204 75.48 140.868 72.728C142.596 69.976 144.1 67.32 145.38 64.76C145.764 63.992 146.148 63.608 146.532 63.608C146.788 63.608 146.916 63.8 146.916 64.184C146.916 64.376 146.82 64.728 146.628 65.24C145.22 68.184 144.036 70.552 143.076 72.344C142.116 74.136 141.188 75.64 140.292 76.856C139.396 78.008 138.34 79.16 137.124 80.312C136.228 81.208 135.204 81.88 134.052 82.328C132.9 82.776 131.748 83 130.596 83ZM138.18 46.328H143.076C143.972 44.664 144.804 43.032 145.572 41.432C146.404 39.832 147.14 38.232 147.78 36.632C148.228 35.608 148.612 34.456 148.932 33.176C149.252 31.896 149.412 30.904 149.412 30.2C149.412 29.24 149.188 28.76 148.74 28.76C148.42 28.76 147.94 29.048 147.3 29.624C146.724 30.136 145.988 31.032 145.092 32.312C143.94 33.912 142.788 35.992 141.636 38.552C140.548 41.048 139.396 43.64 138.18 46.328ZM131.94 61.4C133.796 59.48 135.524 57.432 137.124 55.256C138.788 53.08 140.324 50.84 141.732 48.536H137.22C136.196 50.904 135.236 53.208 134.34 55.448C133.444 57.688 132.644 59.672 131.94 61.4ZM199.614 91.832C193.342 91.832 187.582 90.904 182.334 89.048C177.15 87.192 172.958 84.472 169.758 80.888C166.558 77.24 164.798 72.76 164.478 67.448C164.35 65.272 164.702 62.872 165.534 60.248C166.366 57.624 167.518 55.032 168.99 52.472C170.526 49.848 172.318 47.512 174.366 45.464C176.478 43.352 178.718 41.752 181.086 40.664C181.278 40.536 181.566 40.44 181.95 40.376C182.398 40.312 182.718 40.28 182.91 40.28C183.294 40.28 183.486 40.376 183.486 40.568C183.486 40.888 183.006 41.4 182.046 42.104C179.358 44.216 177.15 46.648 175.422 49.4C173.63 52.152 172.286 55.096 171.39 58.232C170.494 61.368 170.046 64.536 170.046 67.736C170.046 71.512 170.846 74.776 172.446 77.528C174.11 80.216 176.318 82.424 179.07 84.152C181.822 85.944 184.958 87.256 188.478 88.088C191.998 88.92 195.678 89.336 199.518 89.336C203.806 89.336 208.03 88.856 212.19 87.896C216.414 86.936 220.254 85.56 223.71 83.768C229.022 80.952 233.214 77.464 236.286 73.304C239.422 69.144 240.99 65.016 240.99 60.92C240.99 58.744 240.51 56.664 239.55 54.68C238.654 52.696 237.182 50.904 235.134 49.304C233.598 48.088 231.71 46.936 229.47 45.848C227.294 44.76 224.958 43.704 222.462 42.68C220.03 41.656 217.63 40.632 215.262 39.608C212.894 38.52 210.814 37.368 209.022 36.152C206.462 34.424 204.574 32.568 203.358 30.584C202.206 28.6 201.63 26.616 201.63 24.632C201.63 22.264 202.302 19.96 203.646 17.72C205.054 15.48 206.942 13.464 209.31 11.672C211.742 9.816 214.462 8.376 217.47 7.352C220.094 6.456 222.942 5.752 226.014 5.23999C229.15 4.728 232.222 4.472 235.23 4.472C237.726 4.472 240.094 4.664 242.334 5.048C244.638 5.368 246.654 5.976 248.382 6.872C250.558 7.896 252.222 9.272 253.374 11C254.526 12.664 255.102 14.424 255.102 16.28C255.102 18.84 253.95 21.08 251.646 23C250.814 23.64 249.886 24.248 248.862 24.824C247.838 25.336 246.622 25.784 245.214 26.168C244.958 26.232 244.67 26.264 244.35 26.264C243.582 26.264 243.198 26.04 243.198 25.592C243.198 25.336 243.39 25.08 243.774 24.824C244.222 24.504 244.862 24.312 245.694 24.248C247.614 23.992 249.054 23.256 250.014 22.04C251.038 20.824 251.55 19.416 251.55 17.816C251.55 16.152 250.974 14.52 249.822 12.92C248.734 11.256 247.038 9.88 244.734 8.79199C242.43 7.64 239.486 7.064 235.902 7.064C233.854 7.064 231.582 7.288 229.086 7.736C226.654 8.184 223.998 8.92 221.118 9.944C217.598 11.16 214.654 12.952 212.286 15.32C209.982 17.688 208.83 20.216 208.83 22.904C208.83 24.568 209.374 26.264 210.462 27.992C211.614 29.656 213.438 31.256 215.934 32.792C218.046 34.072 220.446 35.352 223.134 36.632C225.822 37.848 228.542 39.096 231.294 40.376C234.046 41.592 236.542 42.904 238.782 44.312C242.302 46.488 244.83 48.824 246.366 51.32C247.902 53.816 248.67 56.376 248.67 59C248.67 62.072 247.742 65.176 245.886 68.312C244.094 71.384 241.726 74.296 238.782 77.048C235.838 79.736 232.606 82.136 229.086 84.248C224.99 86.68 220.35 88.536 215.166 89.816C210.046 91.16 204.862 91.832 199.614 91.832ZM263.958 83.384C261.59 83.384 259.446 82.616 257.526 81.08C255.67 79.544 254.742 77.208 254.742 74.072C254.742 71.192 255.446 68.12 256.854 64.856C258.262 61.528 260.054 58.616 262.23 56.12C264.086 53.944 266.166 52.152 268.47 50.744C270.774 49.336 272.95 48.632 274.998 48.632C276.406 48.632 277.622 49.016 278.646 49.784C279.734 50.616 280.278 51.8 280.278 53.336C280.278 54.936 279.67 56.696 278.454 58.616C277.238 60.536 275.51 62.328 273.27 63.992C272.31 64.696 271.094 65.368 269.622 66.008C268.15 66.648 266.678 67.192 265.206 67.64C263.734 68.024 262.518 68.216 261.558 68.216C261.238 68.984 260.918 70.008 260.598 71.288C260.342 72.568 260.214 73.88 260.214 75.224C260.214 76.824 260.534 78.264 261.174 79.544C261.814 80.824 262.998 81.464 264.726 81.464C266.838 81.464 268.758 80.856 270.486 79.64C272.214 78.424 273.75 76.92 275.094 75.128C276.438 73.272 277.558 71.416 278.454 69.56C279.414 67.704 280.182 66.136 280.758 64.856C281.142 63.96 281.654 63.512 282.294 63.512C282.614 63.512 282.774 63.672 282.774 63.992C282.774 64.248 282.678 64.568 282.486 64.952C281.59 66.872 280.63 68.92 279.606 71.096C278.582 73.208 277.366 75.224 275.958 77.144C274.55 79 272.854 80.504 270.87 81.656C268.95 82.808 266.646 83.384 263.958 83.384ZM262.23 66.488C263.126 66.488 264.63 66.168 266.742 65.528C268.854 64.824 270.774 63.736 272.502 62.264C274.166 60.792 275.446 59.192 276.342 57.464C277.238 55.672 277.686 54.168 277.686 52.952C277.686 51.544 277.174 50.84 276.15 50.84C275.382 50.84 274.326 51.352 272.982 52.376C271.638 53.4 269.974 55.128 267.99 57.56C266.774 59.096 265.622 60.76 264.534 62.552C263.446 64.344 262.678 65.656 262.23 66.488ZM271.93 83.48C274.298 78.936 276.538 74.392 278.65 69.848C280.762 65.24 282.906 60.888 285.082 56.792C286.362 54.488 287.418 52.888 288.25 51.992C289.146 51.032 290.33 50.552 291.802 50.552C292.314 50.552 292.858 50.648 293.434 50.84C294.01 50.968 294.586 51.032 295.162 51.032C295.546 51.032 295.834 51 296.026 50.936C295.13 51.448 293.978 52.728 292.57 54.776C291.162 56.76 289.722 59.064 288.25 61.688C286.778 64.312 285.466 66.776 284.314 69.08C285.53 67.608 286.778 66.136 288.058 64.664C289.402 63.192 290.874 61.784 292.474 60.44C293.882 59.224 295.354 57.912 296.89 56.504C298.49 55.032 300.058 53.784 301.594 52.76C303.13 51.736 304.474 51.224 305.626 51.224C306.074 51.224 306.362 51.256 306.49 51.32C307.706 51.832 308.314 52.664 308.314 53.816C308.314 54.2 308.154 54.776 307.834 55.544C307.002 57.72 305.914 59.96 304.57 62.264C303.29 64.504 302.074 66.776 300.922 69.08C301.882 67.928 303.066 66.52 304.474 64.856C305.946 63.192 307.418 61.72 308.89 60.44C310.298 59.16 312.09 57.816 314.266 56.408C316.442 55 318.586 53.784 320.698 52.76C322.81 51.736 324.506 51.224 325.786 51.224C326.234 51.224 326.554 51.256 326.746 51.32C326.746 51.32 326.394 51.96 325.69 53.24C324.986 54.456 324.09 56.088 323.002 58.136C321.978 60.12 320.922 62.264 319.834 64.568C318.746 66.808 317.754 68.984 316.858 71.096C316.026 73.144 315.482 74.872 315.226 76.28C315.034 77.112 314.938 77.88 314.938 78.584C314.938 79.608 315.13 80.28 315.514 80.6C315.898 80.92 316.314 81.08 316.762 81.08C318.042 81.08 319.354 80.408 320.698 79.064C322.042 77.72 323.322 76.12 324.538 74.264C325.818 72.344 326.938 70.488 327.898 68.696C328.858 66.84 329.562 65.432 330.01 64.472C330.394 63.768 330.778 63.416 331.162 63.416C331.546 63.416 331.738 63.672 331.738 64.184C331.738 64.504 331.642 64.856 331.45 65.24C330.682 66.712 329.754 68.472 328.666 70.52C327.642 72.568 326.458 74.584 325.114 76.568C323.77 78.488 322.266 80.12 320.602 81.464C319.002 82.744 317.274 83.384 315.418 83.384C314.074 83.384 312.698 82.936 311.29 82.04C309.946 81.144 309.274 79.48 309.274 77.048C309.274 75.704 309.562 74.072 310.138 72.152C310.586 70.872 311.258 69.4 312.154 67.736C313.114 66.072 314.266 64.152 315.61 61.976C316.25 60.888 316.57 60.024 316.57 59.384C316.57 58.616 316.186 58.232 315.418 58.232C314.778 58.232 313.882 58.552 312.73 59.192C311.642 59.832 310.266 60.952 308.602 62.552C307.578 63.512 306.362 64.856 304.954 66.584C303.61 68.248 302.234 70.072 300.826 72.056C299.418 74.04 298.202 75.992 297.178 77.912C296.154 79.832 295.482 81.528 295.162 83C294.202 83 293.434 82.616 292.858 81.848C292.282 81.016 291.994 80.056 291.994 78.968C291.994 78.776 291.994 78.584 291.994 78.392C291.994 78.2 292.026 77.976 292.09 77.72C292.41 75.736 292.922 73.88 293.626 72.152C294.33 70.424 295.13 68.632 296.026 66.776C296.73 65.432 297.434 63.992 298.138 62.456C298.842 60.856 299.194 59.64 299.194 58.808C299.194 58.296 299.002 58.04 298.618 58.04C298.17 58.04 297.434 58.392 296.41 59.096C295.386 59.736 293.978 60.888 292.186 62.552C290.586 64.088 288.634 66.296 286.33 69.176C284.09 72.056 281.626 76.152 278.938 81.464C278.554 82.168 278.106 82.616 277.594 82.808C277.082 82.936 276.282 83 275.194 83C274.49 83 273.914 83 273.466 83C272.954 83.064 272.442 83.224 271.93 83.48ZM336.614 83.384C334.246 83.384 332.102 82.616 330.182 81.08C328.326 79.544 327.398 77.208 327.398 74.072C327.398 71.192 328.102 68.12 329.51 64.856C330.918 61.528 332.71 58.616 334.886 56.12C336.742 53.944 338.822 52.152 341.126 50.744C343.43 49.336 345.606 48.632 347.654 48.632C349.062 48.632 350.278 49.016 351.302 49.784C352.39 50.616 352.934 51.8 352.934 53.336C352.934 54.936 352.326 56.696 351.11 58.616C349.894 60.536 348.166 62.328 345.926 63.992C344.966 64.696 343.75 65.368 342.278 66.008C340.806 66.648 339.334 67.192 337.862 67.64C336.39 68.024 335.174 68.216 334.214 68.216C333.894 68.984 333.574 70.008 333.254 71.288C332.998 72.568 332.87 73.88 332.87 75.224C332.87 76.824 333.19 78.264 333.83 79.544C334.47 80.824 335.654 81.464 337.382 81.464C339.494 81.464 341.414 80.856 343.142 79.64C344.87 78.424 346.406 76.92 347.75 75.128C349.094 73.272 350.214 71.416 351.11 69.56C352.07 67.704 352.838 66.136 353.414 64.856C353.798 63.96 354.31 63.512 354.95 63.512C355.27 63.512 355.43 63.672 355.43 63.992C355.43 64.248 355.334 64.568 355.142 64.952C354.246 66.872 353.286 68.92 352.262 71.096C351.238 73.208 350.022 75.224 348.614 77.144C347.206 79 345.51 80.504 343.526 81.656C341.606 82.808 339.302 83.384 336.614 83.384ZM334.886 66.488C335.782 66.488 337.286 66.168 339.398 65.528C341.51 64.824 343.43 63.736 345.158 62.264C346.822 60.792 348.102 59.192 348.998 57.464C349.894 55.672 350.342 54.168 350.342 52.952C350.342 51.544 349.83 50.84 348.806 50.84C348.038 50.84 346.982 51.352 345.638 52.376C344.294 53.4 342.63 55.128 340.646 57.56C339.43 59.096 338.278 60.76 337.19 62.552C336.102 64.344 335.334 65.656 334.886 66.488ZM355.818 83.384C352.682 83.384 350.442 82.584 349.098 80.984C347.818 79.32 347.178 77.592 347.178 75.8C347.178 74.328 347.53 72.984 348.234 71.768C349.002 70.552 349.898 69.912 350.922 69.848C352.202 67.352 353.578 64.632 355.05 61.688C356.586 58.744 357.994 55.896 359.274 53.144C360.17 51.288 361.29 49.496 362.634 47.768C364.042 46.04 365.578 45.048 367.242 44.792H368.202C368.714 44.792 369.162 44.824 369.546 44.888C369.994 44.952 370.442 45.08 370.89 45.272C371.594 45.592 371.946 46.072 371.946 46.712C371.946 47.096 371.722 47.288 371.274 47.288C371.082 47.288 370.826 47.192 370.506 47C369.738 46.68 369.066 46.52 368.49 46.52C368.106 46.52 367.754 46.616 367.434 46.808C366.218 47.448 365.354 48.344 364.842 49.496C364.394 50.648 364.17 51.864 364.17 53.144C364.17 54.168 364.266 55.224 364.458 56.312C364.714 57.336 365.002 58.264 365.322 59.096C366.026 60.888 366.762 62.648 367.53 64.376C368.362 66.104 368.778 67.96 368.778 69.944C368.778 71.864 368.138 73.912 366.858 76.088C365.578 78.2 363.946 79.896 361.962 81.176L362.634 81.272C362.954 81.336 363.178 81.368 363.306 81.368C363.434 81.368 363.53 81.368 363.594 81.368C365.066 81.368 366.442 80.952 367.722 80.12C369.066 79.224 370.25 78.136 371.274 76.856C372.298 75.576 373.45 73.784 374.73 71.48C376.074 69.176 377.354 66.744 378.57 64.184C378.762 63.864 378.986 63.704 379.242 63.704C379.562 63.704 379.786 63.832 379.914 64.088C380.106 64.28 380.138 64.536 380.01 64.856C379.178 66.648 378.218 68.6 377.13 70.712C376.106 72.76 374.922 74.744 373.578 76.664C372.234 78.52 370.666 80.056 368.874 81.272C367.146 82.424 365.194 83 363.018 83C362.506 83 361.962 82.968 361.386 82.904C360.81 82.84 360.234 82.712 359.658 82.52C359.018 82.776 358.346 82.968 357.642 83.096C357.002 83.288 356.394 83.384 355.818 83.384ZM358.698 80.504C359.786 79.608 360.746 78.296 361.578 76.568C362.474 74.84 362.922 72.568 362.922 69.752C362.922 67.256 362.666 64.6 362.154 61.784C361.642 58.968 361.386 56.472 361.386 54.296C361.386 53.848 361.386 53.464 361.386 53.144C361.45 52.76 361.514 52.408 361.578 52.088C360.746 53.816 359.786 55.832 358.698 58.136C357.61 60.376 356.522 62.552 355.434 64.664C354.346 66.776 353.418 68.568 352.65 70.04C352.65 70.04 352.81 70.072 353.13 70.136C353.514 70.136 353.866 70.36 354.186 70.808C354.506 71.192 354.634 71.992 354.57 73.208C354.506 74.808 354.858 76.312 355.626 77.72C356.458 79.064 357.482 79.992 358.698 80.504ZM355.05 81.848C355.434 81.848 355.786 81.816 356.106 81.752C356.426 81.624 356.714 81.528 356.97 81.464C356.01 80.76 355.146 79.832 354.378 78.68C353.674 77.464 353.258 75.928 353.13 74.072C351.978 75.288 351.402 76.6 351.402 78.008C351.402 79.032 351.722 79.928 352.362 80.696C353.002 81.464 353.898 81.848 355.05 81.848ZM389.691 83.096C388.475 83.096 387.259 82.616 386.043 81.656C384.827 80.632 384.219 79 384.219 76.76C384.219 75.032 384.635 73.048 385.467 70.808C386.235 68.632 387.259 66.52 388.539 64.472C389.883 62.424 390.843 60.76 391.419 59.48C391.611 58.968 391.707 58.52 391.707 58.136C391.707 56.984 390.971 56.152 389.499 55.64C388.091 55.128 386.235 54.84 383.931 54.776L382.779 57.944C382.075 59.992 381.083 62.392 379.803 65.144C378.587 67.896 377.211 70.552 375.675 73.112C374.203 75.672 372.667 77.72 371.067 79.256C370.939 79.384 370.779 79.448 370.587 79.448C370.331 79.448 370.171 79.288 370.107 78.968C369.979 78.648 370.107 78.264 370.491 77.816C372.987 74.488 375.227 70.808 377.211 66.776C379.195 62.68 380.859 58.52 382.203 54.296C383.611 50.072 384.635 46.168 385.275 42.584C385.467 41.56 385.819 40.824 386.331 40.376C386.843 39.864 387.387 39.608 387.963 39.608C388.795 39.608 389.563 40.024 390.267 40.856C390.971 41.624 391.323 42.744 391.323 44.216C391.323 44.472 391.291 44.76 391.227 45.08C391.227 45.4 391.195 45.72 391.131 46.04C390.875 47.384 390.107 48.664 388.827 49.88C387.611 51.032 386.619 51.896 385.851 52.472C386.491 52.536 387.163 52.6 387.867 52.664C388.571 52.664 389.339 52.664 390.171 52.664C393.179 52.664 396.155 52.472 399.099 52.088C399.227 52.472 399.291 52.76 399.291 52.952C399.291 53.784 399.035 54.84 398.523 56.12C398.075 57.4 397.595 58.552 397.083 59.576C396.827 60.152 396.315 61.208 395.547 62.744C394.779 64.216 393.947 65.912 393.051 67.832C392.155 69.688 391.387 71.544 390.747 73.4C390.171 75.192 389.883 76.728 389.883 78.008C389.883 79.672 390.523 80.504 391.803 80.504C392.763 80.504 393.819 79.896 394.971 78.68C396.123 77.4 397.243 75.864 398.331 74.072C399.483 72.216 400.507 70.424 401.403 68.696C402.363 66.904 403.099 65.496 403.611 64.472C403.867 63.832 404.219 63.512 404.667 63.512C404.923 63.512 405.051 63.736 405.051 64.184C405.051 64.44 404.955 64.824 404.763 65.336C404.059 66.808 403.227 68.472 402.267 70.328C401.307 72.184 400.219 74.008 399.003 75.8C397.851 77.592 396.571 79.16 395.163 80.504C393.819 81.784 392.347 82.616 390.747 83C390.555 83.064 390.203 83.096 389.691 83.096ZM424.034 83.288C423.33 83.352 422.53 83.192 421.634 82.808C420.738 82.424 419.938 81.72 419.234 80.696C418.594 79.672 418.274 78.232 418.274 76.376C418.274 74.84 418.562 72.984 419.138 70.808C418.37 72.024 417.378 73.528 416.162 75.32C414.946 77.048 413.634 78.584 412.226 79.928C411.01 81.08 409.858 81.912 408.77 82.424C407.682 82.936 406.69 83.192 405.794 83.192C404.13 83.192 402.786 82.456 401.762 80.984C400.738 79.448 400.226 77.464 400.226 75.032C400.226 72.472 400.866 69.56 402.146 66.296C403.426 63.032 405.506 59.64 408.386 56.12C410.242 53.88 412.482 52.088 415.106 50.744C417.794 49.336 420.418 48.632 422.978 48.632C424.45 48.632 425.858 48.888 427.202 49.4C428.546 49.848 429.73 50.616 430.754 51.704C431.202 52.152 431.426 52.664 431.426 53.24C431.426 53.624 431.266 53.944 430.946 54.2C430.626 54.456 430.21 54.52 429.698 54.392C428.994 52.152 427.49 51.032 425.186 51.032C424.098 51.032 422.85 51.384 421.442 52.088C419.266 53.24 416.994 55.128 414.626 57.752C412.322 60.376 410.306 63.096 408.578 65.912C408.322 66.296 407.906 67.032 407.33 68.12C406.818 69.208 406.306 70.424 405.794 71.768C405.282 73.112 404.93 74.424 404.738 75.704C404.674 76.088 404.642 76.376 404.642 76.568C404.642 76.696 404.642 76.92 404.642 77.24C404.642 79.352 405.442 80.408 407.042 80.408C408.962 80.408 411.138 79 413.57 76.184C415.234 74.136 416.738 71.992 418.082 69.752C419.426 67.512 420.802 65.112 422.21 62.552C423.17 60.824 424.066 59.384 424.898 58.232C425.73 57.08 426.914 56.504 428.45 56.504C429.154 56.504 429.858 56.6 430.562 56.792C431.266 56.984 432.002 57.016 432.77 56.888C432.258 57.4 431.554 58.36 430.658 59.768C429.826 61.176 428.93 62.776 427.97 64.568C427.01 66.36 426.146 68.184 425.378 70.04C424.61 71.896 424.066 73.496 423.746 74.84C423.682 75.224 423.586 75.768 423.458 76.472C423.394 77.176 423.362 77.688 423.362 78.008C423.362 79.8 423.874 80.696 424.898 80.696C425.922 80.696 427.01 80.088 428.162 78.872C429.378 77.656 430.562 76.152 431.714 74.36C432.866 72.568 433.922 70.776 434.882 68.984C435.842 67.128 436.61 65.624 437.186 64.472C437.442 63.832 437.826 63.512 438.338 63.512C438.658 63.512 438.818 63.736 438.818 64.184C438.818 64.376 438.722 64.728 438.53 65.24C437.762 66.84 436.834 68.664 435.746 70.712C434.658 72.696 433.474 74.648 432.194 76.568C430.914 78.424 429.57 79.992 428.162 81.272C426.818 82.488 425.442 83.16 424.034 83.288ZM508.929 89.144C506.113 89.144 504.129 88.024 502.977 85.784C501.825 83.608 501.249 81.048 501.249 78.104C501.249 75.48 501.601 72.888 502.305 70.328C503.073 67.768 503.969 65.816 504.993 64.472C503.265 66.52 501.121 68.856 498.561 71.48C496.001 74.104 493.185 76.632 490.113 79.064C487.041 81.496 483.873 83.512 480.609 85.112C477.345 86.712 474.113 87.512 470.913 87.512C469.953 87.512 468.993 87.416 468.033 87.224C467.137 87.096 466.241 86.84 465.345 86.456C462.977 85.496 461.217 83.8 460.065 81.368C458.913 78.872 458.337 75.896 458.337 72.44C458.337 68.792 458.945 64.888 460.161 60.728C461.441 56.504 463.297 52.216 465.729 47.864C466.881 45.752 468.161 43.672 469.569 41.624C471.041 39.512 472.609 37.528 474.273 35.672C472.289 34.776 470.465 33.784 468.801 32.696C467.137 31.544 465.729 30.296 464.577 28.952C463.809 28.056 463.233 27 462.849 25.784C462.465 24.568 462.273 23.384 462.273 22.232C462.273 20.184 462.753 18.84 463.713 18.2C464.033 17.688 464.417 17.432 464.865 17.432C465.441 17.432 465.729 17.784 465.729 18.488C465.729 18.936 465.601 19.416 465.345 19.928C465.025 20.76 464.865 21.528 464.865 22.232C464.865 23.256 465.121 24.216 465.633 25.112C466.145 25.944 466.753 26.744 467.457 27.512C469.505 29.944 472.321 31.96 475.905 33.56C480.001 29.08 484.481 24.952 489.345 21.176C494.273 17.336 499.553 14.264 505.185 11.96C510.817 9.656 516.737 8.504 522.945 8.504C528.129 8.504 532.193 9.656 535.137 11.96C538.081 14.2 539.553 17.112 539.553 20.696C539.553 22.424 539.041 24.312 538.017 26.36C536.993 28.344 535.329 30.296 533.025 32.216C530.721 34.072 527.649 35.704 523.809 37.112C520.033 38.456 515.329 39.384 509.697 39.896C507.713 40.088 505.921 40.248 504.321 40.376C502.785 40.44 501.121 40.472 499.329 40.472C496.001 40.472 492.769 40.248 489.633 39.8C486.561 39.352 483.489 38.648 480.417 37.688C479.265 39.288 477.793 41.464 476.001 44.216C474.273 46.968 472.545 49.912 470.817 53.048C469.089 56.184 467.649 59.16 466.497 61.976C465.473 64.664 464.705 67.128 464.193 69.368C463.681 71.544 463.425 73.496 463.425 75.224C463.425 78.36 464.161 80.728 465.633 82.328C467.105 83.864 469.089 84.632 471.585 84.632C474.017 84.632 476.769 83.928 479.841 82.52C482.977 81.112 486.241 79 489.633 76.184C493.025 73.368 496.321 70.2 499.521 66.68C502.785 63.16 505.761 59.576 508.449 55.928C511.137 52.28 513.313 48.92 514.977 45.848C516.065 43.8 517.121 42.36 518.145 41.528C519.169 40.632 520.033 40.184 520.737 40.184C521.441 40.184 521.985 40.472 522.369 41.048C522.753 41.56 522.945 42.264 522.945 43.16C522.945 44.952 522.145 46.744 520.545 48.536C518.753 50.52 516.993 52.952 515.265 55.832C513.537 58.712 512.001 61.752 510.657 64.952C509.313 68.152 508.353 71.288 507.777 74.36C507.585 75.384 507.457 76.344 507.393 77.24C507.329 78.136 507.297 78.936 507.297 79.64C507.297 82.008 507.649 83.704 508.353 84.728C509.121 85.752 510.113 86.264 511.329 86.264C512.801 86.264 514.497 85.592 516.417 84.248C518.337 82.904 520.193 81.112 521.985 78.872C523.521 76.824 524.993 74.648 526.401 72.344C527.873 70.04 529.217 67.64 530.433 65.144C530.625 64.696 530.881 64.376 531.201 64.184C531.585 63.928 531.841 63.8 531.969 63.8C532.289 63.8 532.449 63.992 532.449 64.376C532.449 64.632 532.353 65.016 532.161 65.528C531.585 66.808 530.817 68.344 529.857 70.136C528.897 71.928 527.841 73.784 526.689 75.704C525.537 77.56 524.353 79.288 523.137 80.888C521.473 83.064 519.361 84.984 516.801 86.648C514.305 88.312 511.681 89.144 508.929 89.144ZM498.465 38.168C501.793 38.168 505.505 37.976 509.601 37.592C514.913 37.144 519.521 36.088 523.425 34.424C527.329 32.76 530.337 30.648 532.449 28.088C534.561 25.528 535.617 22.68 535.617 19.544C535.617 16.728 534.433 14.584 532.065 13.112C529.761 11.64 526.817 10.904 523.233 10.904C517.281 10.904 511.841 12.088 506.913 14.456C502.049 16.76 497.569 19.8 493.473 23.576C489.441 27.352 485.601 31.416 481.953 35.768C486.817 37.368 492.321 38.168 498.465 38.168ZM516.112 109.208C515.344 109.208 514.576 109.08 513.808 108.824C512.976 108.632 512.144 108.6 511.312 108.728C511.696 108.344 512.432 107.224 513.52 105.368C514.608 103.576 515.888 101.336 517.36 98.648C518.768 95.96 520.272 93.048 521.872 89.912C523.472 86.776 524.976 83.704 526.384 80.696C527.792 77.624 528.976 74.84 529.936 72.344C530.96 69.784 531.6 67.768 531.856 66.296C531.28 67.128 530.704 67.608 530.128 67.736C529.616 67.8 529.488 67.608 529.744 67.16C529.872 66.904 530.128 66.296 530.512 65.336C530.96 64.312 531.344 63.448 531.664 62.744C532.176 61.464 532.592 60.056 532.912 58.52C533.296 56.984 533.488 55.512 533.488 54.104C533.488 53.208 533.392 52.44 533.2 51.8C533.008 51.16 532.656 50.808 532.144 50.744C532.144 50.744 532.496 50.68 533.2 50.552C533.904 50.424 534.64 50.296 535.408 50.168C536.176 50.04 536.688 49.976 536.944 49.976C537.328 49.912 537.68 49.88 538 49.88C538.32 49.816 538.608 49.784 538.864 49.784C539.44 49.784 539.824 50.008 540.016 50.456C540.272 50.84 540.4 51.672 540.4 52.952C540.4 54.552 540.112 56.6 539.536 59.096C539.024 61.528 538.416 63.672 537.712 65.528C538.416 64.376 539.312 62.904 540.4 61.112C541.552 59.32 542.864 57.496 544.336 55.64C545.808 53.784 547.344 52.248 548.944 51.032C550.544 49.752 552.112 49.112 553.648 49.112C553.968 49.112 554.384 49.176 554.896 49.304C556.688 49.752 557.936 50.648 558.64 51.992C559.408 53.272 559.792 54.808 559.792 56.6C559.792 58.52 559.408 60.632 558.64 62.936C557.936 65.24 556.976 67.512 555.76 69.752C554.544 71.928 553.2 73.912 551.728 75.704C549.936 77.944 547.792 79.736 545.296 81.08C542.8 82.424 540.24 83.096 537.616 83.096C535.248 83.096 533.04 82.488 530.992 81.272L521.872 104.216C520.976 106.136 520.112 107.448 519.28 108.152C518.448 108.856 517.392 109.208 516.112 109.208ZM534.544 81.08C536.336 81.08 538.352 80.248 540.592 78.584C542.832 76.92 544.976 74.808 547.024 72.248C549.136 69.624 550.896 67 552.304 64.376C553.264 62.584 553.968 60.952 554.416 59.48C554.864 57.944 555.088 56.632 555.088 55.544C555.088 53.048 554.192 51.8 552.4 51.8C551.568 51.8 550.48 52.248 549.136 53.144C547.856 54.04 546.352 55.672 544.624 58.04C542.768 60.6 540.72 63.832 538.48 67.736C536.304 71.576 534.064 75.64 531.76 79.928C532.528 80.696 533.456 81.08 534.544 81.08ZM583.878 83.288C583.174 83.352 582.374 83.192 581.478 82.808C580.582 82.424 579.782 81.72 579.078 80.696C578.438 79.672 578.118 78.232 578.118 76.376C578.118 74.84 578.406 72.984 578.982 70.808C578.214 72.024 577.222 73.528 576.006 75.32C574.79 77.048 573.478 78.584 572.07 79.928C570.854 81.08 569.702 81.912 568.614 82.424C567.526 82.936 566.534 83.192 565.638 83.192C563.974 83.192 562.63 82.456 561.606 80.984C560.582 79.448 560.07 77.464 560.07 75.032C560.07 72.472 560.71 69.56 561.99 66.296C563.27 63.032 565.35 59.64 568.23 56.12C570.086 53.88 572.326 52.088 574.95 50.744C577.638 49.336 580.262 48.632 582.822 48.632C584.294 48.632 585.702 48.888 587.046 49.4C588.39 49.848 589.574 50.616 590.598 51.704C591.046 52.152 591.27 52.664 591.27 53.24C591.27 53.624 591.11 53.944 590.79 54.2C590.47 54.456 590.054 54.52 589.542 54.392C588.838 52.152 587.334 51.032 585.03 51.032C583.942 51.032 582.694 51.384 581.286 52.088C579.11 53.24 576.838 55.128 574.47 57.752C572.166 60.376 570.15 63.096 568.422 65.912C568.166 66.296 567.75 67.032 567.174 68.12C566.662 69.208 566.15 70.424 565.638 71.768C565.126 73.112 564.774 74.424 564.582 75.704C564.518 76.088 564.486 76.376 564.486 76.568C564.486 76.696 564.486 76.92 564.486 77.24C564.486 79.352 565.286 80.408 566.886 80.408C568.806 80.408 570.982 79 573.414 76.184C575.078 74.136 576.582 71.992 577.926 69.752C579.27 67.512 580.646 65.112 582.054 62.552C583.014 60.824 583.91 59.384 584.742 58.232C585.574 57.08 586.758 56.504 588.294 56.504C588.998 56.504 589.702 56.6 590.406 56.792C591.11 56.984 591.846 57.016 592.614 56.888C592.102 57.4 591.398 58.36 590.502 59.768C589.67 61.176 588.774 62.776 587.814 64.568C586.854 66.36 585.99 68.184 585.222 70.04C584.454 71.896 583.91 73.496 583.59 74.84C583.526 75.224 583.43 75.768 583.302 76.472C583.238 77.176 583.206 77.688 583.206 78.008C583.206 79.8 583.718 80.696 584.742 80.696C585.766 80.696 586.854 80.088 588.006 78.872C589.222 77.656 590.406 76.152 591.558 74.36C592.71 72.568 593.766 70.776 594.726 68.984C595.686 67.128 596.454 65.624 597.03 64.472C597.286 63.832 597.67 63.512 598.182 63.512C598.502 63.512 598.662 63.736 598.662 64.184C598.662 64.376 598.566 64.728 598.374 65.24C597.606 66.84 596.678 68.664 595.59 70.712C594.502 72.696 593.318 74.648 592.038 76.568C590.758 78.424 589.414 79.992 588.006 81.272C586.662 82.488 585.286 83.16 583.878 83.288ZM731.077 100.76C727.557 100.76 724.293 99.96 721.285 98.36C718.341 96.76 715.717 94.584 713.413 91.832C711.109 89.144 709.189 86.104 707.653 82.712C706.373 79.832 705.317 76.92 704.485 73.976C703.717 71.032 703.141 68.28 702.757 65.72C702.373 63.16 702.181 61.048 702.181 59.384C702.181 57.336 702.405 56.184 702.853 55.928C704.069 56.056 706.085 55.544 708.901 54.392C711.781 53.24 715.173 51.544 719.077 49.304C723.045 47.064 727.301 44.376 731.845 41.24C736.453 38.04 741.061 34.456 745.669 30.488C750.341 26.52 754.821 22.232 759.109 17.624C763.397 13.016 767.173 8.184 770.437 3.128C771.205 1.912 771.941 1.304 772.645 1.304C773.221 1.304 773.509 1.656 773.509 2.36C773.509 2.936 773.285 3.576 772.837 4.27999C769.765 9.4 766.117 14.424 761.893 19.352C757.669 24.216 753.157 28.792 748.357 33.08C743.557 37.368 738.725 41.24 733.861 44.696C729.061 48.152 724.453 51.032 720.037 53.336C715.685 55.64 711.845 57.208 708.517 58.04C708.325 57.912 708.229 58.232 708.229 59C708.229 60.088 708.453 61.848 708.901 64.28C709.349 66.648 710.021 69.368 710.917 72.44C711.877 75.448 713.029 78.52 714.373 81.656C716.421 86.456 718.853 90.136 721.669 92.696C724.549 95.32 727.845 96.632 731.557 96.632C734.053 96.632 736.613 96.248 739.237 95.48C741.861 94.776 744.261 93.656 746.437 92.12C748.613 90.648 750.309 88.76 751.525 86.456C751.909 85.56 752.357 85.112 752.869 85.112C753.125 85.112 753.253 85.304 753.253 85.688C753.253 86.136 753.093 86.648 752.773 87.224C751.621 89.592 749.861 91.8 747.493 93.848C745.125 95.896 742.469 97.56 739.525 98.84C736.645 100.12 733.829 100.76 731.077 100.76ZM649.861 99.512C645.509 99.512 641.285 98.904 637.189 97.688C633.157 96.536 629.509 94.808 626.245 92.504C623.045 90.2 620.485 87.384 618.565 84.056C616.709 80.728 615.781 76.952 615.781 72.728C615.781 71.576 615.877 70.392 616.069 69.176C616.261 67.896 616.517 66.584 616.837 65.24C617.477 62.936 618.501 60.952 619.909 59.288C621.381 57.56 622.885 56.216 624.421 55.256C625.957 54.232 627.109 53.688 627.877 53.624H628.165C628.805 53.624 629.125 53.816 629.125 54.2C629.125 54.52 628.965 54.776 628.645 54.968C628.069 55.224 627.077 55.96 625.669 57.176C624.325 58.328 622.981 59.96 621.637 62.072C620.293 64.12 619.429 66.584 619.045 69.464C618.853 70.68 618.757 71.832 618.757 72.92C618.757 76.76 619.589 80.056 621.253 82.808C622.917 85.496 625.093 87.704 627.781 89.432C630.469 91.16 633.413 92.408 636.613 93.176C639.813 94.008 642.949 94.424 646.021 94.424C647.237 94.424 648.421 94.36 649.573 94.232C650.725 94.168 651.813 94.008 652.837 93.752C659.749 92.216 665.733 89.752 670.789 86.36C675.909 82.968 680.325 79.064 684.037 74.648C687.749 70.232 690.885 65.688 693.445 61.016C696.069 56.344 698.277 51.96 700.069 47.864C700.453 46.904 701.093 45.4 701.989 43.352C702.949 41.304 704.005 38.968 705.157 36.344C706.373 33.72 707.589 31.064 708.805 28.376C710.085 25.688 711.237 23.224 712.261 20.984C713.285 18.744 714.117 17.016 714.757 15.8C710.469 16.312 705.829 16.792 700.837 17.24C695.909 17.624 691.205 18.456 686.725 19.736C681.733 21.144 677.637 23.192 674.437 25.88C671.301 28.568 668.965 31.512 667.429 34.712C665.957 37.912 665.221 40.952 665.221 43.832C665.221 46.968 666.021 49.592 667.621 51.704C669.221 53.816 671.429 54.872 674.245 54.872C675.653 54.872 677.157 54.584 678.757 54.008C680.613 53.368 682.149 52.248 683.365 50.648C684.581 48.984 685.477 47.128 686.053 45.08C686.693 42.968 687.013 40.952 687.013 39.032C687.013 38.008 686.917 37.016 686.725 36.056V35.864C686.725 35.608 686.853 35.48 687.109 35.48C687.621 35.48 688.069 35.864 688.453 36.632C688.773 37.272 688.965 37.976 689.029 38.744C689.157 39.448 689.221 40.152 689.221 40.856C689.221 42.904 688.773 44.952 687.877 47C686.981 48.984 685.797 50.776 684.325 52.376C682.853 53.976 681.189 55.128 679.333 55.832C678.309 56.216 677.317 56.504 676.357 56.696C675.397 56.824 674.469 56.888 673.573 56.888C670.821 56.888 668.357 56.184 666.181 54.776C664.069 53.304 662.405 51.384 661.189 49.016C660.037 46.648 659.461 44.088 659.461 41.336C659.461 38.2 660.325 35.032 662.053 31.832C663.781 28.568 666.565 25.624 670.405 23C674.245 20.312 679.301 18.264 685.573 16.856C690.821 15.704 696.165 14.968 701.605 14.648C707.045 14.264 711.845 13.88 716.005 13.496C716.261 13.112 716.773 12.376 717.541 11.288C718.373 10.2 719.301 9.112 720.325 8.024C721.413 6.872 722.469 6.136 723.493 5.816C724.197 5.624 724.805 5.528 725.317 5.528C726.469 5.528 727.365 5.848 728.005 6.488C728.709 7.12799 729.061 7.89599 729.061 8.79199C729.061 10.072 728.165 11.448 726.373 12.92C724.645 14.328 721.701 15.256 717.541 15.704C715.493 19.48 713.605 23.672 711.877 28.28C710.149 32.824 708.421 37.592 706.693 42.584C705.029 47.512 703.173 52.472 701.125 57.464C699.141 62.392 696.869 67.16 694.309 71.768C691.749 76.312 688.709 80.472 685.189 84.248C681.733 88.024 677.637 91.192 672.901 93.752C668.229 96.312 662.789 98.072 656.581 99.032C655.493 99.16 654.373 99.256 653.221 99.32C652.069 99.448 650.949 99.512 649.861 99.512ZM719.365 13.304C721.349 12.984 722.757 12.6 723.589 12.152C724.485 11.64 725.125 11.128 725.509 10.616C725.957 10.104 726.181 9.656 726.181 9.272C726.181 8.632 725.861 8.31199 725.221 8.31199C724.645 8.31199 723.941 8.632 723.109 9.272C722.469 9.72 721.797 10.36 721.093 11.192C720.389 12.024 719.813 12.728 719.365 13.304ZM743.019 44.024C742.059 44.024 741.259 43.704 740.619 43.064C740.043 42.36 739.755 41.528 739.755 40.568C739.755 39.352 740.235 38.296 741.195 37.4C742.155 36.504 743.211 36.056 744.363 36.056C745.387 36.056 746.219 36.376 746.859 37.016C747.499 37.656 747.819 38.424 747.819 39.32C747.819 40.536 747.339 41.624 746.379 42.584C745.419 43.544 744.299 44.024 743.019 44.024ZM735.243 83C732.875 83 731.211 82.328 730.251 80.984C729.291 79.576 728.811 77.976 728.811 76.184C728.811 75.224 728.907 74.264 729.099 73.304C729.355 72.28 729.643 71.352 729.963 70.52L736.395 54.104C736.587 53.592 736.683 53.144 736.683 52.76C736.683 52.12 736.523 51.576 736.203 51.128C735.883 50.616 735.659 50.264 735.531 50.072L740.811 49.88C741.771 49.816 742.443 49.944 742.827 50.264C743.275 50.52 743.499 50.84 743.499 51.224C743.499 51.608 743.275 52.312 742.827 53.336L734.859 72.056C734.859 72.056 734.667 72.472 734.283 73.304C733.963 74.072 733.771 74.584 733.707 74.84C733.515 75.8 733.387 76.408 733.323 76.664C733.259 76.92 733.227 77.08 733.227 77.144C733.227 77.208 733.227 77.464 733.227 77.912C733.227 78.744 733.419 79.448 733.803 80.024C734.251 80.6 734.987 80.888 736.011 80.888C736.651 80.888 737.387 80.696 738.219 80.312C739.051 79.928 739.659 79.544 740.043 79.16C741.643 77.496 743.211 75.32 744.747 72.632C746.347 69.88 747.819 67.16 749.163 64.472C749.419 63.832 749.739 63.512 750.123 63.512C750.443 63.512 750.603 63.736 750.603 64.184C750.603 64.44 750.507 64.824 750.315 65.336C749.675 66.68 748.875 68.344 747.915 70.328C746.955 72.312 745.803 74.296 744.459 76.28C743.179 78.2 741.771 79.8 740.235 81.08C738.699 82.36 737.035 83 735.243 83ZM753.846 83C752.054 83 750.454 82.392 749.046 81.176C747.638 79.896 746.934 77.912 746.934 75.224C746.934 73.112 747.318 70.52 748.086 67.448C748.918 64.312 749.91 61.08 751.062 57.752C752.278 54.36 753.462 51.288 754.614 48.536H749.526C749.078 48.536 748.854 48.216 748.854 47.576C748.854 47.256 748.918 46.968 749.046 46.712C749.238 46.456 749.494 46.328 749.814 46.328H755.574C756.662 43.896 757.814 41.528 759.03 39.224C760.246 36.92 761.43 34.744 762.582 32.696C764.054 30.136 765.622 28.216 767.286 26.936C768.95 25.656 770.39 25.016 771.606 25.016C772.566 25.016 773.366 25.4 774.006 26.168C774.646 26.872 774.966 27.96 774.966 29.432C774.966 30.328 774.774 31.576 774.39 33.176C774.006 34.712 773.398 36.344 772.566 38.072C772.118 38.968 771.478 40.248 770.646 41.912C769.878 43.576 769.11 45.048 768.342 46.328H772.95C773.398 46.328 773.622 46.648 773.622 47.288C773.622 47.544 773.558 47.832 773.43 48.152C773.302 48.408 773.11 48.536 772.854 48.536H767.19C765.59 51.288 763.766 53.976 761.718 56.6C759.67 59.224 757.238 61.848 754.422 64.472C754.23 65.048 753.974 65.88 753.654 66.968C753.398 68.056 753.142 69.176 752.886 70.328C752.694 71.416 752.502 72.344 752.31 73.112C752.182 73.88 752.118 74.264 752.118 74.264C751.926 75.096 751.83 75.864 751.83 76.568C751.83 77.912 752.15 78.904 752.79 79.544C753.43 80.12 754.166 80.408 754.998 80.408C755.51 80.408 756.022 80.344 756.534 80.216C757.046 80.024 757.622 79.704 758.262 79.256C760.502 77.656 762.454 75.48 764.118 72.728C765.846 69.976 767.35 67.32 768.63 64.76C769.014 63.992 769.398 63.608 769.782 63.608C770.038 63.608 770.166 63.8 770.166 64.184C770.166 64.376 770.07 64.728 769.878 65.24C768.47 68.184 767.286 70.552 766.326 72.344C765.366 74.136 764.438 75.64 763.542 76.856C762.646 78.008 761.59 79.16 760.374 80.312C759.478 81.208 758.454 81.88 757.302 82.328C756.15 82.776 754.998 83 753.846 83ZM761.43 46.328H766.326C767.222 44.664 768.054 43.032 768.822 41.432C769.654 39.832 770.39 38.232 771.03 36.632C771.478 35.608 771.862 34.456 772.182 33.176C772.502 31.896 772.662 30.904 772.662 30.2C772.662 29.24 772.438 28.76 771.99 28.76C771.67 28.76 771.19 29.048 770.55 29.624C769.974 30.136 769.238 31.032 768.342 32.312C767.19 33.912 766.038 35.992 764.886 38.552C763.798 41.048 762.646 43.64 761.43 46.328ZM755.19 61.4C757.046 59.48 758.774 57.432 760.374 55.256C762.038 53.08 763.574 50.84 764.982 48.536H760.47C759.446 50.904 758.486 53.208 757.59 55.448C756.694 57.688 755.894 59.672 755.19 61.4ZM789.19 83.288C788.486 83.352 787.686 83.192 786.79 82.808C785.894 82.424 785.094 81.72 784.39 80.696C783.75 79.672 783.43 78.232 783.43 76.376C783.43 74.84 783.718 72.984 784.294 70.808C783.526 72.024 782.534 73.528 781.318 75.32C780.102 77.048 778.79 78.584 777.382 79.928C776.166 81.08 775.014 81.912 773.926 82.424C772.838 82.936 771.846 83.192 770.95 83.192C769.286 83.192 767.942 82.456 766.918 80.984C765.894 79.448 765.382 77.464 765.382 75.032C765.382 72.472 766.022 69.56 767.302 66.296C768.582 63.032 770.662 59.64 773.542 56.12C775.398 53.88 777.638 52.088 780.262 50.744C782.95 49.336 785.574 48.632 788.134 48.632C789.606 48.632 791.014 48.888 792.358 49.4C793.702 49.848 794.886 50.616 795.91 51.704C796.358 52.152 796.582 52.664 796.582 53.24C796.582 53.624 796.422 53.944 796.102 54.2C795.782 54.456 795.366 54.52 794.854 54.392C794.15 52.152 792.646 51.032 790.342 51.032C789.254 51.032 788.006 51.384 786.598 52.088C784.422 53.24 782.15 55.128 779.782 57.752C777.478 60.376 775.462 63.096 773.734 65.912C773.478 66.296 773.062 67.032 772.486 68.12C771.974 69.208 771.462 70.424 770.95 71.768C770.438 73.112 770.086 74.424 769.894 75.704C769.83 76.088 769.798 76.376 769.798 76.568C769.798 76.696 769.798 76.92 769.798 77.24C769.798 79.352 770.598 80.408 772.198 80.408C774.118 80.408 776.294 79 778.726 76.184C780.39 74.136 781.894 71.992 783.238 69.752C784.582 67.512 785.958 65.112 787.366 62.552C788.326 60.824 789.222 59.384 790.054 58.232C790.886 57.08 792.07 56.504 793.606 56.504C794.31 56.504 795.014 56.6 795.718 56.792C796.422 56.984 797.158 57.016 797.926 56.888C797.414 57.4 796.71 58.36 795.814 59.768C794.982 61.176 794.086 62.776 793.126 64.568C792.166 66.36 791.302 68.184 790.534 70.04C789.766 71.896 789.222 73.496 788.902 74.84C788.838 75.224 788.742 75.768 788.614 76.472C788.55 77.176 788.518 77.688 788.518 78.008C788.518 79.8 789.03 80.696 790.054 80.696C791.078 80.696 792.166 80.088 793.318 78.872C794.534 77.656 795.718 76.152 796.87 74.36C798.022 72.568 799.078 70.776 800.038 68.984C800.998 67.128 801.766 65.624 802.342 64.472C802.598 63.832 802.982 63.512 803.494 63.512C803.814 63.512 803.974 63.736 803.974 64.184C803.974 64.376 803.878 64.728 803.686 65.24C802.918 66.84 801.99 68.664 800.902 70.712C799.814 72.696 798.63 74.648 797.35 76.568C796.07 78.424 794.726 79.992 793.318 81.272C791.974 82.488 790.598 83.16 789.19 83.288Z" fill="white"/>
</svg>
