<svg width="901" height="110" viewBox="0 0 901 110" fill="none" xmlns="http://www.w3.org/2000/svg">
<path d="M35.8793 87.832C29.6073 87.832 23.8473 86.904 18.5993 85.048C13.4153 83.192 9.22325 80.472 6.02325 76.888C2.82325 73.24 1.06325 68.76 0.74325 63.448C0.61525 61.272 0.96725 58.872 1.79925 56.248C2.63125 53.624 3.78325 51.032 5.25525 48.472C6.79125 45.848 8.58325 43.512 10.6313 41.464C12.7433 39.352 14.9833 37.752 17.3513 36.664C17.5433 36.536 17.8313 36.44 18.2153 36.376C18.6633 36.312 18.9833 36.28 19.1753 36.28C19.5593 36.28 19.7513 36.376 19.7513 36.568C19.7513 36.888 19.2713 37.4 18.3113 38.104C15.6233 40.216 13.4153 42.648 11.6873 45.4C9.89525 48.152 8.55125 51.096 7.65525 54.232C6.75925 57.368 6.31125 60.536 6.31125 63.736C6.31125 67.512 7.11125 70.776 8.71125 73.528C10.3753 76.216 12.5833 78.424 15.3353 80.152C18.0873 81.944 21.2233 83.256 24.7433 84.088C28.2633 84.92 31.9433 85.336 35.7833 85.336C40.0713 85.336 44.2953 84.856 48.4553 83.896C52.6793 82.936 56.5193 81.56 59.9753 79.768C65.2873 76.952 69.4793 73.464 72.5513 69.304C75.6873 65.144 77.2553 61.016 77.2553 56.92C77.2553 54.744 76.7753 52.664 75.8153 50.68C74.9193 48.696 73.4473 46.904 71.3993 45.304C69.8633 44.088 67.9753 42.936 65.7353 41.848C63.5593 40.76 61.2233 39.704 58.7273 38.68C56.2953 37.656 53.8953 36.632 51.5273 35.608C49.1593 34.52 47.0793 33.368 45.2873 32.152C42.7273 30.424 40.8393 28.568 39.6233 26.584C38.4713 24.6 37.8953 22.616 37.8953 20.632C37.8953 18.264 38.5673 15.96 39.9113 13.72C41.3193 11.48 43.2073 9.464 45.5753 7.672C48.0073 5.816 50.7273 4.376 53.7353 3.352C56.3593 2.456 59.2073 1.752 62.2793 1.23999C65.4153 0.727997 68.4873 0.471998 71.4953 0.471998C73.9913 0.471998 76.3593 0.663998 78.5993 1.048C80.9033 1.368 82.9193 1.976 84.6473 2.872C86.8233 3.896 88.4873 5.272 89.6393 6.99999C90.7913 8.664 91.3673 10.424 91.3673 12.28C91.3673 14.84 90.2153 17.08 87.9113 19C87.0793 19.64 86.1513 20.248 85.1273 20.824C84.1033 21.336 82.8873 21.784 81.4793 22.168C81.2233 22.232 80.9353 22.264 80.6153 22.264C79.8473 22.264 79.4633 22.04 79.4633 21.592C79.4633 21.336 79.6553 21.08 80.0393 20.824C80.4873 20.504 81.1273 20.312 81.9593 20.248C83.8793 19.992 85.3193 19.256 86.2793 18.04C87.3033 16.824 87.8153 15.416 87.8153 13.816C87.8153 12.152 87.2393 10.52 86.0873 8.92C84.9993 7.256 83.3033 5.88 80.9993 4.79199C78.6953 3.64 75.7513 3.064 72.1673 3.064C70.1193 3.064 67.8473 3.288 65.3513 3.736C62.9193 4.184 60.2633 4.92 57.3833 5.944C53.8633 7.16 50.9193 8.952 48.5513 11.32C46.2473 13.688 45.0953 16.216 45.0953 18.904C45.0953 20.568 45.6393 22.264 46.7273 23.992C47.8793 25.656 49.7033 27.256 52.1993 28.792C54.3113 30.072 56.7113 31.352 59.3993 32.632C62.0873 33.848 64.8073 35.096 67.5593 36.376C70.3113 37.592 72.8073 38.904 75.0473 40.312C78.5673 42.488 81.0953 44.824 82.6313 47.32C84.1673 49.816 84.9353 52.376 84.9353 55C84.9353 58.072 84.0073 61.176 82.1513 64.312C80.3593 67.384 77.9913 70.296 75.0473 73.048C72.1033 75.736 68.8713 78.136 65.3513 80.248C61.2553 82.68 56.6153 84.536 51.4313 85.816C46.3113 87.16 41.1273 87.832 35.8793 87.832ZM100.223 79.384C97.8553 79.384 95.7113 78.616 93.7913 77.08C91.9353 75.544 91.0073 73.208 91.0073 70.072C91.0073 67.192 91.7113 64.12 93.1193 60.856C94.5273 57.528 96.3193 54.616 98.4953 52.12C100.351 49.944 102.431 48.152 104.735 46.744C107.039 45.336 109.215 44.632 111.263 44.632C112.671 44.632 113.887 45.016 114.911 45.784C115.999 46.616 116.543 47.8 116.543 49.336C116.543 50.936 115.935 52.696 114.719 54.616C113.503 56.536 111.775 58.328 109.535 59.992C108.575 60.696 107.359 61.368 105.887 62.008C104.415 62.648 102.943 63.192 101.471 63.64C99.9993 64.024 98.7833 64.216 97.8233 64.216C97.5033 64.984 97.1833 66.008 96.8633 67.288C96.6073 68.568 96.4793 69.88 96.4793 71.224C96.4793 72.824 96.7993 74.264 97.4393 75.544C98.0793 76.824 99.2633 77.464 100.991 77.464C103.103 77.464 105.023 76.856 106.751 75.64C108.479 74.424 110.015 72.92 111.359 71.128C112.703 69.272 113.823 67.416 114.719 65.56C115.679 63.704 116.447 62.136 117.023 60.856C117.407 59.96 117.919 59.512 118.559 59.512C118.879 59.512 119.039 59.672 119.039 59.992C119.039 60.248 118.943 60.568 118.751 60.952C117.855 62.872 116.895 64.92 115.871 67.096C114.847 69.208 113.631 71.224 112.223 73.144C110.815 75 109.119 76.504 107.135 77.656C105.215 78.808 102.911 79.384 100.223 79.384ZM98.4953 62.488C99.3913 62.488 100.895 62.168 103.007 61.528C105.119 60.824 107.039 59.736 108.767 58.264C110.431 56.792 111.711 55.192 112.607 53.464C113.503 51.672 113.951 50.168 113.951 48.952C113.951 47.544 113.439 46.84 112.415 46.84C111.647 46.84 110.591 47.352 109.247 48.376C107.903 49.4 106.239 51.128 104.255 53.56C103.039 55.096 101.887 56.76 100.799 58.552C99.7113 60.344 98.9433 61.656 98.4953 62.488ZM128.644 79.096C127.428 79.096 126.212 78.616 124.996 77.656C123.78 76.632 123.172 75 123.172 72.76C123.172 71.032 123.588 69.048 124.42 66.808C125.188 64.632 126.212 62.52 127.492 60.472C128.836 58.424 129.796 56.76 130.372 55.48C130.564 54.968 130.66 54.52 130.66 54.136C130.66 52.984 129.924 52.152 128.452 51.64C127.044 51.128 125.188 50.84 122.884 50.776L121.732 53.944C121.028 55.992 120.036 58.392 118.756 61.144C117.54 63.896 116.164 66.552 114.628 69.112C113.156 71.672 111.62 73.72 110.02 75.256C109.892 75.384 109.732 75.448 109.54 75.448C109.284 75.448 109.124 75.288 109.06 74.968C108.932 74.648 109.06 74.264 109.444 73.816C111.94 70.488 114.18 66.808 116.164 62.776C118.148 58.68 119.812 54.52 121.156 50.296C122.564 46.072 123.588 42.168 124.228 38.584C124.42 37.56 124.772 36.824 125.284 36.376C125.796 35.864 126.34 35.608 126.916 35.608C127.748 35.608 128.516 36.024 129.22 36.856C129.924 37.624 130.276 38.744 130.276 40.216C130.276 40.472 130.244 40.76 130.18 41.08C130.18 41.4 130.148 41.72 130.084 42.04C129.828 43.384 129.06 44.664 127.78 45.88C126.564 47.032 125.572 47.896 124.804 48.472C125.444 48.536 126.116 48.6 126.82 48.664C127.524 48.664 128.292 48.664 129.124 48.664C132.132 48.664 135.108 48.472 138.052 48.088C138.18 48.472 138.244 48.76 138.244 48.952C138.244 49.784 137.988 50.84 137.476 52.12C137.028 53.4 136.548 54.552 136.036 55.576C135.78 56.152 135.268 57.208 134.5 58.744C133.732 60.216 132.9 61.912 132.004 63.832C131.108 65.688 130.34 67.544 129.7 69.4C129.124 71.192 128.836 72.728 128.836 74.008C128.836 75.672 129.476 76.504 130.756 76.504C131.716 76.504 132.772 75.896 133.924 74.68C135.076 73.4 136.196 71.864 137.284 70.072C138.436 68.216 139.46 66.424 140.356 64.696C141.316 62.904 142.052 61.496 142.564 60.472C142.82 59.832 143.172 59.512 143.62 59.512C143.876 59.512 144.004 59.736 144.004 60.184C144.004 60.44 143.908 60.824 143.716 61.336C143.012 62.808 142.18 64.472 141.22 66.328C140.26 68.184 139.172 70.008 137.956 71.8C136.804 73.592 135.524 75.16 134.116 76.504C132.772 77.784 131.3 78.616 129.7 79C129.508 79.064 129.156 79.096 128.644 79.096ZM153.003 40.024C152.043 40.024 151.243 39.704 150.603 39.064C150.027 38.36 149.739 37.528 149.739 36.568C149.739 35.352 150.219 34.296 151.179 33.4C152.139 32.504 153.195 32.056 154.347 32.056C155.371 32.056 156.203 32.376 156.843 33.016C157.483 33.656 157.803 34.424 157.803 35.32C157.803 36.536 157.323 37.624 156.363 38.584C155.403 39.544 154.283 40.024 153.003 40.024ZM145.227 79C142.859 79 141.195 78.328 140.235 76.984C139.275 75.576 138.795 73.976 138.795 72.184C138.795 71.224 138.891 70.264 139.083 69.304C139.339 68.28 139.627 67.352 139.947 66.52L146.379 50.104C146.571 49.592 146.667 49.144 146.667 48.76C146.667 48.12 146.507 47.576 146.187 47.128C145.867 46.616 145.643 46.264 145.515 46.072L150.795 45.88C151.755 45.816 152.427 45.944 152.811 46.264C153.259 46.52 153.483 46.84 153.483 47.224C153.483 47.608 153.259 48.312 152.811 49.336L144.843 68.056C144.843 68.056 144.651 68.472 144.267 69.304C143.947 70.072 143.755 70.584 143.691 70.84C143.499 71.8 143.371 72.408 143.307 72.664C143.243 72.92 143.211 73.08 143.211 73.144C143.211 73.208 143.211 73.464 143.211 73.912C143.211 74.744 143.403 75.448 143.787 76.024C144.235 76.6 144.971 76.888 145.995 76.888C146.635 76.888 147.371 76.696 148.203 76.312C149.035 75.928 149.643 75.544 150.027 75.16C151.627 73.496 153.195 71.32 154.731 68.632C156.331 65.88 157.803 63.16 159.147 60.472C159.403 59.832 159.723 59.512 160.107 59.512C160.427 59.512 160.587 59.736 160.587 60.184C160.587 60.44 160.491 60.824 160.299 61.336C159.659 62.68 158.859 64.344 157.899 66.328C156.939 68.312 155.787 70.296 154.443 72.28C153.163 74.2 151.755 75.8 150.219 77.08C148.683 78.36 147.019 79 145.227 79ZM150.006 79.768C152.31 75.096 154.518 70.488 156.63 65.944C158.806 61.336 161.014 56.952 163.254 52.792C164.534 50.488 165.59 48.888 166.422 47.992C167.318 47.032 168.502 46.552 169.974 46.552C170.486 46.552 171.03 46.648 171.606 46.84C172.182 46.968 172.758 47.032 173.334 47.032C173.718 47.032 174.006 47 174.198 46.936C173.302 47.448 172.15 48.728 170.742 50.776C169.334 52.76 167.894 55.064 166.422 57.688C164.95 60.312 163.638 62.776 162.486 65.08C163.702 63.608 164.95 62.136 166.23 60.664C167.574 59.192 169.046 57.784 170.646 56.44C172.182 55.096 174.006 53.72 176.118 52.312C178.294 50.84 180.406 49.624 182.454 48.664C184.502 47.704 186.134 47.224 187.35 47.224C187.798 47.224 188.118 47.256 188.31 47.32C188.31 47.32 187.958 47.96 187.254 49.24C186.55 50.456 185.654 52.088 184.566 54.136C183.542 56.12 182.486 58.264 181.398 60.568C180.31 62.808 179.318 64.984 178.422 67.096C177.59 69.144 177.046 70.872 176.79 72.28C176.598 73.112 176.502 73.88 176.502 74.584C176.502 75.608 176.694 76.28 177.078 76.6C177.462 76.92 177.878 77.08 178.326 77.08C179.542 77.08 180.822 76.44 182.166 75.16C183.51 73.816 184.79 72.184 186.006 70.264C187.286 68.344 188.406 66.488 189.366 64.696C190.39 62.84 191.126 61.432 191.574 60.472C191.83 59.96 192.022 59.672 192.15 59.608C192.278 59.48 192.47 59.416 192.726 59.416C193.11 59.416 193.302 59.672 193.302 60.184C193.302 60.504 193.206 60.856 193.014 61.24C192.246 62.712 191.318 64.472 190.23 66.52C189.206 68.568 188.022 70.584 186.678 72.568C185.334 74.488 183.862 76.12 182.262 77.464C180.662 78.744 178.934 79.384 177.078 79.384C175.798 79.384 174.454 78.936 173.046 78.04C171.702 77.144 171.03 75.48 171.03 73.048C171.03 72.344 171.094 71.608 171.222 70.84C171.35 70.008 171.574 69.112 171.894 68.152C172.406 66.872 173.014 65.496 173.718 64.024C174.422 62.552 175.574 60.536 177.174 57.976C177.622 57.272 177.878 56.728 177.942 56.344C178.07 55.96 178.134 55.64 178.134 55.384C178.134 54.616 177.782 54.232 177.078 54.232C176.502 54.232 175.638 54.552 174.486 55.192C173.398 55.832 172.022 56.952 170.358 58.552C168.758 60.088 166.838 62.264 164.598 65.08C162.422 67.896 159.894 72.056 157.014 77.56C156.566 78.392 156.054 78.84 155.478 78.904C154.966 78.968 154.23 79.032 153.27 79.096C152.63 79.16 152.022 79.192 151.446 79.192C150.87 79.256 150.39 79.448 150.006 79.768ZM184.848 109.624C178.768 109.624 175.728 107.128 175.728 102.136C175.728 99.768 176.56 97.656 178.224 95.8C179.888 93.944 181.872 92.344 184.176 91C187.376 89.08 190.48 87.544 193.488 86.392C196.496 85.24 199.344 84.216 202.032 83.32C204.784 82.488 207.376 81.56 209.808 80.536C210.96 77.144 211.728 73.592 212.112 69.88C212.304 67.96 212.4 66.296 212.4 64.888C212.4 63.416 212.304 62.456 212.112 62.008C211.408 63.352 210.48 64.984 209.328 66.904C208.176 68.824 206.864 70.712 205.392 72.568C203.92 74.36 202.32 75.864 200.592 77.08C198.928 78.296 197.2 78.904 195.408 78.904C194.768 78.904 194.16 78.808 193.584 78.616C191.792 77.848 190.48 76.76 189.648 75.352C188.88 73.944 188.496 72.344 188.496 70.552C188.496 67.672 189.328 64.568 190.992 61.24C192.656 57.912 194.64 54.872 196.944 52.12C198.8 49.88 200.976 48.088 203.472 46.744C205.968 45.4 208.496 44.728 211.056 44.728C214 44.728 216.752 45.72 219.312 47.704C220.272 48.472 220.752 49.304 220.752 50.2C220.752 51.16 220.368 51.64 219.6 51.64C218.96 51.64 218.512 51.224 218.256 50.392C217.36 48.024 215.92 46.84 213.936 46.84C212.336 46.84 210.512 47.544 208.464 48.952C206.416 50.296 204.496 51.992 202.704 54.04C201.168 55.768 199.664 57.752 198.192 59.992C196.784 62.232 195.6 64.44 194.64 66.616C193.744 68.792 193.296 70.68 193.296 72.28C193.296 73.368 193.552 74.296 194.064 75.064C194.576 75.832 195.376 76.216 196.464 76.216C197.936 76.216 199.472 75.512 201.072 74.104C202.736 72.696 204.304 70.968 205.776 68.92C207.312 66.872 208.624 64.792 209.712 62.68C210.864 60.568 211.664 58.808 212.112 57.4C212.56 55.928 213.168 55.032 213.936 54.712C214.704 54.328 215.472 54.136 216.24 54.136C217.008 54.136 217.648 53.944 218.16 53.56C218.416 54.968 218.576 56.408 218.64 57.88C218.768 59.288 218.832 60.728 218.832 62.2C218.832 67.128 218.192 72.088 216.912 77.08C218.064 76.184 219.248 75.224 220.464 74.2C221.744 73.112 222.832 71.96 223.728 70.744C225.328 68.568 226.512 66.584 227.28 64.792C228.112 62.936 228.752 61.496 229.2 60.472C229.584 59.832 230 59.512 230.448 59.512C230.832 59.512 231.024 59.704 231.024 60.088C231.024 60.408 230.896 60.792 230.64 61.24C229.04 64.632 227.568 67.544 226.224 69.976C224.88 72.344 223.408 74.36 221.808 76.024C220.208 77.624 218.224 79 215.856 80.152C214.832 83.224 213.296 86.456 211.248 89.848C209.2 93.24 206.8 96.44 204.048 99.448C201.296 102.456 198.288 104.888 195.024 106.744C191.76 108.664 188.368 109.624 184.848 109.624ZM182.544 107.704C183.952 107.704 185.424 107.384 186.96 106.744C188.56 106.168 190.064 105.464 191.472 104.632C192.88 103.8 193.968 103.096 194.736 102.52C196.208 101.368 197.712 99.928 199.248 98.2C200.784 96.472 202.128 94.808 203.28 93.208C204.368 91.672 205.392 90.04 206.352 88.312C207.376 86.648 208.24 84.984 208.944 83.32C208.432 83.512 207.792 83.736 207.024 83.992C206.32 84.248 205.808 84.44 205.488 84.568C203.376 85.272 201.04 86.072 198.48 86.968C195.984 87.928 193.488 88.952 190.992 90.04C188.496 91.192 186.224 92.44 184.176 93.784C182.384 95 180.912 96.6 179.76 98.584C178.544 100.568 177.936 102.296 177.936 103.768C177.936 104.856 178.32 105.784 179.088 106.552C179.792 107.32 180.944 107.704 182.544 107.704ZM379.759 90.04C378.799 89.912 377.487 89.656 375.823 89.272C374.159 88.952 372.463 88.28 370.735 87.256C369.007 86.232 367.535 84.664 366.319 82.552C365.103 80.504 364.495 77.752 364.495 74.296C364.495 70.328 365.295 65.976 366.895 61.24C368.559 56.44 370.575 51.448 372.943 46.264C375.311 41.08 377.583 35.96 379.759 30.904C381.487 26.872 382.351 23.8 382.351 21.688C382.351 19.576 381.551 18.52 379.951 18.52C378.159 18.52 375.471 19.96 371.887 22.84C368.367 25.656 364.271 29.944 359.599 35.704C358.383 37.24 356.815 39.384 354.895 42.136C352.975 44.824 350.927 47.832 348.751 51.16C346.575 54.424 344.431 57.752 342.319 61.144C340.271 64.472 338.447 67.544 336.847 70.36C335.311 73.176 334.191 75.416 333.487 77.08C332.655 79.064 331.695 80.408 330.607 81.112C329.519 81.88 328.495 82.264 327.535 82.264C326.703 82.264 325.967 82.04 325.327 81.592C324.751 81.144 324.463 80.6 324.463 79.96C324.463 79.576 324.559 79.256 324.751 79C325.135 78.232 326.159 76.376 327.823 73.432C329.487 70.488 331.375 66.584 333.487 61.72C335.599 56.792 337.615 51.096 339.535 44.632C341.519 38.104 342.991 30.904 343.951 23.032C344.079 22.136 344.143 21.176 344.143 20.152C344.143 17.912 343.759 16.28 342.991 15.256C342.223 14.168 341.199 13.624 339.919 13.624C338.511 13.624 336.911 14.232 335.119 15.448C333.327 16.664 331.503 18.424 329.647 20.728C326.447 24.76 323.631 28.504 321.199 31.96C318.767 35.352 316.527 38.744 314.479 42.136C312.495 45.528 310.511 49.144 308.527 52.984C306.607 56.824 304.559 61.144 302.383 65.944C300.207 70.68 297.711 76.184 294.895 82.456C294.447 83.48 293.679 84.216 292.591 84.664C291.567 85.112 290.607 85.336 289.711 85.336C288.815 85.336 288.079 85.144 287.503 84.76C286.927 84.376 286.735 83.832 286.927 83.128C288.591 80.568 290.383 77.336 292.303 73.432C294.223 69.528 296.143 65.272 298.063 60.664C300.047 55.992 301.871 51.288 303.535 46.552C305.263 41.752 306.735 37.24 307.951 33.016C309.167 28.728 309.999 25.016 310.447 21.88C310.575 20.856 310.671 19.896 310.735 19C310.799 18.104 310.831 17.24 310.831 16.408C310.831 11.48 309.775 7.96 307.663 5.848C305.615 3.736 302.959 2.68 299.695 2.68C296.943 2.68 293.935 3.32 290.671 4.6C287.471 5.816 284.207 7.512 280.879 9.68799C277.615 11.864 274.479 14.392 271.471 17.272C268.463 20.088 265.807 23.128 263.503 26.392C261.199 29.592 259.439 32.856 258.223 36.184C257.391 38.552 256.751 40.824 256.303 43C255.919 45.112 255.727 47.096 255.727 48.952C255.727 52.536 256.367 55.576 257.647 58.072C258.991 60.568 260.751 62.456 262.927 63.736C265.167 65.016 267.567 65.656 270.127 65.656C271.023 65.656 272.015 65.56 273.103 65.368C274.255 65.112 275.215 64.856 275.983 64.6C277.839 63.896 279.631 62.808 281.359 61.336C283.087 59.8 284.623 58.04 285.967 56.056C287.311 54.072 288.367 52.056 289.135 50.008C289.903 47.96 290.287 46.04 290.287 44.248C290.287 42.392 289.775 40.856 288.751 39.64C287.727 38.424 286.095 37.816 283.855 37.816C283.599 37.816 283.311 37.848 282.991 37.912C282.735 37.912 282.447 37.912 282.127 37.912H281.839C281.391 37.912 280.975 37.848 280.591 37.72C280.207 37.528 280.015 37.304 280.015 37.048C280.015 36.792 280.335 36.504 280.975 36.184C281.679 35.864 282.927 35.704 284.719 35.704C287.599 35.704 289.743 36.568 291.151 38.296C292.623 39.96 293.359 42.104 293.359 44.728C293.359 47.096 292.719 49.656 291.439 52.408C290.159 55.16 288.239 57.784 285.679 60.28C283.119 62.776 279.887 64.824 275.983 66.424C273.679 67.32 271.439 67.768 269.263 67.768C266.063 67.768 263.023 66.968 260.143 65.368C257.263 63.704 254.927 61.368 253.135 58.36C251.343 55.288 250.447 51.672 250.447 47.512C250.447 45.656 250.639 43.704 251.023 41.656C251.471 39.544 252.175 37.368 253.135 35.128C255.247 30.2 258.095 25.656 261.679 21.496C265.327 17.272 269.359 13.624 273.775 10.552C278.191 7.416 282.671 4.984 287.215 3.256C291.759 1.528 295.983 0.663996 299.887 0.663996C304.623 0.663996 308.527 2.072 311.599 4.888C314.735 7.704 316.303 12.248 316.303 18.52C316.303 18.968 316.271 19.576 316.207 20.344C316.207 21.048 316.175 21.592 316.111 21.976C315.727 25.24 315.055 28.504 314.095 31.768C313.199 35.032 312.207 38.168 311.119 41.176C310.927 41.688 310.767 42.232 310.639 42.808C310.575 43.32 310.543 43.672 310.543 43.864C310.543 44.184 310.607 44.344 310.735 44.344C310.991 44.344 311.503 43.672 312.271 42.328C313.743 39.64 315.055 37.304 316.207 35.32C317.423 33.272 318.607 31.416 319.759 29.752C320.911 28.088 322.159 26.392 323.503 24.664C324.847 22.936 326.383 21.016 328.111 18.904C330.095 16.536 332.367 14.648 334.927 13.24C337.487 11.832 339.951 11.128 342.319 11.128C344.431 11.128 346.223 11.832 347.695 13.24C349.167 14.648 349.903 17.048 349.903 20.44C349.903 20.824 349.903 21.144 349.903 21.4C349.903 21.656 349.871 22.04 349.807 22.552C349.231 28.696 348.015 34.744 346.159 40.696C344.303 46.584 342.383 52.536 340.399 58.552C342.383 55.48 345.071 51.576 348.463 46.84C351.855 42.104 355.567 37.208 359.599 32.152C364.527 26.008 369.103 21.4 373.327 18.328C377.551 15.256 381.039 13.72 383.791 13.72C387.247 13.72 388.975 15.832 388.975 20.056C388.975 21.656 388.655 23.576 388.015 25.816C387.439 28.056 386.511 30.424 385.231 32.92C383.823 35.736 382.255 39 380.527 42.712C378.863 46.36 377.263 50.2 375.727 54.232C374.191 58.264 372.911 62.232 371.887 66.136C370.927 69.976 370.447 73.528 370.447 76.792C370.447 80.312 371.247 83.16 372.847 85.336C374.511 87.576 377.359 88.632 381.391 88.504H381.967C382.927 88.504 383.407 88.696 383.407 89.08C383.407 89.336 383.087 89.592 382.447 89.848C381.807 90.104 380.911 90.168 379.759 90.04ZM403.081 79.288C402.377 79.352 401.577 79.192 400.681 78.808C399.785 78.424 398.985 77.72 398.281 76.696C397.641 75.672 397.321 74.232 397.321 72.376C397.321 70.84 397.609 68.984 398.185 66.808C397.417 68.024 396.425 69.528 395.209 71.32C393.993 73.048 392.681 74.584 391.273 75.928C390.057 77.08 388.905 77.912 387.817 78.424C386.729 78.936 385.737 79.192 384.841 79.192C383.177 79.192 381.833 78.456 380.809 76.984C379.785 75.448 379.273 73.464 379.273 71.032C379.273 68.472 379.913 65.56 381.193 62.296C382.473 59.032 384.553 55.64 387.433 52.12C389.289 49.88 391.529 48.088 394.153 46.744C396.841 45.336 399.465 44.632 402.025 44.632C403.497 44.632 404.905 44.888 406.249 45.4C407.593 45.848 408.777 46.616 409.801 47.704C410.249 48.152 410.473 48.664 410.473 49.24C410.473 49.624 410.313 49.944 409.993 50.2C409.673 50.456 409.257 50.52 408.745 50.392C408.041 48.152 406.537 47.032 404.233 47.032C403.145 47.032 401.897 47.384 400.489 48.088C398.313 49.24 396.041 51.128 393.673 53.752C391.369 56.376 389.353 59.096 387.625 61.912C387.369 62.296 386.953 63.032 386.377 64.12C385.865 65.208 385.353 66.424 384.841 67.768C384.329 69.112 383.977 70.424 383.785 71.704C383.721 72.088 383.689 72.376 383.689 72.568C383.689 72.696 383.689 72.92 383.689 73.24C383.689 75.352 384.489 76.408 386.089 76.408C388.009 76.408 390.185 75 392.617 72.184C394.281 70.136 395.785 67.992 397.129 65.752C398.473 63.512 399.849 61.112 401.257 58.552C402.217 56.824 403.113 55.384 403.945 54.232C404.777 53.08 405.961 52.504 407.497 52.504C408.201 52.504 408.905 52.6 409.609 52.792C410.313 52.984 411.049 53.016 411.817 52.888C411.305 53.4 410.601 54.36 409.705 55.768C408.873 57.176 407.977 58.776 407.017 60.568C406.057 62.36 405.193 64.184 404.425 66.04C403.657 67.896 403.113 69.496 402.793 70.84C402.729 71.224 402.633 71.768 402.505 72.472C402.441 73.176 402.409 73.688 402.409 74.008C402.409 75.8 402.921 76.696 403.945 76.696C404.969 76.696 406.057 76.088 407.209 74.872C408.425 73.656 409.609 72.152 410.761 70.36C411.913 68.568 412.969 66.776 413.929 64.984C414.889 63.128 415.657 61.624 416.233 60.472C416.489 59.832 416.873 59.512 417.385 59.512C417.705 59.512 417.865 59.736 417.865 60.184C417.865 60.376 417.769 60.728 417.577 61.24C416.809 62.84 415.881 64.664 414.793 66.712C413.705 68.696 412.521 70.648 411.241 72.568C409.961 74.424 408.617 75.992 407.209 77.272C405.865 78.488 404.489 79.16 403.081 79.288ZM427.519 79.096C426.303 79.096 425.087 78.616 423.871 77.656C422.655 76.632 422.047 75 422.047 72.76C422.047 71.032 422.463 69.048 423.295 66.808C424.063 64.632 425.087 62.52 426.367 60.472C427.711 58.424 428.671 56.76 429.247 55.48C429.439 54.968 429.535 54.52 429.535 54.136C429.535 52.984 428.799 52.152 427.327 51.64C425.919 51.128 424.063 50.84 421.759 50.776L420.607 53.944C419.903 55.992 418.911 58.392 417.631 61.144C416.415 63.896 415.039 66.552 413.503 69.112C412.031 71.672 410.495 73.72 408.895 75.256C408.767 75.384 408.607 75.448 408.415 75.448C408.159 75.448 407.999 75.288 407.935 74.968C407.807 74.648 407.935 74.264 408.319 73.816C410.815 70.488 413.055 66.808 415.039 62.776C417.023 58.68 418.687 54.52 420.031 50.296C421.439 46.072 422.463 42.168 423.103 38.584C423.295 37.56 423.647 36.824 424.159 36.376C424.671 35.864 425.215 35.608 425.791 35.608C426.623 35.608 427.391 36.024 428.095 36.856C428.799 37.624 429.151 38.744 429.151 40.216C429.151 40.472 429.119 40.76 429.055 41.08C429.055 41.4 429.023 41.72 428.959 42.04C428.703 43.384 427.935 44.664 426.655 45.88C425.439 47.032 424.447 47.896 423.679 48.472C424.319 48.536 424.991 48.6 425.695 48.664C426.399 48.664 427.167 48.664 427.999 48.664C431.007 48.664 433.983 48.472 436.927 48.088C437.055 48.472 437.119 48.76 437.119 48.952C437.119 49.784 436.863 50.84 436.351 52.12C435.903 53.4 435.423 54.552 434.911 55.576C434.655 56.152 434.143 57.208 433.375 58.744C432.607 60.216 431.775 61.912 430.879 63.832C429.983 65.688 429.215 67.544 428.575 69.4C427.999 71.192 427.711 72.728 427.711 74.008C427.711 75.672 428.351 76.504 429.631 76.504C430.591 76.504 431.647 75.896 432.799 74.68C433.951 73.4 435.071 71.864 436.159 70.072C437.311 68.216 438.335 66.424 439.231 64.696C440.191 62.904 440.927 61.496 441.439 60.472C441.695 59.832 442.047 59.512 442.495 59.512C442.751 59.512 442.879 59.736 442.879 60.184C442.879 60.44 442.783 60.824 442.591 61.336C441.887 62.808 441.055 64.472 440.095 66.328C439.135 68.184 438.047 70.008 436.831 71.8C435.679 73.592 434.399 75.16 432.991 76.504C431.647 77.784 430.175 78.616 428.575 79C428.383 79.064 428.031 79.096 427.519 79.096ZM461.862 79.288C461.158 79.352 460.358 79.192 459.462 78.808C458.566 78.424 457.766 77.72 457.062 76.696C456.422 75.672 456.102 74.232 456.102 72.376C456.102 70.84 456.39 68.984 456.966 66.808C456.198 68.024 455.206 69.528 453.99 71.32C452.774 73.048 451.462 74.584 450.054 75.928C448.838 77.08 447.686 77.912 446.598 78.424C445.51 78.936 444.518 79.192 443.622 79.192C441.958 79.192 440.614 78.456 439.59 76.984C438.566 75.448 438.054 73.464 438.054 71.032C438.054 68.472 438.694 65.56 439.974 62.296C441.254 59.032 443.334 55.64 446.214 52.12C448.07 49.88 450.31 48.088 452.934 46.744C455.622 45.336 458.246 44.632 460.806 44.632C462.278 44.632 463.686 44.888 465.03 45.4C466.374 45.848 467.558 46.616 468.582 47.704C469.03 48.152 469.254 48.664 469.254 49.24C469.254 49.624 469.094 49.944 468.774 50.2C468.454 50.456 468.038 50.52 467.526 50.392C466.822 48.152 465.318 47.032 463.014 47.032C461.926 47.032 460.678 47.384 459.27 48.088C457.094 49.24 454.822 51.128 452.454 53.752C450.15 56.376 448.134 59.096 446.406 61.912C446.15 62.296 445.734 63.032 445.158 64.12C444.646 65.208 444.134 66.424 443.622 67.768C443.11 69.112 442.758 70.424 442.566 71.704C442.502 72.088 442.47 72.376 442.47 72.568C442.47 72.696 442.47 72.92 442.47 73.24C442.47 75.352 443.27 76.408 444.87 76.408C446.79 76.408 448.966 75 451.398 72.184C453.062 70.136 454.566 67.992 455.91 65.752C457.254 63.512 458.63 61.112 460.038 58.552C460.998 56.824 461.894 55.384 462.726 54.232C463.558 53.08 464.742 52.504 466.278 52.504C466.982 52.504 467.686 52.6 468.39 52.792C469.094 52.984 469.83 53.016 470.598 52.888C470.086 53.4 469.382 54.36 468.486 55.768C467.654 57.176 466.758 58.776 465.798 60.568C464.838 62.36 463.974 64.184 463.206 66.04C462.438 67.896 461.894 69.496 461.574 70.84C461.51 71.224 461.414 71.768 461.286 72.472C461.222 73.176 461.19 73.688 461.19 74.008C461.19 75.8 461.702 76.696 462.726 76.696C463.75 76.696 464.838 76.088 465.99 74.872C467.206 73.656 468.39 72.152 469.542 70.36C470.694 68.568 471.75 66.776 472.71 64.984C473.67 63.128 474.438 61.624 475.014 60.472C475.27 59.832 475.654 59.512 476.166 59.512C476.486 59.512 476.646 59.736 476.646 60.184C476.646 60.376 476.55 60.728 476.358 61.24C475.59 62.84 474.662 64.664 473.574 66.712C472.486 68.696 471.302 70.648 470.022 72.568C468.742 74.424 467.398 75.992 465.99 77.272C464.646 78.488 463.27 79.16 461.862 79.288ZM465.66 79.768C468.348 74.264 471.132 68.504 474.012 62.488C476.956 56.408 479.964 50.296 483.036 44.152C486.108 38.008 489.148 32.152 492.156 26.584C493.244 24.664 494.236 23.16 495.132 22.072C496.092 20.984 497.34 20.44 498.876 20.44C499.452 20.44 500.124 20.536 500.892 20.728C501.66 20.92 502.396 20.952 503.1 20.824C502.268 21.72 501.116 23.288 499.644 25.528C498.236 27.768 496.636 30.456 494.844 33.592C493.116 36.728 491.26 40.12 489.276 43.768C487.356 47.352 485.436 51 483.516 54.712C481.66 58.36 479.932 61.784 478.332 64.984C479.612 63.32 480.924 61.752 482.268 60.28C483.612 58.808 484.924 57.528 486.204 56.44C487.612 55.16 489.372 53.816 491.484 52.408C493.66 51 495.804 49.784 497.916 48.76C500.092 47.736 501.82 47.224 503.1 47.224C503.548 47.224 503.868 47.256 504.06 47.32C504.06 47.32 503.708 47.96 503.004 49.24C502.3 50.52 501.404 52.152 500.316 54.136C499.292 56.12 498.204 58.264 497.052 60.568C495.964 62.872 495.004 65.08 494.172 67.192C493.34 69.24 492.796 70.936 492.54 72.28C492.348 73.304 492.252 74.168 492.252 74.872C492.252 75.896 492.444 76.6 492.828 76.984C493.212 77.304 493.628 77.464 494.076 77.464C495.164 77.464 496.348 76.792 497.628 75.448C498.908 74.104 500.156 72.472 501.372 70.552C502.588 68.568 503.676 66.648 504.636 64.792C505.66 62.936 506.428 61.496 506.94 60.472C507.324 59.768 507.708 59.416 508.092 59.416C508.476 59.416 508.668 59.672 508.668 60.184C508.668 60.44 508.572 60.824 508.38 61.336C507.548 63 506.588 64.888 505.5 67C504.476 69.048 503.292 71.032 501.948 72.952C500.668 74.808 499.228 76.344 497.628 77.56C496.092 78.776 494.428 79.384 492.636 79.384C491.356 79.384 490.044 78.936 488.7 78.04C487.356 77.144 486.684 75.512 486.684 73.144C486.684 72.44 486.748 71.704 486.876 70.936C487.004 70.104 487.228 69.176 487.548 68.152C487.932 66.872 488.572 65.464 489.468 63.928C490.364 62.328 491.516 60.344 492.924 57.976C493.564 56.888 493.884 56.024 493.884 55.384C493.884 54.616 493.5 54.232 492.732 54.232C492.092 54.232 491.228 54.552 490.14 55.192C489.052 55.832 487.676 56.952 486.012 58.552C484.412 60.088 482.428 62.328 480.06 65.272C477.692 68.216 475.164 72.344 472.476 77.656C472.028 78.488 471.516 78.936 470.94 79C470.428 79 469.724 79.032 468.828 79.096C468.252 79.16 467.676 79.192 467.1 79.192C466.524 79.256 466.044 79.448 465.66 79.768ZM561.348 87.832C555.076 87.832 549.316 86.904 544.068 85.048C538.884 83.192 534.692 80.472 531.492 76.888C528.292 73.24 526.532 68.76 526.212 63.448C526.084 61.272 526.436 58.872 527.268 56.248C528.1 53.624 529.252 51.032 530.724 48.472C532.26 45.848 534.052 43.512 536.1 41.464C538.212 39.352 540.452 37.752 542.82 36.664C543.012 36.536 543.3 36.44 543.684 36.376C544.132 36.312 544.452 36.28 544.644 36.28C545.028 36.28 545.22 36.376 545.22 36.568C545.22 36.888 544.74 37.4 543.78 38.104C541.092 40.216 538.884 42.648 537.156 45.4C535.364 48.152 534.02 51.096 533.124 54.232C532.228 57.368 531.78 60.536 531.78 63.736C531.78 67.512 532.58 70.776 534.18 73.528C535.844 76.216 538.052 78.424 540.804 80.152C543.556 81.944 546.692 83.256 550.212 84.088C553.732 84.92 557.412 85.336 561.252 85.336C565.54 85.336 569.764 84.856 573.924 83.896C578.148 82.936 581.988 81.56 585.444 79.768C590.756 76.952 594.948 73.464 598.02 69.304C601.156 65.144 602.724 61.016 602.724 56.92C602.724 54.744 602.244 52.664 601.284 50.68C600.388 48.696 598.916 46.904 596.868 45.304C595.332 44.088 593.444 42.936 591.204 41.848C589.028 40.76 586.692 39.704 584.196 38.68C581.764 37.656 579.364 36.632 576.996 35.608C574.628 34.52 572.548 33.368 570.756 32.152C568.196 30.424 566.308 28.568 565.092 26.584C563.94 24.6 563.364 22.616 563.364 20.632C563.364 18.264 564.036 15.96 565.38 13.72C566.788 11.48 568.676 9.464 571.044 7.672C573.476 5.816 576.196 4.376 579.204 3.352C581.828 2.456 584.676 1.752 587.748 1.23999C590.884 0.727997 593.956 0.471998 596.964 0.471998C599.46 0.471998 601.828 0.663998 604.068 1.048C606.372 1.368 608.388 1.976 610.116 2.872C612.292 3.896 613.956 5.272 615.108 6.99999C616.26 8.664 616.836 10.424 616.836 12.28C616.836 14.84 615.684 17.08 613.38 19C612.548 19.64 611.62 20.248 610.596 20.824C609.572 21.336 608.356 21.784 606.948 22.168C606.692 22.232 606.404 22.264 606.084 22.264C605.316 22.264 604.932 22.04 604.932 21.592C604.932 21.336 605.124 21.08 605.508 20.824C605.956 20.504 606.596 20.312 607.428 20.248C609.348 19.992 610.788 19.256 611.748 18.04C612.772 16.824 613.284 15.416 613.284 13.816C613.284 12.152 612.708 10.52 611.556 8.92C610.468 7.256 608.772 5.88 606.468 4.79199C604.164 3.64 601.22 3.064 597.636 3.064C595.588 3.064 593.316 3.288 590.82 3.736C588.388 4.184 585.732 4.92 582.852 5.944C579.332 7.16 576.388 8.952 574.02 11.32C571.716 13.688 570.564 16.216 570.564 18.904C570.564 20.568 571.108 22.264 572.196 23.992C573.348 25.656 575.172 27.256 577.668 28.792C579.78 30.072 582.18 31.352 584.868 32.632C587.556 33.848 590.276 35.096 593.028 36.376C595.78 37.592 598.276 38.904 600.516 40.312C604.036 42.488 606.564 44.824 608.1 47.32C609.636 49.816 610.404 52.376 610.404 55C610.404 58.072 609.476 61.176 607.62 64.312C605.828 67.384 603.46 70.296 600.516 73.048C597.572 75.736 594.34 78.136 590.82 80.248C586.724 82.68 582.084 84.536 576.9 85.816C571.78 87.16 566.596 87.832 561.348 87.832ZM639.612 79.288C638.908 79.352 638.108 79.192 637.212 78.808C636.316 78.424 635.516 77.72 634.812 76.696C634.172 75.672 633.852 74.232 633.852 72.376C633.852 70.84 634.14 68.984 634.716 66.808C633.948 68.024 632.956 69.528 631.74 71.32C630.524 73.048 629.212 74.584 627.804 75.928C626.588 77.08 625.436 77.912 624.348 78.424C623.26 78.936 622.268 79.192 621.372 79.192C619.708 79.192 618.364 78.456 617.34 76.984C616.316 75.448 615.804 73.464 615.804 71.032C615.804 68.472 616.444 65.56 617.724 62.296C619.004 59.032 621.084 55.64 623.964 52.12C625.82 49.88 628.06 48.088 630.684 46.744C633.372 45.336 635.996 44.632 638.556 44.632C640.028 44.632 641.436 44.888 642.78 45.4C644.124 45.848 645.308 46.616 646.332 47.704C646.78 48.152 647.004 48.664 647.004 49.24C647.004 49.624 646.844 49.944 646.524 50.2C646.204 50.456 645.788 50.52 645.276 50.392C644.572 48.152 643.068 47.032 640.764 47.032C639.676 47.032 638.428 47.384 637.02 48.088C634.844 49.24 632.572 51.128 630.204 53.752C627.9 56.376 625.884 59.096 624.156 61.912C623.9 62.296 623.484 63.032 622.908 64.12C622.396 65.208 621.884 66.424 621.372 67.768C620.86 69.112 620.508 70.424 620.316 71.704C620.252 72.088 620.22 72.376 620.22 72.568C620.22 72.696 620.22 72.92 620.22 73.24C620.22 75.352 621.02 76.408 622.62 76.408C624.54 76.408 626.716 75 629.148 72.184C630.812 70.136 632.316 67.992 633.66 65.752C635.004 63.512 636.38 61.112 637.788 58.552C638.748 56.824 639.644 55.384 640.476 54.232C641.308 53.08 642.492 52.504 644.028 52.504C644.732 52.504 645.436 52.6 646.14 52.792C646.844 52.984 647.58 53.016 648.348 52.888C647.836 53.4 647.132 54.36 646.236 55.768C645.404 57.176 644.508 58.776 643.548 60.568C642.588 62.36 641.724 64.184 640.956 66.04C640.188 67.896 639.644 69.496 639.324 70.84C639.26 71.224 639.164 71.768 639.036 72.472C638.972 73.176 638.94 73.688 638.94 74.008C638.94 75.8 639.452 76.696 640.476 76.696C641.5 76.696 642.588 76.088 643.74 74.872C644.956 73.656 646.14 72.152 647.292 70.36C648.444 68.568 649.5 66.776 650.46 64.984C651.42 63.128 652.188 61.624 652.764 60.472C653.02 59.832 653.404 59.512 653.916 59.512C654.236 59.512 654.396 59.736 654.396 60.184C654.396 60.376 654.3 60.728 654.108 61.24C653.34 62.84 652.412 64.664 651.324 66.712C650.236 68.696 649.052 70.648 647.772 72.568C646.492 74.424 645.148 75.992 643.74 77.272C642.396 78.488 641.02 79.16 639.612 79.288ZM643.602 79.48C645.97 74.936 648.21 70.392 650.322 65.848C652.434 61.24 654.578 56.888 656.754 52.792C658.034 50.488 659.09 48.888 659.922 47.992C660.818 47.032 662.002 46.552 663.474 46.552C663.986 46.552 664.53 46.648 665.106 46.84C665.682 46.968 666.258 47.032 666.834 47.032C667.218 47.032 667.506 47 667.698 46.936C666.802 47.448 665.65 48.728 664.242 50.776C662.834 52.76 661.394 55.064 659.922 57.688C658.45 60.312 657.138 62.776 655.986 65.08C657.202 63.608 658.45 62.136 659.73 60.664C661.074 59.192 662.546 57.784 664.146 56.44C665.554 55.224 667.026 53.912 668.562 52.504C670.162 51.032 671.73 49.784 673.266 48.76C674.802 47.736 676.146 47.224 677.298 47.224C677.746 47.224 678.034 47.256 678.162 47.32C679.378 47.832 679.986 48.664 679.986 49.816C679.986 50.2 679.826 50.776 679.506 51.544C678.674 53.72 677.586 55.96 676.242 58.264C674.962 60.504 673.746 62.776 672.594 65.08C673.554 63.928 674.738 62.52 676.146 60.856C677.618 59.192 679.09 57.72 680.562 56.44C681.97 55.16 683.762 53.816 685.938 52.408C688.114 51 690.258 49.784 692.37 48.76C694.482 47.736 696.178 47.224 697.458 47.224C697.906 47.224 698.226 47.256 698.418 47.32C698.418 47.32 698.066 47.96 697.362 49.24C696.658 50.456 695.762 52.088 694.674 54.136C693.65 56.12 692.594 58.264 691.506 60.568C690.418 62.808 689.426 64.984 688.53 67.096C687.698 69.144 687.154 70.872 686.898 72.28C686.706 73.112 686.61 73.88 686.61 74.584C686.61 75.608 686.802 76.28 687.186 76.6C687.57 76.92 687.986 77.08 688.434 77.08C689.714 77.08 691.026 76.408 692.37 75.064C693.714 73.72 694.994 72.12 696.21 70.264C697.49 68.344 698.61 66.488 699.57 64.696C700.53 62.84 701.234 61.432 701.682 60.472C702.066 59.768 702.45 59.416 702.834 59.416C703.218 59.416 703.41 59.672 703.41 60.184C703.41 60.504 703.314 60.856 703.122 61.24C702.354 62.712 701.426 64.472 700.338 66.52C699.314 68.568 698.13 70.584 696.786 72.568C695.442 74.488 693.938 76.12 692.274 77.464C690.674 78.744 688.946 79.384 687.09 79.384C685.746 79.384 684.37 78.936 682.962 78.04C681.618 77.144 680.946 75.48 680.946 73.048C680.946 71.704 681.234 70.072 681.81 68.152C682.258 66.872 682.93 65.4 683.826 63.736C684.786 62.072 685.938 60.152 687.282 57.976C687.922 56.888 688.242 56.024 688.242 55.384C688.242 54.616 687.858 54.232 687.09 54.232C686.45 54.232 685.554 54.552 684.402 55.192C683.314 55.832 681.938 56.952 680.274 58.552C679.25 59.512 678.034 60.856 676.626 62.584C675.282 64.248 673.906 66.072 672.498 68.056C671.09 70.04 669.874 71.992 668.85 73.912C667.826 75.832 667.154 77.528 666.834 79C665.874 79 665.106 78.616 664.53 77.848C663.954 77.016 663.666 76.056 663.666 74.968C663.666 74.776 663.666 74.584 663.666 74.392C663.666 74.2 663.698 73.976 663.762 73.72C664.082 71.736 664.594 69.88 665.298 68.152C666.002 66.424 666.802 64.632 667.698 62.776C668.402 61.432 669.106 59.992 669.81 58.456C670.514 56.856 670.866 55.64 670.866 54.808C670.866 54.296 670.674 54.04 670.29 54.04C669.842 54.04 669.106 54.392 668.082 55.096C667.058 55.736 665.65 56.888 663.858 58.552C662.258 60.088 660.306 62.296 658.002 65.176C655.762 68.056 653.298 72.152 650.61 77.464C650.226 78.168 649.778 78.616 649.266 78.808C648.754 78.936 647.954 79 646.866 79C646.162 79 645.586 79 645.138 79C644.626 79.064 644.114 79.224 643.602 79.48ZM722.206 79.288C721.502 79.352 720.702 79.192 719.806 78.808C718.91 78.424 718.11 77.72 717.406 76.696C716.766 75.672 716.446 74.232 716.446 72.376C716.446 70.84 716.734 68.984 717.31 66.808C716.542 68.024 715.55 69.528 714.334 71.32C713.118 73.048 711.806 74.584 710.398 75.928C709.182 77.08 708.03 77.912 706.942 78.424C705.854 78.936 704.862 79.192 703.966 79.192C702.302 79.192 700.958 78.456 699.934 76.984C698.91 75.448 698.398 73.464 698.398 71.032C698.398 68.472 699.038 65.56 700.318 62.296C701.598 59.032 703.678 55.64 706.558 52.12C708.414 49.88 710.654 48.088 713.278 46.744C715.966 45.336 718.59 44.632 721.15 44.632C722.622 44.632 724.03 44.888 725.374 45.4C726.718 45.848 727.902 46.616 728.926 47.704C729.374 48.152 729.598 48.664 729.598 49.24C729.598 49.624 729.438 49.944 729.118 50.2C728.798 50.456 728.382 50.52 727.87 50.392C727.166 48.152 725.662 47.032 723.358 47.032C722.27 47.032 721.022 47.384 719.614 48.088C717.438 49.24 715.166 51.128 712.798 53.752C710.494 56.376 708.478 59.096 706.75 61.912C706.494 62.296 706.078 63.032 705.502 64.12C704.99 65.208 704.478 66.424 703.966 67.768C703.454 69.112 703.102 70.424 702.91 71.704C702.846 72.088 702.814 72.376 702.814 72.568C702.814 72.696 702.814 72.92 702.814 73.24C702.814 75.352 703.614 76.408 705.214 76.408C707.134 76.408 709.31 75 711.742 72.184C713.406 70.136 714.91 67.992 716.254 65.752C717.598 63.512 718.974 61.112 720.382 58.552C721.342 56.824 722.238 55.384 723.07 54.232C723.902 53.08 725.086 52.504 726.622 52.504C727.326 52.504 728.03 52.6 728.734 52.792C729.438 52.984 730.174 53.016 730.942 52.888C730.43 53.4 729.726 54.36 728.83 55.768C727.998 57.176 727.102 58.776 726.142 60.568C725.182 62.36 724.318 64.184 723.55 66.04C722.782 67.896 722.238 69.496 721.918 70.84C721.854 71.224 721.758 71.768 721.63 72.472C721.566 73.176 721.534 73.688 721.534 74.008C721.534 75.8 722.046 76.696 723.07 76.696C724.094 76.696 725.182 76.088 726.334 74.872C727.55 73.656 728.734 72.152 729.886 70.36C731.038 68.568 732.094 66.776 733.054 64.984C734.014 63.128 734.782 61.624 735.358 60.472C735.614 59.832 735.998 59.512 736.51 59.512C736.83 59.512 736.99 59.736 736.99 60.184C736.99 60.376 736.894 60.728 736.702 61.24C735.934 62.84 735.006 64.664 733.918 66.712C732.83 68.696 731.646 70.648 730.366 72.568C729.086 74.424 727.742 75.992 726.334 77.272C724.99 78.488 723.614 79.16 722.206 79.288ZM807.101 85.144C804.285 85.144 802.301 84.024 801.149 81.784C799.997 79.608 799.421 77.048 799.421 74.104C799.421 71.48 799.773 68.888 800.477 66.328C801.245 63.768 802.141 61.816 803.165 60.472C801.437 62.52 799.293 64.856 796.733 67.48C794.173 70.104 791.357 72.632 788.285 75.064C785.213 77.496 782.045 79.512 778.781 81.112C775.517 82.712 772.285 83.512 769.085 83.512C768.125 83.512 767.165 83.416 766.205 83.224C765.309 83.096 764.413 82.84 763.517 82.456C761.149 81.496 759.389 79.8 758.237 77.368C757.085 74.872 756.509 71.896 756.509 68.44C756.509 64.792 757.117 60.888 758.333 56.728C759.613 52.504 761.469 48.216 763.901 43.864C765.053 41.752 766.333 39.672 767.741 37.624C769.213 35.512 770.781 33.528 772.445 31.672C770.461 30.776 768.637 29.784 766.973 28.696C765.309 27.544 763.901 26.296 762.749 24.952C761.981 24.056 761.405 23 761.021 21.784C760.637 20.568 760.445 19.384 760.445 18.232C760.445 16.184 760.925 14.84 761.885 14.2C762.205 13.688 762.589 13.432 763.037 13.432C763.613 13.432 763.901 13.784 763.901 14.488C763.901 14.936 763.773 15.416 763.517 15.928C763.197 16.76 763.037 17.528 763.037 18.232C763.037 19.256 763.293 20.216 763.805 21.112C764.317 21.944 764.925 22.744 765.629 23.512C767.677 25.944 770.493 27.96 774.077 29.56C778.173 25.08 782.653 20.952 787.517 17.176C792.445 13.336 797.725 10.264 803.357 7.96C808.989 5.656 814.909 4.504 821.117 4.504C826.301 4.504 830.365 5.656 833.309 7.96C836.253 10.2 837.725 13.112 837.725 16.696C837.725 18.424 837.213 20.312 836.189 22.36C835.165 24.344 833.501 26.296 831.197 28.216C828.893 30.072 825.821 31.704 821.981 33.112C818.205 34.456 813.501 35.384 807.869 35.896C805.885 36.088 804.093 36.248 802.493 36.376C800.957 36.44 799.293 36.472 797.501 36.472C794.173 36.472 790.941 36.248 787.805 35.8C784.733 35.352 781.661 34.648 778.589 33.688C777.437 35.288 775.965 37.464 774.173 40.216C772.445 42.968 770.717 45.912 768.989 49.048C767.261 52.184 765.821 55.16 764.669 57.976C763.645 60.664 762.877 63.128 762.365 65.368C761.853 67.544 761.597 69.496 761.597 71.224C761.597 74.36 762.333 76.728 763.805 78.328C765.277 79.864 767.261 80.632 769.757 80.632C772.189 80.632 774.941 79.928 778.013 78.52C781.149 77.112 784.413 75 787.805 72.184C791.197 69.368 794.493 66.2 797.693 62.68C800.957 59.16 803.933 55.576 806.621 51.928C809.309 48.28 811.485 44.92 813.149 41.848C814.237 39.8 815.293 38.36 816.317 37.528C817.341 36.632 818.205 36.184 818.909 36.184C819.613 36.184 820.157 36.472 820.541 37.048C820.925 37.56 821.117 38.264 821.117 39.16C821.117 40.952 820.317 42.744 818.717 44.536C816.925 46.52 815.165 48.952 813.437 51.832C811.709 54.712 810.173 57.752 808.829 60.952C807.485 64.152 806.525 67.288 805.949 70.36C805.757 71.384 805.629 72.344 805.565 73.24C805.501 74.136 805.469 74.936 805.469 75.64C805.469 78.008 805.821 79.704 806.525 80.728C807.293 81.752 808.285 82.264 809.501 82.264C810.973 82.264 812.669 81.592 814.589 80.248C816.509 78.904 818.365 77.112 820.157 74.872C821.693 72.824 823.165 70.648 824.573 68.344C826.045 66.04 827.389 63.64 828.605 61.144C828.797 60.696 829.053 60.376 829.373 60.184C829.757 59.928 830.013 59.8 830.141 59.8C830.461 59.8 830.621 59.992 830.621 60.376C830.621 60.632 830.525 61.016 830.333 61.528C829.757 62.808 828.989 64.344 828.029 66.136C827.069 67.928 826.013 69.784 824.861 71.704C823.709 73.56 822.525 75.288 821.309 76.888C819.645 79.064 817.533 80.984 814.973 82.648C812.477 84.312 809.853 85.144 807.101 85.144ZM796.637 34.168C799.965 34.168 803.677 33.976 807.773 33.592C813.085 33.144 817.693 32.088 821.597 30.424C825.501 28.76 828.509 26.648 830.621 24.088C832.733 21.528 833.789 18.68 833.789 15.544C833.789 12.728 832.605 10.584 830.237 9.112C827.933 7.64 824.989 6.904 821.405 6.904C815.453 6.904 810.013 8.088 805.085 10.456C800.221 12.76 795.741 15.8 791.645 19.576C787.613 23.352 783.773 27.416 780.125 31.768C784.989 33.368 790.493 34.168 796.637 34.168ZM846.252 79.672C844.524 79.48 842.956 78.68 841.548 77.272C840.204 75.8 839.276 73.848 838.764 71.416C838.7 70.968 838.636 70.584 838.572 70.264C838.572 69.88 838.572 69.464 838.572 69.016C838.572 66.456 839.148 64.408 840.3 62.872C841.452 61.272 842.508 60.44 843.468 60.376C844.492 60.44 845.74 60.216 847.212 59.704C848.684 59.128 849.964 58.36 851.052 57.4C852.908 55.928 853.836 54.424 853.836 52.888C853.836 51.288 852.908 50.488 851.052 50.488C850.028 50.488 848.716 50.84 847.116 51.544C845.58 52.248 843.788 53.464 841.74 55.192C839.18 57.368 836.524 60.28 833.772 63.928C833.388 64.76 832.94 66.008 832.428 67.672C831.916 69.272 831.468 70.936 831.084 72.664C830.764 74.392 830.604 75.864 830.604 77.08C830.604 78.04 830.764 78.68 831.084 79H825.036C824.332 79 823.98 78.712 823.98 78.136C823.98 77.944 824.012 77.784 824.076 77.656C824.14 77.528 824.204 77.272 824.268 76.888C825.164 73.56 826.348 70.424 827.82 67.48C829.292 64.536 830.764 61.432 832.236 58.168C829.996 62.328 827.948 66.008 826.092 69.208C824.3 72.344 822.924 74.36 821.964 75.256C821.836 75.384 821.676 75.448 821.484 75.448C821.228 75.448 821.068 75.288 821.004 74.968C820.876 74.648 820.94 74.328 821.196 74.008C822.54 72.216 824.076 69.752 825.804 66.616C827.596 63.48 829.484 59.992 831.468 56.152C833.452 52.248 835.468 48.312 837.516 44.344C839.564 40.376 841.548 36.632 843.468 33.112C845.452 29.592 847.244 26.616 848.844 24.184C849.996 22.456 851.084 21.24 852.108 20.536C853.132 19.768 854.188 19.384 855.276 19.384H855.756C856.332 19.384 856.972 19.48 857.676 19.672C858.444 19.864 859.148 19.896 859.788 19.768C858.572 20.728 857.1 22.296 855.372 24.472C853.644 26.648 851.82 29.24 849.9 32.248C847.98 35.256 846.028 38.456 844.044 41.848C842.124 45.24 840.3 48.6 838.572 51.928C837.932 53.208 837.324 54.552 836.748 55.96C836.172 57.368 835.628 58.776 835.116 60.184C836.46 58.52 837.996 56.792 839.724 55C841.452 53.208 843.244 51.576 845.1 50.104C847.02 48.568 848.908 47.448 850.764 46.744C852.876 45.976 854.636 45.592 856.044 45.592C857.516 45.592 858.572 45.944 859.212 46.648C859.916 47.352 860.268 48.248 860.268 49.336C860.268 50.552 859.788 52.024 858.828 53.752C857.868 55.416 856.556 56.856 854.892 58.072C853.484 59.032 852.012 59.864 850.476 60.568C848.94 61.272 847.116 61.72 845.004 61.912C844.62 62.808 844.332 63.736 844.14 64.696C844.012 65.592 843.948 66.488 843.948 67.384C843.948 69.88 844.524 72.088 845.676 74.008C846.828 75.864 848.332 76.792 850.188 76.792C851.084 76.792 852.044 76.536 853.068 76.024C854.156 75.512 855.276 74.648 856.428 73.432C857.708 72.152 858.988 70.328 860.268 67.96C861.612 65.592 862.956 63 864.3 60.184C864.556 59.672 864.844 59.416 865.164 59.416C865.548 59.416 865.74 59.672 865.74 60.184C865.74 60.44 865.644 60.76 865.452 61.144C863.596 65.432 861.804 68.856 860.076 71.416C858.412 73.912 856.78 75.8 855.18 77.08C853.644 78.296 852.14 79.064 850.668 79.384C849.196 79.704 847.724 79.8 846.252 79.672ZM866.917 79C866.213 79 865.349 78.84 864.325 78.52C863.365 78.2 862.501 77.624 861.733 76.792C861.029 75.896 860.677 74.584 860.677 72.856C860.677 71.192 861.061 69.592 861.829 68.056C862.661 66.456 863.429 64.92 864.133 63.448C863.941 63.448 863.717 63.384 863.461 63.256C863.269 63.128 863.173 62.936 863.173 62.68C863.173 62.424 863.237 62.168 863.365 61.912C863.621 61.4 863.909 60.856 864.229 60.28C864.549 59.704 864.837 59.096 865.093 58.456C866.053 56.472 867.013 54.584 867.973 52.792C868.933 50.936 869.765 49.304 870.469 47.896C871.173 46.488 872.389 45.784 874.117 45.784H880.069C878.981 46.616 877.989 47.544 877.093 48.568C876.261 49.528 875.205 51.32 873.925 53.944C873.925 53.944 873.701 54.392 873.253 55.288C872.805 56.184 872.229 57.336 871.525 58.744C870.885 60.088 870.213 61.464 869.509 62.872C868.869 64.28 868.325 65.464 867.877 66.424C867.045 68.216 866.501 69.656 866.245 70.744C865.989 71.768 865.861 72.728 865.861 73.624C865.861 75.736 866.565 76.792 867.973 76.792C869.509 76.792 871.365 75.544 873.541 73.048C875.333 70.936 877.093 68.408 878.821 65.464C880.549 62.52 882.181 59.48 883.717 56.344C885.317 53.208 886.725 50.392 887.941 47.896C888.645 46.488 889.893 45.784 891.685 45.784H896.965C896.005 46.552 895.205 47.288 894.565 47.992C893.925 48.632 893.285 49.528 892.645 50.68C892.069 51.768 891.269 53.336 890.245 55.384C889.413 57.112 888.517 58.968 887.557 60.952C886.661 62.872 885.861 64.696 885.157 66.424C884.453 68.152 884.005 69.56 883.813 70.648C883.749 71.288 883.685 71.768 883.621 72.088C883.557 72.408 883.525 72.76 883.525 73.144C883.525 74.36 883.717 75.224 884.101 75.736C884.549 76.248 885.061 76.504 885.637 76.504C887.173 76.504 888.709 75.64 890.245 73.912C891.845 72.184 893.349 70.072 894.757 67.576C896.229 65.08 897.477 62.712 898.501 60.472C898.885 59.768 899.237 59.416 899.557 59.416C899.941 59.416 900.133 59.64 900.133 60.088C900.133 60.408 900.005 60.792 899.749 61.24C899.045 62.776 898.181 64.536 897.157 66.52C896.133 68.504 894.981 70.456 893.701 72.376C892.421 74.296 891.013 75.896 889.477 77.176C887.941 78.392 886.277 79 884.485 79C882.885 79 881.573 78.424 880.549 77.272C879.525 76.056 879.013 74.36 879.013 72.184C879.013 70.456 879.333 68.6 879.973 66.616C878.885 68.536 877.637 70.456 876.229 72.376C874.821 74.296 873.317 75.896 871.717 77.176C870.117 78.392 868.517 79 866.917 79Z" fill="white"/>
</svg>
