<svg width="659" height="110" viewBox="0 0 659 110" fill="none" xmlns="http://www.w3.org/2000/svg">
<path d="M36.4604 88.024C31.8524 88.024 27.4044 87.448 23.1164 86.296C18.8284 85.208 14.9884 83.544 11.5964 81.304C8.20438 79.064 5.48438 76.248 3.43638 72.856C1.45238 69.464 0.460375 65.464 0.460375 60.856C0.460375 57.464 1.06838 53.848 2.28438 50.008C2.98838 47.832 3.98038 45.976 5.26038 44.44C6.60438 42.904 7.98038 41.72 9.38838 40.888C10.7964 40.056 11.9164 39.64 12.7484 39.64C13.8364 39.64 14.2844 40.152 14.0924 41.176C13.7084 41.624 13.0364 42.168 12.0764 42.808C11.1804 43.384 10.1884 44.152 9.10038 45.112C8.07638 46.072 7.08438 47.32 6.12438 48.856C5.22838 50.328 4.58838 52.216 4.20438 54.52C4.07638 55.352 3.94838 56.184 3.82037 57.016C3.75638 57.848 3.72438 58.648 3.72438 59.416C3.72438 63.576 4.62038 67.256 6.41238 70.456C8.20438 73.656 10.5404 76.312 13.4204 78.424C16.3644 80.536 19.5644 82.104 23.0204 83.128C26.5404 84.216 29.9964 84.728 33.3884 84.664C38.5724 84.536 43.1804 83.8 47.2124 82.456C51.2444 81.176 54.8284 79.448 57.9644 77.272C61.1004 75.096 63.8524 72.696 66.2204 70.072C68.2044 67.896 70.1884 65.24 72.1724 62.104C74.1564 58.968 76.0764 55.608 77.9324 52.024C79.8524 48.376 81.6444 44.76 83.3084 41.176C85.0364 37.592 86.6364 34.2 88.1084 31C89.5804 27.8 90.8604 25.08 91.9484 22.84C93.0364 20.536 93.9324 18.936 94.6364 18.04C89.5804 16.504 84.7164 15.32 80.0444 14.488C75.4364 13.592 70.5084 13.016 65.2604 12.76C60.4604 12.504 56.1724 13.048 52.3964 14.392C48.6844 15.736 45.5164 17.56 42.8924 19.864C40.3324 22.104 38.3484 24.568 36.9404 27.256C35.5964 29.944 34.9244 32.536 34.9244 35.032C34.9244 37.208 35.4684 39.16 36.5564 40.888C37.7084 42.552 39.4364 43.768 41.7404 44.536C43.2764 44.984 44.7804 45.208 46.2524 45.208C48.5564 45.208 50.5724 44.728 52.3004 43.768C54.0284 42.808 55.4684 41.656 56.6204 40.312C57.8364 38.904 58.7324 37.592 59.3084 36.376C59.9484 35.096 60.2684 34.168 60.2684 33.592V33.496C60.5884 33.112 60.9084 32.92 61.2284 32.92C61.8684 32.92 62.1884 33.368 62.1884 34.264C61.8684 37.016 60.8764 39.416 59.2124 41.464C57.6124 43.512 55.6604 45.08 53.3564 46.168C51.0524 47.256 48.6204 47.8 46.0604 47.8C44.2684 47.8 42.5404 47.512 40.8764 46.936C37.3564 45.656 34.7004 43.608 32.9084 40.792C31.1164 37.912 30.2204 34.808 30.2204 31.48C30.2204 28.664 30.8284 25.88 32.0444 23.128C33.2604 20.312 35.1164 17.752 37.6124 15.448C40.1084 13.08 43.2124 11.192 46.9244 9.784C50.6364 8.376 54.9884 7.672 59.9804 7.672C60.8124 7.672 61.4844 7.672 61.9964 7.672C62.5084 7.672 63.3724 7.736 64.5884 7.86399C67.5964 8.12 70.6364 8.632 73.7084 9.4C76.7804 10.104 79.7244 10.904 82.5404 11.8C85.3564 12.696 87.9484 13.56 90.3164 14.392C92.6844 15.224 94.6364 15.832 96.1724 16.216C96.3644 15.96 96.9084 15.512 97.8044 14.872C98.7644 14.232 99.7244 13.56 100.684 12.856C101.708 12.152 102.508 11.544 103.084 11.032C103.66 10.52 103.692 10.264 103.18 10.264H103.084C103.276 10.2 103.532 10.168 103.852 10.168C104.492 10.168 104.972 10.392 105.292 10.84C105.612 11.224 105.772 11.64 105.772 12.088C105.772 12.92 105.388 13.336 104.62 13.336C104.492 13.336 104.236 13.272 103.852 13.144C103.596 12.888 103.116 13.016 102.412 13.528C101.772 14.04 101.1 14.648 100.396 15.352C99.7564 15.992 99.2444 16.536 98.8604 16.984C100.268 17.432 102.028 17.976 104.14 18.616C106.316 19.192 108.62 19.8 111.052 20.44C113.548 21.016 115.98 21.496 118.348 21.88C120.716 22.264 122.828 22.456 124.684 22.456C126.476 22.456 127.884 22.232 128.908 21.784C129.996 21.336 130.54 20.6 130.54 19.576C130.54 19.192 130.604 18.872 130.732 18.616C130.924 18.296 131.244 18.136 131.692 18.136C132.012 18.136 132.236 18.424 132.364 19C132.492 19.512 132.556 19.928 132.556 20.248C132.556 21.784 131.724 23.032 130.06 23.992C128.46 24.952 126.444 25.432 124.012 25.432C123.628 25.432 123.244 25.432 122.86 25.432C122.476 25.368 122.06 25.304 121.612 25.24C114.444 24.344 108.844 23.192 104.812 21.784C100.844 20.376 98.3484 19.448 97.3244 19C94.4444 23.608 92.0764 28.344 90.2204 33.208C88.3644 38.072 86.6044 42.936 84.9404 47.8C83.3404 52.664 81.4524 57.368 79.2764 61.912C77.1644 66.456 74.3484 70.744 70.8284 74.776C68.2684 77.656 65.1324 80.088 61.4204 82.072C57.7724 84.056 53.8044 85.528 49.5164 86.488C45.2284 87.512 40.8764 88.024 36.4604 88.024ZM112.19 79.288C111.486 79.352 110.686 79.192 109.79 78.808C108.894 78.424 108.094 77.72 107.39 76.696C106.75 75.672 106.43 74.232 106.43 72.376C106.43 70.84 106.718 68.984 107.294 66.808C106.526 68.024 105.534 69.528 104.318 71.32C103.102 73.048 101.79 74.584 100.382 75.928C99.1661 77.08 98.0141 77.912 96.9261 78.424C95.8381 78.936 94.8461 79.192 93.9501 79.192C92.2861 79.192 90.9421 78.456 89.9181 76.984C88.8941 75.448 88.3821 73.464 88.3821 71.032C88.3821 68.472 89.0221 65.56 90.3021 62.296C91.5821 59.032 93.6621 55.64 96.5421 52.12C98.3981 49.88 100.638 48.088 103.262 46.744C105.95 45.336 108.574 44.632 111.134 44.632C112.606 44.632 114.014 44.888 115.358 45.4C116.702 45.848 117.886 46.616 118.91 47.704C119.358 48.152 119.582 48.664 119.582 49.24C119.582 49.624 119.422 49.944 119.102 50.2C118.782 50.456 118.366 50.52 117.854 50.392C117.15 48.152 115.646 47.032 113.342 47.032C112.254 47.032 111.006 47.384 109.598 48.088C107.422 49.24 105.15 51.128 102.782 53.752C100.478 56.376 98.4621 59.096 96.7341 61.912C96.4781 62.296 96.0621 63.032 95.4861 64.12C94.9741 65.208 94.4621 66.424 93.9501 67.768C93.4381 69.112 93.0861 70.424 92.8941 71.704C92.8301 72.088 92.7981 72.376 92.7981 72.568C92.7981 72.696 92.7981 72.92 92.7981 73.24C92.7981 75.352 93.5981 76.408 95.1981 76.408C97.1181 76.408 99.2941 75 101.726 72.184C103.39 70.136 104.894 67.992 106.238 65.752C107.582 63.512 108.958 61.112 110.366 58.552C111.326 56.824 112.222 55.384 113.054 54.232C113.886 53.08 115.07 52.504 116.606 52.504C117.31 52.504 118.014 52.6 118.718 52.792C119.422 52.984 120.158 53.016 120.926 52.888C120.414 53.4 119.71 54.36 118.814 55.768C117.982 57.176 117.086 58.776 116.126 60.568C115.166 62.36 114.302 64.184 113.534 66.04C112.766 67.896 112.222 69.496 111.902 70.84C111.838 71.224 111.742 71.768 111.614 72.472C111.55 73.176 111.518 73.688 111.518 74.008C111.518 75.8 112.03 76.696 113.054 76.696C114.078 76.696 115.166 76.088 116.318 74.872C117.534 73.656 118.718 72.152 119.87 70.36C121.022 68.568 122.078 66.776 123.038 64.984C123.998 63.128 124.766 61.624 125.342 60.472C125.598 59.832 125.982 59.512 126.494 59.512C126.814 59.512 126.974 59.736 126.974 60.184C126.974 60.376 126.878 60.728 126.686 61.24C125.918 62.84 124.99 64.664 123.902 66.712C122.814 68.696 121.63 70.648 120.35 72.568C119.07 74.424 117.726 75.992 116.318 77.272C114.974 78.488 113.598 79.16 112.19 79.288ZM110.612 105.208C109.844 105.208 109.076 105.08 108.308 104.824C107.476 104.632 106.644 104.6 105.812 104.728C106.196 104.344 106.932 103.224 108.02 101.368C109.108 99.576 110.388 97.336 111.86 94.648C113.268 91.96 114.772 89.048 116.372 85.912C117.972 82.776 119.476 79.704 120.884 76.696C122.292 73.624 123.476 70.84 124.436 68.344C125.46 65.784 126.1 63.768 126.356 62.296C125.78 63.128 125.204 63.608 124.628 63.736C124.116 63.8 123.988 63.608 124.244 63.16C124.372 62.904 124.628 62.296 125.012 61.336C125.46 60.312 125.844 59.448 126.164 58.744C126.676 57.464 127.092 56.056 127.412 54.52C127.796 52.984 127.988 51.512 127.988 50.104C127.988 49.208 127.892 48.44 127.7 47.8C127.508 47.16 127.156 46.808 126.644 46.744C126.644 46.744 126.996 46.68 127.7 46.552C128.404 46.424 129.14 46.296 129.908 46.168C130.676 46.04 131.188 45.976 131.444 45.976C131.828 45.912 132.18 45.88 132.5 45.88C132.82 45.816 133.108 45.784 133.364 45.784C133.94 45.784 134.324 46.008 134.516 46.456C134.772 46.84 134.9 47.672 134.9 48.952C134.9 50.552 134.612 52.6 134.036 55.096C133.524 57.528 132.916 59.672 132.212 61.528C132.916 60.376 133.812 58.904 134.9 57.112C136.052 55.32 137.364 53.496 138.836 51.64C140.308 49.784 141.844 48.248 143.444 47.032C145.044 45.752 146.612 45.112 148.148 45.112C148.468 45.112 148.884 45.176 149.396 45.304C151.188 45.752 152.436 46.648 153.14 47.992C153.908 49.272 154.292 50.808 154.292 52.6C154.292 54.52 153.908 56.632 153.14 58.936C152.436 61.24 151.476 63.512 150.26 65.752C149.044 67.928 147.7 69.912 146.228 71.704C144.436 73.944 142.292 75.736 139.796 77.08C137.3 78.424 134.74 79.096 132.116 79.096C129.748 79.096 127.54 78.488 125.492 77.272L116.372 100.216C115.476 102.136 114.612 103.448 113.78 104.152C112.948 104.856 111.892 105.208 110.612 105.208ZM129.044 77.08C130.836 77.08 132.852 76.248 135.092 74.584C137.332 72.92 139.476 70.808 141.524 68.248C143.636 65.624 145.396 63 146.804 60.376C147.764 58.584 148.468 56.952 148.916 55.48C149.364 53.944 149.588 52.632 149.588 51.544C149.588 49.048 148.692 47.8 146.9 47.8C146.068 47.8 144.98 48.248 143.636 49.144C142.356 50.04 140.852 51.672 139.124 54.04C137.268 56.6 135.22 59.832 132.98 63.736C130.804 67.576 128.564 71.64 126.26 75.928C127.028 76.696 127.956 77.08 129.044 77.08ZM168.394 40.024C167.434 40.024 166.634 39.704 165.994 39.064C165.418 38.36 165.13 37.528 165.13 36.568C165.13 35.352 165.61 34.296 166.57 33.4C167.53 32.504 168.586 32.056 169.738 32.056C170.762 32.056 171.594 32.376 172.234 33.016C172.874 33.656 173.194 34.424 173.194 35.32C173.194 36.536 172.714 37.624 171.754 38.584C170.794 39.544 169.674 40.024 168.394 40.024ZM160.618 79C158.25 79 156.586 78.328 155.626 76.984C154.666 75.576 154.186 73.976 154.186 72.184C154.186 71.224 154.282 70.264 154.474 69.304C154.73 68.28 155.018 67.352 155.338 66.52L161.77 50.104C161.962 49.592 162.058 49.144 162.058 48.76C162.058 48.12 161.898 47.576 161.578 47.128C161.258 46.616 161.034 46.264 160.906 46.072L166.186 45.88C167.146 45.816 167.818 45.944 168.202 46.264C168.65 46.52 168.874 46.84 168.874 47.224C168.874 47.608 168.65 48.312 168.202 49.336L160.234 68.056C160.234 68.056 160.042 68.472 159.658 69.304C159.338 70.072 159.146 70.584 159.082 70.84C158.89 71.8 158.762 72.408 158.698 72.664C158.634 72.92 158.602 73.08 158.602 73.144C158.602 73.208 158.602 73.464 158.602 73.912C158.602 74.744 158.794 75.448 159.178 76.024C159.626 76.6 160.362 76.888 161.386 76.888C162.026 76.888 162.762 76.696 163.594 76.312C164.426 75.928 165.034 75.544 165.418 75.16C167.018 73.496 168.586 71.32 170.122 68.632C171.722 65.88 173.194 63.16 174.538 60.472C174.794 59.832 175.114 59.512 175.498 59.512C175.818 59.512 175.978 59.736 175.978 60.184C175.978 60.44 175.882 60.824 175.69 61.336C175.05 62.68 174.25 64.344 173.29 66.328C172.33 68.312 171.178 70.296 169.834 72.28C168.554 74.2 167.146 75.8 165.61 77.08C164.074 78.36 162.41 79 160.618 79ZM207.422 82.744C206.014 82.744 204.638 82.648 203.294 82.456C199.262 81.944 196.286 80.76 194.366 78.904C192.51 77.048 191.582 75.032 191.582 72.856C191.582 70.488 192.638 68.344 194.75 66.424C196.926 64.504 199.966 63.544 203.87 63.544C205.086 63.544 206.366 63.672 207.71 63.928C209.118 64.12 210.59 64.472 212.126 64.984C212.894 65.24 213.278 65.592 213.278 66.04C213.278 66.296 213.086 66.424 212.702 66.424C212.318 66.424 211.998 66.36 211.742 66.232C210.718 65.848 209.726 65.592 208.766 65.464C207.87 65.272 207.006 65.176 206.174 65.176C203.422 65.176 201.31 65.976 199.838 67.576C198.43 69.112 197.726 70.808 197.726 72.664C197.726 74.456 198.462 76.088 199.934 77.56C201.406 79.032 203.742 79.768 206.942 79.768C210.974 79.768 214.686 78.84 218.078 76.984C221.534 75.128 224.798 72.696 227.87 69.688C231.134 66.488 234.11 62.648 236.798 58.168C239.486 53.624 242.142 48.792 244.766 43.672C247.454 38.488 250.366 33.272 253.502 28.024C256.638 22.776 260.254 17.848 264.35 13.24C265.182 12.344 266.014 11.416 266.846 10.456C267.742 9.432 268.606 8.568 269.438 7.86399C267.262 7.54399 265.022 7.32 262.718 7.192C260.414 7 258.142 6.904 255.902 6.904C252.574 6.904 249.406 7.064 246.398 7.384C243.454 7.64 240.51 8.024 237.566 8.536C234.558 9.112 231.198 10.008 227.486 11.224C223.774 12.44 220.158 14.04 216.638 16.024C213.182 17.944 210.206 20.28 207.71 23.032C205.278 25.784 203.774 28.952 203.198 32.536C203.134 32.856 203.07 33.208 203.006 33.592C203.006 33.912 203.006 34.232 203.006 34.552C203.006 37.496 203.998 39.928 205.982 41.848C208.03 43.768 210.398 44.728 213.086 44.728C215.07 44.728 216.99 44.216 218.846 43.192C220.702 42.104 222.366 40.696 223.838 38.968C225.31 37.176 226.398 35.224 227.102 33.112C227.166 32.472 227.422 32.152 227.87 32.152C228.254 32.152 228.446 32.504 228.446 33.208C228.382 36.024 227.55 38.456 225.95 40.504C224.414 42.552 222.462 44.12 220.094 45.208C217.726 46.232 215.326 46.744 212.894 46.744C210.398 46.744 208.03 46.232 205.79 45.208C203.55 44.12 201.726 42.552 200.318 40.504C198.91 38.392 198.206 35.8 198.206 32.728C198.206 29.144 199.07 25.976 200.798 23.224C202.59 20.472 204.958 18.072 207.902 16.024C210.846 13.912 214.046 12.152 217.502 10.744C220.958 9.272 224.414 8.12 227.87 7.288C231.326 6.392 234.462 5.72 237.278 5.272C240.158 4.824 243.134 4.472 246.206 4.216C249.342 3.96 252.51 3.832 255.71 3.832C258.462 3.832 261.214 3.96 263.966 4.216C266.718 4.472 269.406 4.856 272.03 5.368C273.118 4.536 274.238 3.8 275.39 3.16C276.542 2.52 277.822 1.944 279.23 1.432C280.126 1.048 280.798 0.855999 281.246 0.855999C281.63 0.855999 281.822 0.983997 281.822 1.23999C281.822 1.688 281.31 2.232 280.286 2.872C279.774 3.128 279.134 3.576 278.366 4.216C277.598 4.856 276.766 5.592 275.87 6.424C280.03 7.448 283.774 8.984 287.102 11.032C290.75 13.208 293.342 15.512 294.878 17.944C296.478 20.376 297.278 22.872 297.278 25.432C297.278 28.376 296.382 31.32 294.59 34.264C292.798 37.144 290.462 39.832 287.582 42.328C284.702 44.824 281.534 47 278.078 48.856C274.622 50.648 271.198 51.96 267.806 52.792C264.542 53.624 261.246 54.232 257.918 54.616C254.59 55 251.614 55.192 248.99 55.192C248.542 55.192 248.062 55.192 247.55 55.192C247.102 55.192 246.654 55.16 246.206 55.096C244.03 58.168 241.79 61.176 239.486 64.12C237.182 67 234.59 69.816 231.71 72.568C228.19 75.896 224.35 78.424 220.19 80.152C216.03 81.88 211.774 82.744 207.422 82.744ZM247.55 52.984C249.982 53.048 252.702 52.856 255.71 52.408C258.718 51.96 261.726 51.288 264.734 50.392C269.726 48.856 274.206 46.648 278.174 43.768C282.206 40.888 285.374 37.688 287.678 34.168C290.046 30.648 291.23 27.192 291.23 23.8C291.23 21.752 290.718 19.8 289.694 17.944C288.734 16.088 287.134 14.424 284.894 12.952C283.422 11.992 281.758 11.16 279.902 10.456C278.046 9.752 276.094 9.176 274.046 8.72799C270.782 13.336 267.71 18.136 264.83 23.128C262.014 28.12 259.198 33.144 256.382 38.2C253.63 43.256 250.686 48.184 247.55 52.984ZM285.208 79.384C282.84 79.384 280.696 78.616 278.776 77.08C276.92 75.544 275.992 73.208 275.992 70.072C275.992 67.192 276.696 64.12 278.104 60.856C279.512 57.528 281.304 54.616 283.48 52.12C285.336 49.944 287.416 48.152 289.72 46.744C292.024 45.336 294.2 44.632 296.248 44.632C297.656 44.632 298.872 45.016 299.896 45.784C300.984 46.616 301.528 47.8 301.528 49.336C301.528 50.936 300.92 52.696 299.704 54.616C298.488 56.536 296.76 58.328 294.52 59.992C293.56 60.696 292.344 61.368 290.872 62.008C289.4 62.648 287.928 63.192 286.456 63.64C284.984 64.024 283.768 64.216 282.808 64.216C282.488 64.984 282.168 66.008 281.848 67.288C281.592 68.568 281.464 69.88 281.464 71.224C281.464 72.824 281.784 74.264 282.424 75.544C283.064 76.824 284.248 77.464 285.976 77.464C288.088 77.464 290.008 76.856 291.736 75.64C293.464 74.424 295 72.92 296.344 71.128C297.688 69.272 298.808 67.416 299.704 65.56C300.664 63.704 301.432 62.136 302.008 60.856C302.392 59.96 302.904 59.512 303.544 59.512C303.864 59.512 304.024 59.672 304.024 59.992C304.024 60.248 303.928 60.568 303.736 60.952C302.84 62.872 301.88 64.92 300.856 67.096C299.832 69.208 298.616 71.224 297.208 73.144C295.8 75 294.104 76.504 292.12 77.656C290.2 78.808 287.896 79.384 285.208 79.384ZM283.48 62.488C284.376 62.488 285.88 62.168 287.992 61.528C290.104 60.824 292.024 59.736 293.752 58.264C295.416 56.792 296.696 55.192 297.592 53.464C298.488 51.672 298.936 50.168 298.936 48.952C298.936 47.544 298.424 46.84 297.4 46.84C296.632 46.84 295.576 47.352 294.232 48.376C292.888 49.4 291.224 51.128 289.24 53.56C288.024 55.096 286.872 56.76 285.784 58.552C284.696 60.344 283.928 61.656 283.48 62.488ZM313.628 79.096C312.412 79.096 311.196 78.616 309.98 77.656C308.764 76.632 308.156 75 308.156 72.76C308.156 71.032 308.572 69.048 309.404 66.808C310.172 64.632 311.196 62.52 312.476 60.472C313.82 58.424 314.78 56.76 315.356 55.48C315.548 54.968 315.644 54.52 315.644 54.136C315.644 52.984 314.908 52.152 313.436 51.64C312.028 51.128 310.172 50.84 307.868 50.776L306.716 53.944C306.012 55.992 305.02 58.392 303.74 61.144C302.524 63.896 301.148 66.552 299.612 69.112C298.14 71.672 296.604 73.72 295.004 75.256C294.876 75.384 294.716 75.448 294.524 75.448C294.268 75.448 294.108 75.288 294.044 74.968C293.916 74.648 294.044 74.264 294.428 73.816C296.924 70.488 299.164 66.808 301.148 62.776C303.132 58.68 304.796 54.52 306.14 50.296C307.548 46.072 308.572 42.168 309.212 38.584C309.404 37.56 309.756 36.824 310.268 36.376C310.78 35.864 311.324 35.608 311.9 35.608C312.732 35.608 313.5 36.024 314.204 36.856C314.908 37.624 315.26 38.744 315.26 40.216C315.26 40.472 315.228 40.76 315.164 41.08C315.164 41.4 315.132 41.72 315.068 42.04C314.812 43.384 314.044 44.664 312.764 45.88C311.548 47.032 310.556 47.896 309.788 48.472C310.428 48.536 311.1 48.6 311.804 48.664C312.508 48.664 313.276 48.664 314.108 48.664C317.116 48.664 320.092 48.472 323.036 48.088C323.164 48.472 323.228 48.76 323.228 48.952C323.228 49.784 322.972 50.84 322.46 52.12C322.012 53.4 321.532 54.552 321.02 55.576C320.764 56.152 320.252 57.208 319.484 58.744C318.716 60.216 317.884 61.912 316.988 63.832C316.092 65.688 315.324 67.544 314.684 69.4C314.108 71.192 313.82 72.728 313.82 74.008C313.82 75.672 314.46 76.504 315.74 76.504C316.7 76.504 317.756 75.896 318.908 74.68C320.06 73.4 321.18 71.864 322.268 70.072C323.42 68.216 324.444 66.424 325.34 64.696C326.3 62.904 327.036 61.496 327.548 60.472C327.804 59.832 328.156 59.512 328.604 59.512C328.86 59.512 328.988 59.736 328.988 60.184C328.988 60.44 328.892 60.824 328.7 61.336C327.996 62.808 327.164 64.472 326.204 66.328C325.244 68.184 324.156 70.008 322.94 71.8C321.788 73.592 320.508 75.16 319.1 76.504C317.756 77.784 316.284 78.616 314.684 79C314.492 79.064 314.14 79.096 313.628 79.096ZM332.035 79.288C329.347 79.288 327.523 78.584 326.563 77.176C325.603 75.704 325.123 73.976 325.123 71.992C325.123 69.944 325.411 67.832 325.987 65.656C326.563 63.48 327.075 61.656 327.523 60.184C328.547 56.6 329.827 52.792 331.363 48.76C332.963 44.664 334.691 40.664 336.547 36.76C338.467 32.792 340.355 29.24 342.211 26.104C343.683 23.608 345.251 21.752 346.915 20.536C348.643 19.256 350.147 18.616 351.427 18.616C352.451 18.616 353.251 19 353.827 19.768C354.467 20.472 354.787 21.56 354.787 23.032C354.787 24.056 354.595 25.272 354.211 26.68C353.891 28.088 353.315 29.688 352.483 31.48C350.243 36.472 347.555 41.464 344.419 46.456C341.347 51.448 337.443 56.12 332.707 60.472C332.451 61.304 332.099 62.296 331.651 63.448C331.267 64.536 330.915 65.656 330.595 66.808C330.211 68.536 330.019 70.008 330.019 71.224C330.019 73.208 330.403 74.712 331.171 75.736C332.003 76.696 332.995 77.176 334.147 77.176C335.171 77.176 336.259 76.824 337.411 76.12C338.563 75.352 339.651 74.264 340.675 72.856C342.211 70.616 343.587 68.344 344.803 66.04C346.083 63.672 347.043 61.848 347.683 60.568C348.067 59.864 348.483 59.512 348.931 59.512C349.251 59.512 349.411 59.704 349.411 60.088C349.411 60.408 349.315 60.76 349.123 61.144C348.547 62.424 347.779 64.088 346.819 66.136C345.923 68.12 344.771 70.136 343.363 72.184C342.019 74.168 340.387 75.864 338.467 77.272C336.611 78.616 334.467 79.288 332.035 79.288ZM333.475 57.4C335.779 55.032 338.019 52.312 340.195 49.24C342.371 46.104 344.387 42.872 346.243 39.544C348.163 36.152 349.763 32.952 351.043 29.944C351.491 28.984 351.843 27.928 352.099 26.776C352.419 25.624 352.579 24.664 352.579 23.896C352.579 23 352.355 22.552 351.907 22.552C351.651 22.552 351.267 22.808 350.755 23.32C350.243 23.768 349.571 24.568 348.739 25.72C347.523 27.32 346.179 29.496 344.707 32.248C343.299 35 341.859 37.944 340.387 41.08C338.915 44.216 337.571 47.256 336.355 50.2C335.139 53.08 334.179 55.48 333.475 57.4ZM350.745 79C350.041 79 349.177 78.84 348.153 78.52C347.193 78.2 346.329 77.624 345.561 76.792C344.857 75.896 344.505 74.584 344.505 72.856C344.505 71.192 344.889 69.592 345.657 68.056C346.489 66.456 347.257 64.92 347.961 63.448C347.769 63.448 347.545 63.384 347.289 63.256C347.097 63.128 347.001 62.936 347.001 62.68C347.001 62.424 347.065 62.168 347.193 61.912C347.449 61.4 347.737 60.856 348.057 60.28C348.377 59.704 348.665 59.096 348.921 58.456C349.881 56.472 350.841 54.584 351.801 52.792C352.761 50.936 353.593 49.304 354.297 47.896C355.001 46.488 356.217 45.784 357.945 45.784H363.897C362.809 46.616 361.817 47.544 360.921 48.568C360.089 49.528 359.033 51.32 357.753 53.944C357.753 53.944 357.529 54.392 357.081 55.288C356.633 56.184 356.057 57.336 355.353 58.744C354.713 60.088 354.041 61.464 353.337 62.872C352.697 64.28 352.153 65.464 351.705 66.424C350.873 68.216 350.329 69.656 350.073 70.744C349.817 71.768 349.689 72.728 349.689 73.624C349.689 75.736 350.393 76.792 351.801 76.792C353.337 76.792 355.193 75.544 357.369 73.048C359.161 70.936 360.921 68.408 362.649 65.464C364.377 62.52 366.009 59.48 367.545 56.344C369.145 53.208 370.553 50.392 371.769 47.896C372.473 46.488 373.721 45.784 375.513 45.784H380.793C379.833 46.552 379.033 47.288 378.393 47.992C377.753 48.632 377.113 49.528 376.473 50.68C375.897 51.768 375.097 53.336 374.073 55.384C373.241 57.112 372.345 58.968 371.385 60.952C370.489 62.872 369.689 64.696 368.985 66.424C368.281 68.152 367.833 69.56 367.641 70.648C367.577 71.288 367.513 71.768 367.449 72.088C367.385 72.408 367.353 72.76 367.353 73.144C367.353 74.36 367.545 75.224 367.929 75.736C368.377 76.248 368.889 76.504 369.465 76.504C371.001 76.504 372.537 75.64 374.073 73.912C375.673 72.184 377.177 70.072 378.585 67.576C380.057 65.08 381.305 62.712 382.329 60.472C382.713 59.768 383.065 59.416 383.385 59.416C383.769 59.416 383.961 59.64 383.961 60.088C383.961 60.408 383.833 60.792 383.577 61.24C382.873 62.776 382.009 64.536 380.985 66.52C379.961 68.504 378.809 70.456 377.529 72.376C376.249 74.296 374.841 75.896 373.305 77.176C371.769 78.392 370.105 79 368.313 79C366.713 79 365.401 78.424 364.377 77.272C363.353 76.056 362.841 74.36 362.841 72.184C362.841 70.456 363.161 68.6 363.801 66.616C362.713 68.536 361.465 70.456 360.057 72.376C358.649 74.296 357.145 75.896 355.545 77.176C353.945 78.392 352.345 79 350.745 79ZM418.342 82.744C416.87 82.744 415.366 82.648 413.83 82.456C409.798 81.944 406.822 80.76 404.902 78.904C403.046 76.984 402.118 74.936 402.118 72.76C402.118 70.392 403.142 68.248 405.19 66.328C407.302 64.408 410.278 63.448 414.118 63.448C416.678 63.448 419.462 63.96 422.47 64.984C423.75 65.368 425.318 66.04 427.174 67C429.094 67.896 430.982 68.824 432.838 69.784C434.694 70.744 436.134 71.512 437.158 72.088C439.974 69.336 442.566 66.168 444.934 62.584C447.366 58.936 449.67 55.064 451.846 50.968C454.022 46.808 456.23 42.616 458.47 38.392C460.71 34.168 463.046 30.072 465.478 26.104C467.974 22.072 470.726 18.392 473.734 15.064C470.406 13.016 466.726 11.448 462.694 10.36C458.726 9.208 454.63 8.632 450.406 8.632C448.806 8.632 447.174 8.728 445.51 8.92C443.91 9.112 442.278 9.36799 440.614 9.68799C434.662 10.968 429.638 13.016 425.542 15.832C421.446 18.584 418.342 21.624 416.23 24.952C414.182 28.216 413.158 31.32 413.158 34.264C413.158 36.44 413.734 38.36 414.886 40.024C416.038 41.688 417.798 42.872 420.166 43.576C421.894 44.088 423.398 44.344 424.678 44.344C426.79 44.344 428.614 43.928 430.15 43.096C431.75 42.2 433.094 41.112 434.182 39.832C435.27 38.552 436.07 37.304 436.582 36.088C437.158 34.872 437.478 33.88 437.542 33.112C437.542 32.664 437.83 32.44 438.406 32.44C439.302 32.44 439.654 32.984 439.462 34.072C439.142 36.632 438.182 38.872 436.582 40.792C434.982 42.648 433.062 44.12 430.822 45.208C428.582 46.232 426.278 46.744 423.91 46.744C422.374 46.744 420.774 46.488 419.11 45.976C416.166 44.952 413.67 43.192 411.622 40.696C409.638 38.136 408.646 35.128 408.646 31.672C408.646 28.28 409.766 24.888 412.006 21.496C414.31 18.04 417.958 14.936 422.95 12.184C427.942 9.432 434.47 7.48 442.534 6.328C445.222 5.944 447.942 5.752 450.694 5.752C455.238 5.752 459.686 6.296 464.038 7.384C468.454 8.472 472.614 10.04 476.518 12.088L478.918 9.304C479.494 8.792 480.294 8.152 481.318 7.384C482.406 6.616 483.494 5.88 484.582 5.17599C485.67 4.472 486.47 4.024 486.982 3.832C487.814 3.512 488.486 3.352 488.998 3.352C489.382 3.352 489.574 3.448 489.574 3.64C489.574 4.088 489.062 4.632 488.038 5.272C487.398 5.72 486.822 6.232 486.31 6.808C485.798 7.32 485.414 7.736 485.158 8.056C484.198 9.4 483.43 10.488 482.854 11.32C482.342 12.152 481.638 13.24 480.742 14.584C486.63 18.488 491.43 23.544 495.142 29.752C498.854 35.896 500.71 42.936 500.71 50.872C500.71 52.536 500.614 54.232 500.422 55.96C500.038 60.056 498.918 63.768 497.062 67.096C495.206 70.424 492.774 73.24 489.766 75.544C486.822 77.848 483.526 79.608 479.878 80.824C476.294 82.104 472.518 82.744 468.55 82.744C467.078 82.744 465.606 82.648 464.134 82.456C457.862 81.688 452.678 80.664 448.582 79.384C444.55 78.168 440.998 76.888 437.926 75.544C432.102 80.344 425.574 82.744 418.342 82.744ZM466.918 79.864C472.038 79.864 476.55 78.776 480.454 76.6C484.422 74.36 487.622 71.448 490.054 67.864C492.486 64.28 493.926 60.408 494.374 56.248C494.566 54.712 494.662 53.176 494.662 51.64C494.662 44.664 493.158 38.328 490.15 32.632C487.206 26.872 483.302 22.04 478.438 18.136C475.622 22.552 472.71 27.224 469.702 32.152C466.758 37.08 463.782 41.976 460.774 46.84C457.766 51.64 454.822 56.088 451.942 60.184C449.126 64.28 446.47 67.672 443.974 70.36C443.526 70.744 442.95 71.32 442.246 72.088C441.606 72.792 440.934 73.368 440.23 73.816C443.238 75.16 446.662 76.376 450.502 77.464C454.342 78.552 458.854 79.32 464.038 79.768C464.614 79.832 465.094 79.864 465.478 79.864C465.926 79.864 466.406 79.864 466.918 79.864ZM416.23 79.768C419.75 79.96 423.046 79.544 426.118 78.52C429.19 77.432 432.038 75.928 434.662 74.008C432.358 72.92 430.022 71.8 427.654 70.648C425.286 69.432 422.79 68.344 420.166 67.384C418.438 66.808 416.902 66.52 415.558 66.52C413.19 66.52 411.398 67.192 410.182 68.536C408.966 69.816 408.358 71.256 408.358 72.856C408.358 74.584 409.03 76.152 410.374 77.56C411.718 78.904 413.67 79.64 416.23 79.768ZM515.737 40.024C514.777 40.024 513.977 39.704 513.337 39.064C512.761 38.36 512.473 37.528 512.473 36.568C512.473 35.352 512.953 34.296 513.913 33.4C514.873 32.504 515.929 32.056 517.081 32.056C518.105 32.056 518.937 32.376 519.577 33.016C520.217 33.656 520.537 34.424 520.537 35.32C520.537 36.536 520.057 37.624 519.097 38.584C518.137 39.544 517.017 40.024 515.737 40.024ZM507.961 79C505.593 79 503.929 78.328 502.969 76.984C502.009 75.576 501.529 73.976 501.529 72.184C501.529 71.224 501.625 70.264 501.817 69.304C502.073 68.28 502.361 67.352 502.681 66.52L509.113 50.104C509.305 49.592 509.401 49.144 509.401 48.76C509.401 48.12 509.241 47.576 508.921 47.128C508.601 46.616 508.377 46.264 508.249 46.072L513.529 45.88C514.489 45.816 515.161 45.944 515.545 46.264C515.993 46.52 516.217 46.84 516.217 47.224C516.217 47.608 515.993 48.312 515.545 49.336L507.577 68.056C507.577 68.056 507.385 68.472 507.001 69.304C506.681 70.072 506.489 70.584 506.425 70.84C506.233 71.8 506.105 72.408 506.041 72.664C505.977 72.92 505.945 73.08 505.945 73.144C505.945 73.208 505.945 73.464 505.945 73.912C505.945 74.744 506.137 75.448 506.521 76.024C506.969 76.6 507.705 76.888 508.729 76.888C509.369 76.888 510.105 76.696 510.937 76.312C511.769 75.928 512.377 75.544 512.761 75.16C514.361 73.496 515.929 71.32 517.465 68.632C519.065 65.88 520.537 63.16 521.881 60.472C522.137 59.832 522.457 59.512 522.841 59.512C523.161 59.512 523.321 59.736 523.321 60.184C523.321 60.44 523.225 60.824 523.033 61.336C522.393 62.68 521.593 64.344 520.633 66.328C519.673 68.312 518.521 70.296 517.177 72.28C515.897 74.2 514.489 75.8 512.953 77.08C511.417 78.36 509.753 79 507.961 79ZM532.612 40.024C531.652 40.024 530.852 39.704 530.212 39.064C529.636 38.36 529.348 37.528 529.348 36.568C529.348 35.352 529.828 34.296 530.788 33.4C531.748 32.504 532.804 32.056 533.956 32.056C534.98 32.056 535.812 32.376 536.452 33.016C537.092 33.656 537.412 34.424 537.412 35.32C537.412 36.536 536.932 37.624 535.972 38.584C535.012 39.544 533.892 40.024 532.612 40.024ZM524.836 79C522.468 79 520.804 78.328 519.844 76.984C518.884 75.576 518.404 73.976 518.404 72.184C518.404 71.224 518.5 70.264 518.692 69.304C518.948 68.28 519.236 67.352 519.556 66.52L525.988 50.104C526.18 49.592 526.276 49.144 526.276 48.76C526.276 48.12 526.116 47.576 525.796 47.128C525.476 46.616 525.252 46.264 525.124 46.072L530.404 45.88C531.364 45.816 532.036 45.944 532.42 46.264C532.868 46.52 533.092 46.84 533.092 47.224C533.092 47.608 532.868 48.312 532.42 49.336L524.452 68.056C524.452 68.056 524.26 68.472 523.876 69.304C523.556 70.072 523.364 70.584 523.3 70.84C523.108 71.8 522.98 72.408 522.916 72.664C522.852 72.92 522.82 73.08 522.82 73.144C522.82 73.208 522.82 73.464 522.82 73.912C522.82 74.744 523.012 75.448 523.396 76.024C523.844 76.6 524.58 76.888 525.604 76.888C526.244 76.888 526.98 76.696 527.812 76.312C528.644 75.928 529.252 75.544 529.636 75.16C531.236 73.496 532.804 71.32 534.34 68.632C535.94 65.88 537.412 63.16 538.756 60.472C539.012 59.832 539.332 59.512 539.716 59.512C540.036 59.512 540.196 59.736 540.196 60.184C540.196 60.44 540.1 60.824 539.908 61.336C539.268 62.68 538.468 64.344 537.508 66.328C536.548 68.312 535.396 70.296 534.052 72.28C532.772 74.2 531.364 75.8 529.828 77.08C528.292 78.36 526.628 79 524.836 79ZM529.615 79.768C531.919 75.096 534.127 70.488 536.239 65.944C538.415 61.336 540.623 56.952 542.863 52.792C544.143 50.488 545.199 48.888 546.031 47.992C546.927 47.032 548.111 46.552 549.583 46.552C550.095 46.552 550.639 46.648 551.215 46.84C551.791 46.968 552.367 47.032 552.943 47.032C553.327 47.032 553.615 47 553.807 46.936C552.911 47.448 551.759 48.728 550.351 50.776C548.943 52.76 547.503 55.064 546.031 57.688C544.559 60.312 543.247 62.776 542.095 65.08C543.311 63.608 544.559 62.136 545.839 60.664C547.183 59.192 548.655 57.784 550.255 56.44C551.791 55.096 553.615 53.72 555.727 52.312C557.903 50.84 560.015 49.624 562.063 48.664C564.111 47.704 565.743 47.224 566.959 47.224C567.407 47.224 567.727 47.256 567.919 47.32C567.919 47.32 567.567 47.96 566.863 49.24C566.159 50.456 565.263 52.088 564.175 54.136C563.151 56.12 562.095 58.264 561.007 60.568C559.919 62.808 558.927 64.984 558.031 67.096C557.199 69.144 556.655 70.872 556.399 72.28C556.207 73.112 556.111 73.88 556.111 74.584C556.111 75.608 556.303 76.28 556.687 76.6C557.071 76.92 557.487 77.08 557.935 77.08C559.151 77.08 560.431 76.44 561.775 75.16C563.119 73.816 564.399 72.184 565.615 70.264C566.895 68.344 568.015 66.488 568.975 64.696C569.999 62.84 570.735 61.432 571.183 60.472C571.439 59.96 571.631 59.672 571.759 59.608C571.887 59.48 572.079 59.416 572.335 59.416C572.719 59.416 572.911 59.672 572.911 60.184C572.911 60.504 572.815 60.856 572.623 61.24C571.855 62.712 570.927 64.472 569.839 66.52C568.815 68.568 567.631 70.584 566.287 72.568C564.943 74.488 563.471 76.12 561.871 77.464C560.271 78.744 558.543 79.384 556.687 79.384C555.407 79.384 554.063 78.936 552.655 78.04C551.311 77.144 550.639 75.48 550.639 73.048C550.639 72.344 550.703 71.608 550.831 70.84C550.959 70.008 551.183 69.112 551.503 68.152C552.015 66.872 552.623 65.496 553.327 64.024C554.031 62.552 555.183 60.536 556.783 57.976C557.231 57.272 557.487 56.728 557.551 56.344C557.679 55.96 557.743 55.64 557.743 55.384C557.743 54.616 557.391 54.232 556.687 54.232C556.111 54.232 555.247 54.552 554.095 55.192C553.007 55.832 551.631 56.952 549.967 58.552C548.367 60.088 546.447 62.264 544.207 65.08C542.031 67.896 539.503 72.056 536.623 77.56C536.175 78.392 535.663 78.84 535.087 78.904C534.575 78.968 533.839 79.032 532.879 79.096C532.239 79.16 531.631 79.192 531.055 79.192C530.479 79.256 529.999 79.448 529.615 79.768ZM564.457 109.624C558.377 109.624 555.337 107.128 555.337 102.136C555.337 99.768 556.169 97.656 557.833 95.8C559.497 93.944 561.481 92.344 563.785 91C566.985 89.08 570.089 87.544 573.097 86.392C576.105 85.24 578.953 84.216 581.641 83.32C584.393 82.488 586.985 81.56 589.417 80.536C590.569 77.144 591.337 73.592 591.721 69.88C591.913 67.96 592.009 66.296 592.009 64.888C592.009 63.416 591.913 62.456 591.721 62.008C591.017 63.352 590.089 64.984 588.937 66.904C587.785 68.824 586.473 70.712 585.001 72.568C583.529 74.36 581.929 75.864 580.201 77.08C578.537 78.296 576.809 78.904 575.017 78.904C574.377 78.904 573.769 78.808 573.193 78.616C571.401 77.848 570.089 76.76 569.257 75.352C568.489 73.944 568.105 72.344 568.105 70.552C568.105 67.672 568.937 64.568 570.601 61.24C572.265 57.912 574.249 54.872 576.553 52.12C578.409 49.88 580.585 48.088 583.081 46.744C585.577 45.4 588.105 44.728 590.665 44.728C593.609 44.728 596.361 45.72 598.921 47.704C599.881 48.472 600.361 49.304 600.361 50.2C600.361 51.16 599.977 51.64 599.209 51.64C598.569 51.64 598.121 51.224 597.865 50.392C596.969 48.024 595.529 46.84 593.545 46.84C591.945 46.84 590.121 47.544 588.073 48.952C586.025 50.296 584.105 51.992 582.313 54.04C580.777 55.768 579.273 57.752 577.801 59.992C576.393 62.232 575.209 64.44 574.249 66.616C573.353 68.792 572.905 70.68 572.905 72.28C572.905 73.368 573.161 74.296 573.673 75.064C574.185 75.832 574.985 76.216 576.073 76.216C577.545 76.216 579.081 75.512 580.681 74.104C582.345 72.696 583.913 70.968 585.385 68.92C586.921 66.872 588.233 64.792 589.321 62.68C590.473 60.568 591.273 58.808 591.721 57.4C592.169 55.928 592.777 55.032 593.545 54.712C594.313 54.328 595.081 54.136 595.849 54.136C596.617 54.136 597.257 53.944 597.769 53.56C598.025 54.968 598.185 56.408 598.249 57.88C598.377 59.288 598.441 60.728 598.441 62.2C598.441 67.128 597.801 72.088 596.521 77.08C597.673 76.184 598.857 75.224 600.073 74.2C601.353 73.112 602.441 71.96 603.337 70.744C604.937 68.568 606.121 66.584 606.889 64.792C607.721 62.936 608.361 61.496 608.809 60.472C609.193 59.832 609.609 59.512 610.057 59.512C610.441 59.512 610.633 59.704 610.633 60.088C610.633 60.408 610.505 60.792 610.249 61.24C608.649 64.632 607.177 67.544 605.833 69.976C604.489 72.344 603.017 74.36 601.417 76.024C599.817 77.624 597.833 79 595.465 80.152C594.441 83.224 592.905 86.456 590.857 89.848C588.809 93.24 586.409 96.44 583.657 99.448C580.905 102.456 577.897 104.888 574.633 106.744C571.369 108.664 567.977 109.624 564.457 109.624ZM562.153 107.704C563.561 107.704 565.033 107.384 566.569 106.744C568.169 106.168 569.673 105.464 571.081 104.632C572.489 103.8 573.577 103.096 574.345 102.52C575.817 101.368 577.321 99.928 578.857 98.2C580.393 96.472 581.737 94.808 582.889 93.208C583.977 91.672 585.001 90.04 585.961 88.312C586.985 86.648 587.849 84.984 588.553 83.32C588.041 83.512 587.401 83.736 586.633 83.992C585.929 84.248 585.417 84.44 585.097 84.568C582.985 85.272 580.649 86.072 578.089 86.968C575.593 87.928 573.097 88.952 570.601 90.04C568.105 91.192 565.833 92.44 563.785 93.784C561.993 95 560.521 96.6 559.369 98.584C558.153 100.568 557.545 102.296 557.545 103.768C557.545 104.856 557.929 105.784 558.697 106.552C559.401 107.32 560.553 107.704 562.153 107.704ZM615.583 79.384C613.215 79.384 611.071 78.616 609.151 77.08C607.295 75.544 606.367 73.208 606.367 70.072C606.367 67.192 607.071 64.12 608.479 60.856C609.887 57.528 611.679 54.616 613.855 52.12C615.711 49.944 617.791 48.152 620.095 46.744C622.399 45.336 624.575 44.632 626.623 44.632C628.031 44.632 629.247 45.016 630.271 45.784C631.359 46.616 631.903 47.8 631.903 49.336C631.903 50.936 631.295 52.696 630.079 54.616C628.863 56.536 627.135 58.328 624.895 59.992C623.935 60.696 622.719 61.368 621.247 62.008C619.775 62.648 618.303 63.192 616.831 63.64C615.359 64.024 614.143 64.216 613.183 64.216C612.863 64.984 612.543 66.008 612.223 67.288C611.967 68.568 611.839 69.88 611.839 71.224C611.839 72.824 612.159 74.264 612.799 75.544C613.439 76.824 614.623 77.464 616.351 77.464C618.463 77.464 620.383 76.856 622.111 75.64C623.839 74.424 625.375 72.92 626.719 71.128C628.063 69.272 629.183 67.416 630.079 65.56C631.039 63.704 631.807 62.136 632.383 60.856C632.767 59.96 633.279 59.512 633.919 59.512C634.239 59.512 634.399 59.672 634.399 59.992C634.399 60.248 634.303 60.568 634.111 60.952C633.215 62.872 632.255 64.92 631.231 67.096C630.207 69.208 628.991 71.224 627.583 73.144C626.175 75 624.479 76.504 622.495 77.656C620.575 78.808 618.271 79.384 615.583 79.384ZM613.855 62.488C614.751 62.488 616.255 62.168 618.367 61.528C620.479 60.824 622.399 59.736 624.127 58.264C625.791 56.792 627.071 55.192 627.967 53.464C628.863 51.672 629.311 50.168 629.311 48.952C629.311 47.544 628.799 46.84 627.775 46.84C627.007 46.84 625.951 47.352 624.607 48.376C623.263 49.4 621.599 51.128 619.615 53.56C618.399 55.096 617.247 56.76 616.159 58.552C615.071 60.344 614.303 61.656 613.855 62.488ZM637.283 79C635.491 79 633.891 78.392 632.483 77.176C631.075 75.896 630.371 73.912 630.371 71.224C630.371 69.112 630.755 66.52 631.523 63.448C632.355 60.312 633.347 57.08 634.499 53.752C635.715 50.36 636.899 47.288 638.051 44.536H632.963C632.515 44.536 632.291 44.216 632.291 43.576C632.291 43.256 632.355 42.968 632.483 42.712C632.675 42.456 632.931 42.328 633.251 42.328H639.011C640.099 39.896 641.251 37.528 642.467 35.224C643.683 32.92 644.867 30.744 646.019 28.696C647.491 26.136 649.059 24.216 650.723 22.936C652.387 21.656 653.827 21.016 655.043 21.016C656.003 21.016 656.803 21.4 657.443 22.168C658.083 22.872 658.403 23.96 658.403 25.432C658.403 26.328 658.211 27.576 657.827 29.176C657.443 30.712 656.835 32.344 656.003 34.072C655.555 34.968 654.915 36.248 654.083 37.912C653.315 39.576 652.547 41.048 651.779 42.328H656.387C656.835 42.328 657.059 42.648 657.059 43.288C657.059 43.544 656.995 43.832 656.867 44.152C656.739 44.408 656.547 44.536 656.291 44.536H650.627C649.027 47.288 647.203 49.976 645.155 52.6C643.107 55.224 640.675 57.848 637.859 60.472C637.667 61.048 637.411 61.88 637.091 62.968C636.835 64.056 636.579 65.176 636.323 66.328C636.131 67.416 635.939 68.344 635.747 69.112C635.619 69.88 635.555 70.264 635.555 70.264C635.363 71.096 635.267 71.864 635.267 72.568C635.267 73.912 635.587 74.904 636.227 75.544C636.867 76.12 637.603 76.408 638.435 76.408C638.947 76.408 639.459 76.344 639.971 76.216C640.483 76.024 641.059 75.704 641.699 75.256C643.939 73.656 645.891 71.48 647.555 68.728C649.283 65.976 650.787 63.32 652.067 60.76C652.451 59.992 652.835 59.608 653.219 59.608C653.475 59.608 653.603 59.8 653.603 60.184C653.603 60.376 653.507 60.728 653.315 61.24C651.907 64.184 650.723 66.552 649.763 68.344C648.803 70.136 647.875 71.64 646.979 72.856C646.083 74.008 645.027 75.16 643.811 76.312C642.915 77.208 641.891 77.88 640.739 78.328C639.587 78.776 638.435 79 637.283 79ZM644.867 42.328H649.763C650.659 40.664 651.491 39.032 652.259 37.432C653.091 35.832 653.827 34.232 654.467 32.632C654.915 31.608 655.299 30.456 655.619 29.176C655.939 27.896 656.099 26.904 656.099 26.2C656.099 25.24 655.875 24.76 655.427 24.76C655.107 24.76 654.627 25.048 653.987 25.624C653.411 26.136 652.675 27.032 651.779 28.312C650.627 29.912 649.475 31.992 648.323 34.552C647.235 37.048 646.083 39.64 644.867 42.328ZM638.627 57.4C640.483 55.48 642.211 53.432 643.811 51.256C645.475 49.08 647.011 46.84 648.419 44.536H643.907C642.883 46.904 641.923 49.208 641.027 51.448C640.131 53.688 639.331 55.672 638.627 57.4Z" fill="white"/>
</svg>
