<svg width="1183" height="113" viewBox="0 0 1183 113" fill="none" xmlns="http://www.w3.org/2000/svg">
<path d="M51.4606 88.144C48.6446 88.144 46.6606 87.024 45.5086 84.784C44.3566 82.608 43.7806 80.048 43.7806 77.104C43.7806 74.48 44.1326 71.888 44.8366 69.328C45.6046 66.768 46.5006 64.816 47.5246 63.472C45.7966 65.52 43.6526 67.856 41.0926 70.48C38.5326 73.104 35.7166 75.632 32.6446 78.064C29.5726 80.496 26.4046 82.512 23.1406 84.112C19.8766 85.712 16.6446 86.512 13.4446 86.512C12.4846 86.512 11.5246 86.416 10.5646 86.224C9.66863 86.096 8.77263 85.84 7.87663 85.456C5.50863 84.496 3.74863 82.8 2.59663 80.368C1.44463 77.872 0.868625 74.896 0.868625 71.44C0.868625 67.792 1.47663 63.888 2.69263 59.728C3.97263 55.504 5.82863 51.216 8.26063 46.864C9.41263 44.752 10.6926 42.672 12.1006 40.624C13.5726 38.512 15.1406 36.528 16.8046 34.672C14.8206 33.776 12.9966 32.784 11.3326 31.696C9.66863 30.544 8.26063 29.296 7.10863 27.952C6.34063 27.056 5.76463 26 5.38063 24.784C4.99663 23.568 4.80463 22.384 4.80463 21.232C4.80463 19.184 5.28463 17.84 6.24463 17.2C6.56463 16.688 6.94863 16.432 7.39663 16.432C7.97263 16.432 8.26063 16.784 8.26063 17.488C8.26063 17.936 8.13263 18.416 7.87663 18.928C7.55663 19.76 7.39663 20.528 7.39663 21.232C7.39663 22.256 7.65263 23.216 8.16463 24.112C8.67663 24.944 9.28463 25.744 9.98863 26.512C12.0366 28.944 14.8526 30.96 18.4366 32.56C22.5326 28.08 27.0126 23.952 31.8766 20.176C36.8046 16.336 42.0846 13.264 47.7166 10.96C53.3486 8.656 59.2686 7.504 65.4766 7.504C70.6606 7.504 74.7246 8.656 77.6686 10.96C80.6126 13.2 82.0846 16.112 82.0846 19.696C82.0846 21.424 81.5726 23.312 80.5486 25.36C79.5246 27.344 77.8606 29.296 75.5566 31.216C73.2526 33.072 70.1806 34.704 66.3406 36.112C62.5646 37.456 57.8606 38.384 52.2286 38.896C50.2446 39.088 48.4526 39.248 46.8526 39.376C45.3166 39.44 43.6526 39.472 41.8606 39.472C38.5326 39.472 35.3006 39.248 32.1646 38.8C29.0926 38.352 26.0206 37.648 22.9486 36.688C21.7966 38.288 20.3246 40.464 18.5326 43.216C16.8046 45.968 15.0766 48.912 13.3486 52.048C11.6206 55.184 10.1806 58.16 9.02863 60.976C8.00463 63.664 7.23663 66.128 6.72463 68.368C6.21263 70.544 5.95663 72.496 5.95663 74.224C5.95663 77.36 6.69263 79.728 8.16463 81.328C9.63663 82.864 11.6206 83.632 14.1166 83.632C16.5486 83.632 19.3006 82.928 22.3726 81.52C25.5086 80.112 28.7726 78 32.1646 75.184C35.5566 72.368 38.8526 69.2 42.0526 65.68C45.3166 62.16 48.2926 58.576 50.9806 54.928C53.6686 51.28 55.8446 47.92 57.5086 44.848C58.5966 42.8 59.6526 41.36 60.6766 40.528C61.7006 39.632 62.5646 39.184 63.2686 39.184C63.9726 39.184 64.5166 39.472 64.9006 40.048C65.2846 40.56 65.4766 41.264 65.4766 42.16C65.4766 43.952 64.6766 45.744 63.0766 47.536C61.2846 49.52 59.5246 51.952 57.7966 54.832C56.0686 57.712 54.5326 60.752 53.1886 63.952C51.8446 67.152 50.8846 70.288 50.3086 73.36C50.1166 74.384 49.9886 75.344 49.9246 76.24C49.8606 77.136 49.8286 77.936 49.8286 78.64C49.8286 81.008 50.1806 82.704 50.8846 83.728C51.6526 84.752 52.6446 85.264 53.8606 85.264C55.3326 85.264 57.0286 84.592 58.9486 83.248C60.8686 81.904 62.7246 80.112 64.5166 77.872C66.0526 75.824 67.5246 73.648 68.9326 71.344C70.4046 69.04 71.7486 66.64 72.9646 64.144C73.1566 63.696 73.4126 63.376 73.7326 63.184C74.1166 62.928 74.3726 62.8 74.5006 62.8C74.8206 62.8 74.9806 62.992 74.9806 63.376C74.9806 63.632 74.8846 64.016 74.6926 64.528C74.1166 65.808 73.3486 67.344 72.3886 69.136C71.4286 70.928 70.3726 72.784 69.2206 74.704C68.0686 76.56 66.8846 78.288 65.6686 79.888C64.0046 82.064 61.8926 83.984 59.3326 85.648C56.8366 87.312 54.2126 88.144 51.4606 88.144ZM40.9966 37.168C44.3246 37.168 48.0366 36.976 52.1326 36.592C57.4446 36.144 62.0526 35.088 65.9566 33.424C69.8606 31.76 72.8686 29.648 74.9806 27.088C77.0926 24.528 78.1486 21.68 78.1486 18.544C78.1486 15.728 76.9646 13.584 74.5966 12.112C72.2926 10.64 69.3486 9.904 65.7646 9.904C59.8126 9.904 54.3726 11.088 49.4446 13.456C44.5806 15.76 40.1006 18.8 36.0046 22.576C31.9726 26.352 28.1326 30.416 24.4846 34.768C29.3486 36.368 34.8526 37.168 40.9966 37.168ZM90.6114 82.672C88.8834 82.48 87.3154 81.68 85.9074 80.272C84.5634 78.8 83.6354 76.848 83.1234 74.416C83.0594 73.968 82.9954 73.584 82.9314 73.264C82.9314 72.88 82.9314 72.464 82.9314 72.016C82.9314 69.456 83.5074 67.408 84.6594 65.872C85.8114 64.272 86.8674 63.44 87.8274 63.376C88.8514 63.44 90.0994 63.216 91.5714 62.704C93.0434 62.128 94.3234 61.36 95.4114 60.4C97.2674 58.928 98.1954 57.424 98.1954 55.888C98.1954 54.288 97.2674 53.488 95.4114 53.488C94.3874 53.488 93.0754 53.84 91.4754 54.544C89.9394 55.248 88.1474 56.464 86.0994 58.192C83.5394 60.368 80.8834 63.28 78.1314 66.928C77.7474 67.76 77.2994 69.008 76.7874 70.672C76.2754 72.272 75.8274 73.936 75.4434 75.664C75.1234 77.392 74.9634 78.864 74.9634 80.08C74.9634 81.04 75.1234 81.68 75.4434 82H69.3954C68.6914 82 68.3394 81.712 68.3394 81.136C68.3394 80.944 68.3714 80.784 68.4354 80.656C68.4994 80.528 68.5634 80.272 68.6274 79.888C69.5234 76.56 70.7074 73.424 72.1794 70.48C73.6514 67.536 75.1234 64.432 76.5954 61.168C74.3554 65.328 72.3074 69.008 70.4514 72.208C68.6594 75.344 67.2834 77.36 66.3234 78.256C66.1954 78.384 66.0354 78.448 65.8434 78.448C65.5874 78.448 65.4274 78.288 65.3634 77.968C65.2354 77.648 65.2994 77.328 65.5554 77.008C66.8994 75.216 68.4354 72.752 70.1634 69.616C71.9554 66.48 73.8434 62.992 75.8274 59.152C77.8114 55.248 79.8274 51.312 81.8754 47.344C83.9234 43.376 85.9074 39.632 87.8274 36.112C89.8114 32.592 91.6034 29.616 93.2034 27.184C94.3554 25.456 95.4434 24.24 96.4674 23.536C97.4914 22.768 98.5474 22.384 99.6354 22.384H100.115C100.691 22.384 101.331 22.48 102.035 22.672C102.803 22.864 103.507 22.896 104.147 22.768C102.931 23.728 101.459 25.296 99.7314 27.472C98.0034 29.648 96.1794 32.24 94.2594 35.248C92.3394 38.256 90.3874 41.456 88.4034 44.848C86.4834 48.24 84.6594 51.6 82.9314 54.928C82.2914 56.208 81.6834 57.552 81.1074 58.96C80.5314 60.368 79.9874 61.776 79.4754 63.184C80.8194 61.52 82.3554 59.792 84.0834 58C85.8114 56.208 87.6034 54.576 89.4594 53.104C91.3794 51.568 93.2674 50.448 95.1234 49.744C97.2354 48.976 98.9954 48.592 100.403 48.592C101.875 48.592 102.931 48.944 103.571 49.648C104.275 50.352 104.627 51.248 104.627 52.336C104.627 53.552 104.147 55.024 103.187 56.752C102.227 58.416 100.915 59.856 99.2514 61.072C97.8434 62.032 96.3714 62.864 94.8354 63.568C93.2994 64.272 91.4754 64.72 89.3634 64.912C88.9794 65.808 88.6914 66.736 88.4994 67.696C88.3714 68.592 88.3074 69.488 88.3074 70.384C88.3074 72.88 88.8834 75.088 90.0354 77.008C91.1874 78.864 92.6914 79.792 94.5474 79.792C95.4434 79.792 96.4034 79.536 97.4274 79.024C98.5154 78.512 99.6354 77.648 100.787 76.432C102.067 75.152 103.347 73.328 104.627 70.96C105.971 68.592 107.315 66 108.659 63.184C108.915 62.672 109.203 62.416 109.523 62.416C109.907 62.416 110.099 62.672 110.099 63.184C110.099 63.44 110.003 63.76 109.811 64.144C107.955 68.432 106.163 71.856 104.435 74.416C102.771 76.912 101.139 78.8 99.5394 80.08C98.0034 81.296 96.4994 82.064 95.0274 82.384C93.5554 82.704 92.0834 82.8 90.6114 82.672ZM111.276 82C110.572 82 109.708 81.84 108.684 81.52C107.724 81.2 106.86 80.624 106.092 79.792C105.388 78.896 105.036 77.584 105.036 75.856C105.036 74.192 105.42 72.592 106.188 71.056C107.02 69.456 107.788 67.92 108.492 66.448C108.3 66.448 108.076 66.384 107.82 66.256C107.628 66.128 107.532 65.936 107.532 65.68C107.532 65.424 107.596 65.168 107.724 64.912C107.98 64.4 108.268 63.856 108.588 63.28C108.908 62.704 109.196 62.096 109.452 61.456C110.412 59.472 111.372 57.584 112.332 55.792C113.292 53.936 114.124 52.304 114.828 50.896C115.532 49.488 116.748 48.784 118.476 48.784H124.428C123.34 49.616 122.348 50.544 121.452 51.568C120.62 52.528 119.564 54.32 118.284 56.944C118.284 56.944 118.06 57.392 117.612 58.288C117.164 59.184 116.588 60.336 115.884 61.744C115.244 63.088 114.572 64.464 113.868 65.872C113.228 67.28 112.684 68.464 112.236 69.424C111.404 71.216 110.86 72.656 110.604 73.744C110.348 74.768 110.22 75.728 110.22 76.624C110.22 78.736 110.924 79.792 112.332 79.792C113.868 79.792 115.724 78.544 117.9 76.048C119.692 73.936 121.452 71.408 123.18 68.464C124.908 65.52 126.54 62.48 128.076 59.344C129.676 56.208 131.084 53.392 132.3 50.896C133.004 49.488 134.252 48.784 136.044 48.784H141.324C140.364 49.552 139.564 50.288 138.924 50.992C138.284 51.632 137.644 52.528 137.004 53.68C136.428 54.768 135.628 56.336 134.604 58.384C133.772 60.112 132.876 61.968 131.916 63.952C131.02 65.872 130.22 67.696 129.516 69.424C128.812 71.152 128.364 72.56 128.172 73.648C128.108 74.288 128.044 74.768 127.98 75.088C127.916 75.408 127.884 75.76 127.884 76.144C127.884 77.36 128.076 78.224 128.46 78.736C128.908 79.248 129.42 79.504 129.996 79.504C131.532 79.504 133.068 78.64 134.604 76.912C136.204 75.184 137.708 73.072 139.116 70.576C140.588 68.08 141.836 65.712 142.86 63.472C143.244 62.768 143.596 62.416 143.916 62.416C144.3 62.416 144.492 62.64 144.492 63.088C144.492 63.408 144.364 63.792 144.108 64.24C143.404 65.776 142.54 67.536 141.516 69.52C140.492 71.504 139.34 73.456 138.06 75.376C136.78 77.296 135.372 78.896 133.836 80.176C132.3 81.392 130.636 82 128.844 82C127.244 82 125.932 81.424 124.908 80.272C123.884 79.056 123.372 77.36 123.372 75.184C123.372 73.456 123.692 71.6 124.332 69.616C123.244 71.536 121.996 73.456 120.588 75.376C119.18 77.296 117.676 78.896 116.076 80.176C114.476 81.392 112.876 82 111.276 82ZM197.114 90.832C190.842 90.832 185.082 89.904 179.834 88.048C174.65 86.192 170.458 83.472 167.258 79.888C164.058 76.24 162.298 71.76 161.978 66.448C161.85 64.272 162.202 61.872 163.034 59.248C163.866 56.624 165.018 54.032 166.49 51.472C168.026 48.848 169.818 46.512 171.866 44.464C173.978 42.352 176.218 40.752 178.586 39.664C178.778 39.536 179.066 39.44 179.45 39.376C179.898 39.312 180.218 39.28 180.41 39.28C180.794 39.28 180.986 39.376 180.986 39.568C180.986 39.888 180.506 40.4 179.546 41.104C176.858 43.216 174.65 45.648 172.922 48.4C171.13 51.152 169.786 54.096 168.89 57.232C167.994 60.368 167.546 63.536 167.546 66.736C167.546 70.512 168.346 73.776 169.946 76.528C171.61 79.216 173.818 81.424 176.57 83.152C179.322 84.944 182.458 86.256 185.978 87.088C189.498 87.92 193.178 88.336 197.018 88.336C201.306 88.336 205.53 87.856 209.69 86.896C213.914 85.936 217.754 84.56 221.21 82.768C226.522 79.952 230.714 76.464 233.786 72.304C236.922 68.144 238.49 64.016 238.49 59.92C238.49 57.744 238.01 55.664 237.05 53.68C236.154 51.696 234.682 49.904 232.634 48.304C231.098 47.088 229.21 45.936 226.97 44.848C224.794 43.76 222.458 42.704 219.962 41.68C217.53 40.656 215.13 39.632 212.762 38.608C210.394 37.52 208.314 36.368 206.522 35.152C203.962 33.424 202.074 31.568 200.858 29.584C199.706 27.6 199.13 25.616 199.13 23.632C199.13 21.264 199.802 18.96 201.146 16.72C202.554 14.48 204.442 12.464 206.81 10.672C209.242 8.816 211.962 7.376 214.97 6.352C217.594 5.456 220.442 4.752 223.514 4.23999C226.65 3.728 229.722 3.472 232.73 3.472C235.226 3.472 237.594 3.664 239.834 4.048C242.138 4.368 244.154 4.976 245.882 5.872C248.058 6.896 249.722 8.272 250.874 9.99999C252.026 11.664 252.602 13.424 252.602 15.28C252.602 17.84 251.45 20.08 249.146 22C248.314 22.64 247.386 23.248 246.362 23.824C245.338 24.336 244.122 24.784 242.714 25.168C242.458 25.232 242.17 25.264 241.85 25.264C241.082 25.264 240.698 25.04 240.698 24.592C240.698 24.336 240.89 24.08 241.274 23.824C241.722 23.504 242.362 23.312 243.194 23.248C245.114 22.992 246.554 22.256 247.514 21.04C248.538 19.824 249.05 18.416 249.05 16.816C249.05 15.152 248.474 13.52 247.322 11.92C246.234 10.256 244.538 8.88 242.234 7.79199C239.93 6.64 236.986 6.064 233.402 6.064C231.354 6.064 229.082 6.288 226.586 6.736C224.154 7.184 221.498 7.92 218.618 8.944C215.098 10.16 212.154 11.952 209.786 14.32C207.482 16.688 206.33 19.216 206.33 21.904C206.33 23.568 206.874 25.264 207.962 26.992C209.114 28.656 210.938 30.256 213.434 31.792C215.546 33.072 217.946 34.352 220.634 35.632C223.322 36.848 226.042 38.096 228.794 39.376C231.546 40.592 234.042 41.904 236.282 43.312C239.802 45.488 242.33 47.824 243.866 50.32C245.402 52.816 246.17 55.376 246.17 58C246.17 61.072 245.242 64.176 243.386 67.312C241.594 70.384 239.226 73.296 236.282 76.048C233.338 78.736 230.106 81.136 226.586 83.248C222.49 85.68 217.85 87.536 212.666 88.816C207.546 90.16 202.362 90.832 197.114 90.832ZM275.378 82.288C274.674 82.352 273.874 82.192 272.978 81.808C272.082 81.424 271.282 80.72 270.578 79.696C269.938 78.672 269.618 77.232 269.618 75.376C269.618 73.84 269.906 71.984 270.482 69.808C269.714 71.024 268.722 72.528 267.506 74.32C266.29 76.048 264.978 77.584 263.57 78.928C262.354 80.08 261.202 80.912 260.114 81.424C259.026 81.936 258.034 82.192 257.138 82.192C255.474 82.192 254.13 81.456 253.106 79.984C252.082 78.448 251.57 76.464 251.57 74.032C251.57 71.472 252.21 68.56 253.49 65.296C254.77 62.032 256.85 58.64 259.73 55.12C261.586 52.88 263.826 51.088 266.45 49.744C269.138 48.336 271.762 47.632 274.322 47.632C275.794 47.632 277.202 47.888 278.546 48.4C279.89 48.848 281.074 49.616 282.098 50.704C282.546 51.152 282.77 51.664 282.77 52.24C282.77 52.624 282.61 52.944 282.29 53.2C281.97 53.456 281.554 53.52 281.042 53.392C280.338 51.152 278.834 50.032 276.53 50.032C275.442 50.032 274.194 50.384 272.786 51.088C270.61 52.24 268.338 54.128 265.97 56.752C263.666 59.376 261.65 62.096 259.922 64.912C259.666 65.296 259.25 66.032 258.674 67.12C258.162 68.208 257.65 69.424 257.138 70.768C256.626 72.112 256.274 73.424 256.082 74.704C256.018 75.088 255.986 75.376 255.986 75.568C255.986 75.696 255.986 75.92 255.986 76.24C255.986 78.352 256.786 79.408 258.386 79.408C260.306 79.408 262.482 78 264.914 75.184C266.578 73.136 268.082 70.992 269.426 68.752C270.77 66.512 272.146 64.112 273.554 61.552C274.514 59.824 275.41 58.384 276.242 57.232C277.074 56.08 278.258 55.504 279.794 55.504C280.498 55.504 281.202 55.6 281.906 55.792C282.61 55.984 283.346 56.016 284.114 55.888C283.602 56.4 282.898 57.36 282.002 58.768C281.17 60.176 280.274 61.776 279.314 63.568C278.354 65.36 277.49 67.184 276.722 69.04C275.954 70.896 275.41 72.496 275.09 73.84C275.026 74.224 274.93 74.768 274.802 75.472C274.738 76.176 274.706 76.688 274.706 77.008C274.706 78.8 275.218 79.696 276.242 79.696C277.266 79.696 278.354 79.088 279.506 77.872C280.722 76.656 281.906 75.152 283.058 73.36C284.21 71.568 285.266 69.776 286.226 67.984C287.186 66.128 287.954 64.624 288.53 63.472C288.786 62.832 289.17 62.512 289.682 62.512C290.002 62.512 290.162 62.736 290.162 63.184C290.162 63.376 290.066 63.728 289.874 64.24C289.106 65.84 288.178 67.664 287.09 69.712C286.002 71.696 284.818 73.648 283.538 75.568C282.258 77.424 280.914 78.992 279.506 80.272C278.162 81.488 276.786 82.16 275.378 82.288ZM279.272 82.768C281.576 78.096 283.784 73.488 285.896 68.944C288.072 64.336 290.28 59.952 292.52 55.792C293.8 53.488 294.856 51.888 295.688 50.992C296.584 50.032 297.768 49.552 299.24 49.552C299.752 49.552 300.296 49.648 300.872 49.84C301.448 49.968 302.024 50.032 302.6 50.032C302.984 50.032 303.272 50 303.464 49.936C302.568 50.448 301.416 51.728 300.008 53.776C298.6 55.76 297.16 58.064 295.688 60.688C294.216 63.312 292.904 65.776 291.752 68.08C292.968 66.608 294.216 65.136 295.496 63.664C296.84 62.192 298.312 60.784 299.912 59.44C301.448 58.096 303.272 56.72 305.384 55.312C307.56 53.84 309.672 52.624 311.72 51.664C313.768 50.704 315.4 50.224 316.616 50.224C317.064 50.224 317.384 50.256 317.576 50.32C317.576 50.32 317.224 50.96 316.52 52.24C315.816 53.456 314.92 55.088 313.832 57.136C312.808 59.12 311.752 61.264 310.664 63.568C309.576 65.808 308.584 67.984 307.688 70.096C306.856 72.144 306.312 73.872 306.056 75.28C305.864 76.112 305.768 76.88 305.768 77.584C305.768 78.608 305.96 79.28 306.344 79.6C306.728 79.92 307.144 80.08 307.592 80.08C308.808 80.08 310.088 79.44 311.432 78.16C312.776 76.816 314.056 75.184 315.272 73.264C316.552 71.344 317.672 69.488 318.632 67.696C319.656 65.84 320.392 64.432 320.84 63.472C321.096 62.96 321.288 62.672 321.416 62.608C321.544 62.48 321.736 62.416 321.992 62.416C322.376 62.416 322.568 62.672 322.568 63.184C322.568 63.504 322.472 63.856 322.28 64.24C321.512 65.712 320.584 67.472 319.496 69.52C318.472 71.568 317.288 73.584 315.944 75.568C314.6 77.488 313.128 79.12 311.528 80.464C309.928 81.744 308.2 82.384 306.344 82.384C305.064 82.384 303.72 81.936 302.312 81.04C300.968 80.144 300.296 78.48 300.296 76.048C300.296 75.344 300.36 74.608 300.488 73.84C300.616 73.008 300.84 72.112 301.16 71.152C301.672 69.872 302.28 68.496 302.984 67.024C303.688 65.552 304.84 63.536 306.44 60.976C306.888 60.272 307.144 59.728 307.208 59.344C307.336 58.96 307.4 58.64 307.4 58.384C307.4 57.616 307.048 57.232 306.344 57.232C305.768 57.232 304.904 57.552 303.752 58.192C302.664 58.832 301.288 59.952 299.624 61.552C298.024 63.088 296.104 65.264 293.864 68.08C291.688 70.896 289.16 75.056 286.28 80.56C285.832 81.392 285.32 81.84 284.744 81.904C284.232 81.968 283.496 82.032 282.536 82.096C281.896 82.16 281.288 82.192 280.712 82.192C280.136 82.256 279.656 82.448 279.272 82.768ZM314.114 112.624C308.034 112.624 304.994 110.128 304.994 105.136C304.994 102.768 305.826 100.656 307.49 98.8C309.154 96.944 311.138 95.344 313.442 94C316.642 92.08 319.746 90.544 322.754 89.392C325.762 88.24 328.61 87.216 331.298 86.32C334.05 85.488 336.642 84.56 339.074 83.536C340.226 80.144 340.994 76.592 341.378 72.88C341.57 70.96 341.666 69.296 341.666 67.888C341.666 66.416 341.57 65.456 341.378 65.008C340.674 66.352 339.746 67.984 338.594 69.904C337.442 71.824 336.13 73.712 334.658 75.568C333.186 77.36 331.586 78.864 329.858 80.08C328.194 81.296 326.466 81.904 324.674 81.904C324.034 81.904 323.426 81.808 322.85 81.616C321.058 80.848 319.746 79.76 318.914 78.352C318.146 76.944 317.762 75.344 317.762 73.552C317.762 70.672 318.594 67.568 320.258 64.24C321.922 60.912 323.906 57.872 326.21 55.12C328.066 52.88 330.242 51.088 332.738 49.744C335.234 48.4 337.762 47.728 340.322 47.728C343.266 47.728 346.018 48.72 348.578 50.704C349.538 51.472 350.018 52.304 350.018 53.2C350.018 54.16 349.634 54.64 348.866 54.64C348.226 54.64 347.778 54.224 347.522 53.392C346.626 51.024 345.186 49.84 343.202 49.84C341.602 49.84 339.778 50.544 337.73 51.952C335.682 53.296 333.762 54.992 331.97 57.04C330.434 58.768 328.93 60.752 327.458 62.992C326.05 65.232 324.866 67.44 323.906 69.616C323.01 71.792 322.562 73.68 322.562 75.28C322.562 76.368 322.818 77.296 323.33 78.064C323.842 78.832 324.642 79.216 325.73 79.216C327.202 79.216 328.738 78.512 330.338 77.104C332.002 75.696 333.57 73.968 335.042 71.92C336.578 69.872 337.89 67.792 338.978 65.68C340.13 63.568 340.93 61.808 341.378 60.4C341.826 58.928 342.434 58.032 343.202 57.712C343.97 57.328 344.738 57.136 345.506 57.136C346.274 57.136 346.914 56.944 347.426 56.56C347.682 57.968 347.842 59.408 347.906 60.88C348.034 62.288 348.098 63.728 348.098 65.2C348.098 70.128 347.458 75.088 346.178 80.08C347.33 79.184 348.514 78.224 349.73 77.2C351.01 76.112 352.098 74.96 352.994 73.744C354.594 71.568 355.778 69.584 356.546 67.792C357.378 65.936 358.018 64.496 358.466 63.472C358.85 62.832 359.266 62.512 359.714 62.512C360.098 62.512 360.29 62.704 360.29 63.088C360.29 63.408 360.162 63.792 359.906 64.24C358.306 67.632 356.834 70.544 355.49 72.976C354.146 75.344 352.674 77.36 351.074 79.024C349.474 80.624 347.49 82 345.122 83.152C344.098 86.224 342.562 89.456 340.514 92.848C338.466 96.24 336.066 99.44 333.314 102.448C330.562 105.456 327.554 107.888 324.29 109.744C321.026 111.664 317.634 112.624 314.114 112.624ZM311.81 110.704C313.218 110.704 314.69 110.384 316.226 109.744C317.826 109.168 319.33 108.464 320.738 107.632C322.146 106.8 323.234 106.096 324.002 105.52C325.474 104.368 326.978 102.928 328.514 101.2C330.05 99.472 331.394 97.808 332.546 96.208C333.634 94.672 334.658 93.04 335.618 91.312C336.642 89.648 337.506 87.984 338.21 86.32C337.698 86.512 337.058 86.736 336.29 86.992C335.586 87.248 335.074 87.44 334.754 87.568C332.642 88.272 330.306 89.072 327.746 89.968C325.25 90.928 322.754 91.952 320.258 93.04C317.762 94.192 315.49 95.44 313.442 96.784C311.65 98 310.178 99.6 309.026 101.584C307.81 103.568 307.202 105.296 307.202 106.768C307.202 107.856 307.586 108.784 308.354 109.552C309.058 110.32 310.21 110.704 311.81 110.704ZM379.159 82.288C378.455 82.352 377.655 82.192 376.759 81.808C375.863 81.424 375.063 80.72 374.359 79.696C373.719 78.672 373.399 77.232 373.399 75.376C373.399 73.84 373.687 71.984 374.263 69.808C373.495 71.024 372.503 72.528 371.287 74.32C370.071 76.048 368.759 77.584 367.351 78.928C366.135 80.08 364.983 80.912 363.895 81.424C362.807 81.936 361.815 82.192 360.919 82.192C359.255 82.192 357.911 81.456 356.887 79.984C355.863 78.448 355.351 76.464 355.351 74.032C355.351 71.472 355.991 68.56 357.271 65.296C358.551 62.032 360.631 58.64 363.511 55.12C365.367 52.88 367.607 51.088 370.231 49.744C372.919 48.336 375.543 47.632 378.103 47.632C379.575 47.632 380.983 47.888 382.327 48.4C383.671 48.848 384.855 49.616 385.879 50.704C386.327 51.152 386.551 51.664 386.551 52.24C386.551 52.624 386.391 52.944 386.071 53.2C385.751 53.456 385.335 53.52 384.823 53.392C384.119 51.152 382.615 50.032 380.311 50.032C379.223 50.032 377.975 50.384 376.567 51.088C374.391 52.24 372.119 54.128 369.751 56.752C367.447 59.376 365.431 62.096 363.703 64.912C363.447 65.296 363.031 66.032 362.455 67.12C361.943 68.208 361.431 69.424 360.919 70.768C360.407 72.112 360.055 73.424 359.863 74.704C359.799 75.088 359.767 75.376 359.767 75.568C359.767 75.696 359.767 75.92 359.767 76.24C359.767 78.352 360.567 79.408 362.167 79.408C364.087 79.408 366.263 78 368.695 75.184C370.359 73.136 371.863 70.992 373.207 68.752C374.551 66.512 375.927 64.112 377.335 61.552C378.295 59.824 379.191 58.384 380.023 57.232C380.855 56.08 382.039 55.504 383.575 55.504C384.279 55.504 384.983 55.6 385.687 55.792C386.391 55.984 387.127 56.016 387.895 55.888C387.383 56.4 386.679 57.36 385.783 58.768C384.951 60.176 384.055 61.776 383.095 63.568C382.135 65.36 381.271 67.184 380.503 69.04C379.735 70.896 379.191 72.496 378.871 73.84C378.807 74.224 378.711 74.768 378.583 75.472C378.519 76.176 378.487 76.688 378.487 77.008C378.487 78.8 378.999 79.696 380.023 79.696C381.047 79.696 382.135 79.088 383.287 77.872C384.503 76.656 385.687 75.152 386.839 73.36C387.991 71.568 389.047 69.776 390.007 67.984C390.967 66.128 391.735 64.624 392.311 63.472C392.567 62.832 392.951 62.512 393.463 62.512C393.783 62.512 393.943 62.736 393.943 63.184C393.943 63.376 393.847 63.728 393.655 64.24C392.887 65.84 391.959 67.664 390.871 69.712C389.783 71.696 388.599 73.648 387.319 75.568C386.039 77.424 384.695 78.992 383.287 80.272C381.943 81.488 380.567 82.16 379.159 82.288ZM396.877 82C395.085 82 393.485 81.392 392.077 80.176C390.669 78.896 389.965 76.912 389.965 74.224C389.965 72.112 390.349 69.52 391.117 66.448C391.949 63.312 392.941 60.08 394.093 56.752C395.309 53.36 396.493 50.288 397.645 47.536H392.557C392.109 47.536 391.885 47.216 391.885 46.576C391.885 46.256 391.949 45.968 392.077 45.712C392.269 45.456 392.525 45.328 392.845 45.328H398.605C399.693 42.896 400.845 40.528 402.061 38.224C403.277 35.92 404.461 33.744 405.613 31.696C407.085 29.136 408.653 27.216 410.317 25.936C411.981 24.656 413.421 24.016 414.637 24.016C415.597 24.016 416.397 24.4 417.037 25.168C417.677 25.872 417.997 26.96 417.997 28.432C417.997 29.328 417.805 30.576 417.421 32.176C417.037 33.712 416.429 35.344 415.597 37.072C415.149 37.968 414.509 39.248 413.677 40.912C412.909 42.576 412.141 44.048 411.373 45.328H415.981C416.429 45.328 416.653 45.648 416.653 46.288C416.653 46.544 416.589 46.832 416.461 47.152C416.333 47.408 416.141 47.536 415.885 47.536H410.221C408.621 50.288 406.797 52.976 404.749 55.6C402.701 58.224 400.269 60.848 397.453 63.472C397.261 64.048 397.005 64.88 396.685 65.968C396.429 67.056 396.173 68.176 395.917 69.328C395.725 70.416 395.533 71.344 395.341 72.112C395.213 72.88 395.149 73.264 395.149 73.264C394.957 74.096 394.861 74.864 394.861 75.568C394.861 76.912 395.181 77.904 395.821 78.544C396.461 79.12 397.197 79.408 398.029 79.408C398.541 79.408 399.053 79.344 399.565 79.216C400.077 79.024 400.653 78.704 401.293 78.256C403.533 76.656 405.485 74.48 407.149 71.728C408.877 68.976 410.381 66.32 411.661 63.76C412.045 62.992 412.429 62.608 412.813 62.608C413.069 62.608 413.197 62.8 413.197 63.184C413.197 63.376 413.101 63.728 412.909 64.24C411.501 67.184 410.317 69.552 409.357 71.344C408.397 73.136 407.469 74.64 406.573 75.856C405.677 77.008 404.621 78.16 403.405 79.312C402.509 80.208 401.485 80.88 400.333 81.328C399.181 81.776 398.029 82 396.877 82ZM404.461 45.328H409.357C410.253 43.664 411.085 42.032 411.853 40.432C412.685 38.832 413.421 37.232 414.061 35.632C414.509 34.608 414.893 33.456 415.213 32.176C415.533 30.896 415.693 29.904 415.693 29.2C415.693 28.24 415.469 27.76 415.021 27.76C414.701 27.76 414.221 28.048 413.581 28.624C413.005 29.136 412.269 30.032 411.373 31.312C410.221 32.912 409.069 34.992 407.917 37.552C406.829 40.048 405.677 42.64 404.461 45.328ZM398.221 60.4C400.077 58.48 401.805 56.432 403.405 54.256C405.069 52.08 406.605 49.84 408.013 47.536H403.501C402.477 49.904 401.517 52.208 400.621 54.448C399.725 56.688 398.925 58.672 398.221 60.4ZM465.895 90.832C459.623 90.832 453.863 89.904 448.615 88.048C443.431 86.192 439.239 83.472 436.039 79.888C432.839 76.24 431.079 71.76 430.759 66.448C430.631 64.272 430.983 61.872 431.815 59.248C432.647 56.624 433.799 54.032 435.271 51.472C436.807 48.848 438.599 46.512 440.647 44.464C442.759 42.352 444.999 40.752 447.367 39.664C447.559 39.536 447.847 39.44 448.231 39.376C448.679 39.312 448.999 39.28 449.191 39.28C449.575 39.28 449.767 39.376 449.767 39.568C449.767 39.888 449.287 40.4 448.327 41.104C445.639 43.216 443.431 45.648 441.703 48.4C439.911 51.152 438.567 54.096 437.671 57.232C436.775 60.368 436.327 63.536 436.327 66.736C436.327 70.512 437.127 73.776 438.727 76.528C440.391 79.216 442.599 81.424 445.351 83.152C448.103 84.944 451.239 86.256 454.759 87.088C458.279 87.92 461.959 88.336 465.799 88.336C470.087 88.336 474.311 87.856 478.471 86.896C482.695 85.936 486.535 84.56 489.991 82.768C495.303 79.952 499.495 76.464 502.567 72.304C505.703 68.144 507.271 64.016 507.271 59.92C507.271 57.744 506.791 55.664 505.831 53.68C504.935 51.696 503.463 49.904 501.415 48.304C499.879 47.088 497.991 45.936 495.751 44.848C493.575 43.76 491.239 42.704 488.743 41.68C486.311 40.656 483.911 39.632 481.543 38.608C479.175 37.52 477.095 36.368 475.303 35.152C472.743 33.424 470.855 31.568 469.639 29.584C468.487 27.6 467.911 25.616 467.911 23.632C467.911 21.264 468.583 18.96 469.927 16.72C471.335 14.48 473.223 12.464 475.591 10.672C478.023 8.816 480.743 7.376 483.751 6.352C486.375 5.456 489.223 4.752 492.295 4.23999C495.431 3.728 498.503 3.472 501.511 3.472C504.007 3.472 506.375 3.664 508.615 4.048C510.919 4.368 512.935 4.976 514.663 5.872C516.839 6.896 518.503 8.272 519.655 9.99999C520.807 11.664 521.383 13.424 521.383 15.28C521.383 17.84 520.231 20.08 517.927 22C517.095 22.64 516.167 23.248 515.143 23.824C514.119 24.336 512.903 24.784 511.495 25.168C511.239 25.232 510.951 25.264 510.631 25.264C509.863 25.264 509.479 25.04 509.479 24.592C509.479 24.336 509.671 24.08 510.055 23.824C510.503 23.504 511.143 23.312 511.975 23.248C513.895 22.992 515.335 22.256 516.295 21.04C517.319 19.824 517.831 18.416 517.831 16.816C517.831 15.152 517.255 13.52 516.103 11.92C515.015 10.256 513.319 8.88 511.015 7.79199C508.711 6.64 505.767 6.064 502.183 6.064C500.135 6.064 497.863 6.288 495.367 6.736C492.935 7.184 490.279 7.92 487.399 8.944C483.879 10.16 480.935 11.952 478.567 14.32C476.263 16.688 475.111 19.216 475.111 21.904C475.111 23.568 475.655 25.264 476.743 26.992C477.895 28.656 479.719 30.256 482.215 31.792C484.327 33.072 486.727 34.352 489.415 35.632C492.103 36.848 494.823 38.096 497.575 39.376C500.327 40.592 502.823 41.904 505.063 43.312C508.583 45.488 511.111 47.824 512.647 50.32C514.183 52.816 514.951 55.376 514.951 58C514.951 61.072 514.023 64.176 512.167 67.312C510.375 70.384 508.007 73.296 505.063 76.048C502.119 78.736 498.887 81.136 495.367 83.248C491.271 85.68 486.631 87.536 481.447 88.816C476.327 90.16 471.143 90.832 465.895 90.832ZM544.159 82.288C543.455 82.352 542.655 82.192 541.759 81.808C540.863 81.424 540.063 80.72 539.359 79.696C538.719 78.672 538.399 77.232 538.399 75.376C538.399 73.84 538.687 71.984 539.263 69.808C538.495 71.024 537.503 72.528 536.287 74.32C535.071 76.048 533.759 77.584 532.351 78.928C531.135 80.08 529.983 80.912 528.895 81.424C527.807 81.936 526.815 82.192 525.919 82.192C524.255 82.192 522.911 81.456 521.887 79.984C520.863 78.448 520.351 76.464 520.351 74.032C520.351 71.472 520.991 68.56 522.271 65.296C523.551 62.032 525.631 58.64 528.511 55.12C530.367 52.88 532.607 51.088 535.231 49.744C537.919 48.336 540.543 47.632 543.103 47.632C544.575 47.632 545.983 47.888 547.327 48.4C548.671 48.848 549.855 49.616 550.879 50.704C551.327 51.152 551.551 51.664 551.551 52.24C551.551 52.624 551.391 52.944 551.071 53.2C550.751 53.456 550.335 53.52 549.823 53.392C549.119 51.152 547.615 50.032 545.311 50.032C544.223 50.032 542.975 50.384 541.567 51.088C539.391 52.24 537.119 54.128 534.751 56.752C532.447 59.376 530.431 62.096 528.703 64.912C528.447 65.296 528.031 66.032 527.455 67.12C526.943 68.208 526.431 69.424 525.919 70.768C525.407 72.112 525.055 73.424 524.863 74.704C524.799 75.088 524.767 75.376 524.767 75.568C524.767 75.696 524.767 75.92 524.767 76.24C524.767 78.352 525.567 79.408 527.167 79.408C529.087 79.408 531.263 78 533.695 75.184C535.359 73.136 536.863 70.992 538.207 68.752C539.551 66.512 540.927 64.112 542.335 61.552C543.295 59.824 544.191 58.384 545.023 57.232C545.855 56.08 547.039 55.504 548.575 55.504C549.279 55.504 549.983 55.6 550.687 55.792C551.391 55.984 552.127 56.016 552.895 55.888C552.383 56.4 551.679 57.36 550.783 58.768C549.951 60.176 549.055 61.776 548.095 63.568C547.135 65.36 546.271 67.184 545.503 69.04C544.735 70.896 544.191 72.496 543.871 73.84C543.807 74.224 543.711 74.768 543.583 75.472C543.519 76.176 543.487 76.688 543.487 77.008C543.487 78.8 543.999 79.696 545.023 79.696C546.047 79.696 547.135 79.088 548.287 77.872C549.503 76.656 550.687 75.152 551.839 73.36C552.991 71.568 554.047 69.776 555.007 67.984C555.967 66.128 556.735 64.624 557.311 63.472C557.567 62.832 557.951 62.512 558.463 62.512C558.783 62.512 558.943 62.736 558.943 63.184C558.943 63.376 558.847 63.728 558.655 64.24C557.887 65.84 556.959 67.664 555.871 69.712C554.783 71.696 553.599 73.648 552.319 75.568C551.039 77.424 549.695 78.992 548.287 80.272C546.943 81.488 545.567 82.16 544.159 82.288ZM544.213 112.624C540.885 112.624 538.517 111.952 537.109 110.608C535.701 109.328 534.997 107.792 534.997 106C534.997 105.04 535.125 104.208 535.381 103.504C535.637 102.8 536.021 101.904 536.533 100.816C537.429 98.96 538.677 97.36 540.277 96.016C541.877 94.672 543.605 93.584 545.461 92.752C548.789 91.216 552.565 89.968 556.789 89.008C561.077 88.048 565.173 86.992 569.077 85.84C570.293 83.728 571.413 81.328 572.437 78.64C573.461 75.888 574.389 73.232 575.221 70.672C576.053 68.048 576.725 65.904 577.237 64.24C576.469 65.648 575.477 67.376 574.261 69.424C573.109 71.408 571.797 73.36 570.325 75.28C568.853 77.2 567.253 78.8 565.525 80.08C563.861 81.36 562.101 82 560.245 82C559.541 82 558.677 81.84 557.653 81.52C556.693 81.2 555.829 80.624 555.061 79.792C554.357 78.896 554.005 77.584 554.005 75.856C554.005 74.192 554.389 72.592 555.157 71.056C555.989 69.456 556.757 67.92 557.461 66.448C557.269 66.448 557.045 66.384 556.789 66.256C556.597 66.128 556.501 65.936 556.501 65.68C556.501 65.424 556.565 65.168 556.693 64.912C556.949 64.4 557.237 63.856 557.557 63.28C557.877 62.704 558.165 62.096 558.421 61.456C559.381 59.472 560.341 57.584 561.301 55.792C562.261 53.936 563.093 52.304 563.797 50.896C564.501 49.488 565.717 48.784 567.445 48.784H573.397C572.949 49.168 572.373 49.616 571.669 50.128C571.029 50.576 570.421 51.28 569.845 52.24C568.117 55.184 566.613 58.032 565.333 60.784C564.053 63.472 562.677 66.352 561.205 69.424C560.501 70.896 559.989 72.24 559.669 73.456C559.349 74.672 559.189 75.728 559.189 76.624C559.189 78.736 559.893 79.792 561.301 79.792C562.837 79.792 564.693 78.544 566.869 76.048C568.661 73.936 570.453 71.44 572.245 68.56C574.101 65.616 575.861 62.608 577.525 59.536C579.253 56.4 580.757 53.52 582.037 50.896C582.741 49.488 583.989 48.784 585.781 48.784H591.061C589.205 50.064 587.765 51.728 586.741 53.776C585.781 55.824 584.693 58.448 583.477 61.648C582.133 65.168 580.853 68.816 579.637 72.592C578.485 76.304 577.173 80.048 575.701 83.824C577.813 83.12 580.181 82.032 582.805 80.56C585.493 79.088 587.765 76.976 589.621 74.224C591.093 72.048 592.341 69.968 593.365 67.984C594.453 65.936 595.221 64.464 595.669 63.568C595.925 62.928 596.277 62.608 596.725 62.608C597.173 62.608 597.397 62.896 597.397 63.472C597.397 63.792 597.301 64.144 597.109 64.528C595.445 67.856 593.941 70.672 592.597 72.976C591.317 75.216 589.877 77.168 588.277 78.832C586.741 80.432 584.853 81.84 582.613 83.056C580.373 84.336 577.525 85.616 574.069 86.896C572.533 89.648 570.773 92.496 568.789 95.44C566.869 98.448 564.661 101.232 562.165 103.792C559.733 106.416 557.013 108.528 554.005 110.128C551.061 111.792 547.797 112.624 544.213 112.624ZM541.909 110.704C544.021 110.704 546.197 110.064 548.437 108.784C550.677 107.504 552.853 105.872 554.965 103.888C557.077 101.968 558.997 99.984 560.725 97.936C562.517 95.952 563.957 94.192 565.045 92.656C565.365 92.208 565.717 91.632 566.101 90.928C566.485 90.224 566.869 89.552 567.253 88.912C564.117 89.744 560.661 90.64 556.885 91.6C553.173 92.624 549.941 93.744 547.189 94.96C544.117 96.24 541.717 98.064 539.989 100.432C538.197 102.8 537.301 104.912 537.301 106.768C537.301 107.92 537.685 108.848 538.453 109.552C539.157 110.32 540.309 110.704 541.909 110.704ZM616.44 82.288C615.736 82.352 614.936 82.192 614.04 81.808C613.144 81.424 612.344 80.72 611.64 79.696C611 78.672 610.68 77.232 610.68 75.376C610.68 73.84 610.968 71.984 611.544 69.808C610.776 71.024 609.784 72.528 608.568 74.32C607.352 76.048 606.04 77.584 604.632 78.928C603.416 80.08 602.264 80.912 601.176 81.424C600.088 81.936 599.096 82.192 598.2 82.192C596.536 82.192 595.192 81.456 594.168 79.984C593.144 78.448 592.632 76.464 592.632 74.032C592.632 71.472 593.272 68.56 594.552 65.296C595.832 62.032 597.912 58.64 600.792 55.12C602.648 52.88 604.888 51.088 607.512 49.744C610.2 48.336 612.824 47.632 615.384 47.632C616.856 47.632 618.264 47.888 619.608 48.4C620.952 48.848 622.136 49.616 623.16 50.704C623.608 51.152 623.832 51.664 623.832 52.24C623.832 52.624 623.672 52.944 623.352 53.2C623.032 53.456 622.616 53.52 622.104 53.392C621.4 51.152 619.896 50.032 617.592 50.032C616.504 50.032 615.256 50.384 613.848 51.088C611.672 52.24 609.4 54.128 607.032 56.752C604.728 59.376 602.712 62.096 600.984 64.912C600.728 65.296 600.312 66.032 599.736 67.12C599.224 68.208 598.712 69.424 598.2 70.768C597.688 72.112 597.336 73.424 597.144 74.704C597.08 75.088 597.048 75.376 597.048 75.568C597.048 75.696 597.048 75.92 597.048 76.24C597.048 78.352 597.848 79.408 599.448 79.408C601.368 79.408 603.544 78 605.976 75.184C607.64 73.136 609.144 70.992 610.488 68.752C611.832 66.512 613.208 64.112 614.616 61.552C615.576 59.824 616.472 58.384 617.304 57.232C618.136 56.08 619.32 55.504 620.856 55.504C621.56 55.504 622.264 55.6 622.968 55.792C623.672 55.984 624.408 56.016 625.176 55.888C624.664 56.4 623.96 57.36 623.064 58.768C622.232 60.176 621.336 61.776 620.376 63.568C619.416 65.36 618.552 67.184 617.784 69.04C617.016 70.896 616.472 72.496 616.152 73.84C616.088 74.224 615.992 74.768 615.864 75.472C615.8 76.176 615.768 76.688 615.768 77.008C615.768 78.8 616.28 79.696 617.304 79.696C618.328 79.696 619.416 79.088 620.568 77.872C621.784 76.656 622.968 75.152 624.12 73.36C625.272 71.568 626.328 69.776 627.288 67.984C628.248 66.128 629.016 64.624 629.592 63.472C629.848 62.832 630.232 62.512 630.744 62.512C631.064 62.512 631.224 62.736 631.224 63.184C631.224 63.376 631.128 63.728 630.936 64.24C630.168 65.84 629.24 67.664 628.152 69.712C627.064 71.696 625.88 73.648 624.6 75.568C623.32 77.424 621.976 78.992 620.568 80.272C619.224 81.488 617.848 82.16 616.44 82.288ZM620.334 82.768C622.638 78.096 624.846 73.488 626.958 68.944C629.134 64.336 631.342 59.952 633.582 55.792C634.862 53.488 635.918 51.888 636.75 50.992C637.646 50.032 638.83 49.552 640.302 49.552C640.814 49.552 641.358 49.648 641.934 49.84C642.51 49.968 643.086 50.032 643.662 50.032C644.046 50.032 644.334 50 644.526 49.936C643.63 50.448 642.478 51.728 641.07 53.776C639.662 55.76 638.222 58.064 636.75 60.688C635.278 63.312 633.966 65.776 632.814 68.08C634.03 66.608 635.278 65.136 636.558 63.664C637.902 62.192 639.374 60.784 640.974 59.44C642.51 58.096 644.334 56.72 646.446 55.312C648.622 53.84 650.734 52.624 652.782 51.664C654.83 50.704 656.462 50.224 657.678 50.224C658.126 50.224 658.446 50.256 658.638 50.32C658.638 50.32 658.286 50.96 657.582 52.24C656.878 53.456 655.982 55.088 654.894 57.136C653.87 59.12 652.814 61.264 651.726 63.568C650.638 65.808 649.646 67.984 648.75 70.096C647.918 72.144 647.374 73.872 647.118 75.28C646.926 76.112 646.83 76.88 646.83 77.584C646.83 78.608 647.022 79.28 647.406 79.6C647.79 79.92 648.206 80.08 648.654 80.08C649.87 80.08 651.15 79.44 652.494 78.16C653.838 76.816 655.118 75.184 656.334 73.264C657.614 71.344 658.734 69.488 659.694 67.696C660.718 65.84 661.454 64.432 661.902 63.472C662.158 62.96 662.35 62.672 662.478 62.608C662.606 62.48 662.798 62.416 663.054 62.416C663.438 62.416 663.63 62.672 663.63 63.184C663.63 63.504 663.534 63.856 663.342 64.24C662.574 65.712 661.646 67.472 660.558 69.52C659.534 71.568 658.35 73.584 657.006 75.568C655.662 77.488 654.19 79.12 652.59 80.464C650.99 81.744 649.262 82.384 647.406 82.384C646.126 82.384 644.782 81.936 643.374 81.04C642.03 80.144 641.358 78.48 641.358 76.048C641.358 75.344 641.422 74.608 641.55 73.84C641.678 73.008 641.902 72.112 642.222 71.152C642.734 69.872 643.342 68.496 644.046 67.024C644.75 65.552 645.902 63.536 647.502 60.976C647.95 60.272 648.206 59.728 648.27 59.344C648.398 58.96 648.462 58.64 648.462 58.384C648.462 57.616 648.11 57.232 647.406 57.232C646.83 57.232 645.966 57.552 644.814 58.192C643.726 58.832 642.35 59.952 640.686 61.552C639.086 63.088 637.166 65.264 634.926 68.08C632.75 70.896 630.222 75.056 627.342 80.56C626.894 81.392 626.382 81.84 625.806 81.904C625.294 81.968 624.558 82.032 623.598 82.096C622.958 82.16 622.35 82.192 621.774 82.192C621.198 82.256 620.718 82.448 620.334 82.768ZM655.176 112.624C649.096 112.624 646.056 110.128 646.056 105.136C646.056 102.768 646.888 100.656 648.552 98.8C650.216 96.944 652.2 95.344 654.504 94C657.704 92.08 660.808 90.544 663.816 89.392C666.824 88.24 669.672 87.216 672.36 86.32C675.112 85.488 677.704 84.56 680.136 83.536C681.288 80.144 682.056 76.592 682.44 72.88C682.632 70.96 682.728 69.296 682.728 67.888C682.728 66.416 682.632 65.456 682.44 65.008C681.736 66.352 680.808 67.984 679.656 69.904C678.504 71.824 677.192 73.712 675.72 75.568C674.248 77.36 672.648 78.864 670.92 80.08C669.256 81.296 667.528 81.904 665.736 81.904C665.096 81.904 664.488 81.808 663.912 81.616C662.12 80.848 660.808 79.76 659.976 78.352C659.208 76.944 658.824 75.344 658.824 73.552C658.824 70.672 659.656 67.568 661.32 64.24C662.984 60.912 664.968 57.872 667.272 55.12C669.128 52.88 671.304 51.088 673.8 49.744C676.296 48.4 678.824 47.728 681.384 47.728C684.328 47.728 687.08 48.72 689.64 50.704C690.6 51.472 691.08 52.304 691.08 53.2C691.08 54.16 690.696 54.64 689.928 54.64C689.288 54.64 688.84 54.224 688.584 53.392C687.688 51.024 686.248 49.84 684.264 49.84C682.664 49.84 680.84 50.544 678.792 51.952C676.744 53.296 674.824 54.992 673.032 57.04C671.496 58.768 669.992 60.752 668.52 62.992C667.112 65.232 665.928 67.44 664.968 69.616C664.072 71.792 663.624 73.68 663.624 75.28C663.624 76.368 663.88 77.296 664.392 78.064C664.904 78.832 665.704 79.216 666.792 79.216C668.264 79.216 669.8 78.512 671.4 77.104C673.064 75.696 674.632 73.968 676.104 71.92C677.64 69.872 678.952 67.792 680.04 65.68C681.192 63.568 681.992 61.808 682.44 60.4C682.888 58.928 683.496 58.032 684.264 57.712C685.032 57.328 685.8 57.136 686.568 57.136C687.336 57.136 687.976 56.944 688.488 56.56C688.744 57.968 688.904 59.408 688.968 60.88C689.096 62.288 689.16 63.728 689.16 65.2C689.16 70.128 688.52 75.088 687.24 80.08C688.392 79.184 689.576 78.224 690.792 77.2C692.072 76.112 693.16 74.96 694.056 73.744C695.656 71.568 696.84 69.584 697.608 67.792C698.44 65.936 699.08 64.496 699.528 63.472C699.912 62.832 700.328 62.512 700.776 62.512C701.16 62.512 701.352 62.704 701.352 63.088C701.352 63.408 701.224 63.792 700.968 64.24C699.368 67.632 697.896 70.544 696.552 72.976C695.208 75.344 693.736 77.36 692.136 79.024C690.536 80.624 688.552 82 686.184 83.152C685.16 86.224 683.624 89.456 681.576 92.848C679.528 96.24 677.128 99.44 674.376 102.448C671.624 105.456 668.616 107.888 665.352 109.744C662.088 111.664 658.696 112.624 655.176 112.624ZM652.872 110.704C654.28 110.704 655.752 110.384 657.288 109.744C658.888 109.168 660.392 108.464 661.8 107.632C663.208 106.8 664.296 106.096 665.064 105.52C666.536 104.368 668.04 102.928 669.576 101.2C671.112 99.472 672.456 97.808 673.608 96.208C674.696 94.672 675.72 93.04 676.68 91.312C677.704 89.648 678.568 87.984 679.272 86.32C678.76 86.512 678.12 86.736 677.352 86.992C676.648 87.248 676.136 87.44 675.816 87.568C673.704 88.272 671.368 89.072 668.808 89.968C666.312 90.928 663.816 91.952 661.32 93.04C658.824 94.192 656.552 95.44 654.504 96.784C652.712 98 651.24 99.6 650.088 101.584C648.872 103.568 648.264 105.296 648.264 106.768C648.264 107.856 648.648 108.784 649.416 109.552C650.12 110.32 651.272 110.704 652.872 110.704ZM753.895 90.832C747.623 90.832 741.863 89.904 736.615 88.048C731.431 86.192 727.239 83.472 724.039 79.888C720.839 76.24 719.079 71.76 718.759 66.448C718.631 64.272 718.983 61.872 719.815 59.248C720.647 56.624 721.799 54.032 723.271 51.472C724.807 48.848 726.599 46.512 728.647 44.464C730.759 42.352 732.999 40.752 735.367 39.664C735.559 39.536 735.847 39.44 736.231 39.376C736.679 39.312 736.999 39.28 737.191 39.28C737.575 39.28 737.767 39.376 737.767 39.568C737.767 39.888 737.287 40.4 736.327 41.104C733.639 43.216 731.431 45.648 729.703 48.4C727.911 51.152 726.567 54.096 725.671 57.232C724.775 60.368 724.327 63.536 724.327 66.736C724.327 70.512 725.127 73.776 726.727 76.528C728.391 79.216 730.599 81.424 733.351 83.152C736.103 84.944 739.239 86.256 742.759 87.088C746.279 87.92 749.959 88.336 753.799 88.336C758.087 88.336 762.311 87.856 766.471 86.896C770.695 85.936 774.535 84.56 777.991 82.768C783.303 79.952 787.495 76.464 790.567 72.304C793.703 68.144 795.271 64.016 795.271 59.92C795.271 57.744 794.791 55.664 793.831 53.68C792.935 51.696 791.463 49.904 789.415 48.304C787.879 47.088 785.991 45.936 783.751 44.848C781.575 43.76 779.239 42.704 776.743 41.68C774.311 40.656 771.911 39.632 769.543 38.608C767.175 37.52 765.095 36.368 763.303 35.152C760.743 33.424 758.855 31.568 757.639 29.584C756.487 27.6 755.911 25.616 755.911 23.632C755.911 21.264 756.583 18.96 757.927 16.72C759.335 14.48 761.223 12.464 763.591 10.672C766.023 8.816 768.743 7.376 771.751 6.352C774.375 5.456 777.223 4.752 780.295 4.23999C783.431 3.728 786.503 3.472 789.511 3.472C792.007 3.472 794.375 3.664 796.615 4.048C798.919 4.368 800.935 4.976 802.663 5.872C804.839 6.896 806.503 8.272 807.655 9.99999C808.807 11.664 809.383 13.424 809.383 15.28C809.383 17.84 808.231 20.08 805.927 22C805.095 22.64 804.167 23.248 803.143 23.824C802.119 24.336 800.903 24.784 799.495 25.168C799.239 25.232 798.951 25.264 798.631 25.264C797.863 25.264 797.479 25.04 797.479 24.592C797.479 24.336 797.671 24.08 798.055 23.824C798.503 23.504 799.143 23.312 799.975 23.248C801.895 22.992 803.335 22.256 804.295 21.04C805.319 19.824 805.831 18.416 805.831 16.816C805.831 15.152 805.255 13.52 804.103 11.92C803.015 10.256 801.319 8.88 799.015 7.79199C796.711 6.64 793.767 6.064 790.183 6.064C788.135 6.064 785.863 6.288 783.367 6.736C780.935 7.184 778.279 7.92 775.399 8.944C771.879 10.16 768.935 11.952 766.567 14.32C764.263 16.688 763.111 19.216 763.111 21.904C763.111 23.568 763.655 25.264 764.743 26.992C765.895 28.656 767.719 30.256 770.215 31.792C772.327 33.072 774.727 34.352 777.415 35.632C780.103 36.848 782.823 38.096 785.575 39.376C788.327 40.592 790.823 41.904 793.063 43.312C796.583 45.488 799.111 47.824 800.647 50.32C802.183 52.816 802.951 55.376 802.951 58C802.951 61.072 802.023 64.176 800.167 67.312C798.375 70.384 796.007 73.296 793.063 76.048C790.119 78.736 786.887 81.136 783.367 83.248C779.271 85.68 774.631 87.536 769.447 88.816C764.327 90.16 759.143 90.832 753.895 90.832ZM832.159 82.288C831.455 82.352 830.655 82.192 829.759 81.808C828.863 81.424 828.063 80.72 827.359 79.696C826.719 78.672 826.399 77.232 826.399 75.376C826.399 73.84 826.687 71.984 827.263 69.808C826.495 71.024 825.503 72.528 824.287 74.32C823.071 76.048 821.759 77.584 820.351 78.928C819.135 80.08 817.983 80.912 816.895 81.424C815.807 81.936 814.815 82.192 813.919 82.192C812.255 82.192 810.911 81.456 809.887 79.984C808.863 78.448 808.351 76.464 808.351 74.032C808.351 71.472 808.991 68.56 810.271 65.296C811.551 62.032 813.631 58.64 816.511 55.12C818.367 52.88 820.607 51.088 823.231 49.744C825.919 48.336 828.543 47.632 831.103 47.632C832.575 47.632 833.983 47.888 835.327 48.4C836.671 48.848 837.855 49.616 838.879 50.704C839.327 51.152 839.551 51.664 839.551 52.24C839.551 52.624 839.391 52.944 839.071 53.2C838.751 53.456 838.335 53.52 837.823 53.392C837.119 51.152 835.615 50.032 833.311 50.032C832.223 50.032 830.975 50.384 829.567 51.088C827.391 52.24 825.119 54.128 822.751 56.752C820.447 59.376 818.431 62.096 816.703 64.912C816.447 65.296 816.031 66.032 815.455 67.12C814.943 68.208 814.431 69.424 813.919 70.768C813.407 72.112 813.055 73.424 812.863 74.704C812.799 75.088 812.767 75.376 812.767 75.568C812.767 75.696 812.767 75.92 812.767 76.24C812.767 78.352 813.567 79.408 815.167 79.408C817.087 79.408 819.263 78 821.695 75.184C823.359 73.136 824.863 70.992 826.207 68.752C827.551 66.512 828.927 64.112 830.335 61.552C831.295 59.824 832.191 58.384 833.023 57.232C833.855 56.08 835.039 55.504 836.575 55.504C837.279 55.504 837.983 55.6 838.687 55.792C839.391 55.984 840.127 56.016 840.895 55.888C840.383 56.4 839.679 57.36 838.783 58.768C837.951 60.176 837.055 61.776 836.095 63.568C835.135 65.36 834.271 67.184 833.503 69.04C832.735 70.896 832.191 72.496 831.871 73.84C831.807 74.224 831.711 74.768 831.583 75.472C831.519 76.176 831.487 76.688 831.487 77.008C831.487 78.8 831.999 79.696 833.023 79.696C834.047 79.696 835.135 79.088 836.287 77.872C837.503 76.656 838.687 75.152 839.839 73.36C840.991 71.568 842.047 69.776 843.007 67.984C843.967 66.128 844.735 64.624 845.311 63.472C845.567 62.832 845.951 62.512 846.463 62.512C846.783 62.512 846.943 62.736 846.943 63.184C846.943 63.376 846.847 63.728 846.655 64.24C845.887 65.84 844.959 67.664 843.871 69.712C842.783 71.696 841.599 73.648 840.319 75.568C839.039 77.424 837.695 78.992 836.287 80.272C834.943 81.488 833.567 82.16 832.159 82.288ZM836.149 82.48C838.517 77.936 840.757 73.392 842.869 68.848C844.981 64.24 847.125 59.888 849.301 55.792C850.581 53.488 851.637 51.888 852.469 50.992C853.365 50.032 854.549 49.552 856.021 49.552C856.533 49.552 857.077 49.648 857.653 49.84C858.229 49.968 858.805 50.032 859.381 50.032C859.765 50.032 860.053 50 860.245 49.936C859.349 50.448 858.197 51.728 856.789 53.776C855.381 55.76 853.941 58.064 852.469 60.688C850.997 63.312 849.685 65.776 848.533 68.08C849.749 66.608 850.997 65.136 852.277 63.664C853.621 62.192 855.093 60.784 856.693 59.44C858.101 58.224 859.573 56.912 861.109 55.504C862.709 54.032 864.277 52.784 865.813 51.76C867.349 50.736 868.693 50.224 869.845 50.224C870.293 50.224 870.581 50.256 870.709 50.32C871.925 50.832 872.533 51.664 872.533 52.816C872.533 53.2 872.373 53.776 872.053 54.544C871.221 56.72 870.133 58.96 868.789 61.264C867.509 63.504 866.293 65.776 865.141 68.08C866.101 66.928 867.285 65.52 868.693 63.856C870.165 62.192 871.637 60.72 873.109 59.44C874.517 58.16 876.309 56.816 878.485 55.408C880.661 54 882.805 52.784 884.917 51.76C887.029 50.736 888.725 50.224 890.005 50.224C890.453 50.224 890.773 50.256 890.965 50.32C890.965 50.32 890.613 50.96 889.909 52.24C889.205 53.456 888.309 55.088 887.221 57.136C886.197 59.12 885.141 61.264 884.053 63.568C882.965 65.808 881.973 67.984 881.077 70.096C880.245 72.144 879.701 73.872 879.445 75.28C879.253 76.112 879.157 76.88 879.157 77.584C879.157 78.608 879.349 79.28 879.733 79.6C880.117 79.92 880.533 80.08 880.981 80.08C882.261 80.08 883.573 79.408 884.917 78.064C886.261 76.72 887.541 75.12 888.757 73.264C890.037 71.344 891.157 69.488 892.117 67.696C893.077 65.84 893.781 64.432 894.229 63.472C894.613 62.768 894.997 62.416 895.381 62.416C895.765 62.416 895.957 62.672 895.957 63.184C895.957 63.504 895.861 63.856 895.669 64.24C894.901 65.712 893.973 67.472 892.885 69.52C891.861 71.568 890.677 73.584 889.333 75.568C887.989 77.488 886.485 79.12 884.821 80.464C883.221 81.744 881.493 82.384 879.637 82.384C878.293 82.384 876.917 81.936 875.509 81.04C874.165 80.144 873.493 78.48 873.493 76.048C873.493 74.704 873.781 73.072 874.357 71.152C874.805 69.872 875.477 68.4 876.373 66.736C877.333 65.072 878.485 63.152 879.829 60.976C880.469 59.888 880.789 59.024 880.789 58.384C880.789 57.616 880.405 57.232 879.637 57.232C878.997 57.232 878.101 57.552 876.949 58.192C875.861 58.832 874.485 59.952 872.821 61.552C871.797 62.512 870.581 63.856 869.173 65.584C867.829 67.248 866.453 69.072 865.045 71.056C863.637 73.04 862.421 74.992 861.397 76.912C860.373 78.832 859.701 80.528 859.381 82C858.421 82 857.653 81.616 857.077 80.848C856.501 80.016 856.213 79.056 856.213 77.968C856.213 77.776 856.213 77.584 856.213 77.392C856.213 77.2 856.245 76.976 856.309 76.72C856.629 74.736 857.141 72.88 857.845 71.152C858.549 69.424 859.349 67.632 860.245 65.776C860.949 64.432 861.653 62.992 862.357 61.456C863.061 59.856 863.413 58.64 863.413 57.808C863.413 57.296 863.221 57.04 862.837 57.04C862.389 57.04 861.653 57.392 860.629 58.096C859.605 58.736 858.197 59.888 856.405 61.552C854.805 63.088 852.853 65.296 850.549 68.176C848.309 71.056 845.845 75.152 843.157 80.464C842.773 81.168 842.325 81.616 841.813 81.808C841.301 81.936 840.501 82 839.413 82C838.709 82 838.133 82 837.685 82C837.173 82.064 836.661 82.224 836.149 82.48ZM914.753 82.288C914.049 82.352 913.249 82.192 912.353 81.808C911.457 81.424 910.657 80.72 909.953 79.696C909.313 78.672 908.993 77.232 908.993 75.376C908.993 73.84 909.281 71.984 909.857 69.808C909.089 71.024 908.097 72.528 906.881 74.32C905.665 76.048 904.353 77.584 902.945 78.928C901.729 80.08 900.577 80.912 899.489 81.424C898.401 81.936 897.409 82.192 896.513 82.192C894.849 82.192 893.505 81.456 892.481 79.984C891.457 78.448 890.945 76.464 890.945 74.032C890.945 71.472 891.585 68.56 892.865 65.296C894.145 62.032 896.225 58.64 899.105 55.12C900.961 52.88 903.201 51.088 905.825 49.744C908.513 48.336 911.137 47.632 913.697 47.632C915.169 47.632 916.577 47.888 917.921 48.4C919.265 48.848 920.449 49.616 921.473 50.704C921.921 51.152 922.145 51.664 922.145 52.24C922.145 52.624 921.985 52.944 921.665 53.2C921.345 53.456 920.929 53.52 920.417 53.392C919.713 51.152 918.209 50.032 915.905 50.032C914.817 50.032 913.569 50.384 912.161 51.088C909.985 52.24 907.713 54.128 905.345 56.752C903.041 59.376 901.025 62.096 899.297 64.912C899.041 65.296 898.625 66.032 898.049 67.12C897.537 68.208 897.025 69.424 896.513 70.768C896.001 72.112 895.649 73.424 895.457 74.704C895.393 75.088 895.361 75.376 895.361 75.568C895.361 75.696 895.361 75.92 895.361 76.24C895.361 78.352 896.161 79.408 897.761 79.408C899.681 79.408 901.857 78 904.289 75.184C905.953 73.136 907.457 70.992 908.801 68.752C910.145 66.512 911.521 64.112 912.929 61.552C913.889 59.824 914.785 58.384 915.617 57.232C916.449 56.08 917.633 55.504 919.169 55.504C919.873 55.504 920.577 55.6 921.281 55.792C921.985 55.984 922.721 56.016 923.489 55.888C922.977 56.4 922.273 57.36 921.377 58.768C920.545 60.176 919.649 61.776 918.689 63.568C917.729 65.36 916.865 67.184 916.097 69.04C915.329 70.896 914.785 72.496 914.465 73.84C914.401 74.224 914.305 74.768 914.177 75.472C914.113 76.176 914.081 76.688 914.081 77.008C914.081 78.8 914.593 79.696 915.617 79.696C916.641 79.696 917.729 79.088 918.881 77.872C920.097 76.656 921.281 75.152 922.433 73.36C923.585 71.568 924.641 69.776 925.601 67.984C926.561 66.128 927.329 64.624 927.905 63.472C928.161 62.832 928.545 62.512 929.057 62.512C929.377 62.512 929.537 62.736 929.537 63.184C929.537 63.376 929.441 63.728 929.249 64.24C928.481 65.84 927.553 67.664 926.465 69.712C925.377 71.696 924.193 73.648 922.913 75.568C921.633 77.424 920.289 78.992 918.881 80.272C917.537 81.488 916.161 82.16 914.753 82.288ZM1061.95 99.76C1058.43 99.76 1055.17 98.96 1052.16 97.36C1049.22 95.76 1046.59 93.584 1044.29 90.832C1041.98 88.144 1040.06 85.104 1038.53 81.712C1037.25 78.832 1036.19 75.92 1035.36 72.976C1034.59 70.032 1034.02 67.28 1033.63 64.72C1033.25 62.16 1033.06 60.048 1033.06 58.384C1033.06 56.336 1033.28 55.184 1033.73 54.928C1034.94 55.056 1036.96 54.544 1039.78 53.392C1042.66 52.24 1046.05 50.544 1049.95 48.304C1053.92 46.064 1058.18 43.376 1062.72 40.24C1067.33 37.04 1071.94 33.456 1076.54 29.488C1081.22 25.52 1085.7 21.232 1089.98 16.624C1094.27 12.016 1098.05 7.184 1101.31 2.128C1102.08 0.911999 1102.82 0.303999 1103.52 0.303999C1104.1 0.303999 1104.38 0.655998 1104.38 1.36C1104.38 1.936 1104.16 2.576 1103.71 3.27999C1100.64 8.4 1096.99 13.424 1092.77 18.352C1088.54 23.216 1084.03 27.792 1079.23 32.08C1074.43 36.368 1069.6 40.24 1064.74 43.696C1059.94 47.152 1055.33 50.032 1050.91 52.336C1046.56 54.64 1042.72 56.208 1039.39 57.04C1039.2 56.912 1039.1 57.232 1039.1 58C1039.1 59.088 1039.33 60.848 1039.78 63.28C1040.22 65.648 1040.9 68.368 1041.79 71.44C1042.75 74.448 1043.9 77.52 1045.25 80.656C1047.3 85.456 1049.73 89.136 1052.54 91.696C1055.42 94.32 1058.72 95.632 1062.43 95.632C1064.93 95.632 1067.49 95.248 1070.11 94.48C1072.74 93.776 1075.14 92.656 1077.31 91.12C1079.49 89.648 1081.18 87.76 1082.4 85.456C1082.78 84.56 1083.23 84.112 1083.74 84.112C1084 84.112 1084.13 84.304 1084.13 84.688C1084.13 85.136 1083.97 85.648 1083.65 86.224C1082.5 88.592 1080.74 90.8 1078.37 92.848C1076 94.896 1073.34 96.56 1070.4 97.84C1067.52 99.12 1064.7 99.76 1061.95 99.76ZM980.736 98.512C976.384 98.512 972.16 97.904 968.064 96.688C964.032 95.536 960.384 93.808 957.12 91.504C953.92 89.2 951.36 86.384 949.44 83.056C947.584 79.728 946.656 75.952 946.656 71.728C946.656 70.576 946.752 69.392 946.944 68.176C947.136 66.896 947.392 65.584 947.712 64.24C948.352 61.936 949.376 59.952 950.784 58.288C952.256 56.56 953.76 55.216 955.296 54.256C956.832 53.232 957.984 52.688 958.752 52.624H959.04C959.68 52.624 960 52.816 960 53.2C960 53.52 959.84 53.776 959.52 53.968C958.944 54.224 957.952 54.96 956.544 56.176C955.2 57.328 953.856 58.96 952.512 61.072C951.168 63.12 950.304 65.584 949.92 68.464C949.728 69.68 949.632 70.832 949.632 71.92C949.632 75.76 950.464 79.056 952.128 81.808C953.792 84.496 955.968 86.704 958.656 88.432C961.344 90.16 964.288 91.408 967.488 92.176C970.688 93.008 973.824 93.424 976.896 93.424C978.112 93.424 979.296 93.36 980.448 93.232C981.6 93.168 982.688 93.008 983.712 92.752C990.624 91.216 996.608 88.752 1001.66 85.36C1006.78 81.968 1011.2 78.064 1014.91 73.648C1018.62 69.232 1021.76 64.688 1024.32 60.016C1026.94 55.344 1029.15 50.96 1030.94 46.864C1031.33 45.904 1031.97 44.4 1032.86 42.352C1033.82 40.304 1034.88 37.968 1036.03 35.344C1037.25 32.72 1038.46 30.064 1039.68 27.376C1040.96 24.688 1042.11 22.224 1043.14 19.984C1044.16 17.744 1044.99 16.016 1045.63 14.8C1041.34 15.312 1036.7 15.792 1031.71 16.24C1026.78 16.624 1022.08 17.456 1017.6 18.736C1012.61 20.144 1008.51 22.192 1005.31 24.88C1002.18 27.568 999.84 30.512 998.304 33.712C996.832 36.912 996.096 39.952 996.096 42.832C996.096 45.968 996.896 48.592 998.496 50.704C1000.1 52.816 1002.3 53.872 1005.12 53.872C1006.53 53.872 1008.03 53.584 1009.63 53.008C1011.49 52.368 1013.02 51.248 1014.24 49.648C1015.46 47.984 1016.35 46.128 1016.93 44.08C1017.57 41.968 1017.89 39.952 1017.89 38.032C1017.89 37.008 1017.79 36.016 1017.6 35.056V34.864C1017.6 34.608 1017.73 34.48 1017.98 34.48C1018.5 34.48 1018.94 34.864 1019.33 35.632C1019.65 36.272 1019.84 36.976 1019.9 37.744C1020.03 38.448 1020.1 39.152 1020.1 39.856C1020.1 41.904 1019.65 43.952 1018.75 46C1017.86 47.984 1016.67 49.776 1015.2 51.376C1013.73 52.976 1012.06 54.128 1010.21 54.832C1009.18 55.216 1008.19 55.504 1007.23 55.696C1006.27 55.824 1005.34 55.888 1004.45 55.888C1001.7 55.888 999.232 55.184 997.056 53.776C994.944 52.304 993.28 50.384 992.064 48.016C990.912 45.648 990.336 43.088 990.336 40.336C990.336 37.2 991.2 34.032 992.928 30.832C994.656 27.568 997.44 24.624 1001.28 22C1005.12 19.312 1010.18 17.264 1016.45 15.856C1021.7 14.704 1027.04 13.968 1032.48 13.648C1037.92 13.264 1042.72 12.88 1046.88 12.496C1047.14 12.112 1047.65 11.376 1048.42 10.288C1049.25 9.2 1050.18 8.112 1051.2 7.024C1052.29 5.872 1053.34 5.136 1054.37 4.816C1055.07 4.624 1055.68 4.528 1056.19 4.528C1057.34 4.528 1058.24 4.848 1058.88 5.488C1059.58 6.12799 1059.94 6.89599 1059.94 7.79199C1059.94 9.072 1059.04 10.448 1057.25 11.92C1055.52 13.328 1052.58 14.256 1048.42 14.704C1046.37 18.48 1044.48 22.672 1042.75 27.28C1041.02 31.824 1039.3 36.592 1037.57 41.584C1035.9 46.512 1034.05 51.472 1032 56.464C1030.02 61.392 1027.74 66.16 1025.18 70.768C1022.62 75.312 1019.58 79.472 1016.06 83.248C1012.61 87.024 1008.51 90.192 1003.78 92.752C999.104 95.312 993.664 97.072 987.456 98.032C986.368 98.16 985.248 98.256 984.096 98.32C982.944 98.448 981.824 98.512 980.736 98.512ZM1050.24 12.304C1052.22 11.984 1053.63 11.6 1054.46 11.152C1055.36 10.64 1056 10.128 1056.38 9.616C1056.83 9.104 1057.06 8.656 1057.06 8.272C1057.06 7.632 1056.74 7.31199 1056.1 7.31199C1055.52 7.31199 1054.82 7.632 1053.98 8.272C1053.34 8.72 1052.67 9.36 1051.97 10.192C1051.26 11.024 1050.69 11.728 1050.24 12.304ZM1083.88 82.288C1083.17 82.352 1082.37 82.192 1081.48 81.808C1080.58 81.424 1079.78 80.72 1079.08 79.696C1078.44 78.672 1078.12 77.232 1078.12 75.376C1078.12 73.84 1078.41 71.984 1078.98 69.808C1078.21 71.024 1077.22 72.528 1076.01 74.32C1074.79 76.048 1073.48 77.584 1072.07 78.928C1070.85 80.08 1069.7 80.912 1068.61 81.424C1067.53 81.936 1066.53 82.192 1065.64 82.192C1063.97 82.192 1062.63 81.456 1061.61 79.984C1060.58 78.448 1060.07 76.464 1060.07 74.032C1060.07 71.472 1060.71 68.56 1061.99 65.296C1063.27 62.032 1065.35 58.64 1068.23 55.12C1070.09 52.88 1072.33 51.088 1074.95 49.744C1077.64 48.336 1080.26 47.632 1082.82 47.632C1084.29 47.632 1085.7 47.888 1087.05 48.4C1088.39 48.848 1089.57 49.616 1090.6 50.704C1091.05 51.152 1091.27 51.664 1091.27 52.24C1091.27 52.624 1091.11 52.944 1090.79 53.2C1090.47 53.456 1090.05 53.52 1089.54 53.392C1088.84 51.152 1087.33 50.032 1085.03 50.032C1083.94 50.032 1082.69 50.384 1081.29 51.088C1079.11 52.24 1076.84 54.128 1074.47 56.752C1072.17 59.376 1070.15 62.096 1068.42 64.912C1068.17 65.296 1067.75 66.032 1067.17 67.12C1066.66 68.208 1066.15 69.424 1065.64 70.768C1065.13 72.112 1064.77 73.424 1064.58 74.704C1064.52 75.088 1064.49 75.376 1064.49 75.568C1064.49 75.696 1064.49 75.92 1064.49 76.24C1064.49 78.352 1065.29 79.408 1066.89 79.408C1068.81 79.408 1070.98 78 1073.41 75.184C1075.08 73.136 1076.58 70.992 1077.93 68.752C1079.27 66.512 1080.65 64.112 1082.05 61.552C1083.01 59.824 1083.91 58.384 1084.74 57.232C1085.57 56.08 1086.76 55.504 1088.29 55.504C1089 55.504 1089.7 55.6 1090.41 55.792C1091.11 55.984 1091.85 56.016 1092.61 55.888C1092.1 56.4 1091.4 57.36 1090.5 58.768C1089.67 60.176 1088.77 61.776 1087.81 63.568C1086.85 65.36 1085.99 67.184 1085.22 69.04C1084.45 70.896 1083.91 72.496 1083.59 73.84C1083.53 74.224 1083.43 74.768 1083.3 75.472C1083.24 76.176 1083.21 76.688 1083.21 77.008C1083.21 78.8 1083.72 79.696 1084.74 79.696C1085.77 79.696 1086.85 79.088 1088.01 77.872C1089.22 76.656 1090.41 75.152 1091.56 73.36C1092.71 71.568 1093.77 69.776 1094.73 67.984C1095.69 66.128 1096.45 64.624 1097.03 63.472C1097.29 62.832 1097.67 62.512 1098.18 62.512C1098.5 62.512 1098.66 62.736 1098.66 63.184C1098.66 63.376 1098.57 63.728 1098.37 64.24C1097.61 65.84 1096.68 67.664 1095.59 69.712C1094.5 71.696 1093.32 73.648 1092.04 75.568C1090.76 77.424 1089.41 78.992 1088.01 80.272C1086.66 81.488 1085.29 82.16 1083.88 82.288ZM1087.87 82.48C1090.24 77.936 1092.48 73.392 1094.59 68.848C1096.7 64.24 1098.84 59.888 1101.02 55.792C1102.3 53.488 1103.36 51.888 1104.19 50.992C1105.08 50.032 1106.27 49.552 1107.74 49.552C1108.25 49.552 1108.8 49.648 1109.37 49.84C1109.95 49.968 1110.52 50.032 1111.1 50.032C1111.48 50.032 1111.77 50 1111.96 49.936C1111.07 50.448 1109.92 51.728 1108.51 53.776C1107.1 55.76 1105.66 58.064 1104.19 60.688C1102.72 63.312 1101.4 65.776 1100.25 68.08C1101.47 66.608 1102.72 65.136 1104 63.664C1105.34 62.192 1106.81 60.784 1108.41 59.44C1109.82 58.224 1111.29 56.912 1112.83 55.504C1114.43 54.032 1116 52.784 1117.53 51.76C1119.07 50.736 1120.41 50.224 1121.56 50.224C1122.01 50.224 1122.3 50.256 1122.43 50.32C1123.64 50.832 1124.25 51.664 1124.25 52.816C1124.25 53.2 1124.09 53.776 1123.77 54.544C1122.94 56.72 1121.85 58.96 1120.51 61.264C1119.23 63.504 1118.01 65.776 1116.86 68.08C1117.82 66.928 1119 65.52 1120.41 63.856C1121.88 62.192 1123.36 60.72 1124.83 59.44C1126.24 58.16 1128.03 56.816 1130.2 55.408C1132.38 54 1134.52 52.784 1136.64 51.76C1138.75 50.736 1140.44 50.224 1141.72 50.224C1142.17 50.224 1142.49 50.256 1142.68 50.32C1142.68 50.32 1142.33 50.96 1141.63 52.24C1140.92 53.456 1140.03 55.088 1138.94 57.136C1137.92 59.12 1136.86 61.264 1135.77 63.568C1134.68 65.808 1133.69 67.984 1132.8 70.096C1131.96 72.144 1131.42 73.872 1131.16 75.28C1130.97 76.112 1130.88 76.88 1130.88 77.584C1130.88 78.608 1131.07 79.28 1131.45 79.6C1131.84 79.92 1132.25 80.08 1132.7 80.08C1133.98 80.08 1135.29 79.408 1136.64 78.064C1137.98 76.72 1139.26 75.12 1140.48 73.264C1141.76 71.344 1142.88 69.488 1143.84 67.696C1144.8 65.84 1145.5 64.432 1145.95 63.472C1146.33 62.768 1146.72 62.416 1147.1 62.416C1147.48 62.416 1147.68 62.672 1147.68 63.184C1147.68 63.504 1147.58 63.856 1147.39 64.24C1146.62 65.712 1145.69 67.472 1144.6 69.52C1143.58 71.568 1142.4 73.584 1141.05 75.568C1139.71 77.488 1138.2 79.12 1136.54 80.464C1134.94 81.744 1133.21 82.384 1131.36 82.384C1130.01 82.384 1128.64 81.936 1127.23 81.04C1125.88 80.144 1125.21 78.48 1125.21 76.048C1125.21 74.704 1125.5 73.072 1126.08 71.152C1126.52 69.872 1127.2 68.4 1128.09 66.736C1129.05 65.072 1130.2 63.152 1131.55 60.976C1132.19 59.888 1132.51 59.024 1132.51 58.384C1132.51 57.616 1132.12 57.232 1131.36 57.232C1130.72 57.232 1129.82 57.552 1128.67 58.192C1127.58 58.832 1126.2 59.952 1124.54 61.552C1123.52 62.512 1122.3 63.856 1120.89 65.584C1119.55 67.248 1118.17 69.072 1116.76 71.056C1115.36 73.04 1114.14 74.992 1113.12 76.912C1112.09 78.832 1111.42 80.528 1111.1 82C1110.14 82 1109.37 81.616 1108.8 80.848C1108.22 80.016 1107.93 79.056 1107.93 77.968C1107.93 77.776 1107.93 77.584 1107.93 77.392C1107.93 77.2 1107.96 76.976 1108.03 76.72C1108.35 74.736 1108.86 72.88 1109.56 71.152C1110.27 69.424 1111.07 67.632 1111.96 65.776C1112.67 64.432 1113.37 62.992 1114.08 61.456C1114.78 59.856 1115.13 58.64 1115.13 57.808C1115.13 57.296 1114.94 57.04 1114.56 57.04C1114.11 57.04 1113.37 57.392 1112.35 58.096C1111.32 58.736 1109.92 59.888 1108.12 61.552C1106.52 63.088 1104.57 65.296 1102.27 68.176C1100.03 71.056 1097.56 75.152 1094.88 80.464C1094.49 81.168 1094.04 81.616 1093.53 81.808C1093.02 81.936 1092.22 82 1091.13 82C1090.43 82 1089.85 82 1089.4 82C1088.89 82.064 1088.38 82.224 1087.87 82.48ZM1148.81 82C1148.1 82 1147.24 81.84 1146.22 81.52C1145.26 81.2 1144.39 80.624 1143.62 79.792C1142.92 78.896 1142.57 77.584 1142.57 75.856C1142.57 74.192 1142.95 72.592 1143.72 71.056C1144.55 69.456 1145.32 67.92 1146.02 66.448C1145.83 66.448 1145.61 66.384 1145.35 66.256C1145.16 66.128 1145.06 65.936 1145.06 65.68C1145.06 65.424 1145.13 65.168 1145.26 64.912C1145.51 64.4 1145.8 63.856 1146.12 63.28C1146.44 62.704 1146.73 62.096 1146.98 61.456C1147.94 59.472 1148.9 57.584 1149.86 55.792C1150.82 53.936 1151.66 52.304 1152.36 50.896C1153.06 49.488 1154.28 48.784 1156.01 48.784H1161.96C1160.87 49.616 1159.88 50.544 1158.98 51.568C1158.15 52.528 1157.1 54.32 1155.82 56.944C1155.82 56.944 1155.59 57.392 1155.14 58.288C1154.7 59.184 1154.12 60.336 1153.42 61.744C1152.78 63.088 1152.1 64.464 1151.4 65.872C1150.76 67.28 1150.22 68.464 1149.77 69.424C1148.94 71.216 1148.39 72.656 1148.14 73.744C1147.88 74.768 1147.75 75.728 1147.75 76.624C1147.75 78.736 1148.46 79.792 1149.86 79.792C1151.4 79.792 1153.26 78.544 1155.43 76.048C1157.22 73.936 1158.98 71.408 1160.71 68.464C1162.44 65.52 1164.07 62.48 1165.61 59.344C1167.21 56.208 1168.62 53.392 1169.83 50.896C1170.54 49.488 1171.78 48.784 1173.58 48.784H1178.86C1177.9 49.552 1177.1 50.288 1176.46 50.992C1175.82 51.632 1175.18 52.528 1174.54 53.68C1173.96 54.768 1173.16 56.336 1172.14 58.384C1171.3 60.112 1170.41 61.968 1169.45 63.952C1168.55 65.872 1167.75 67.696 1167.05 69.424C1166.34 71.152 1165.9 72.56 1165.7 73.648C1165.64 74.288 1165.58 74.768 1165.51 75.088C1165.45 75.408 1165.42 75.76 1165.42 76.144C1165.42 77.36 1165.61 78.224 1165.99 78.736C1166.44 79.248 1166.95 79.504 1167.53 79.504C1169.06 79.504 1170.6 78.64 1172.14 76.912C1173.74 75.184 1175.24 73.072 1176.65 70.576C1178.12 68.08 1179.37 65.712 1180.39 63.472C1180.78 62.768 1181.13 62.416 1181.45 62.416C1181.83 62.416 1182.02 62.64 1182.02 63.088C1182.02 63.408 1181.9 63.792 1181.64 64.24C1180.94 65.776 1180.07 67.536 1179.05 69.52C1178.02 71.504 1176.87 73.456 1175.59 75.376C1174.31 77.296 1172.9 78.896 1171.37 80.176C1169.83 81.392 1168.17 82 1166.38 82C1164.78 82 1163.46 81.424 1162.44 80.272C1161.42 79.056 1160.9 77.36 1160.9 75.184C1160.9 73.456 1161.22 71.6 1161.86 69.616C1160.78 71.536 1159.53 73.456 1158.12 75.376C1156.71 77.296 1155.21 78.896 1153.61 80.176C1152.01 81.392 1150.41 82 1148.81 82Z" fill="white"/>
</svg>
