<svg width="597" height="88" viewBox="0 0 597 88" fill="none" xmlns="http://www.w3.org/2000/svg">
<path d="M16.1505 82.744C14.7425 82.744 13.3025 82.648 11.8305 82.456C7.7985 81.944 4.8225 80.76 2.9025 78.904C1.0465 77.048 0.1185 75.032 0.1185 72.856C0.1185 70.488 1.1745 68.344 3.2865 66.424C5.3985 64.44 8.3745 63.448 12.2145 63.448C14.7745 63.448 17.5585 63.96 20.5665 64.984C22.2305 65.56 24.2145 66.52 26.5185 67.864C28.8225 69.208 31.4785 70.616 34.4865 72.088C37.6865 69.016 40.5985 65.208 43.2225 60.664C45.9105 56.12 48.5665 51.256 51.1905 46.072C53.8785 40.824 56.7585 35.576 59.8305 30.328C62.9665 25.08 66.5825 20.152 70.6785 15.544L76.2465 9.304C73.8785 8.92 71.4145 8.632 68.8545 8.44C66.2945 8.184 63.6385 8.056 60.8865 8.056C57.4305 8.056 53.8785 8.248 50.2305 8.632C46.5825 8.952 42.9345 9.496 39.2865 10.264C33.2705 11.544 28.1825 13.592 24.0225 16.408C19.8625 19.224 16.6945 22.296 14.5185 25.624C12.4065 28.888 11.3505 31.96 11.3505 34.84C11.3505 36.824 11.8945 38.616 12.9825 40.216C14.1345 41.752 15.8305 42.872 18.0705 43.576C19.4785 44.024 20.9185 44.248 22.3905 44.248C24.5665 44.248 26.4865 43.8 28.1505 42.904C29.8145 42.008 31.2225 40.92 32.3745 39.64C33.5265 38.296 34.3585 37.016 34.8705 35.8C35.4465 34.584 35.7025 33.688 35.6385 33.112C35.6385 32.664 35.9585 32.44 36.5985 32.44C37.2385 32.44 37.5585 32.92 37.5585 33.88V33.976C37.5585 36.6 36.7585 38.872 35.1585 40.792C33.5585 42.712 31.5425 44.184 29.1105 45.208C26.7425 46.232 24.3425 46.744 21.9105 46.744C20.3745 46.744 18.7745 46.488 17.1105 45.976C13.6545 44.76 11.0945 43 9.4305 40.696C7.7665 38.328 6.9345 35.736 6.9345 32.92C6.9345 30.296 7.6385 27.608 9.0465 24.856C10.5185 22.04 12.6625 19.384 15.4785 16.888C18.2945 14.328 21.7825 12.12 25.9425 10.264C30.1665 8.408 35.0305 7.09599 40.5345 6.328C43.4785 5.88 46.3905 5.56 49.2705 5.368C52.1505 5.176 54.9345 5.08 57.6225 5.08C61.3345 5.08 64.9505 5.272 68.4705 5.65599C72.0545 5.97599 75.4145 6.488 78.5505 7.192C79.4465 6.424 80.3425 5.752 81.2385 5.17599C82.1985 4.59999 83.0625 4.15199 83.8305 3.832C84.2785 3.64 84.6625 3.512 84.9825 3.44799C85.3025 3.384 85.5585 3.352 85.7505 3.352C86.1345 3.352 86.3265 3.48 86.3265 3.736C86.3265 4.056 85.8465 4.568 84.8865 5.272C84.2465 5.72 83.6385 6.232 83.0625 6.808C82.4865 7.32 82.1345 7.704 82.0065 7.96C88.5345 9.624 93.8145 11.928 97.8465 14.872C101.943 17.752 103.991 21.176 103.991 25.144C103.991 27.192 103.319 29.432 101.975 31.864C100.567 34.232 98.6145 36.152 96.1185 37.624C93.6225 39.032 90.9665 40.088 88.1505 40.792C85.3345 41.432 82.7105 41.816 80.2785 41.944C82.3905 42.584 84.6945 43.544 87.1905 44.824C89.7505 46.04 92.0865 47.544 94.1985 49.336C96.3745 51.128 97.8145 53.24 98.5185 55.672C98.9665 57.208 99.1905 58.776 99.1905 60.376C99.1905 63.768 98.1985 66.84 96.2145 69.592C94.2945 72.344 91.7025 74.712 88.4385 76.696C85.2385 78.616 81.7185 80.088 77.8785 81.112C74.0385 82.2 70.2305 82.744 66.4545 82.744C65.0465 82.744 63.6065 82.648 62.1345 82.456C55.9905 81.688 50.9025 80.728 46.8705 79.576C42.9025 78.424 39.4145 77.144 36.4065 75.736C30.1985 80.408 23.4465 82.744 16.1505 82.744ZM65.1105 79.96C69.0785 79.96 72.6945 79.352 75.9585 78.136C79.2225 76.92 82.0385 75.32 84.4065 73.336C86.8385 71.352 88.6945 69.144 89.9745 66.712C91.3185 64.28 91.9905 61.88 91.9905 59.512C91.9905 57.272 91.3185 55.096 89.9745 52.984C88.6305 50.872 86.5185 49.112 83.6385 47.704C81.1425 46.488 78.5505 45.496 75.8625 44.728C73.2385 43.896 70.9665 43.192 69.0465 42.616C67.1265 41.976 66.0065 41.336 65.6865 40.696C65.6865 39.928 66.0065 39.416 66.6465 39.16C67.3505 38.84 68.2465 38.68 69.3345 38.68C70.6145 38.68 72.1505 38.776 73.9425 38.968C75.7345 39.16 77.6225 39.256 79.6065 39.256C81.6545 39.256 83.7345 38.808 85.8465 37.912C88.0225 36.952 90.0065 35.704 91.7985 34.168C93.5905 32.568 95.0305 30.84 96.1185 28.984C97.2705 27.064 97.8465 25.112 97.8465 23.128C97.8465 21.336 97.2385 19.576 96.0225 17.848C94.8065 16.12 92.7905 14.616 89.9745 13.336C87.1585 12.056 84.1185 11.032 80.8545 10.264C77.6545 14.68 74.4545 19.64 71.2545 25.144C68.0545 30.584 64.8545 36.12 61.6545 41.752C58.4545 47.32 55.2225 52.6 51.9585 57.592C48.6945 62.584 45.4305 66.872 42.1665 70.456C41.3985 71.288 40.7905 71.928 40.3425 72.376C39.8945 72.76 39.2865 73.304 38.5185 74.008C41.5265 75.224 44.9505 76.376 48.7905 77.464C52.6305 78.552 57.0145 79.32 61.9425 79.768C62.4545 79.832 62.9665 79.864 63.4785 79.864C64.0545 79.928 64.5985 79.96 65.1105 79.96ZM14.2305 79.768C17.8145 79.96 21.0785 79.544 24.0225 78.52C27.0305 77.432 29.8145 75.928 32.3745 74.008C30.1345 72.92 27.8305 71.8 25.4625 70.648C23.1585 69.432 20.6945 68.344 18.0705 67.384C16.2145 66.744 14.5185 66.424 12.9825 66.424C10.6145 66.424 8.8225 67.064 7.6065 68.344C6.3905 69.56 5.7825 70.968 5.7825 72.568C5.7825 74.232 6.4865 75.832 7.8945 77.368C9.3025 78.84 11.4145 79.64 14.2305 79.768ZM111.755 79.384C109.387 79.384 107.243 78.616 105.323 77.08C103.467 75.544 102.539 73.208 102.539 70.072C102.539 67.192 103.243 64.12 104.651 60.856C106.059 57.528 107.851 54.616 110.027 52.12C111.883 49.944 113.963 48.152 116.267 46.744C118.571 45.336 120.747 44.632 122.795 44.632C124.203 44.632 125.418 45.016 126.443 45.784C127.531 46.616 128.075 47.8 128.075 49.336C128.075 50.936 127.467 52.696 126.251 54.616C125.035 56.536 123.307 58.328 121.067 59.992C120.107 60.696 118.891 61.368 117.419 62.008C115.947 62.648 114.475 63.192 113.003 63.64C111.531 64.024 110.315 64.216 109.355 64.216C109.035 64.984 108.715 66.008 108.395 67.288C108.139 68.568 108.011 69.88 108.011 71.224C108.011 72.824 108.331 74.264 108.971 75.544C109.611 76.824 110.795 77.464 112.523 77.464C114.635 77.464 116.555 76.856 118.283 75.64C120.011 74.424 121.547 72.92 122.891 71.128C124.235 69.272 125.355 67.416 126.251 65.56C127.211 63.704 127.979 62.136 128.555 60.856C128.939 59.96 129.451 59.512 130.091 59.512C130.411 59.512 130.571 59.672 130.571 59.992C130.571 60.248 130.475 60.568 130.283 60.952C129.387 62.872 128.427 64.92 127.403 67.096C126.379 69.208 125.163 71.224 123.755 73.144C122.347 75 120.651 76.504 118.667 77.656C116.747 78.808 114.443 79.384 111.755 79.384ZM110.027 62.488C110.923 62.488 112.427 62.168 114.539 61.528C116.651 60.824 118.571 59.736 120.299 58.264C121.963 56.792 123.243 55.192 124.139 53.464C125.035 51.672 125.483 50.168 125.483 48.952C125.483 47.544 124.971 46.84 123.947 46.84C123.179 46.84 122.123 47.352 120.779 48.376C119.435 49.4 117.771 51.128 115.787 53.56C114.571 55.096 113.419 56.76 112.331 58.552C111.243 60.344 110.475 61.656 110.027 62.488ZM119.631 79.768C121.935 75.096 124.143 70.488 126.255 65.944C128.431 61.336 130.639 56.952 132.879 52.792C134.159 50.488 135.215 48.888 136.047 47.992C136.943 47.032 138.127 46.552 139.599 46.552C140.111 46.552 140.655 46.648 141.231 46.84C141.807 46.968 142.383 47.032 142.959 47.032C143.343 47.032 143.631 47 143.823 46.936C142.927 47.448 141.775 48.728 140.367 50.776C138.959 52.76 137.519 55.064 136.047 57.688C134.575 60.312 133.263 62.776 132.111 65.08C133.327 63.608 134.575 62.136 135.855 60.664C137.199 59.192 138.671 57.784 140.271 56.44C141.807 55.096 143.631 53.72 145.743 52.312C147.919 50.84 150.031 49.624 152.079 48.664C154.127 47.704 155.759 47.224 156.975 47.224C157.423 47.224 157.743 47.256 157.935 47.32C157.935 47.32 157.583 47.96 156.879 49.24C156.175 50.456 155.279 52.088 154.191 54.136C153.167 56.12 152.111 58.264 151.023 60.568C149.935 62.808 148.943 64.984 148.047 67.096C147.215 69.144 146.671 70.872 146.415 72.28C146.223 73.112 146.127 73.88 146.127 74.584C146.127 75.608 146.319 76.28 146.703 76.6C147.087 76.92 147.503 77.08 147.951 77.08C149.167 77.08 150.447 76.44 151.791 75.16C153.135 73.816 154.415 72.184 155.631 70.264C156.911 68.344 158.031 66.488 158.991 64.696C160.015 62.84 160.751 61.432 161.199 60.472C161.455 59.96 161.647 59.672 161.775 59.608C161.903 59.48 162.095 59.416 162.351 59.416C162.735 59.416 162.927 59.672 162.927 60.184C162.927 60.504 162.831 60.856 162.639 61.24C161.871 62.712 160.943 64.472 159.855 66.52C158.831 68.568 157.647 70.584 156.303 72.568C154.959 74.488 153.487 76.12 151.887 77.464C150.287 78.744 148.559 79.384 146.703 79.384C145.423 79.384 144.079 78.936 142.671 78.04C141.327 77.144 140.655 75.48 140.655 73.048C140.655 72.344 140.719 71.608 140.847 70.84C140.975 70.008 141.199 69.112 141.519 68.152C142.031 66.872 142.639 65.496 143.343 64.024C144.047 62.552 145.199 60.536 146.799 57.976C147.247 57.272 147.503 56.728 147.567 56.344C147.695 55.96 147.759 55.64 147.759 55.384C147.759 54.616 147.407 54.232 146.703 54.232C146.127 54.232 145.263 54.552 144.111 55.192C143.023 55.832 141.647 56.952 139.983 58.552C138.383 60.088 136.463 62.264 134.223 65.08C132.047 67.896 129.519 72.056 126.639 77.56C126.191 78.392 125.679 78.84 125.103 78.904C124.591 78.968 123.855 79.032 122.895 79.096C122.255 79.16 121.647 79.192 121.071 79.192C120.495 79.256 120.015 79.448 119.631 79.768ZM168.969 79.384C165.321 79.384 162.761 78.52 161.289 76.792C159.817 75 159.081 72.824 159.081 70.264C159.081 67.448 159.721 64.44 161.001 61.24C162.345 58.04 163.913 55.256 165.705 52.888C167.561 50.392 169.609 48.472 171.849 47.128C174.089 45.72 176.361 45.016 178.665 45.016C181.097 45.016 182.889 45.624 184.041 46.84C185.193 48.056 185.641 49.688 185.385 51.736C185.257 53.016 184.649 54.296 183.561 55.576C182.473 56.792 181.385 57.4 180.297 57.4C179.785 57.4 179.337 57.208 178.953 56.824C179.465 56.184 180.009 55.416 180.585 54.52C181.161 53.624 181.577 52.76 181.833 51.928C182.089 51.16 182.217 50.392 182.217 49.624C182.217 48.024 181.449 47.224 179.913 47.224C178.185 47.224 176.361 48.12 174.441 49.912C172.585 51.64 170.953 53.528 169.545 55.576C168.969 56.344 168.265 57.56 167.433 59.224C166.665 60.824 165.961 62.616 165.321 64.6C164.681 66.52 164.361 68.408 164.361 70.264C164.361 72.184 164.777 73.912 165.609 75.448C166.505 76.92 167.977 77.656 170.025 77.656C172.841 77.656 175.241 76.792 177.225 75.064C179.273 73.272 181.065 71.064 182.601 68.44C184.201 65.816 185.641 63.256 186.921 60.76C187.305 59.992 187.689 59.608 188.073 59.608C188.393 59.608 188.553 59.864 188.553 60.376C188.553 60.632 188.457 60.952 188.265 61.336C186.729 64.664 185.161 67.704 183.561 70.456C181.961 73.208 180.009 75.384 177.705 76.984C175.465 78.584 172.553 79.384 168.969 79.384ZM196.784 40.024C195.824 40.024 195.024 39.704 194.384 39.064C193.808 38.36 193.52 37.528 193.52 36.568C193.52 35.352 194 34.296 194.96 33.4C195.92 32.504 196.976 32.056 198.128 32.056C199.152 32.056 199.984 32.376 200.624 33.016C201.264 33.656 201.584 34.424 201.584 35.32C201.584 36.536 201.104 37.624 200.144 38.584C199.184 39.544 198.064 40.024 196.784 40.024ZM189.008 79C186.64 79 184.976 78.328 184.016 76.984C183.056 75.576 182.576 73.976 182.576 72.184C182.576 71.224 182.672 70.264 182.864 69.304C183.12 68.28 183.408 67.352 183.728 66.52L190.16 50.104C190.352 49.592 190.448 49.144 190.448 48.76C190.448 48.12 190.288 47.576 189.968 47.128C189.648 46.616 189.424 46.264 189.296 46.072L194.576 45.88C195.536 45.816 196.208 45.944 196.592 46.264C197.04 46.52 197.264 46.84 197.264 47.224C197.264 47.608 197.04 48.312 196.592 49.336L188.624 68.056C188.624 68.056 188.432 68.472 188.048 69.304C187.728 70.072 187.536 70.584 187.472 70.84C187.28 71.8 187.152 72.408 187.088 72.664C187.024 72.92 186.992 73.08 186.992 73.144C186.992 73.208 186.992 73.464 186.992 73.912C186.992 74.744 187.184 75.448 187.568 76.024C188.016 76.6 188.752 76.888 189.776 76.888C190.416 76.888 191.152 76.696 191.984 76.312C192.816 75.928 193.424 75.544 193.808 75.16C195.408 73.496 196.976 71.32 198.512 68.632C200.112 65.88 201.584 63.16 202.928 60.472C203.184 59.832 203.504 59.512 203.888 59.512C204.208 59.512 204.368 59.736 204.368 60.184C204.368 60.44 204.272 60.824 204.08 61.336C203.44 62.68 202.64 64.344 201.68 66.328C200.72 68.312 199.568 70.296 198.224 72.28C196.944 74.2 195.536 75.8 194 77.08C192.464 78.36 190.8 79 189.008 79ZM257.317 87.832C251.045 87.832 245.285 86.904 240.037 85.048C234.853 83.192 230.661 80.472 227.461 76.888C224.261 73.24 222.501 68.76 222.181 63.448C222.053 61.272 222.405 58.872 223.237 56.248C224.069 53.624 225.221 51.032 226.693 48.472C228.229 45.848 230.021 43.512 232.069 41.464C234.181 39.352 236.421 37.752 238.789 36.664C238.981 36.536 239.269 36.44 239.653 36.376C240.101 36.312 240.421 36.28 240.613 36.28C240.997 36.28 241.189 36.376 241.189 36.568C241.189 36.888 240.709 37.4 239.749 38.104C237.061 40.216 234.853 42.648 233.125 45.4C231.333 48.152 229.989 51.096 229.093 54.232C228.197 57.368 227.749 60.536 227.749 63.736C227.749 67.512 228.549 70.776 230.149 73.528C231.813 76.216 234.021 78.424 236.773 80.152C239.525 81.944 242.661 83.256 246.181 84.088C249.701 84.92 253.381 85.336 257.221 85.336C261.509 85.336 265.733 84.856 269.893 83.896C274.117 82.936 277.957 81.56 281.413 79.768C286.725 76.952 290.917 73.464 293.989 69.304C297.125 65.144 298.693 61.016 298.693 56.92C298.693 54.744 298.213 52.664 297.253 50.68C296.357 48.696 294.885 46.904 292.837 45.304C291.301 44.088 289.413 42.936 287.173 41.848C284.997 40.76 282.661 39.704 280.165 38.68C277.733 37.656 275.333 36.632 272.965 35.608C270.597 34.52 268.517 33.368 266.725 32.152C264.165 30.424 262.277 28.568 261.061 26.584C259.909 24.6 259.333 22.616 259.333 20.632C259.333 18.264 260.005 15.96 261.349 13.72C262.757 11.48 264.645 9.464 267.013 7.672C269.445 5.816 272.165 4.376 275.173 3.352C277.797 2.456 280.645 1.752 283.717 1.23999C286.853 0.727997 289.925 0.471998 292.933 0.471998C295.429 0.471998 297.797 0.663998 300.037 1.048C302.341 1.368 304.357 1.976 306.085 2.872C308.261 3.896 309.925 5.272 311.077 6.99999C312.229 8.664 312.805 10.424 312.805 12.28C312.805 14.84 311.653 17.08 309.349 19C308.517 19.64 307.589 20.248 306.565 20.824C305.541 21.336 304.325 21.784 302.917 22.168C302.661 22.232 302.373 22.264 302.053 22.264C301.285 22.264 300.901 22.04 300.901 21.592C300.901 21.336 301.093 21.08 301.477 20.824C301.925 20.504 302.565 20.312 303.397 20.248C305.317 19.992 306.757 19.256 307.717 18.04C308.741 16.824 309.253 15.416 309.253 13.816C309.253 12.152 308.677 10.52 307.525 8.92C306.437 7.256 304.741 5.88 302.437 4.79199C300.133 3.64 297.189 3.064 293.605 3.064C291.557 3.064 289.285 3.288 286.789 3.736C284.357 4.184 281.701 4.92 278.821 5.944C275.301 7.16 272.357 8.952 269.989 11.32C267.685 13.688 266.533 16.216 266.533 18.904C266.533 20.568 267.077 22.264 268.165 23.992C269.317 25.656 271.141 27.256 273.637 28.792C275.749 30.072 278.149 31.352 280.837 32.632C283.525 33.848 286.245 35.096 288.997 36.376C291.749 37.592 294.245 38.904 296.485 40.312C300.005 42.488 302.533 44.824 304.069 47.32C305.605 49.816 306.373 52.376 306.373 55C306.373 58.072 305.445 61.176 303.589 64.312C301.797 67.384 299.429 70.296 296.485 73.048C293.541 75.736 290.309 78.136 286.789 80.248C282.693 82.68 278.053 84.536 272.869 85.816C267.749 87.16 262.565 87.832 257.317 87.832ZM335.581 79.288C334.877 79.352 334.077 79.192 333.181 78.808C332.285 78.424 331.485 77.72 330.781 76.696C330.141 75.672 329.821 74.232 329.821 72.376C329.821 70.84 330.109 68.984 330.685 66.808C329.917 68.024 328.925 69.528 327.709 71.32C326.493 73.048 325.181 74.584 323.773 75.928C322.557 77.08 321.405 77.912 320.317 78.424C319.229 78.936 318.237 79.192 317.341 79.192C315.677 79.192 314.333 78.456 313.309 76.984C312.285 75.448 311.773 73.464 311.773 71.032C311.773 68.472 312.413 65.56 313.693 62.296C314.973 59.032 317.053 55.64 319.933 52.12C321.789 49.88 324.029 48.088 326.653 46.744C329.341 45.336 331.965 44.632 334.525 44.632C335.997 44.632 337.405 44.888 338.749 45.4C340.093 45.848 341.277 46.616 342.301 47.704C342.749 48.152 342.973 48.664 342.973 49.24C342.973 49.624 342.813 49.944 342.493 50.2C342.173 50.456 341.757 50.52 341.245 50.392C340.541 48.152 339.037 47.032 336.733 47.032C335.645 47.032 334.397 47.384 332.989 48.088C330.813 49.24 328.541 51.128 326.173 53.752C323.869 56.376 321.853 59.096 320.125 61.912C319.869 62.296 319.453 63.032 318.877 64.12C318.365 65.208 317.853 66.424 317.341 67.768C316.829 69.112 316.477 70.424 316.285 71.704C316.221 72.088 316.189 72.376 316.189 72.568C316.189 72.696 316.189 72.92 316.189 73.24C316.189 75.352 316.989 76.408 318.589 76.408C320.509 76.408 322.685 75 325.117 72.184C326.781 70.136 328.285 67.992 329.629 65.752C330.973 63.512 332.349 61.112 333.757 58.552C334.717 56.824 335.613 55.384 336.445 54.232C337.277 53.08 338.461 52.504 339.997 52.504C340.701 52.504 341.405 52.6 342.109 52.792C342.813 52.984 343.549 53.016 344.317 52.888C343.805 53.4 343.101 54.36 342.205 55.768C341.373 57.176 340.477 58.776 339.517 60.568C338.557 62.36 337.693 64.184 336.925 66.04C336.157 67.896 335.613 69.496 335.293 70.84C335.229 71.224 335.133 71.768 335.005 72.472C334.941 73.176 334.909 73.688 334.909 74.008C334.909 75.8 335.421 76.696 336.445 76.696C337.469 76.696 338.557 76.088 339.709 74.872C340.925 73.656 342.109 72.152 343.261 70.36C344.413 68.568 345.469 66.776 346.429 64.984C347.389 63.128 348.157 61.624 348.733 60.472C348.989 59.832 349.373 59.512 349.885 59.512C350.205 59.512 350.365 59.736 350.365 60.184C350.365 60.376 350.269 60.728 350.077 61.24C349.309 62.84 348.381 64.664 347.293 66.712C346.205 68.696 345.021 70.648 343.741 72.568C342.461 74.424 341.117 75.992 339.709 77.272C338.365 78.488 336.989 79.16 335.581 79.288ZM339.571 79.48C341.939 74.936 344.179 70.392 346.291 65.848C348.403 61.24 350.547 56.888 352.723 52.792C354.003 50.488 355.059 48.888 355.891 47.992C356.787 47.032 357.971 46.552 359.443 46.552C359.955 46.552 360.499 46.648 361.075 46.84C361.651 46.968 362.227 47.032 362.803 47.032C363.187 47.032 363.475 47 363.667 46.936C362.771 47.448 361.619 48.728 360.211 50.776C358.803 52.76 357.363 55.064 355.891 57.688C354.419 60.312 353.107 62.776 351.955 65.08C353.171 63.608 354.419 62.136 355.699 60.664C357.043 59.192 358.515 57.784 360.115 56.44C361.523 55.224 362.995 53.912 364.531 52.504C366.131 51.032 367.699 49.784 369.235 48.76C370.771 47.736 372.115 47.224 373.267 47.224C373.715 47.224 374.003 47.256 374.131 47.32C375.347 47.832 375.955 48.664 375.955 49.816C375.955 50.2 375.795 50.776 375.475 51.544C374.643 53.72 373.555 55.96 372.211 58.264C370.931 60.504 369.715 62.776 368.563 65.08C369.523 63.928 370.707 62.52 372.115 60.856C373.587 59.192 375.059 57.72 376.531 56.44C377.939 55.16 379.731 53.816 381.907 52.408C384.083 51 386.227 49.784 388.339 48.76C390.451 47.736 392.147 47.224 393.427 47.224C393.875 47.224 394.195 47.256 394.387 47.32C394.387 47.32 394.035 47.96 393.331 49.24C392.627 50.456 391.731 52.088 390.643 54.136C389.619 56.12 388.563 58.264 387.475 60.568C386.387 62.808 385.395 64.984 384.499 67.096C383.667 69.144 383.123 70.872 382.867 72.28C382.675 73.112 382.579 73.88 382.579 74.584C382.579 75.608 382.771 76.28 383.155 76.6C383.539 76.92 383.955 77.08 384.403 77.08C385.683 77.08 386.995 76.408 388.339 75.064C389.683 73.72 390.963 72.12 392.179 70.264C393.459 68.344 394.579 66.488 395.539 64.696C396.499 62.84 397.203 61.432 397.651 60.472C398.035 59.768 398.419 59.416 398.803 59.416C399.187 59.416 399.379 59.672 399.379 60.184C399.379 60.504 399.283 60.856 399.091 61.24C398.323 62.712 397.395 64.472 396.307 66.52C395.283 68.568 394.099 70.584 392.755 72.568C391.411 74.488 389.907 76.12 388.243 77.464C386.643 78.744 384.915 79.384 383.059 79.384C381.715 79.384 380.339 78.936 378.931 78.04C377.587 77.144 376.915 75.48 376.915 73.048C376.915 71.704 377.203 70.072 377.779 68.152C378.227 66.872 378.899 65.4 379.795 63.736C380.755 62.072 381.907 60.152 383.251 57.976C383.891 56.888 384.211 56.024 384.211 55.384C384.211 54.616 383.827 54.232 383.059 54.232C382.419 54.232 381.523 54.552 380.371 55.192C379.283 55.832 377.907 56.952 376.243 58.552C375.219 59.512 374.003 60.856 372.595 62.584C371.251 64.248 369.875 66.072 368.467 68.056C367.059 70.04 365.843 71.992 364.819 73.912C363.795 75.832 363.123 77.528 362.803 79C361.843 79 361.075 78.616 360.499 77.848C359.923 77.016 359.635 76.056 359.635 74.968C359.635 74.776 359.635 74.584 359.635 74.392C359.635 74.2 359.667 73.976 359.731 73.72C360.051 71.736 360.563 69.88 361.267 68.152C361.971 66.424 362.771 64.632 363.667 62.776C364.371 61.432 365.075 59.992 365.779 58.456C366.483 56.856 366.835 55.64 366.835 54.808C366.835 54.296 366.643 54.04 366.259 54.04C365.811 54.04 365.075 54.392 364.051 55.096C363.027 55.736 361.619 56.888 359.827 58.552C358.227 60.088 356.275 62.296 353.971 65.176C351.731 68.056 349.267 72.152 346.579 77.464C346.195 78.168 345.747 78.616 345.235 78.808C344.723 78.936 343.923 79 342.835 79C342.131 79 341.555 79 341.107 79C340.595 79.064 340.083 79.224 339.571 79.48ZM418.175 79.288C417.471 79.352 416.671 79.192 415.775 78.808C414.879 78.424 414.079 77.72 413.375 76.696C412.735 75.672 412.415 74.232 412.415 72.376C412.415 70.84 412.703 68.984 413.279 66.808C412.511 68.024 411.519 69.528 410.303 71.32C409.087 73.048 407.775 74.584 406.367 75.928C405.151 77.08 403.999 77.912 402.911 78.424C401.823 78.936 400.831 79.192 399.935 79.192C398.271 79.192 396.927 78.456 395.903 76.984C394.879 75.448 394.367 73.464 394.367 71.032C394.367 68.472 395.007 65.56 396.287 62.296C397.567 59.032 399.647 55.64 402.527 52.12C404.383 49.88 406.623 48.088 409.247 46.744C411.935 45.336 414.559 44.632 417.119 44.632C418.591 44.632 419.999 44.888 421.343 45.4C422.687 45.848 423.871 46.616 424.895 47.704C425.343 48.152 425.567 48.664 425.567 49.24C425.567 49.624 425.407 49.944 425.087 50.2C424.767 50.456 424.351 50.52 423.839 50.392C423.135 48.152 421.631 47.032 419.327 47.032C418.239 47.032 416.991 47.384 415.583 48.088C413.407 49.24 411.135 51.128 408.767 53.752C406.463 56.376 404.447 59.096 402.719 61.912C402.463 62.296 402.047 63.032 401.471 64.12C400.959 65.208 400.447 66.424 399.935 67.768C399.423 69.112 399.071 70.424 398.879 71.704C398.815 72.088 398.783 72.376 398.783 72.568C398.783 72.696 398.783 72.92 398.783 73.24C398.783 75.352 399.583 76.408 401.183 76.408C403.103 76.408 405.279 75 407.711 72.184C409.375 70.136 410.879 67.992 412.223 65.752C413.567 63.512 414.943 61.112 416.351 58.552C417.311 56.824 418.207 55.384 419.039 54.232C419.871 53.08 421.055 52.504 422.591 52.504C423.295 52.504 423.999 52.6 424.703 52.792C425.407 52.984 426.143 53.016 426.911 52.888C426.399 53.4 425.695 54.36 424.799 55.768C423.967 57.176 423.071 58.776 422.111 60.568C421.151 62.36 420.287 64.184 419.519 66.04C418.751 67.896 418.207 69.496 417.887 70.84C417.823 71.224 417.727 71.768 417.599 72.472C417.535 73.176 417.503 73.688 417.503 74.008C417.503 75.8 418.015 76.696 419.039 76.696C420.063 76.696 421.151 76.088 422.303 74.872C423.519 73.656 424.703 72.152 425.855 70.36C427.007 68.568 428.063 66.776 429.023 64.984C429.983 63.128 430.751 61.624 431.327 60.472C431.583 59.832 431.967 59.512 432.479 59.512C432.799 59.512 432.959 59.736 432.959 60.184C432.959 60.376 432.863 60.728 432.671 61.24C431.903 62.84 430.975 64.664 429.887 66.712C428.799 68.696 427.615 70.648 426.335 72.568C425.055 74.424 423.711 75.992 422.303 77.272C420.959 78.488 419.583 79.16 418.175 79.288ZM503.07 85.144C500.254 85.144 498.27 84.024 497.118 81.784C495.966 79.608 495.39 77.048 495.39 74.104C495.39 71.48 495.742 68.888 496.446 66.328C497.214 63.768 498.11 61.816 499.134 60.472C497.406 62.52 495.262 64.856 492.702 67.48C490.142 70.104 487.326 72.632 484.254 75.064C481.182 77.496 478.014 79.512 474.75 81.112C471.486 82.712 468.254 83.512 465.054 83.512C464.094 83.512 463.134 83.416 462.174 83.224C461.278 83.096 460.382 82.84 459.486 82.456C457.118 81.496 455.358 79.8 454.206 77.368C453.054 74.872 452.478 71.896 452.478 68.44C452.478 64.792 453.086 60.888 454.302 56.728C455.582 52.504 457.438 48.216 459.87 43.864C461.022 41.752 462.302 39.672 463.71 37.624C465.182 35.512 466.75 33.528 468.414 31.672C466.43 30.776 464.606 29.784 462.942 28.696C461.278 27.544 459.87 26.296 458.718 24.952C457.95 24.056 457.374 23 456.99 21.784C456.606 20.568 456.414 19.384 456.414 18.232C456.414 16.184 456.894 14.84 457.854 14.2C458.174 13.688 458.558 13.432 459.006 13.432C459.582 13.432 459.87 13.784 459.87 14.488C459.87 14.936 459.742 15.416 459.486 15.928C459.166 16.76 459.006 17.528 459.006 18.232C459.006 19.256 459.262 20.216 459.774 21.112C460.286 21.944 460.894 22.744 461.598 23.512C463.646 25.944 466.462 27.96 470.046 29.56C474.142 25.08 478.622 20.952 483.486 17.176C488.414 13.336 493.694 10.264 499.326 7.96C504.958 5.656 510.878 4.504 517.086 4.504C522.27 4.504 526.334 5.656 529.278 7.96C532.222 10.2 533.694 13.112 533.694 16.696C533.694 18.424 533.182 20.312 532.158 22.36C531.134 24.344 529.47 26.296 527.166 28.216C524.862 30.072 521.79 31.704 517.95 33.112C514.174 34.456 509.47 35.384 503.838 35.896C501.854 36.088 500.062 36.248 498.462 36.376C496.926 36.44 495.262 36.472 493.47 36.472C490.142 36.472 486.91 36.248 483.774 35.8C480.702 35.352 477.63 34.648 474.558 33.688C473.406 35.288 471.934 37.464 470.142 40.216C468.414 42.968 466.686 45.912 464.958 49.048C463.23 52.184 461.79 55.16 460.638 57.976C459.614 60.664 458.846 63.128 458.334 65.368C457.822 67.544 457.566 69.496 457.566 71.224C457.566 74.36 458.302 76.728 459.774 78.328C461.246 79.864 463.23 80.632 465.726 80.632C468.158 80.632 470.91 79.928 473.982 78.52C477.118 77.112 480.382 75 483.774 72.184C487.166 69.368 490.462 66.2 493.662 62.68C496.926 59.16 499.902 55.576 502.59 51.928C505.278 48.28 507.454 44.92 509.118 41.848C510.206 39.8 511.262 38.36 512.286 37.528C513.31 36.632 514.174 36.184 514.878 36.184C515.582 36.184 516.126 36.472 516.51 37.048C516.894 37.56 517.086 38.264 517.086 39.16C517.086 40.952 516.286 42.744 514.686 44.536C512.894 46.52 511.134 48.952 509.406 51.832C507.678 54.712 506.142 57.752 504.798 60.952C503.454 64.152 502.494 67.288 501.918 70.36C501.726 71.384 501.598 72.344 501.534 73.24C501.47 74.136 501.438 74.936 501.438 75.64C501.438 78.008 501.79 79.704 502.494 80.728C503.262 81.752 504.254 82.264 505.47 82.264C506.942 82.264 508.638 81.592 510.558 80.248C512.478 78.904 514.334 77.112 516.126 74.872C517.662 72.824 519.134 70.648 520.542 68.344C522.014 66.04 523.358 63.64 524.574 61.144C524.766 60.696 525.022 60.376 525.342 60.184C525.726 59.928 525.982 59.8 526.11 59.8C526.43 59.8 526.59 59.992 526.59 60.376C526.59 60.632 526.494 61.016 526.302 61.528C525.726 62.808 524.958 64.344 523.998 66.136C523.038 67.928 521.982 69.784 520.83 71.704C519.678 73.56 518.494 75.288 517.278 76.888C515.614 79.064 513.502 80.984 510.942 82.648C508.446 84.312 505.822 85.144 503.07 85.144ZM492.606 34.168C495.934 34.168 499.646 33.976 503.742 33.592C509.054 33.144 513.662 32.088 517.566 30.424C521.47 28.76 524.478 26.648 526.59 24.088C528.702 21.528 529.758 18.68 529.758 15.544C529.758 12.728 528.574 10.584 526.206 9.112C523.902 7.64 520.958 6.904 517.374 6.904C511.422 6.904 505.982 8.088 501.054 10.456C496.19 12.76 491.71 15.8 487.614 19.576C483.582 23.352 479.742 27.416 476.094 31.768C480.958 33.368 486.462 34.168 492.606 34.168ZM542.221 79.672C540.493 79.48 538.925 78.68 537.517 77.272C536.173 75.8 535.245 73.848 534.733 71.416C534.669 70.968 534.605 70.584 534.541 70.264C534.541 69.88 534.541 69.464 534.541 69.016C534.541 66.456 535.117 64.408 536.269 62.872C537.421 61.272 538.477 60.44 539.437 60.376C540.461 60.44 541.709 60.216 543.181 59.704C544.653 59.128 545.933 58.36 547.021 57.4C548.877 55.928 549.805 54.424 549.805 52.888C549.805 51.288 548.877 50.488 547.021 50.488C545.997 50.488 544.685 50.84 543.085 51.544C541.549 52.248 539.757 53.464 537.709 55.192C535.149 57.368 532.493 60.28 529.741 63.928C529.357 64.76 528.909 66.008 528.397 67.672C527.885 69.272 527.437 70.936 527.053 72.664C526.733 74.392 526.573 75.864 526.573 77.08C526.573 78.04 526.733 78.68 527.053 79H521.005C520.301 79 519.949 78.712 519.949 78.136C519.949 77.944 519.981 77.784 520.045 77.656C520.109 77.528 520.173 77.272 520.237 76.888C521.133 73.56 522.317 70.424 523.789 67.48C525.261 64.536 526.733 61.432 528.205 58.168C525.965 62.328 523.917 66.008 522.061 69.208C520.269 72.344 518.893 74.36 517.933 75.256C517.805 75.384 517.645 75.448 517.453 75.448C517.197 75.448 517.037 75.288 516.973 74.968C516.845 74.648 516.909 74.328 517.165 74.008C518.509 72.216 520.045 69.752 521.773 66.616C523.565 63.48 525.453 59.992 527.437 56.152C529.421 52.248 531.437 48.312 533.485 44.344C535.533 40.376 537.517 36.632 539.437 33.112C541.421 29.592 543.213 26.616 544.813 24.184C545.965 22.456 547.053 21.24 548.077 20.536C549.101 19.768 550.157 19.384 551.245 19.384H551.725C552.301 19.384 552.941 19.48 553.645 19.672C554.413 19.864 555.117 19.896 555.757 19.768C554.541 20.728 553.069 22.296 551.341 24.472C549.613 26.648 547.789 29.24 545.869 32.248C543.949 35.256 541.997 38.456 540.013 41.848C538.093 45.24 536.269 48.6 534.541 51.928C533.901 53.208 533.293 54.552 532.717 55.96C532.141 57.368 531.597 58.776 531.085 60.184C532.429 58.52 533.965 56.792 535.693 55C537.421 53.208 539.213 51.576 541.069 50.104C542.989 48.568 544.877 47.448 546.733 46.744C548.845 45.976 550.605 45.592 552.013 45.592C553.485 45.592 554.541 45.944 555.181 46.648C555.885 47.352 556.237 48.248 556.237 49.336C556.237 50.552 555.757 52.024 554.797 53.752C553.837 55.416 552.525 56.856 550.861 58.072C549.453 59.032 547.981 59.864 546.445 60.568C544.909 61.272 543.085 61.72 540.973 61.912C540.589 62.808 540.301 63.736 540.109 64.696C539.981 65.592 539.917 66.488 539.917 67.384C539.917 69.88 540.493 72.088 541.645 74.008C542.797 75.864 544.301 76.792 546.157 76.792C547.053 76.792 548.013 76.536 549.037 76.024C550.125 75.512 551.245 74.648 552.397 73.432C553.677 72.152 554.957 70.328 556.237 67.96C557.581 65.592 558.925 63 560.269 60.184C560.525 59.672 560.813 59.416 561.133 59.416C561.517 59.416 561.709 59.672 561.709 60.184C561.709 60.44 561.613 60.76 561.421 61.144C559.565 65.432 557.773 68.856 556.045 71.416C554.381 73.912 552.749 75.8 551.149 77.08C549.613 78.296 548.109 79.064 546.637 79.384C545.165 79.704 543.693 79.8 542.221 79.672ZM562.886 79C562.182 79 561.318 78.84 560.294 78.52C559.334 78.2 558.47 77.624 557.702 76.792C556.998 75.896 556.646 74.584 556.646 72.856C556.646 71.192 557.03 69.592 557.798 68.056C558.63 66.456 559.398 64.92 560.102 63.448C559.91 63.448 559.686 63.384 559.43 63.256C559.238 63.128 559.142 62.936 559.142 62.68C559.142 62.424 559.206 62.168 559.334 61.912C559.59 61.4 559.878 60.856 560.198 60.28C560.518 59.704 560.806 59.096 561.062 58.456C562.022 56.472 562.982 54.584 563.942 52.792C564.902 50.936 565.734 49.304 566.438 47.896C567.142 46.488 568.358 45.784 570.086 45.784H576.038C574.95 46.616 573.958 47.544 573.062 48.568C572.23 49.528 571.174 51.32 569.894 53.944C569.894 53.944 569.67 54.392 569.222 55.288C568.774 56.184 568.198 57.336 567.494 58.744C566.854 60.088 566.182 61.464 565.478 62.872C564.838 64.28 564.294 65.464 563.846 66.424C563.014 68.216 562.47 69.656 562.214 70.744C561.958 71.768 561.83 72.728 561.83 73.624C561.83 75.736 562.534 76.792 563.942 76.792C565.478 76.792 567.334 75.544 569.51 73.048C571.302 70.936 573.062 68.408 574.79 65.464C576.518 62.52 578.15 59.48 579.686 56.344C581.286 53.208 582.694 50.392 583.91 47.896C584.614 46.488 585.862 45.784 587.654 45.784H592.934C591.974 46.552 591.174 47.288 590.534 47.992C589.894 48.632 589.254 49.528 588.614 50.68C588.038 51.768 587.238 53.336 586.214 55.384C585.382 57.112 584.486 58.968 583.526 60.952C582.63 62.872 581.83 64.696 581.126 66.424C580.422 68.152 579.974 69.56 579.781 70.648C579.718 71.288 579.654 71.768 579.59 72.088C579.526 72.408 579.494 72.76 579.494 73.144C579.494 74.36 579.686 75.224 580.07 75.736C580.518 76.248 581.03 76.504 581.606 76.504C583.142 76.504 584.678 75.64 586.214 73.912C587.814 72.184 589.318 70.072 590.726 67.576C592.198 65.08 593.446 62.712 594.47 60.472C594.854 59.768 595.206 59.416 595.526 59.416C595.91 59.416 596.102 59.64 596.102 60.088C596.102 60.408 595.974 60.792 595.718 61.24C595.014 62.776 594.15 64.536 593.126 66.52C592.102 68.504 590.95 70.456 589.67 72.376C588.39 74.296 586.982 75.896 585.446 77.176C583.91 78.392 582.246 79 580.454 79C578.854 79 577.542 78.424 576.518 77.272C575.494 76.056 574.982 74.36 574.982 72.184C574.982 70.456 575.302 68.6 575.942 66.616C574.854 68.536 573.606 70.456 572.198 72.376C570.79 74.296 569.286 75.896 567.686 77.176C566.086 78.392 564.486 79 562.886 79Z" fill="white"/>
</svg>
