<svg width="497" height="100" viewBox="0 0 497 100" fill="none" xmlns="http://www.w3.org/2000/svg">
<path d="M16.1661 85.744C14.7581 85.744 13.3181 85.648 11.8461 85.456C7.81413 84.944 4.83813 83.76 2.91813 81.904C1.06213 80.048 0.134125 78.032 0.134125 75.856C0.134125 73.488 1.19013 71.344 3.30213 69.424C5.41413 67.44 8.39013 66.448 12.2301 66.448C14.7901 66.448 17.5741 66.96 20.5821 67.984C22.2461 68.56 24.2301 69.52 26.5341 70.864C28.8381 72.208 31.4941 73.616 34.5021 75.088C37.7021 72.016 40.6141 68.208 43.2381 63.664C45.9261 59.12 48.5821 54.256 51.2061 49.072C53.8941 43.824 56.7741 38.576 59.8461 33.328C62.9821 28.08 66.5981 23.152 70.6941 18.544L76.2621 12.304C73.8941 11.92 71.4301 11.632 68.8701 11.44C66.3101 11.184 63.6541 11.056 60.9021 11.056C57.4461 11.056 53.8941 11.248 50.2461 11.632C46.5981 11.952 42.9501 12.496 39.3021 13.264C33.2861 14.544 28.1981 16.592 24.0381 19.408C19.8781 22.224 16.7101 25.296 14.5341 28.624C12.4221 31.888 11.3661 34.96 11.3661 37.84C11.3661 39.824 11.9101 41.616 12.9981 43.216C14.1501 44.752 15.8461 45.872 18.0861 46.576C19.4941 47.024 20.9341 47.248 22.4061 47.248C24.5821 47.248 26.5021 46.8 28.1661 45.904C29.8301 45.008 31.2381 43.92 32.3901 42.64C33.5421 41.296 34.3741 40.016 34.8861 38.8C35.4621 37.584 35.7181 36.688 35.6541 36.112C35.6541 35.664 35.9741 35.44 36.6141 35.44C37.2541 35.44 37.5741 35.92 37.5741 36.88V36.976C37.5741 39.6 36.7741 41.872 35.1741 43.792C33.5741 45.712 31.5581 47.184 29.1261 48.208C26.7581 49.232 24.3581 49.744 21.9261 49.744C20.3901 49.744 18.7901 49.488 17.1261 48.976C13.6701 47.76 11.1101 46 9.44613 43.696C7.78213 41.328 6.95013 38.736 6.95013 35.92C6.95013 33.296 7.65413 30.608 9.06213 27.856C10.5341 25.04 12.6781 22.384 15.4941 19.888C18.3101 17.328 21.7981 15.12 25.9581 13.264C30.1821 11.408 35.0461 10.096 40.5501 9.328C43.4941 8.88 46.4061 8.56 49.2861 8.368C52.1661 8.176 54.9501 8.08 57.6381 8.08C61.3501 8.08 64.9661 8.272 68.4861 8.65599C72.0701 8.97599 75.4301 9.488 78.5661 10.192C79.4621 9.424 80.3581 8.752 81.2541 8.17599C82.2141 7.59999 83.0781 7.15199 83.8461 6.832C84.2941 6.64 84.6781 6.512 84.9981 6.44799C85.3181 6.384 85.5741 6.352 85.7661 6.352C86.1501 6.352 86.3421 6.48 86.3421 6.736C86.3421 7.056 85.8621 7.568 84.9021 8.272C84.2621 8.72 83.6541 9.232 83.0781 9.808C82.5021 10.32 82.1501 10.704 82.0221 10.96C88.5501 12.624 93.8301 14.928 97.8621 17.872C101.958 20.752 104.006 24.176 104.006 28.144C104.006 30.192 103.334 32.432 101.99 34.864C100.582 37.232 98.6301 39.152 96.1341 40.624C93.6381 42.032 90.9821 43.088 88.1661 43.792C85.3501 44.432 82.7261 44.816 80.2941 44.944C82.4061 45.584 84.7101 46.544 87.2061 47.824C89.7661 49.04 92.1021 50.544 94.2141 52.336C96.3901 54.128 97.8301 56.24 98.5341 58.672C98.9821 60.208 99.2061 61.776 99.2061 63.376C99.2061 66.768 98.2141 69.84 96.2301 72.592C94.3101 75.344 91.7181 77.712 88.4541 79.696C85.2541 81.616 81.7341 83.088 77.8941 84.112C74.0541 85.2 70.2461 85.744 66.4701 85.744C65.0621 85.744 63.6221 85.648 62.1501 85.456C56.0061 84.688 50.9181 83.728 46.8861 82.576C42.9181 81.424 39.4301 80.144 36.4221 78.736C30.2141 83.408 23.4621 85.744 16.1661 85.744ZM65.1261 82.96C69.0941 82.96 72.7101 82.352 75.9741 81.136C79.2381 79.92 82.0541 78.32 84.4221 76.336C86.8541 74.352 88.7101 72.144 89.9901 69.712C91.3341 67.28 92.0061 64.88 92.0061 62.512C92.0061 60.272 91.3341 58.096 89.9901 55.984C88.6461 53.872 86.5341 52.112 83.6541 50.704C81.1581 49.488 78.5661 48.496 75.8781 47.728C73.2541 46.896 70.9821 46.192 69.0621 45.616C67.1421 44.976 66.0221 44.336 65.7021 43.696C65.7021 42.928 66.0221 42.416 66.6621 42.16C67.3661 41.84 68.2621 41.68 69.3501 41.68C70.6301 41.68 72.1661 41.776 73.9581 41.968C75.7501 42.16 77.6381 42.256 79.6221 42.256C81.6701 42.256 83.7501 41.808 85.8621 40.912C88.0381 39.952 90.0221 38.704 91.8141 37.168C93.6061 35.568 95.0461 33.84 96.1341 31.984C97.2861 30.064 97.8621 28.112 97.8621 26.128C97.8621 24.336 97.2541 22.576 96.0381 20.848C94.8221 19.12 92.8061 17.616 89.9901 16.336C87.1741 15.056 84.1341 14.032 80.8701 13.264C77.6701 17.68 74.4701 22.64 71.2701 28.144C68.0701 33.584 64.8701 39.12 61.6701 44.752C58.4701 50.32 55.2381 55.6 51.9741 60.592C48.7101 65.584 45.4461 69.872 42.1821 73.456C41.4141 74.288 40.8061 74.928 40.3581 75.376C39.9101 75.76 39.3021 76.304 38.5341 77.008C41.5421 78.224 44.9661 79.376 48.8061 80.464C52.6461 81.552 57.0301 82.32 61.9581 82.768C62.4701 82.832 62.9821 82.864 63.4941 82.864C64.0701 82.928 64.6141 82.96 65.1261 82.96ZM14.2461 82.768C17.8301 82.96 21.0941 82.544 24.0381 81.52C27.0461 80.432 29.8301 78.928 32.3901 77.008C30.1501 75.92 27.8461 74.8 25.4781 73.648C23.1741 72.432 20.7101 71.344 18.0861 70.384C16.2301 69.744 14.5341 69.424 12.9981 69.424C10.6301 69.424 8.83813 70.064 7.62213 71.344C6.40613 72.56 5.79813 73.968 5.79813 75.568C5.79813 77.232 6.50213 78.832 7.91013 80.368C9.31813 81.84 11.4301 82.64 14.2461 82.768ZM111.77 82.384C109.402 82.384 107.258 81.616 105.338 80.08C103.482 78.544 102.554 76.208 102.554 73.072C102.554 70.192 103.258 67.12 104.666 63.856C106.074 60.528 107.866 57.616 110.042 55.12C111.898 52.944 113.978 51.152 116.282 49.744C118.586 48.336 120.762 47.632 122.81 47.632C124.218 47.632 125.434 48.016 126.458 48.784C127.546 49.616 128.09 50.8 128.09 52.336C128.09 53.936 127.482 55.696 126.266 57.616C125.05 59.536 123.322 61.328 121.082 62.992C120.122 63.696 118.906 64.368 117.434 65.008C115.962 65.648 114.49 66.192 113.018 66.64C111.546 67.024 110.33 67.216 109.37 67.216C109.05 67.984 108.73 69.008 108.41 70.288C108.154 71.568 108.026 72.88 108.026 74.224C108.026 75.824 108.346 77.264 108.986 78.544C109.626 79.824 110.81 80.464 112.538 80.464C114.65 80.464 116.57 79.856 118.298 78.64C120.026 77.424 121.562 75.92 122.906 74.128C124.25 72.272 125.37 70.416 126.266 68.56C127.226 66.704 127.994 65.136 128.57 63.856C128.954 62.96 129.466 62.512 130.106 62.512C130.426 62.512 130.586 62.672 130.586 62.992C130.586 63.248 130.49 63.568 130.298 63.952C129.402 65.872 128.442 67.92 127.418 70.096C126.394 72.208 125.178 74.224 123.77 76.144C122.362 78 120.666 79.504 118.682 80.656C116.762 81.808 114.458 82.384 111.77 82.384ZM110.042 65.488C110.938 65.488 112.442 65.168 114.554 64.528C116.666 63.824 118.586 62.736 120.314 61.264C121.978 59.792 123.258 58.192 124.154 56.464C125.05 54.672 125.498 53.168 125.498 51.952C125.498 50.544 124.986 49.84 123.962 49.84C123.194 49.84 122.138 50.352 120.794 51.376C119.45 52.4 117.786 54.128 115.802 56.56C114.586 58.096 113.434 59.76 112.346 61.552C111.258 63.344 110.49 64.656 110.042 65.488ZM140.191 82.096C138.975 82.096 137.759 81.616 136.543 80.656C135.327 79.632 134.719 78 134.719 75.76C134.719 74.032 135.135 72.048 135.967 69.808C136.735 67.632 137.759 65.52 139.039 63.472C140.383 61.424 141.343 59.76 141.919 58.48C142.111 57.968 142.207 57.52 142.207 57.136C142.207 55.984 141.471 55.152 139.999 54.64C138.591 54.128 136.735 53.84 134.431 53.776L133.279 56.944C132.575 58.992 131.583 61.392 130.303 64.144C129.087 66.896 127.711 69.552 126.175 72.112C124.703 74.672 123.167 76.72 121.567 78.256C121.439 78.384 121.279 78.448 121.087 78.448C120.831 78.448 120.671 78.288 120.607 77.968C120.479 77.648 120.607 77.264 120.991 76.816C123.487 73.488 125.727 69.808 127.711 65.776C129.695 61.68 131.359 57.52 132.703 53.296C134.111 49.072 135.135 45.168 135.775 41.584C135.967 40.56 136.319 39.824 136.831 39.376C137.343 38.864 137.887 38.608 138.463 38.608C139.295 38.608 140.063 39.024 140.767 39.856C141.471 40.624 141.823 41.744 141.823 43.216C141.823 43.472 141.791 43.76 141.727 44.08C141.727 44.4 141.695 44.72 141.631 45.04C141.375 46.384 140.607 47.664 139.327 48.88C138.111 50.032 137.119 50.896 136.351 51.472C136.991 51.536 137.663 51.6 138.367 51.664C139.071 51.664 139.839 51.664 140.671 51.664C143.679 51.664 146.655 51.472 149.599 51.088C149.727 51.472 149.791 51.76 149.791 51.952C149.791 52.784 149.535 53.84 149.023 55.12C148.575 56.4 148.095 57.552 147.583 58.576C147.327 59.152 146.815 60.208 146.047 61.744C145.279 63.216 144.447 64.912 143.551 66.832C142.655 68.688 141.887 70.544 141.247 72.4C140.671 74.192 140.383 75.728 140.383 77.008C140.383 78.672 141.023 79.504 142.303 79.504C143.263 79.504 144.319 78.896 145.471 77.68C146.623 76.4 147.743 74.864 148.831 73.072C149.983 71.216 151.007 69.424 151.903 67.696C152.863 65.904 153.599 64.496 154.111 63.472C154.367 62.832 154.719 62.512 155.167 62.512C155.423 62.512 155.551 62.736 155.551 63.184C155.551 63.44 155.455 63.824 155.263 64.336C154.559 65.808 153.727 67.472 152.767 69.328C151.807 71.184 150.719 73.008 149.503 74.8C148.351 76.592 147.071 78.16 145.663 79.504C144.319 80.784 142.847 81.616 141.247 82C141.055 82.064 140.703 82.096 140.191 82.096ZM171.174 82.672C169.446 82.48 167.878 81.68 166.47 80.272C165.126 78.8 164.198 76.848 163.686 74.416C163.622 73.968 163.558 73.584 163.494 73.264C163.494 72.88 163.494 72.464 163.494 72.016C163.494 69.456 164.07 67.408 165.222 65.872C166.374 64.272 167.43 63.44 168.39 63.376C169.414 63.44 170.662 63.216 172.134 62.704C173.606 62.128 174.886 61.36 175.974 60.4C177.83 58.928 178.758 57.424 178.758 55.888C178.758 54.288 177.83 53.488 175.974 53.488C174.95 53.488 173.638 53.84 172.038 54.544C170.502 55.248 168.71 56.464 166.662 58.192C164.102 60.368 161.446 63.28 158.694 66.928C158.31 67.76 157.862 69.008 157.35 70.672C156.838 72.272 156.39 73.936 156.006 75.664C155.686 77.392 155.526 78.864 155.526 80.08C155.526 81.04 155.686 81.68 156.006 82H149.958C149.254 82 148.902 81.712 148.902 81.136C148.902 80.944 148.934 80.784 148.998 80.656C149.062 80.528 149.126 80.272 149.19 79.888C150.086 76.56 151.27 73.424 152.742 70.48C154.214 67.536 155.686 64.432 157.158 61.168C154.918 65.328 152.87 69.008 151.014 72.208C149.222 75.344 147.846 77.36 146.886 78.256C146.758 78.384 146.598 78.448 146.406 78.448C146.15 78.448 145.99 78.288 145.926 77.968C145.798 77.648 145.862 77.328 146.118 77.008C147.462 75.216 148.998 72.752 150.726 69.616C152.518 66.48 154.406 62.992 156.39 59.152C158.374 55.248 160.39 51.312 162.438 47.344C164.486 43.376 166.47 39.632 168.39 36.112C170.374 32.592 172.166 29.616 173.766 27.184C174.918 25.456 176.006 24.24 177.03 23.536C178.054 22.768 179.11 22.384 180.198 22.384H180.678C181.254 22.384 181.894 22.48 182.598 22.672C183.366 22.864 184.07 22.896 184.71 22.768C183.494 23.728 182.022 25.296 180.294 27.472C178.566 29.648 176.742 32.24 174.822 35.248C172.902 38.256 170.95 41.456 168.966 44.848C167.046 48.24 165.222 51.6 163.494 54.928C162.854 56.208 162.246 57.552 161.67 58.96C161.094 60.368 160.55 61.776 160.038 63.184C161.382 61.52 162.918 59.792 164.646 58C166.374 56.208 168.166 54.576 170.022 53.104C171.942 51.568 173.83 50.448 175.686 49.744C177.798 48.976 179.558 48.592 180.966 48.592C182.438 48.592 183.494 48.944 184.134 49.648C184.838 50.352 185.19 51.248 185.19 52.336C185.19 53.552 184.71 55.024 183.75 56.752C182.79 58.416 181.478 59.856 179.814 61.072C178.406 62.032 176.934 62.864 175.398 63.568C173.862 64.272 172.038 64.72 169.926 64.912C169.542 65.808 169.254 66.736 169.062 67.696C168.934 68.592 168.87 69.488 168.87 70.384C168.87 72.88 169.446 75.088 170.598 77.008C171.75 78.864 173.254 79.792 175.11 79.792C176.006 79.792 176.966 79.536 177.99 79.024C179.078 78.512 180.198 77.648 181.35 76.432C182.63 75.152 183.91 73.328 185.19 70.96C186.534 68.592 187.878 66 189.222 63.184C189.478 62.672 189.766 62.416 190.086 62.416C190.47 62.416 190.662 62.672 190.662 63.184C190.662 63.44 190.566 63.76 190.374 64.144C188.518 68.432 186.726 71.856 184.998 74.416C183.334 76.912 181.702 78.8 180.102 80.08C178.566 81.296 177.062 82.064 175.59 82.384C174.118 82.704 172.646 82.8 171.174 82.672ZM209.503 82.288C208.799 82.352 207.999 82.192 207.103 81.808C206.207 81.424 205.407 80.72 204.703 79.696C204.063 78.672 203.743 77.232 203.743 75.376C203.743 73.84 204.031 71.984 204.607 69.808C203.839 71.024 202.847 72.528 201.631 74.32C200.415 76.048 199.103 77.584 197.695 78.928C196.479 80.08 195.327 80.912 194.239 81.424C193.151 81.936 192.159 82.192 191.263 82.192C189.599 82.192 188.255 81.456 187.231 79.984C186.207 78.448 185.695 76.464 185.695 74.032C185.695 71.472 186.335 68.56 187.615 65.296C188.895 62.032 190.975 58.64 193.855 55.12C195.711 52.88 197.951 51.088 200.575 49.744C203.263 48.336 205.887 47.632 208.447 47.632C209.919 47.632 211.327 47.888 212.671 48.4C214.015 48.848 215.199 49.616 216.223 50.704C216.671 51.152 216.895 51.664 216.895 52.24C216.895 52.624 216.735 52.944 216.415 53.2C216.095 53.456 215.679 53.52 215.167 53.392C214.463 51.152 212.959 50.032 210.655 50.032C209.567 50.032 208.319 50.384 206.911 51.088C204.735 52.24 202.463 54.128 200.095 56.752C197.791 59.376 195.775 62.096 194.047 64.912C193.791 65.296 193.375 66.032 192.799 67.12C192.287 68.208 191.775 69.424 191.263 70.768C190.751 72.112 190.399 73.424 190.207 74.704C190.143 75.088 190.111 75.376 190.111 75.568C190.111 75.696 190.111 75.92 190.111 76.24C190.111 78.352 190.911 79.408 192.511 79.408C194.431 79.408 196.607 78 199.039 75.184C200.703 73.136 202.207 70.992 203.551 68.752C204.895 66.512 206.271 64.112 207.679 61.552C208.639 59.824 209.535 58.384 210.367 57.232C211.199 56.08 212.383 55.504 213.919 55.504C214.623 55.504 215.327 55.6 216.031 55.792C216.735 55.984 217.471 56.016 218.239 55.888C217.727 56.4 217.023 57.36 216.127 58.768C215.295 60.176 214.399 61.776 213.439 63.568C212.479 65.36 211.615 67.184 210.847 69.04C210.079 70.896 209.535 72.496 209.215 73.84C209.151 74.224 209.055 74.768 208.927 75.472C208.863 76.176 208.831 76.688 208.831 77.008C208.831 78.8 209.343 79.696 210.367 79.696C211.391 79.696 212.479 79.088 213.631 77.872C214.847 76.656 216.031 75.152 217.183 73.36C218.335 71.568 219.391 69.776 220.351 67.984C221.311 66.128 222.079 64.624 222.655 63.472C222.911 62.832 223.295 62.512 223.807 62.512C224.127 62.512 224.287 62.736 224.287 63.184C224.287 63.376 224.191 63.728 223.999 64.24C223.231 65.84 222.303 67.664 221.215 69.712C220.127 71.696 218.943 73.648 217.663 75.568C216.383 77.424 215.039 78.992 213.631 80.272C212.287 81.488 210.911 82.16 209.503 82.288ZM227.221 82C225.429 82 223.829 81.392 222.421 80.176C221.013 78.896 220.309 76.912 220.309 74.224C220.309 72.112 220.693 69.52 221.461 66.448C222.293 63.312 223.285 60.08 224.437 56.752C225.653 53.36 226.837 50.288 227.989 47.536H222.901C222.453 47.536 222.229 47.216 222.229 46.576C222.229 46.256 222.293 45.968 222.421 45.712C222.613 45.456 222.869 45.328 223.189 45.328H228.949C230.037 42.896 231.189 40.528 232.405 38.224C233.621 35.92 234.805 33.744 235.957 31.696C237.429 29.136 238.997 27.216 240.661 25.936C242.325 24.656 243.765 24.016 244.981 24.016C245.941 24.016 246.741 24.4 247.381 25.168C248.021 25.872 248.341 26.96 248.341 28.432C248.341 29.328 248.149 30.576 247.765 32.176C247.381 33.712 246.773 35.344 245.941 37.072C245.493 37.968 244.853 39.248 244.021 40.912C243.253 42.576 242.485 44.048 241.717 45.328H246.325C246.773 45.328 246.997 45.648 246.997 46.288C246.997 46.544 246.933 46.832 246.805 47.152C246.677 47.408 246.485 47.536 246.229 47.536H240.565C238.965 50.288 237.141 52.976 235.093 55.6C233.045 58.224 230.613 60.848 227.797 63.472C227.605 64.048 227.349 64.88 227.029 65.968C226.773 67.056 226.517 68.176 226.261 69.328C226.069 70.416 225.877 71.344 225.685 72.112C225.557 72.88 225.493 73.264 225.493 73.264C225.301 74.096 225.205 74.864 225.205 75.568C225.205 76.912 225.525 77.904 226.165 78.544C226.805 79.12 227.541 79.408 228.373 79.408C228.885 79.408 229.397 79.344 229.909 79.216C230.421 79.024 230.997 78.704 231.637 78.256C233.877 76.656 235.829 74.48 237.493 71.728C239.221 68.976 240.725 66.32 242.005 63.76C242.389 62.992 242.773 62.608 243.157 62.608C243.413 62.608 243.541 62.8 243.541 63.184C243.541 63.376 243.445 63.728 243.253 64.24C241.845 67.184 240.661 69.552 239.701 71.344C238.741 73.136 237.813 74.64 236.917 75.856C236.021 77.008 234.965 78.16 233.749 79.312C232.853 80.208 231.829 80.88 230.677 81.328C229.525 81.776 228.373 82 227.221 82ZM234.805 45.328H239.701C240.597 43.664 241.429 42.032 242.197 40.432C243.029 38.832 243.765 37.232 244.405 35.632C244.853 34.608 245.237 33.456 245.557 32.176C245.877 30.896 246.037 29.904 246.037 29.2C246.037 28.24 245.813 27.76 245.365 27.76C245.045 27.76 244.565 28.048 243.925 28.624C243.349 29.136 242.613 30.032 241.717 31.312C240.565 32.912 239.413 34.992 238.261 37.552C237.173 40.048 236.021 42.64 234.805 45.328ZM228.565 60.4C230.421 58.48 232.149 56.432 233.749 54.256C235.413 52.08 236.949 49.84 238.357 47.536H233.845C232.821 49.904 231.861 52.208 230.965 54.448C230.069 56.688 229.269 58.672 228.565 60.4ZM376.015 99.76C372.495 99.76 369.231 98.96 366.223 97.36C363.279 95.76 360.655 93.584 358.351 90.832C356.047 88.144 354.127 85.104 352.591 81.712C351.311 78.832 350.255 75.92 349.423 72.976C348.655 70.032 348.079 67.28 347.695 64.72C347.311 62.16 347.119 60.048 347.119 58.384C347.119 56.336 347.343 55.184 347.791 54.928C349.007 55.056 351.023 54.544 353.839 53.392C356.719 52.24 360.111 50.544 364.015 48.304C367.983 46.064 372.239 43.376 376.783 40.24C381.391 37.04 385.999 33.456 390.607 29.488C395.279 25.52 399.759 21.232 404.047 16.624C408.335 12.016 412.111 7.184 415.375 2.128C416.143 0.911999 416.879 0.303999 417.583 0.303999C418.159 0.303999 418.447 0.655998 418.447 1.36C418.447 1.936 418.223 2.576 417.775 3.27999C414.703 8.4 411.055 13.424 406.831 18.352C402.607 23.216 398.095 27.792 393.295 32.08C388.495 36.368 383.663 40.24 378.799 43.696C373.999 47.152 369.391 50.032 364.975 52.336C360.623 54.64 356.783 56.208 353.455 57.04C353.263 56.912 353.167 57.232 353.167 58C353.167 59.088 353.391 60.848 353.839 63.28C354.287 65.648 354.959 68.368 355.855 71.44C356.815 74.448 357.967 77.52 359.311 80.656C361.359 85.456 363.791 89.136 366.607 91.696C369.487 94.32 372.783 95.632 376.495 95.632C378.991 95.632 381.551 95.248 384.175 94.48C386.799 93.776 389.199 92.656 391.375 91.12C393.551 89.648 395.247 87.76 396.463 85.456C396.847 84.56 397.295 84.112 397.807 84.112C398.063 84.112 398.191 84.304 398.191 84.688C398.191 85.136 398.031 85.648 397.711 86.224C396.559 88.592 394.799 90.8 392.431 92.848C390.063 94.896 387.407 96.56 384.463 97.84C381.583 99.12 378.767 99.76 376.015 99.76ZM294.799 98.512C290.447 98.512 286.223 97.904 282.127 96.688C278.095 95.536 274.447 93.808 271.183 91.504C267.983 89.2 265.423 86.384 263.503 83.056C261.647 79.728 260.719 75.952 260.719 71.728C260.719 70.576 260.815 69.392 261.007 68.176C261.199 66.896 261.455 65.584 261.775 64.24C262.415 61.936 263.439 59.952 264.847 58.288C266.319 56.56 267.823 55.216 269.359 54.256C270.895 53.232 272.047 52.688 272.815 52.624H273.103C273.743 52.624 274.063 52.816 274.063 53.2C274.063 53.52 273.903 53.776 273.583 53.968C273.007 54.224 272.015 54.96 270.607 56.176C269.263 57.328 267.919 58.96 266.575 61.072C265.231 63.12 264.367 65.584 263.983 68.464C263.791 69.68 263.695 70.832 263.695 71.92C263.695 75.76 264.527 79.056 266.191 81.808C267.855 84.496 270.031 86.704 272.719 88.432C275.407 90.16 278.351 91.408 281.551 92.176C284.751 93.008 287.887 93.424 290.959 93.424C292.175 93.424 293.359 93.36 294.511 93.232C295.663 93.168 296.751 93.008 297.775 92.752C304.687 91.216 310.671 88.752 315.727 85.36C320.847 81.968 325.263 78.064 328.975 73.648C332.687 69.232 335.823 64.688 338.383 60.016C341.007 55.344 343.215 50.96 345.007 46.864C345.391 45.904 346.031 44.4 346.927 42.352C347.887 40.304 348.943 37.968 350.095 35.344C351.311 32.72 352.527 30.064 353.743 27.376C355.023 24.688 356.175 22.224 357.199 19.984C358.223 17.744 359.055 16.016 359.695 14.8C355.407 15.312 350.767 15.792 345.775 16.24C340.847 16.624 336.143 17.456 331.663 18.736C326.671 20.144 322.575 22.192 319.375 24.88C316.239 27.568 313.903 30.512 312.367 33.712C310.895 36.912 310.159 39.952 310.159 42.832C310.159 45.968 310.959 48.592 312.559 50.704C314.159 52.816 316.367 53.872 319.183 53.872C320.591 53.872 322.095 53.584 323.695 53.008C325.551 52.368 327.087 51.248 328.303 49.648C329.519 47.984 330.415 46.128 330.991 44.08C331.631 41.968 331.951 39.952 331.951 38.032C331.951 37.008 331.855 36.016 331.663 35.056V34.864C331.663 34.608 331.791 34.48 332.047 34.48C332.559 34.48 333.007 34.864 333.391 35.632C333.711 36.272 333.903 36.976 333.967 37.744C334.095 38.448 334.159 39.152 334.159 39.856C334.159 41.904 333.711 43.952 332.815 46C331.919 47.984 330.735 49.776 329.263 51.376C327.791 52.976 326.127 54.128 324.271 54.832C323.247 55.216 322.255 55.504 321.295 55.696C320.335 55.824 319.407 55.888 318.511 55.888C315.759 55.888 313.295 55.184 311.119 53.776C309.007 52.304 307.343 50.384 306.127 48.016C304.975 45.648 304.399 43.088 304.399 40.336C304.399 37.2 305.263 34.032 306.991 30.832C308.719 27.568 311.503 24.624 315.343 22C319.183 19.312 324.239 17.264 330.511 15.856C335.759 14.704 341.103 13.968 346.543 13.648C351.983 13.264 356.783 12.88 360.943 12.496C361.199 12.112 361.711 11.376 362.479 10.288C363.311 9.2 364.239 8.112 365.263 7.024C366.351 5.872 367.407 5.136 368.431 4.816C369.135 4.624 369.743 4.528 370.255 4.528C371.407 4.528 372.303 4.848 372.943 5.488C373.647 6.12799 373.999 6.89599 373.999 7.79199C373.999 9.072 373.103 10.448 371.311 11.92C369.583 13.328 366.639 14.256 362.479 14.704C360.431 18.48 358.543 22.672 356.815 27.28C355.087 31.824 353.359 36.592 351.631 41.584C349.967 46.512 348.111 51.472 346.063 56.464C344.079 61.392 341.807 66.16 339.247 70.768C336.687 75.312 333.647 79.472 330.127 83.248C326.671 87.024 322.575 90.192 317.839 92.752C313.167 95.312 307.727 97.072 301.519 98.032C300.431 98.16 299.311 98.256 298.159 98.32C297.007 98.448 295.887 98.512 294.799 98.512ZM364.303 12.304C366.287 11.984 367.695 11.6 368.527 11.152C369.423 10.64 370.063 10.128 370.447 9.616C370.895 9.104 371.119 8.656 371.119 8.272C371.119 7.632 370.799 7.31199 370.159 7.31199C369.583 7.31199 368.879 7.632 368.047 8.272C367.407 8.72 366.735 9.36 366.031 10.192C365.327 11.024 364.751 11.728 364.303 12.304ZM397.94 82.288C397.236 82.352 396.436 82.192 395.54 81.808C394.644 81.424 393.844 80.72 393.14 79.696C392.5 78.672 392.18 77.232 392.18 75.376C392.18 73.84 392.468 71.984 393.044 69.808C392.276 71.024 391.284 72.528 390.068 74.32C388.852 76.048 387.54 77.584 386.132 78.928C384.916 80.08 383.764 80.912 382.676 81.424C381.588 81.936 380.596 82.192 379.7 82.192C378.036 82.192 376.692 81.456 375.668 79.984C374.644 78.448 374.132 76.464 374.132 74.032C374.132 71.472 374.772 68.56 376.052 65.296C377.332 62.032 379.412 58.64 382.292 55.12C384.148 52.88 386.388 51.088 389.012 49.744C391.7 48.336 394.324 47.632 396.884 47.632C398.356 47.632 399.764 47.888 401.108 48.4C402.452 48.848 403.636 49.616 404.66 50.704C405.108 51.152 405.332 51.664 405.332 52.24C405.332 52.624 405.172 52.944 404.852 53.2C404.532 53.456 404.116 53.52 403.604 53.392C402.9 51.152 401.396 50.032 399.092 50.032C398.004 50.032 396.756 50.384 395.348 51.088C393.172 52.24 390.9 54.128 388.532 56.752C386.228 59.376 384.212 62.096 382.484 64.912C382.228 65.296 381.812 66.032 381.236 67.12C380.724 68.208 380.212 69.424 379.7 70.768C379.188 72.112 378.836 73.424 378.644 74.704C378.58 75.088 378.548 75.376 378.548 75.568C378.548 75.696 378.548 75.92 378.548 76.24C378.548 78.352 379.348 79.408 380.948 79.408C382.868 79.408 385.044 78 387.476 75.184C389.14 73.136 390.644 70.992 391.988 68.752C393.332 66.512 394.708 64.112 396.116 61.552C397.076 59.824 397.972 58.384 398.804 57.232C399.636 56.08 400.82 55.504 402.356 55.504C403.06 55.504 403.764 55.6 404.468 55.792C405.172 55.984 405.908 56.016 406.676 55.888C406.164 56.4 405.46 57.36 404.564 58.768C403.732 60.176 402.836 61.776 401.876 63.568C400.916 65.36 400.052 67.184 399.284 69.04C398.516 70.896 397.972 72.496 397.652 73.84C397.588 74.224 397.492 74.768 397.364 75.472C397.3 76.176 397.268 76.688 397.268 77.008C397.268 78.8 397.78 79.696 398.804 79.696C399.828 79.696 400.916 79.088 402.068 77.872C403.284 76.656 404.468 75.152 405.62 73.36C406.772 71.568 407.828 69.776 408.788 67.984C409.748 66.128 410.516 64.624 411.092 63.472C411.348 62.832 411.732 62.512 412.244 62.512C412.564 62.512 412.724 62.736 412.724 63.184C412.724 63.376 412.628 63.728 412.436 64.24C411.668 65.84 410.74 67.664 409.652 69.712C408.564 71.696 407.38 73.648 406.1 75.568C404.82 77.424 403.476 78.992 402.068 80.272C400.724 81.488 399.348 82.16 397.94 82.288ZM401.93 82.48C404.298 77.936 406.538 73.392 408.65 68.848C410.762 64.24 412.906 59.888 415.082 55.792C416.362 53.488 417.418 51.888 418.25 50.992C419.146 50.032 420.33 49.552 421.802 49.552C422.314 49.552 422.858 49.648 423.434 49.84C424.01 49.968 424.586 50.032 425.162 50.032C425.546 50.032 425.834 50 426.026 49.936C425.13 50.448 423.978 51.728 422.57 53.776C421.162 55.76 419.722 58.064 418.25 60.688C416.778 63.312 415.466 65.776 414.314 68.08C415.53 66.608 416.778 65.136 418.058 63.664C419.402 62.192 420.874 60.784 422.474 59.44C423.882 58.224 425.354 56.912 426.89 55.504C428.49 54.032 430.058 52.784 431.594 51.76C433.13 50.736 434.474 50.224 435.626 50.224C436.074 50.224 436.362 50.256 436.49 50.32C437.706 50.832 438.314 51.664 438.314 52.816C438.314 53.2 438.154 53.776 437.834 54.544C437.002 56.72 435.914 58.96 434.57 61.264C433.29 63.504 432.074 65.776 430.922 68.08C431.882 66.928 433.066 65.52 434.474 63.856C435.946 62.192 437.418 60.72 438.89 59.44C440.298 58.16 442.09 56.816 444.266 55.408C446.442 54 448.586 52.784 450.698 51.76C452.81 50.736 454.506 50.224 455.786 50.224C456.234 50.224 456.554 50.256 456.746 50.32C456.746 50.32 456.394 50.96 455.69 52.24C454.986 53.456 454.09 55.088 453.002 57.136C451.978 59.12 450.922 61.264 449.834 63.568C448.746 65.808 447.754 67.984 446.858 70.096C446.026 72.144 445.482 73.872 445.226 75.28C445.034 76.112 444.938 76.88 444.938 77.584C444.938 78.608 445.13 79.28 445.514 79.6C445.898 79.92 446.314 80.08 446.762 80.08C448.042 80.08 449.354 79.408 450.698 78.064C452.042 76.72 453.322 75.12 454.538 73.264C455.818 71.344 456.938 69.488 457.898 67.696C458.858 65.84 459.562 64.432 460.01 63.472C460.394 62.768 460.778 62.416 461.162 62.416C461.546 62.416 461.738 62.672 461.738 63.184C461.738 63.504 461.642 63.856 461.45 64.24C460.682 65.712 459.754 67.472 458.666 69.52C457.642 71.568 456.458 73.584 455.114 75.568C453.77 77.488 452.266 79.12 450.602 80.464C449.002 81.744 447.274 82.384 445.418 82.384C444.074 82.384 442.698 81.936 441.29 81.04C439.946 80.144 439.274 78.48 439.274 76.048C439.274 74.704 439.562 73.072 440.138 71.152C440.586 69.872 441.258 68.4 442.154 66.736C443.114 65.072 444.266 63.152 445.61 60.976C446.25 59.888 446.57 59.024 446.57 58.384C446.57 57.616 446.186 57.232 445.418 57.232C444.778 57.232 443.882 57.552 442.73 58.192C441.642 58.832 440.266 59.952 438.602 61.552C437.578 62.512 436.362 63.856 434.954 65.584C433.61 67.248 432.234 69.072 430.826 71.056C429.418 73.04 428.202 74.992 427.178 76.912C426.154 78.832 425.482 80.528 425.162 82C424.202 82 423.434 81.616 422.858 80.848C422.282 80.016 421.994 79.056 421.994 77.968C421.994 77.776 421.994 77.584 421.994 77.392C421.994 77.2 422.026 76.976 422.09 76.72C422.41 74.736 422.922 72.88 423.626 71.152C424.33 69.424 425.13 67.632 426.026 65.776C426.73 64.432 427.434 62.992 428.138 61.456C428.842 59.856 429.194 58.64 429.194 57.808C429.194 57.296 429.002 57.04 428.618 57.04C428.17 57.04 427.434 57.392 426.41 58.096C425.386 58.736 423.978 59.888 422.186 61.552C420.586 63.088 418.634 65.296 416.33 68.176C414.09 71.056 411.626 75.152 408.938 80.464C408.554 81.168 408.106 81.616 407.594 81.808C407.082 81.936 406.282 82 405.194 82C404.49 82 403.914 82 403.466 82C402.954 82.064 402.442 82.224 401.93 82.48ZM462.87 82C462.166 82 461.302 81.84 460.278 81.52C459.318 81.2 458.454 80.624 457.686 79.792C456.982 78.896 456.63 77.584 456.63 75.856C456.63 74.192 457.014 72.592 457.782 71.056C458.614 69.456 459.382 67.92 460.086 66.448C459.894 66.448 459.67 66.384 459.414 66.256C459.222 66.128 459.126 65.936 459.126 65.68C459.126 65.424 459.19 65.168 459.318 64.912C459.574 64.4 459.862 63.856 460.182 63.28C460.502 62.704 460.79 62.096 461.046 61.456C462.006 59.472 462.966 57.584 463.926 55.792C464.886 53.936 465.718 52.304 466.422 50.896C467.126 49.488 468.342 48.784 470.07 48.784H476.022C474.934 49.616 473.942 50.544 473.046 51.568C472.214 52.528 471.158 54.32 469.878 56.944C469.878 56.944 469.654 57.392 469.206 58.288C468.758 59.184 468.182 60.336 467.478 61.744C466.838 63.088 466.166 64.464 465.462 65.872C464.822 67.28 464.278 68.464 463.83 69.424C462.998 71.216 462.454 72.656 462.198 73.744C461.942 74.768 461.814 75.728 461.814 76.624C461.814 78.736 462.518 79.792 463.926 79.792C465.462 79.792 467.318 78.544 469.494 76.048C471.286 73.936 473.046 71.408 474.774 68.464C476.502 65.52 478.134 62.48 479.67 59.344C481.27 56.208 482.678 53.392 483.894 50.896C484.598 49.488 485.846 48.784 487.638 48.784H492.918C491.958 49.552 491.158 50.288 490.518 50.992C489.878 51.632 489.238 52.528 488.598 53.68C488.022 54.768 487.222 56.336 486.198 58.384C485.366 60.112 484.47 61.968 483.51 63.952C482.614 65.872 481.814 67.696 481.11 69.424C480.406 71.152 479.958 72.56 479.766 73.648C479.702 74.288 479.638 74.768 479.574 75.088C479.51 75.408 479.478 75.76 479.478 76.144C479.478 77.36 479.67 78.224 480.054 78.736C480.502 79.248 481.014 79.504 481.59 79.504C483.126 79.504 484.662 78.64 486.198 76.912C487.798 75.184 489.302 73.072 490.71 70.576C492.182 68.08 493.43 65.712 494.454 63.472C494.838 62.768 495.19 62.416 495.51 62.416C495.894 62.416 496.086 62.64 496.086 63.088C496.086 63.408 495.958 63.792 495.702 64.24C494.998 65.776 494.134 67.536 493.11 69.52C492.086 71.504 490.934 73.456 489.654 75.376C488.374 77.296 486.966 78.896 485.43 80.176C483.894 81.392 482.23 82 480.438 82C478.838 82 477.526 81.424 476.502 80.272C475.478 79.056 474.966 77.36 474.966 75.184C474.966 73.456 475.286 71.6 475.926 69.616C474.838 71.536 473.59 73.456 472.182 75.376C470.774 77.296 469.27 78.896 467.67 80.176C466.07 81.392 464.47 82 462.87 82Z" fill="white"/>
</svg>
