<svg width="955" height="113" viewBox="0 0 955 113" fill="none" xmlns="http://www.w3.org/2000/svg">
<path d="M16.983 85.744C15.511 85.744 14.007 85.648 12.471 85.456C8.439 84.944 5.463 83.76 3.543 81.904C1.687 79.984 0.759 77.936 0.759 75.76C0.759 73.392 1.783 71.248 3.831 69.328C5.943 67.408 8.919 66.448 12.759 66.448C15.319 66.448 18.103 66.96 21.111 67.984C22.391 68.368 23.959 69.04 25.815 70C27.735 70.896 29.623 71.824 31.479 72.784C33.335 73.744 34.775 74.512 35.799 75.088C38.615 72.336 41.207 69.168 43.575 65.584C46.007 61.936 48.311 58.064 50.487 53.968C52.663 49.808 54.871 45.616 57.111 41.392C59.351 37.168 61.687 33.072 64.119 29.104C66.615 25.072 69.367 21.392 72.375 18.064C69.047 16.016 65.367 14.448 61.335 13.36C57.367 12.208 53.271 11.632 49.047 11.632C47.447 11.632 45.815 11.728 44.151 11.92C42.551 12.112 40.919 12.368 39.255 12.688C33.303 13.968 28.279 16.016 24.183 18.832C20.087 21.584 16.983 24.624 14.871 27.952C12.823 31.216 11.799 34.32 11.799 37.264C11.799 39.44 12.375 41.36 13.527 43.024C14.679 44.688 16.439 45.872 18.807 46.576C20.535 47.088 22.039 47.344 23.319 47.344C25.431 47.344 27.255 46.928 28.791 46.096C30.391 45.2 31.735 44.112 32.823 42.832C33.911 41.552 34.711 40.304 35.223 39.088C35.799 37.872 36.119 36.88 36.183 36.112C36.183 35.664 36.471 35.44 37.047 35.44C37.943 35.44 38.295 35.984 38.103 37.072C37.783 39.632 36.823 41.872 35.223 43.792C33.623 45.648 31.703 47.12 29.463 48.208C27.223 49.232 24.919 49.744 22.551 49.744C21.015 49.744 19.415 49.488 17.751 48.976C14.807 47.952 12.311 46.192 10.263 43.696C8.279 41.136 7.287 38.128 7.287 34.672C7.287 31.28 8.407 27.888 10.647 24.496C12.951 21.04 16.599 17.936 21.591 15.184C26.583 12.432 33.111 10.48 41.175 9.328C43.863 8.944 46.583 8.752 49.335 8.752C53.879 8.752 58.327 9.296 62.679 10.384C67.095 11.472 71.255 13.04 75.159 15.088L77.559 12.304C78.135 11.792 78.935 11.152 79.959 10.384C81.047 9.616 82.135 8.88 83.223 8.17599C84.311 7.472 85.111 7.024 85.623 6.832C86.455 6.512 87.127 6.352 87.639 6.352C88.023 6.352 88.215 6.448 88.215 6.64C88.215 7.088 87.703 7.632 86.679 8.272C86.039 8.72 85.463 9.232 84.951 9.808C84.439 10.32 84.055 10.736 83.799 11.056C82.839 12.4 82.071 13.488 81.495 14.32C80.983 15.152 80.279 16.24 79.383 17.584C85.271 21.488 90.071 26.544 93.783 32.752C97.495 38.896 99.351 45.936 99.351 53.872C99.351 55.536 99.255 57.232 99.063 58.96C98.679 63.056 97.559 66.768 95.703 70.096C93.847 73.424 91.415 76.24 88.407 78.544C85.463 80.848 82.167 82.608 78.519 83.824C74.935 85.104 71.159 85.744 67.191 85.744C65.719 85.744 64.247 85.648 62.775 85.456C56.503 84.688 51.319 83.664 47.223 82.384C43.191 81.168 39.639 79.888 36.567 78.544C30.743 83.344 24.215 85.744 16.983 85.744ZM65.559 82.864C70.679 82.864 75.191 81.776 79.095 79.6C83.063 77.36 86.263 74.448 88.695 70.864C91.127 67.28 92.567 63.408 93.015 59.248C93.207 57.712 93.303 56.176 93.303 54.64C93.303 47.664 91.799 41.328 88.791 35.632C85.847 29.872 81.943 25.04 77.079 21.136C74.263 25.552 71.351 30.224 68.343 35.152C65.399 40.08 62.423 44.976 59.415 49.84C56.407 54.64 53.463 59.088 50.583 63.184C47.767 67.28 45.111 70.672 42.615 73.36C42.167 73.744 41.591 74.32 40.887 75.088C40.247 75.792 39.575 76.368 38.871 76.816C41.879 78.16 45.303 79.376 49.143 80.464C52.983 81.552 57.495 82.32 62.679 82.768C63.255 82.832 63.735 82.864 64.119 82.864C64.567 82.864 65.047 82.864 65.559 82.864ZM14.871 82.768C18.391 82.96 21.687 82.544 24.759 81.52C27.831 80.432 30.679 78.928 33.303 77.008C30.999 75.92 28.663 74.8 26.295 73.648C23.927 72.432 21.431 71.344 18.807 70.384C17.079 69.808 15.543 69.52 14.199 69.52C11.831 69.52 10.039 70.192 8.823 71.536C7.607 72.816 6.999 74.256 6.999 75.856C6.999 77.584 7.671 79.152 9.015 80.56C10.359 81.904 12.311 82.64 14.871 82.768ZM124.362 82.288C123.658 82.352 122.858 82.192 121.962 81.808C121.066 81.424 120.266 80.72 119.562 79.696C118.922 78.672 118.602 77.232 118.602 75.376C118.602 73.84 118.89 71.984 119.466 69.808C118.698 71.024 117.706 72.528 116.49 74.32C115.274 76.048 113.962 77.584 112.554 78.928C111.338 80.08 110.186 80.912 109.098 81.424C108.01 81.936 107.018 82.192 106.122 82.192C104.458 82.192 103.114 81.456 102.09 79.984C101.066 78.448 100.554 76.464 100.554 74.032C100.554 71.472 101.194 68.56 102.474 65.296C103.754 62.032 105.834 58.64 108.714 55.12C110.57 52.88 112.81 51.088 115.434 49.744C118.122 48.336 120.746 47.632 123.306 47.632C124.778 47.632 126.186 47.888 127.53 48.4C128.874 48.848 130.058 49.616 131.082 50.704C131.53 51.152 131.754 51.664 131.754 52.24C131.754 52.624 131.594 52.944 131.274 53.2C130.954 53.456 130.538 53.52 130.026 53.392C129.322 51.152 127.818 50.032 125.514 50.032C124.426 50.032 123.178 50.384 121.77 51.088C119.594 52.24 117.322 54.128 114.954 56.752C112.65 59.376 110.634 62.096 108.906 64.912C108.65 65.296 108.234 66.032 107.658 67.12C107.146 68.208 106.634 69.424 106.122 70.768C105.61 72.112 105.258 73.424 105.066 74.704C105.002 75.088 104.97 75.376 104.97 75.568C104.97 75.696 104.97 75.92 104.97 76.24C104.97 78.352 105.77 79.408 107.37 79.408C109.29 79.408 111.466 78 113.898 75.184C115.562 73.136 117.066 70.992 118.41 68.752C119.754 66.512 121.13 64.112 122.538 61.552C123.498 59.824 124.394 58.384 125.226 57.232C126.058 56.08 127.242 55.504 128.778 55.504C129.482 55.504 130.186 55.6 130.89 55.792C131.594 55.984 132.33 56.016 133.098 55.888C132.586 56.4 131.882 57.36 130.986 58.768C130.154 60.176 129.258 61.776 128.298 63.568C127.338 65.36 126.474 67.184 125.706 69.04C124.938 70.896 124.394 72.496 124.074 73.84C124.01 74.224 123.914 74.768 123.786 75.472C123.722 76.176 123.69 76.688 123.69 77.008C123.69 78.8 124.202 79.696 125.226 79.696C126.25 79.696 127.338 79.088 128.49 77.872C129.706 76.656 130.89 75.152 132.042 73.36C133.194 71.568 134.25 69.776 135.21 67.984C136.17 66.128 136.938 64.624 137.514 63.472C137.77 62.832 138.154 62.512 138.666 62.512C138.986 62.512 139.146 62.736 139.146 63.184C139.146 63.376 139.05 63.728 138.858 64.24C138.09 65.84 137.162 67.664 136.074 69.712C134.986 71.696 133.802 73.648 132.522 75.568C131.242 77.424 129.898 78.992 128.49 80.272C127.146 81.488 125.77 82.16 124.362 82.288ZM148.8 82.096C147.584 82.096 146.368 81.616 145.152 80.656C143.936 79.632 143.328 78 143.328 75.76C143.328 74.032 143.744 72.048 144.576 69.808C145.344 67.632 146.368 65.52 147.648 63.472C148.992 61.424 149.952 59.76 150.528 58.48C150.72 57.968 150.816 57.52 150.816 57.136C150.816 55.984 150.08 55.152 148.608 54.64C147.2 54.128 145.344 53.84 143.04 53.776L141.888 56.944C141.184 58.992 140.192 61.392 138.912 64.144C137.696 66.896 136.32 69.552 134.784 72.112C133.312 74.672 131.776 76.72 130.176 78.256C130.048 78.384 129.888 78.448 129.696 78.448C129.44 78.448 129.28 78.288 129.216 77.968C129.088 77.648 129.216 77.264 129.6 76.816C132.096 73.488 134.336 69.808 136.32 65.776C138.304 61.68 139.968 57.52 141.312 53.296C142.72 49.072 143.744 45.168 144.384 41.584C144.576 40.56 144.928 39.824 145.44 39.376C145.952 38.864 146.496 38.608 147.072 38.608C147.904 38.608 148.672 39.024 149.376 39.856C150.08 40.624 150.432 41.744 150.432 43.216C150.432 43.472 150.4 43.76 150.336 44.08C150.336 44.4 150.304 44.72 150.24 45.04C149.984 46.384 149.216 47.664 147.936 48.88C146.72 50.032 145.728 50.896 144.96 51.472C145.6 51.536 146.272 51.6 146.976 51.664C147.68 51.664 148.448 51.664 149.28 51.664C152.288 51.664 155.264 51.472 158.208 51.088C158.336 51.472 158.4 51.76 158.4 51.952C158.4 52.784 158.144 53.84 157.632 55.12C157.184 56.4 156.704 57.552 156.192 58.576C155.936 59.152 155.424 60.208 154.656 61.744C153.888 63.216 153.056 64.912 152.16 66.832C151.264 68.688 150.496 70.544 149.856 72.4C149.28 74.192 148.992 75.728 148.992 77.008C148.992 78.672 149.632 79.504 150.912 79.504C151.872 79.504 152.928 78.896 154.08 77.68C155.232 76.4 156.352 74.864 157.44 73.072C158.592 71.216 159.616 69.424 160.512 67.696C161.472 65.904 162.208 64.496 162.72 63.472C162.976 62.832 163.328 62.512 163.776 62.512C164.032 62.512 164.16 62.736 164.16 63.184C164.16 63.44 164.064 63.824 163.872 64.336C163.168 65.808 162.336 67.472 161.376 69.328C160.416 71.184 159.328 73.008 158.112 74.8C156.96 76.592 155.68 78.16 154.272 79.504C152.928 80.784 151.456 81.616 149.856 82C149.664 82.064 149.312 82.096 148.8 82.096ZM173.159 43.024C172.199 43.024 171.399 42.704 170.759 42.064C170.183 41.36 169.895 40.528 169.895 39.568C169.895 38.352 170.375 37.296 171.335 36.4C172.295 35.504 173.351 35.056 174.503 35.056C175.527 35.056 176.359 35.376 176.999 36.016C177.639 36.656 177.959 37.424 177.959 38.32C177.959 39.536 177.479 40.624 176.519 41.584C175.559 42.544 174.439 43.024 173.159 43.024ZM165.383 82C163.015 82 161.351 81.328 160.391 79.984C159.431 78.576 158.951 76.976 158.951 75.184C158.951 74.224 159.047 73.264 159.239 72.304C159.495 71.28 159.783 70.352 160.103 69.52L166.535 53.104C166.727 52.592 166.823 52.144 166.823 51.76C166.823 51.12 166.663 50.576 166.343 50.128C166.023 49.616 165.799 49.264 165.671 49.072L170.951 48.88C171.911 48.816 172.583 48.944 172.967 49.264C173.415 49.52 173.639 49.84 173.639 50.224C173.639 50.608 173.415 51.312 172.967 52.336L164.999 71.056C164.999 71.056 164.807 71.472 164.423 72.304C164.103 73.072 163.911 73.584 163.847 73.84C163.655 74.8 163.527 75.408 163.463 75.664C163.399 75.92 163.367 76.08 163.367 76.144C163.367 76.208 163.367 76.464 163.367 76.912C163.367 77.744 163.559 78.448 163.943 79.024C164.391 79.6 165.127 79.888 166.151 79.888C166.791 79.888 167.527 79.696 168.359 79.312C169.191 78.928 169.799 78.544 170.183 78.16C171.783 76.496 173.351 74.32 174.887 71.632C176.487 68.88 177.959 66.16 179.303 63.472C179.559 62.832 179.879 62.512 180.263 62.512C180.583 62.512 180.743 62.736 180.743 63.184C180.743 63.44 180.647 63.824 180.455 64.336C179.815 65.68 179.015 67.344 178.055 69.328C177.095 71.312 175.943 73.296 174.599 75.28C173.319 77.2 171.911 78.8 170.375 80.08C168.839 81.36 167.175 82 165.383 82ZM251.644 91.216C251.324 91.216 251.036 91.216 250.78 91.216C250.524 91.216 250.268 91.184 250.012 91.12C246.94 90.544 245.404 87.792 245.404 82.864C245.404 78.896 246.396 73.552 248.38 66.832C250.364 60.112 253.372 52.016 257.404 42.544C258.556 39.856 259.708 36.848 260.86 33.52C262.012 30.128 262.972 26.736 263.74 23.344C264.572 19.952 264.988 16.88 264.988 14.128C264.988 12.144 264.732 10.416 264.22 8.944C263.708 7.408 262.844 6.288 261.628 5.58399C260.22 4.68799 258.652 4.04799 256.924 3.664C255.26 3.216 253.5 2.992 251.644 2.992C248.316 2.992 244.828 3.6 241.18 4.816C237.532 5.968 233.916 7.6 230.332 9.712C226.748 11.824 223.356 14.288 220.156 17.104C216.956 19.92 214.108 22.992 211.612 26.32C209.18 29.584 207.324 32.976 206.044 36.496C205.212 38.864 204.572 41.104 204.124 43.216C203.74 45.328 203.548 47.312 203.548 49.168C203.548 53.008 204.316 56.24 205.852 58.864C207.388 61.424 209.372 63.344 211.804 64.624C214.3 65.904 216.924 66.544 219.676 66.544C222.364 66.544 225.02 65.904 227.644 64.624C230.332 63.28 232.732 61.52 234.844 59.344C237.02 57.168 238.748 54.768 240.028 52.144C241.308 49.52 241.948 46.864 241.948 44.176C241.948 42 241.5 40.112 240.604 38.512C239.708 36.848 238.204 36.016 236.092 36.016C235.644 36.016 235.164 36.048 234.652 36.112C234.204 36.176 233.724 36.304 233.212 36.496C232.572 36.688 232.06 36.784 231.676 36.784C231.356 36.784 231.196 36.688 231.196 36.496C231.196 36.368 231.324 36.176 231.58 35.92C231.836 35.6 232.188 35.344 232.636 35.152C234.492 34.32 236.22 33.904 237.82 33.904C240.444 33.904 242.492 34.896 243.964 36.88C245.436 38.864 246.172 41.264 246.172 44.08C246.172 47.152 245.276 50.16 243.484 53.104C241.756 56.048 239.484 58.736 236.668 61.168C233.852 63.536 230.812 65.456 227.548 66.928C224.284 68.336 221.148 69.04 218.14 69.04C214.748 69.04 211.516 68.112 208.444 66.256C205.372 64.4 202.876 61.808 200.956 58.48C199.036 55.088 198.076 51.152 198.076 46.672C198.076 44.624 198.332 42.48 198.844 40.24C199.292 38 200.028 35.696 201.052 33.328C203.164 28.464 206.108 24.016 209.884 19.984C213.66 15.952 217.884 12.496 222.556 9.616C227.228 6.672 231.996 4.432 236.86 2.89599C241.724 1.296 246.364 0.495996 250.78 0.495996C254.684 0.495996 258.172 1.168 261.244 2.51199C264.636 3.98399 267.036 6.15999 268.444 9.04C269.852 11.92 270.556 15.152 270.556 18.736C270.556 22.64 269.884 26.8 268.54 31.216C267.26 35.568 265.628 39.728 263.644 43.696C261.596 47.856 259.74 52.208 258.076 56.752C256.412 61.232 255.004 65.52 253.852 69.616C252.7 73.648 251.868 77.136 251.356 80.08C251.228 80.784 251.132 81.424 251.068 82C251.004 82.64 250.972 83.216 250.972 83.728C250.972 86.736 251.964 88.24 253.948 88.24C255.292 88.24 256.892 87.664 258.748 86.512C260.604 85.424 262.524 84.048 264.508 82.384C266.556 80.72 268.508 78.992 270.364 77.2C272.22 75.344 273.82 73.712 275.164 72.304C276.508 70.832 277.436 69.808 277.948 69.232C283.324 62.96 287.548 56.688 290.62 50.416C293.692 44.08 295.228 38.384 295.228 33.328C295.228 32.176 295.132 31.024 294.94 29.872C294.684 28.208 294.332 27.056 293.884 26.416C293.436 25.776 292.924 25.392 292.348 25.264C291.772 25.136 291.1 25.008 290.332 24.88C289.5 24.752 288.86 24.496 288.412 24.112C288.028 23.728 287.836 23.376 287.836 23.056C287.836 22.416 288.38 22.096 289.468 22.096C289.596 22.096 289.756 22.128 289.948 22.192C290.204 22.192 290.46 22.224 290.716 22.288C291.932 22.608 293.276 23.312 294.748 24.4C296.22 25.488 297.5 26.96 298.588 28.816C299.676 30.672 300.22 33.008 300.22 35.824C300.22 38.448 299.612 41.36 298.396 44.56C296.604 49.232 294.268 53.84 291.388 58.384C288.508 62.864 285.308 67.088 281.788 71.056C278.332 74.96 274.78 78.448 271.132 81.52C267.484 84.528 263.964 86.896 260.572 88.624C257.244 90.352 254.268 91.216 251.644 91.216ZM305.161 82.384C302.793 82.384 300.649 81.616 298.729 80.08C296.873 78.544 295.945 76.208 295.945 73.072C295.945 70.192 296.649 67.12 298.057 63.856C299.465 60.528 301.257 57.616 303.433 55.12C305.289 52.944 307.369 51.152 309.673 49.744C311.977 48.336 314.153 47.632 316.201 47.632C317.609 47.632 318.825 48.016 319.849 48.784C320.937 49.616 321.481 50.8 321.481 52.336C321.481 53.936 320.873 55.696 319.657 57.616C318.441 59.536 316.713 61.328 314.473 62.992C313.513 63.696 312.297 64.368 310.825 65.008C309.353 65.648 307.881 66.192 306.409 66.64C304.937 67.024 303.721 67.216 302.761 67.216C302.441 67.984 302.121 69.008 301.801 70.288C301.545 71.568 301.417 72.88 301.417 74.224C301.417 75.824 301.737 77.264 302.377 78.544C303.017 79.824 304.201 80.464 305.929 80.464C308.041 80.464 309.961 79.856 311.689 78.64C313.417 77.424 314.953 75.92 316.297 74.128C317.641 72.272 318.761 70.416 319.657 68.56C320.617 66.704 321.385 65.136 321.961 63.856C322.345 62.96 322.857 62.512 323.497 62.512C323.817 62.512 323.977 62.672 323.977 62.992C323.977 63.248 323.881 63.568 323.689 63.952C322.793 65.872 321.833 67.92 320.809 70.096C319.785 72.208 318.569 74.224 317.161 76.144C315.753 78 314.057 79.504 312.073 80.656C310.153 81.808 307.849 82.384 305.161 82.384ZM303.433 65.488C304.329 65.488 305.833 65.168 307.945 64.528C310.057 63.824 311.977 62.736 313.705 61.264C315.369 59.792 316.649 58.192 317.545 56.464C318.441 54.672 318.889 53.168 318.889 51.952C318.889 50.544 318.377 49.84 317.353 49.84C316.585 49.84 315.529 50.352 314.185 51.376C312.841 52.4 311.177 54.128 309.193 56.56C307.977 58.096 306.825 59.76 305.737 61.552C304.649 63.344 303.881 64.656 303.433 65.488ZM333.581 82.096C332.365 82.096 331.149 81.616 329.933 80.656C328.717 79.632 328.109 78 328.109 75.76C328.109 74.032 328.525 72.048 329.357 69.808C330.125 67.632 331.149 65.52 332.429 63.472C333.773 61.424 334.733 59.76 335.309 58.48C335.501 57.968 335.597 57.52 335.597 57.136C335.597 55.984 334.861 55.152 333.389 54.64C331.981 54.128 330.125 53.84 327.821 53.776L326.669 56.944C325.965 58.992 324.973 61.392 323.693 64.144C322.477 66.896 321.101 69.552 319.565 72.112C318.093 74.672 316.557 76.72 314.957 78.256C314.829 78.384 314.669 78.448 314.477 78.448C314.221 78.448 314.061 78.288 313.997 77.968C313.869 77.648 313.997 77.264 314.381 76.816C316.877 73.488 319.117 69.808 321.101 65.776C323.085 61.68 324.749 57.52 326.093 53.296C327.501 49.072 328.525 45.168 329.165 41.584C329.357 40.56 329.709 39.824 330.221 39.376C330.733 38.864 331.277 38.608 331.853 38.608C332.685 38.608 333.453 39.024 334.157 39.856C334.861 40.624 335.213 41.744 335.213 43.216C335.213 43.472 335.181 43.76 335.117 44.08C335.117 44.4 335.085 44.72 335.021 45.04C334.765 46.384 333.997 47.664 332.717 48.88C331.501 50.032 330.509 50.896 329.741 51.472C330.381 51.536 331.053 51.6 331.757 51.664C332.461 51.664 333.229 51.664 334.061 51.664C337.069 51.664 340.045 51.472 342.989 51.088C343.117 51.472 343.181 51.76 343.181 51.952C343.181 52.784 342.925 53.84 342.413 55.12C341.965 56.4 341.485 57.552 340.973 58.576C340.717 59.152 340.205 60.208 339.437 61.744C338.669 63.216 337.837 64.912 336.941 66.832C336.045 68.688 335.277 70.544 334.637 72.4C334.061 74.192 333.773 75.728 333.773 77.008C333.773 78.672 334.413 79.504 335.693 79.504C336.653 79.504 337.709 78.896 338.861 77.68C340.013 76.4 341.133 74.864 342.221 73.072C343.373 71.216 344.397 69.424 345.293 67.696C346.253 65.904 346.989 64.496 347.501 63.472C347.757 62.832 348.109 62.512 348.557 62.512C348.813 62.512 348.941 62.736 348.941 63.184C348.941 63.44 348.845 63.824 348.653 64.336C347.949 65.808 347.117 67.472 346.157 69.328C345.197 71.184 344.109 73.008 342.893 74.8C341.741 76.592 340.461 78.16 339.053 79.504C337.709 80.784 336.237 81.616 334.637 82C334.445 82.064 334.093 82.096 333.581 82.096ZM349.397 82.384C346.261 82.384 344.021 81.584 342.677 79.984C341.396 78.32 340.756 76.592 340.756 74.8C340.756 73.328 341.108 71.984 341.812 70.768C342.581 69.552 343.477 68.912 344.501 68.848C345.781 66.352 347.157 63.632 348.629 60.688C350.165 57.744 351.573 54.896 352.853 52.144C353.749 50.288 354.869 48.496 356.213 46.768C357.621 45.04 359.157 44.048 360.821 43.792H361.781C362.293 43.792 362.741 43.824 363.125 43.888C363.573 43.952 364.021 44.08 364.469 44.272C365.173 44.592 365.525 45.072 365.525 45.712C365.525 46.096 365.301 46.288 364.853 46.288C364.661 46.288 364.405 46.192 364.085 46C363.317 45.68 362.645 45.52 362.069 45.52C361.685 45.52 361.333 45.616 361.013 45.808C359.797 46.448 358.933 47.344 358.421 48.496C357.973 49.648 357.749 50.864 357.749 52.144C357.749 53.168 357.845 54.224 358.037 55.312C358.293 56.336 358.581 57.264 358.901 58.096C359.605 59.888 360.341 61.648 361.109 63.376C361.941 65.104 362.357 66.96 362.357 68.944C362.357 70.864 361.717 72.912 360.437 75.088C359.157 77.2 357.525 78.896 355.541 80.176L356.213 80.272C356.533 80.336 356.757 80.368 356.885 80.368C357.013 80.368 357.109 80.368 357.173 80.368C358.645 80.368 360.021 79.952 361.301 79.12C362.645 78.224 363.829 77.136 364.853 75.856C365.877 74.576 367.029 72.784 368.309 70.48C369.653 68.176 370.933 65.744 372.149 63.184C372.341 62.864 372.565 62.704 372.821 62.704C373.141 62.704 373.365 62.832 373.493 63.088C373.685 63.28 373.717 63.536 373.589 63.856C372.757 65.648 371.797 67.6 370.709 69.712C369.685 71.76 368.501 73.744 367.156 75.664C365.813 77.52 364.245 79.056 362.453 80.272C360.725 81.424 358.773 82 356.597 82C356.085 82 355.541 81.968 354.965 81.904C354.389 81.84 353.813 81.712 353.237 81.52C352.597 81.776 351.925 81.968 351.221 82.096C350.581 82.288 349.973 82.384 349.397 82.384ZM352.277 79.504C353.365 78.608 354.325 77.296 355.157 75.568C356.053 73.84 356.501 71.568 356.501 68.752C356.501 66.256 356.245 63.6 355.733 60.784C355.221 57.968 354.965 55.472 354.965 53.296C354.965 52.848 354.965 52.464 354.965 52.144C355.029 51.76 355.093 51.408 355.157 51.088C354.325 52.816 353.365 54.832 352.277 57.136C351.189 59.376 350.101 61.552 349.013 63.664C347.925 65.776 346.997 67.568 346.229 69.04C346.229 69.04 346.389 69.072 346.709 69.136C347.093 69.136 347.445 69.36 347.765 69.808C348.085 70.192 348.213 70.992 348.148 72.208C348.085 73.808 348.437 75.312 349.205 76.72C350.037 78.064 351.061 78.992 352.277 79.504ZM348.629 80.848C349.013 80.848 349.365 80.816 349.685 80.752C350.005 80.624 350.293 80.528 350.549 80.464C349.589 79.76 348.725 78.832 347.957 77.68C347.253 76.464 346.837 74.928 346.709 73.072C345.557 74.288 344.98 75.6 344.98 77.008C344.98 78.032 345.301 78.928 345.941 79.696C346.581 80.464 347.477 80.848 348.629 80.848ZM382.597 43.024C381.637 43.024 380.837 42.704 380.197 42.064C379.621 41.36 379.333 40.528 379.333 39.568C379.333 38.352 379.813 37.296 380.773 36.4C381.733 35.504 382.789 35.056 383.941 35.056C384.965 35.056 385.797 35.376 386.437 36.016C387.077 36.656 387.397 37.424 387.397 38.32C387.397 39.536 386.917 40.624 385.957 41.584C384.997 42.544 383.877 43.024 382.597 43.024ZM374.821 82C372.453 82 370.789 81.328 369.829 79.984C368.869 78.576 368.389 76.976 368.389 75.184C368.389 74.224 368.485 73.264 368.677 72.304C368.933 71.28 369.221 70.352 369.541 69.52L375.973 53.104C376.165 52.592 376.261 52.144 376.261 51.76C376.261 51.12 376.101 50.576 375.781 50.128C375.461 49.616 375.237 49.264 375.109 49.072L380.389 48.88C381.349 48.816 382.021 48.944 382.405 49.264C382.853 49.52 383.077 49.84 383.077 50.224C383.077 50.608 382.853 51.312 382.405 52.336L374.437 71.056C374.437 71.056 374.245 71.472 373.861 72.304C373.541 73.072 373.349 73.584 373.285 73.84C373.093 74.8 372.965 75.408 372.901 75.664C372.837 75.92 372.805 76.08 372.805 76.144C372.805 76.208 372.805 76.464 372.805 76.912C372.805 77.744 372.997 78.448 373.381 79.024C373.829 79.6 374.565 79.888 375.589 79.888C376.229 79.888 376.965 79.696 377.797 79.312C378.629 78.928 379.237 78.544 379.621 78.16C381.221 76.496 382.789 74.32 384.325 71.632C385.925 68.88 387.397 66.16 388.741 63.472C388.997 62.832 389.317 62.512 389.701 62.512C390.021 62.512 390.181 62.736 390.181 63.184C390.181 63.44 390.085 63.824 389.893 64.336C389.253 65.68 388.453 67.344 387.493 69.328C386.533 71.312 385.381 73.296 384.037 75.28C382.757 77.2 381.349 78.8 379.813 80.08C378.277 81.36 376.613 82 374.821 82ZM460.601 88.144C457.785 88.144 455.801 87.024 454.649 84.784C453.497 82.608 452.921 80.048 452.921 77.104C452.921 74.48 453.273 71.888 453.977 69.328C454.745 66.768 455.641 64.816 456.665 63.472C454.937 65.52 452.793 67.856 450.233 70.48C447.673 73.104 444.857 75.632 441.785 78.064C438.713 80.496 435.545 82.512 432.281 84.112C429.017 85.712 425.785 86.512 422.585 86.512C421.625 86.512 420.665 86.416 419.705 86.224C418.809 86.096 417.913 85.84 417.017 85.456C414.649 84.496 412.889 82.8 411.737 80.368C410.585 77.872 410.009 74.896 410.009 71.44C410.009 67.792 410.617 63.888 411.833 59.728C413.113 55.504 414.969 51.216 417.401 46.864C418.553 44.752 419.833 42.672 421.241 40.624C422.713 38.512 424.281 36.528 425.945 34.672C423.961 33.776 422.137 32.784 420.473 31.696C418.809 30.544 417.401 29.296 416.249 27.952C415.481 27.056 414.905 26 414.521 24.784C414.137 23.568 413.945 22.384 413.945 21.232C413.945 19.184 414.425 17.84 415.385 17.2C415.705 16.688 416.089 16.432 416.537 16.432C417.113 16.432 417.401 16.784 417.401 17.488C417.401 17.936 417.273 18.416 417.017 18.928C416.697 19.76 416.537 20.528 416.537 21.232C416.537 22.256 416.793 23.216 417.305 24.112C417.817 24.944 418.425 25.744 419.129 26.512C421.177 28.944 423.993 30.96 427.577 32.56C431.673 28.08 436.153 23.952 441.017 20.176C445.945 16.336 451.225 13.264 456.857 10.96C462.489 8.656 468.409 7.504 474.617 7.504C479.801 7.504 483.865 8.656 486.809 10.96C489.753 13.2 491.225 16.112 491.225 19.696C491.225 21.424 490.713 23.312 489.689 25.36C488.665 27.344 487.001 29.296 484.697 31.216C482.393 33.072 479.321 34.704 475.481 36.112C471.705 37.456 467.001 38.384 461.369 38.896C459.385 39.088 457.593 39.248 455.993 39.376C454.457 39.44 452.793 39.472 451.001 39.472C447.673 39.472 444.441 39.248 441.305 38.8C438.233 38.352 435.161 37.648 432.089 36.688C430.937 38.288 429.465 40.464 427.673 43.216C425.945 45.968 424.217 48.912 422.489 52.048C420.761 55.184 419.321 58.16 418.169 60.976C417.145 63.664 416.377 66.128 415.865 68.368C415.353 70.544 415.097 72.496 415.097 74.224C415.097 77.36 415.833 79.728 417.305 81.328C418.777 82.864 420.761 83.632 423.257 83.632C425.689 83.632 428.441 82.928 431.513 81.52C434.649 80.112 437.913 78 441.305 75.184C444.697 72.368 447.993 69.2 451.193 65.68C454.457 62.16 457.433 58.576 460.121 54.928C462.809 51.28 464.985 47.92 466.649 44.848C467.737 42.8 468.793 41.36 469.817 40.528C470.841 39.632 471.705 39.184 472.409 39.184C473.113 39.184 473.657 39.472 474.041 40.048C474.425 40.56 474.617 41.264 474.617 42.16C474.617 43.952 473.817 45.744 472.217 47.536C470.425 49.52 468.665 51.952 466.937 54.832C465.209 57.712 463.673 60.752 462.329 63.952C460.985 67.152 460.025 70.288 459.449 73.36C459.257 74.384 459.129 75.344 459.065 76.24C459.001 77.136 458.969 77.936 458.969 78.64C458.969 81.008 459.321 82.704 460.025 83.728C460.793 84.752 461.785 85.264 463.001 85.264C464.473 85.264 466.169 84.592 468.089 83.248C470.009 81.904 471.865 80.112 473.657 77.872C475.193 75.824 476.665 73.648 478.073 71.344C479.545 69.04 480.889 66.64 482.105 64.144C482.297 63.696 482.553 63.376 482.873 63.184C483.257 62.928 483.513 62.8 483.641 62.8C483.961 62.8 484.121 62.992 484.121 63.376C484.121 63.632 484.025 64.016 483.833 64.528C483.257 65.808 482.489 67.344 481.529 69.136C480.569 70.928 479.513 72.784 478.361 74.704C477.209 76.56 476.025 78.288 474.809 79.888C473.145 82.064 471.033 83.984 468.473 85.648C465.977 87.312 463.353 88.144 460.601 88.144ZM450.137 37.168C453.465 37.168 457.177 36.976 461.273 36.592C466.585 36.144 471.193 35.088 475.097 33.424C479.001 31.76 482.009 29.648 484.121 27.088C486.233 24.528 487.289 21.68 487.289 18.544C487.289 15.728 486.105 13.584 483.737 12.112C481.433 10.64 478.489 9.904 474.905 9.904C468.953 9.904 463.513 11.088 458.585 13.456C453.721 15.76 449.241 18.8 445.145 22.576C441.113 26.352 437.273 30.416 433.625 34.768C438.489 36.368 443.993 37.168 450.137 37.168ZM499.752 82.672C498.024 82.48 496.456 81.68 495.048 80.272C493.704 78.8 492.776 76.848 492.264 74.416C492.2 73.968 492.136 73.584 492.072 73.264C492.072 72.88 492.072 72.464 492.072 72.016C492.072 69.456 492.648 67.408 493.8 65.872C494.952 64.272 496.008 63.44 496.968 63.376C497.992 63.44 499.24 63.216 500.712 62.704C502.184 62.128 503.464 61.36 504.552 60.4C506.408 58.928 507.336 57.424 507.336 55.888C507.336 54.288 506.408 53.488 504.552 53.488C503.528 53.488 502.216 53.84 500.616 54.544C499.08 55.248 497.288 56.464 495.24 58.192C492.68 60.368 490.024 63.28 487.272 66.928C486.888 67.76 486.44 69.008 485.928 70.672C485.416 72.272 484.968 73.936 484.584 75.664C484.264 77.392 484.104 78.864 484.104 80.08C484.104 81.04 484.264 81.68 484.584 82H478.536C477.832 82 477.48 81.712 477.48 81.136C477.48 80.944 477.512 80.784 477.576 80.656C477.64 80.528 477.704 80.272 477.768 79.888C478.664 76.56 479.848 73.424 481.32 70.48C482.792 67.536 484.264 64.432 485.736 61.168C483.496 65.328 481.448 69.008 479.592 72.208C477.8 75.344 476.424 77.36 475.464 78.256C475.336 78.384 475.176 78.448 474.984 78.448C474.728 78.448 474.568 78.288 474.504 77.968C474.376 77.648 474.44 77.328 474.696 77.008C476.04 75.216 477.576 72.752 479.304 69.616C481.096 66.48 482.984 62.992 484.968 59.152C486.952 55.248 488.968 51.312 491.016 47.344C493.064 43.376 495.048 39.632 496.968 36.112C498.952 32.592 500.744 29.616 502.344 27.184C503.496 25.456 504.584 24.24 505.608 23.536C506.632 22.768 507.688 22.384 508.776 22.384H509.256C509.832 22.384 510.472 22.48 511.176 22.672C511.944 22.864 512.648 22.896 513.288 22.768C512.072 23.728 510.6 25.296 508.872 27.472C507.144 29.648 505.32 32.24 503.4 35.248C501.48 38.256 499.528 41.456 497.544 44.848C495.624 48.24 493.8 51.6 492.072 54.928C491.432 56.208 490.824 57.552 490.248 58.96C489.672 60.368 489.128 61.776 488.616 63.184C489.96 61.52 491.496 59.792 493.224 58C494.952 56.208 496.744 54.576 498.6 53.104C500.52 51.568 502.408 50.448 504.264 49.744C506.376 48.976 508.136 48.592 509.544 48.592C511.016 48.592 512.072 48.944 512.712 49.648C513.416 50.352 513.768 51.248 513.768 52.336C513.768 53.552 513.288 55.024 512.328 56.752C511.368 58.416 510.056 59.856 508.392 61.072C506.984 62.032 505.512 62.864 503.976 63.568C502.44 64.272 500.616 64.72 498.504 64.912C498.12 65.808 497.832 66.736 497.64 67.696C497.512 68.592 497.448 69.488 497.448 70.384C497.448 72.88 498.024 75.088 499.176 77.008C500.328 78.864 501.832 79.792 503.688 79.792C504.584 79.792 505.544 79.536 506.568 79.024C507.656 78.512 508.776 77.648 509.928 76.432C511.208 75.152 512.488 73.328 513.768 70.96C515.112 68.592 516.456 66 517.8 63.184C518.056 62.672 518.344 62.416 518.664 62.416C519.048 62.416 519.24 62.672 519.24 63.184C519.24 63.44 519.144 63.76 518.952 64.144C517.096 68.432 515.304 71.856 513.576 74.416C511.912 76.912 510.28 78.8 508.68 80.08C507.144 81.296 505.64 82.064 504.168 82.384C502.696 82.704 501.224 82.8 499.752 82.672ZM520.417 82C519.713 82 518.849 81.84 517.825 81.52C516.865 81.2 516.001 80.624 515.233 79.792C514.529 78.896 514.177 77.584 514.177 75.856C514.177 74.192 514.561 72.592 515.329 71.056C516.161 69.456 516.929 67.92 517.633 66.448C517.441 66.448 517.217 66.384 516.961 66.256C516.769 66.128 516.673 65.936 516.673 65.68C516.673 65.424 516.737 65.168 516.865 64.912C517.121 64.4 517.409 63.856 517.729 63.28C518.049 62.704 518.337 62.096 518.593 61.456C519.553 59.472 520.513 57.584 521.473 55.792C522.433 53.936 523.265 52.304 523.969 50.896C524.673 49.488 525.889 48.784 527.617 48.784H533.569C532.481 49.616 531.489 50.544 530.593 51.568C529.761 52.528 528.705 54.32 527.425 56.944C527.425 56.944 527.201 57.392 526.753 58.288C526.305 59.184 525.729 60.336 525.025 61.744C524.385 63.088 523.713 64.464 523.009 65.872C522.369 67.28 521.825 68.464 521.377 69.424C520.545 71.216 520.001 72.656 519.745 73.744C519.489 74.768 519.361 75.728 519.361 76.624C519.361 78.736 520.065 79.792 521.473 79.792C523.009 79.792 524.865 78.544 527.041 76.048C528.833 73.936 530.593 71.408 532.321 68.464C534.049 65.52 535.681 62.48 537.217 59.344C538.817 56.208 540.225 53.392 541.441 50.896C542.145 49.488 543.393 48.784 545.185 48.784H550.465C549.505 49.552 548.705 50.288 548.065 50.992C547.425 51.632 546.785 52.528 546.145 53.68C545.569 54.768 544.769 56.336 543.745 58.384C542.913 60.112 542.017 61.968 541.057 63.952C540.161 65.872 539.361 67.696 538.657 69.424C537.953 71.152 537.505 72.56 537.313 73.648C537.249 74.288 537.185 74.768 537.121 75.088C537.057 75.408 537.025 75.76 537.025 76.144C537.025 77.36 537.217 78.224 537.601 78.736C538.049 79.248 538.561 79.504 539.137 79.504C540.673 79.504 542.209 78.64 543.745 76.912C545.345 75.184 546.849 73.072 548.257 70.576C549.729 68.08 550.977 65.712 552.001 63.472C552.385 62.768 552.737 62.416 553.057 62.416C553.441 62.416 553.633 62.64 553.633 63.088C553.633 63.408 553.505 63.792 553.249 64.24C552.545 65.776 551.681 67.536 550.657 69.52C549.633 71.504 548.481 73.456 547.201 75.376C545.921 77.296 544.513 78.896 542.977 80.176C541.441 81.392 539.777 82 537.985 82C536.385 82 535.073 81.424 534.049 80.272C533.025 79.056 532.513 77.36 532.513 75.184C532.513 73.456 532.833 71.6 533.473 69.616C532.385 71.536 531.137 73.456 529.729 75.376C528.321 77.296 526.817 78.896 525.217 80.176C523.617 81.392 522.017 82 520.417 82ZM606.254 90.832C599.982 90.832 594.222 89.904 588.974 88.048C583.79 86.192 579.598 83.472 576.398 79.888C573.198 76.24 571.438 71.76 571.118 66.448C570.99 64.272 571.342 61.872 572.174 59.248C573.006 56.624 574.158 54.032 575.63 51.472C577.166 48.848 578.958 46.512 581.006 44.464C583.118 42.352 585.358 40.752 587.726 39.664C587.918 39.536 588.206 39.44 588.59 39.376C589.038 39.312 589.358 39.28 589.55 39.28C589.934 39.28 590.126 39.376 590.126 39.568C590.126 39.888 589.646 40.4 588.686 41.104C585.998 43.216 583.79 45.648 582.062 48.4C580.27 51.152 578.926 54.096 578.03 57.232C577.134 60.368 576.686 63.536 576.686 66.736C576.686 70.512 577.486 73.776 579.086 76.528C580.75 79.216 582.958 81.424 585.71 83.152C588.462 84.944 591.598 86.256 595.118 87.088C598.638 87.92 602.318 88.336 606.158 88.336C610.446 88.336 614.67 87.856 618.83 86.896C623.054 85.936 626.894 84.56 630.35 82.768C635.662 79.952 639.854 76.464 642.926 72.304C646.062 68.144 647.63 64.016 647.63 59.92C647.63 57.744 647.15 55.664 646.19 53.68C645.294 51.696 643.822 49.904 641.774 48.304C640.238 47.088 638.35 45.936 636.11 44.848C633.934 43.76 631.598 42.704 629.102 41.68C626.67 40.656 624.27 39.632 621.902 38.608C619.534 37.52 617.454 36.368 615.662 35.152C613.102 33.424 611.214 31.568 609.998 29.584C608.846 27.6 608.27 25.616 608.27 23.632C608.27 21.264 608.942 18.96 610.286 16.72C611.694 14.48 613.582 12.464 615.95 10.672C618.382 8.816 621.102 7.376 624.11 6.352C626.734 5.456 629.582 4.752 632.654 4.23999C635.79 3.728 638.862 3.472 641.87 3.472C644.366 3.472 646.734 3.664 648.974 4.048C651.278 4.368 653.294 4.976 655.022 5.872C657.198 6.896 658.862 8.272 660.014 9.99999C661.166 11.664 661.742 13.424 661.742 15.28C661.742 17.84 660.59 20.08 658.286 22C657.454 22.64 656.526 23.248 655.502 23.824C654.478 24.336 653.262 24.784 651.854 25.168C651.598 25.232 651.31 25.264 650.99 25.264C650.222 25.264 649.838 25.04 649.838 24.592C649.838 24.336 650.03 24.08 650.414 23.824C650.862 23.504 651.502 23.312 652.334 23.248C654.254 22.992 655.694 22.256 656.654 21.04C657.678 19.824 658.19 18.416 658.19 16.816C658.19 15.152 657.614 13.52 656.462 11.92C655.374 10.256 653.678 8.88 651.374 7.79199C649.07 6.64 646.126 6.064 642.542 6.064C640.494 6.064 638.222 6.288 635.726 6.736C633.294 7.184 630.638 7.92 627.758 8.944C624.238 10.16 621.294 11.952 618.926 14.32C616.622 16.688 615.47 19.216 615.47 21.904C615.47 23.568 616.014 25.264 617.102 26.992C618.254 28.656 620.078 30.256 622.574 31.792C624.686 33.072 627.086 34.352 629.774 35.632C632.462 36.848 635.182 38.096 637.934 39.376C640.686 40.592 643.182 41.904 645.422 43.312C648.942 45.488 651.47 47.824 653.006 50.32C654.542 52.816 655.31 55.376 655.31 58C655.31 61.072 654.382 64.176 652.526 67.312C650.734 70.384 648.366 73.296 645.422 76.048C642.478 78.736 639.246 81.136 635.726 83.248C631.63 85.68 626.99 87.536 621.806 88.816C616.686 90.16 611.502 90.832 606.254 90.832ZM670.598 82.384C668.23 82.384 666.086 81.616 664.166 80.08C662.31 78.544 661.382 76.208 661.382 73.072C661.382 70.192 662.086 67.12 663.494 63.856C664.902 60.528 666.694 57.616 668.87 55.12C670.726 52.944 672.806 51.152 675.11 49.744C677.414 48.336 679.59 47.632 681.638 47.632C683.046 47.632 684.262 48.016 685.286 48.784C686.374 49.616 686.918 50.8 686.918 52.336C686.918 53.936 686.31 55.696 685.094 57.616C683.878 59.536 682.15 61.328 679.91 62.992C678.95 63.696 677.734 64.368 676.262 65.008C674.79 65.648 673.318 66.192 671.846 66.64C670.374 67.024 669.158 67.216 668.198 67.216C667.878 67.984 667.558 69.008 667.238 70.288C666.982 71.568 666.854 72.88 666.854 74.224C666.854 75.824 667.174 77.264 667.814 78.544C668.454 79.824 669.638 80.464 671.366 80.464C673.478 80.464 675.398 79.856 677.126 78.64C678.854 77.424 680.39 75.92 681.734 74.128C683.078 72.272 684.198 70.416 685.094 68.56C686.054 66.704 686.822 65.136 687.398 63.856C687.782 62.96 688.294 62.512 688.934 62.512C689.254 62.512 689.414 62.672 689.414 62.992C689.414 63.248 689.318 63.568 689.126 63.952C688.23 65.872 687.27 67.92 686.246 70.096C685.222 72.208 684.006 74.224 682.598 76.144C681.19 78 679.494 79.504 677.51 80.656C675.59 81.808 673.286 82.384 670.598 82.384ZM668.87 65.488C669.766 65.488 671.27 65.168 673.382 64.528C675.494 63.824 677.414 62.736 679.142 61.264C680.806 59.792 682.086 58.192 682.982 56.464C683.878 54.672 684.326 53.168 684.326 51.952C684.326 50.544 683.814 49.84 682.79 49.84C682.022 49.84 680.966 50.352 679.622 51.376C678.278 52.4 676.614 54.128 674.63 56.56C673.414 58.096 672.262 59.76 671.174 61.552C670.086 63.344 669.318 64.656 668.87 65.488ZM694.507 82.096C691.755 82.096 689.707 81.392 688.363 79.984C687.019 78.576 686.347 76.816 686.347 74.704C686.347 73.68 686.475 72.688 686.731 71.728C687.115 70.256 687.659 68.624 688.363 66.832C689.131 64.976 689.995 63.088 690.955 61.168C688.715 65.52 686.667 69.2 684.811 72.208C683.019 75.152 681.643 77.072 680.683 77.968C680.491 78.16 680.299 78.256 680.107 78.256C679.787 78.256 679.627 78.096 679.627 77.776C679.627 77.52 679.723 77.264 679.915 77.008C681.259 75.216 682.795 72.752 684.523 69.616C686.315 66.48 688.203 62.992 690.187 59.152C692.171 55.248 694.187 51.312 696.235 47.344C698.283 43.376 700.267 39.632 702.187 36.112C704.171 32.592 705.963 29.616 707.563 27.184C708.715 25.456 709.803 24.24 710.827 23.536C711.851 22.768 712.907 22.384 713.995 22.384H714.475C715.051 22.384 715.691 22.48 716.395 22.672C717.163 22.864 717.867 22.896 718.507 22.768C717.675 23.664 716.395 25.264 714.667 27.568C713.003 29.808 711.115 32.464 709.003 35.536C706.955 38.544 704.875 41.744 702.763 45.136C700.715 48.464 698.891 51.728 697.291 54.928C695.755 58 694.379 61.296 693.163 64.816C692.011 68.272 691.435 71.312 691.435 73.936C691.435 75.472 691.691 76.752 692.203 77.776C692.715 78.8 693.579 79.44 694.795 79.696C696.843 80.144 699.595 78.32 703.051 74.224C704.395 72.624 705.739 70.736 707.083 68.56C708.427 66.32 709.483 64.24 710.251 62.32C711.339 59.76 711.883 57.424 711.883 55.312C711.883 53.712 711.467 52.432 710.635 51.472C709.867 50.512 708.555 50.128 706.699 50.32H706.315C705.163 50.32 704.587 50 704.587 49.36C704.587 49.104 704.747 48.848 705.067 48.592C705.451 48.336 705.963 48.208 706.603 48.208C706.795 48.208 706.987 48.24 707.179 48.304C707.435 48.304 707.691 48.336 707.947 48.4C710.827 48.848 712.875 50.032 714.091 51.952C715.371 53.808 716.011 55.952 716.011 58.384C716.011 58.896 715.979 59.472 715.915 60.112C715.851 60.688 715.755 61.328 715.627 62.032C715.115 64.656 714.123 67.344 712.651 70.096C711.179 72.784 709.355 75.152 707.179 77.2C705.067 79.248 702.699 80.624 700.075 81.328C698.987 81.584 697.963 81.776 697.003 81.904C696.107 82.032 695.275 82.096 694.507 82.096ZM727.692 82.384C725.324 82.384 723.18 81.616 721.26 80.08C719.404 78.544 718.476 76.208 718.476 73.072C718.476 70.192 719.18 67.12 720.588 63.856C721.996 60.528 723.788 57.616 725.964 55.12C727.82 52.944 729.9 51.152 732.204 49.744C734.508 48.336 736.684 47.632 738.732 47.632C740.14 47.632 741.356 48.016 742.38 48.784C743.468 49.616 744.012 50.8 744.012 52.336C744.012 53.936 743.404 55.696 742.188 57.616C740.972 59.536 739.244 61.328 737.004 62.992C736.044 63.696 734.828 64.368 733.356 65.008C731.884 65.648 730.412 66.192 728.94 66.64C727.468 67.024 726.252 67.216 725.292 67.216C724.972 67.984 724.652 69.008 724.332 70.288C724.076 71.568 723.948 72.88 723.948 74.224C723.948 75.824 724.268 77.264 724.908 78.544C725.548 79.824 726.732 80.464 728.46 80.464C730.572 80.464 732.492 79.856 734.22 78.64C735.948 77.424 737.484 75.92 738.828 74.128C740.172 72.272 741.292 70.416 742.188 68.56C743.148 66.704 743.916 65.136 744.492 63.856C744.876 62.96 745.388 62.512 746.028 62.512C746.348 62.512 746.508 62.672 746.508 62.992C746.508 63.248 746.412 63.568 746.22 63.952C745.324 65.872 744.364 67.92 743.34 70.096C742.316 72.208 741.1 74.224 739.692 76.144C738.284 78 736.588 79.504 734.604 80.656C732.684 81.808 730.38 82.384 727.692 82.384ZM725.964 65.488C726.86 65.488 728.364 65.168 730.476 64.528C732.588 63.824 734.508 62.736 736.236 61.264C737.9 59.792 739.18 58.192 740.076 56.464C740.972 54.672 741.42 53.168 741.42 51.952C741.42 50.544 740.908 49.84 739.884 49.84C739.116 49.84 738.06 50.352 736.716 51.376C735.372 52.4 733.708 54.128 731.724 56.56C730.508 58.096 729.356 59.76 728.268 61.552C727.18 63.344 726.412 64.656 725.964 65.488ZM749.489 82.288C746.801 82.288 744.977 81.584 744.017 80.176C743.057 78.704 742.577 76.976 742.577 74.992C742.577 72.944 742.865 70.832 743.441 68.656C744.017 66.48 744.529 64.656 744.977 63.184C746.001 59.6 747.281 55.792 748.817 51.76C750.417 47.664 752.145 43.664 754.001 39.76C755.921 35.792 757.809 32.24 759.665 29.104C761.137 26.608 762.705 24.752 764.369 23.536C766.097 22.256 767.601 21.616 768.881 21.616C769.905 21.616 770.705 22 771.281 22.768C771.921 23.472 772.241 24.56 772.241 26.032C772.241 27.056 772.049 28.272 771.665 29.68C771.345 31.088 770.769 32.688 769.937 34.48C767.697 39.472 765.009 44.464 761.873 49.456C758.801 54.448 754.897 59.12 750.161 63.472C749.905 64.304 749.553 65.296 749.105 66.448C748.721 67.536 748.369 68.656 748.049 69.808C747.665 71.536 747.473 73.008 747.473 74.224C747.473 76.208 747.857 77.712 748.625 78.736C749.457 79.696 750.449 80.176 751.601 80.176C752.625 80.176 753.713 79.824 754.865 79.12C756.017 78.352 757.105 77.264 758.129 75.856C759.665 73.616 761.041 71.344 762.257 69.04C763.537 66.672 764.497 64.848 765.137 63.568C765.521 62.864 765.937 62.512 766.385 62.512C766.705 62.512 766.865 62.704 766.865 63.088C766.865 63.408 766.769 63.76 766.577 64.144C766.001 65.424 765.233 67.088 764.273 69.136C763.377 71.12 762.225 73.136 760.817 75.184C759.473 77.168 757.841 78.864 755.921 80.272C754.065 81.616 751.921 82.288 749.489 82.288ZM750.929 60.4C753.233 58.032 755.473 55.312 757.649 52.24C759.825 49.104 761.841 45.872 763.697 42.544C765.617 39.152 767.217 35.952 768.497 32.944C768.945 31.984 769.297 30.928 769.553 29.776C769.873 28.624 770.033 27.664 770.033 26.896C770.033 26 769.809 25.552 769.361 25.552C769.105 25.552 768.721 25.808 768.209 26.32C767.697 26.768 767.025 27.568 766.193 28.72C764.977 30.32 763.633 32.496 762.161 35.248C760.753 38 759.313 40.944 757.841 44.08C756.369 47.216 755.025 50.256 753.809 53.2C752.593 56.08 751.633 58.48 750.929 60.4ZM768.198 82C767.494 82 766.63 81.84 765.606 81.52C764.646 81.2 763.782 80.624 763.014 79.792C762.31 78.896 761.958 77.584 761.958 75.856C761.958 74.192 762.342 72.592 763.11 71.056C763.942 69.456 764.71 67.92 765.414 66.448C765.222 66.448 764.998 66.384 764.742 66.256C764.55 66.128 764.454 65.936 764.454 65.68C764.454 65.424 764.518 65.168 764.646 64.912C764.902 64.4 765.19 63.856 765.51 63.28C765.83 62.704 766.118 62.096 766.374 61.456C767.334 59.472 768.294 57.584 769.254 55.792C770.214 53.936 771.046 52.304 771.75 50.896C772.454 49.488 773.67 48.784 775.398 48.784H781.35C780.262 49.616 779.27 50.544 778.374 51.568C777.542 52.528 776.486 54.32 775.206 56.944C775.206 56.944 774.982 57.392 774.534 58.288C774.086 59.184 773.51 60.336 772.806 61.744C772.166 63.088 771.494 64.464 770.79 65.872C770.15 67.28 769.606 68.464 769.158 69.424C768.326 71.216 767.782 72.656 767.526 73.744C767.27 74.768 767.142 75.728 767.142 76.624C767.142 78.736 767.846 79.792 769.254 79.792C770.79 79.792 772.646 78.544 774.822 76.048C776.614 73.936 778.374 71.408 780.102 68.464C781.83 65.52 783.462 62.48 784.998 59.344C786.598 56.208 788.006 53.392 789.222 50.896C789.926 49.488 791.174 48.784 792.966 48.784H798.246C797.286 49.552 796.486 50.288 795.846 50.992C795.206 51.632 794.566 52.528 793.926 53.68C793.35 54.768 792.55 56.336 791.526 58.384C790.694 60.112 789.798 61.968 788.838 63.952C787.942 65.872 787.142 67.696 786.438 69.424C785.734 71.152 785.286 72.56 785.094 73.648C785.03 74.288 784.966 74.768 784.902 75.088C784.838 75.408 784.806 75.76 784.806 76.144C784.806 77.36 784.998 78.224 785.382 78.736C785.83 79.248 786.342 79.504 786.918 79.504C788.454 79.504 789.99 78.64 791.526 76.912C793.126 75.184 794.63 73.072 796.038 70.576C797.51 68.08 798.758 65.712 799.782 63.472C800.166 62.768 800.518 62.416 800.838 62.416C801.222 62.416 801.414 62.64 801.414 63.088C801.414 63.408 801.286 63.792 801.03 64.24C800.326 65.776 799.462 67.536 798.438 69.52C797.414 71.504 796.262 73.456 794.982 75.376C793.702 77.296 792.294 78.896 790.758 80.176C789.222 81.392 787.558 82 785.766 82C784.166 82 782.854 81.424 781.83 80.272C780.806 79.056 780.294 77.36 780.294 75.184C780.294 73.456 780.614 71.6 781.254 69.616C780.166 71.536 778.918 73.456 777.51 75.376C776.102 77.296 774.598 78.896 772.998 80.176C771.398 81.392 769.798 82 768.198 82ZM790.602 82.48C792.97 77.936 795.21 73.392 797.322 68.848C799.434 64.24 801.578 59.888 803.754 55.792C805.034 53.488 806.09 51.888 806.922 50.992C807.818 50.032 809.002 49.552 810.474 49.552C810.986 49.552 811.53 49.648 812.106 49.84C812.682 49.968 813.258 50.032 813.834 50.032C814.218 50.032 814.506 50 814.698 49.936C813.802 50.448 812.65 51.728 811.242 53.776C809.834 55.76 808.394 58.064 806.922 60.688C805.45 63.312 804.138 65.776 802.986 68.08C804.202 66.608 805.45 65.136 806.73 63.664C808.074 62.192 809.546 60.784 811.146 59.44C812.554 58.224 814.026 56.912 815.562 55.504C817.162 54.032 818.73 52.784 820.266 51.76C821.802 50.736 823.146 50.224 824.298 50.224C824.746 50.224 825.034 50.256 825.162 50.32C826.378 50.832 826.986 51.664 826.986 52.816C826.986 53.2 826.826 53.776 826.506 54.544C825.674 56.72 824.586 58.96 823.242 61.264C821.962 63.504 820.746 65.776 819.594 68.08C820.554 66.928 821.738 65.52 823.146 63.856C824.618 62.192 826.09 60.72 827.562 59.44C828.97 58.16 830.762 56.816 832.938 55.408C835.114 54 837.258 52.784 839.37 51.76C841.482 50.736 843.178 50.224 844.458 50.224C844.906 50.224 845.226 50.256 845.418 50.32C845.418 50.32 845.066 50.96 844.362 52.24C843.658 53.456 842.762 55.088 841.674 57.136C840.65 59.12 839.594 61.264 838.506 63.568C837.418 65.808 836.426 67.984 835.53 70.096C834.698 72.144 834.154 73.872 833.898 75.28C833.706 76.112 833.61 76.88 833.61 77.584C833.61 78.608 833.802 79.28 834.186 79.6C834.57 79.92 834.986 80.08 835.434 80.08C836.714 80.08 838.026 79.408 839.37 78.064C840.714 76.72 841.994 75.12 843.21 73.264C844.49 71.344 845.61 69.488 846.57 67.696C847.53 65.84 848.234 64.432 848.682 63.472C849.066 62.768 849.45 62.416 849.834 62.416C850.218 62.416 850.41 62.672 850.41 63.184C850.41 63.504 850.314 63.856 850.122 64.24C849.354 65.712 848.426 67.472 847.338 69.52C846.314 71.568 845.13 73.584 843.786 75.568C842.442 77.488 840.938 79.12 839.274 80.464C837.674 81.744 835.946 82.384 834.09 82.384C832.746 82.384 831.37 81.936 829.962 81.04C828.618 80.144 827.946 78.48 827.946 76.048C827.946 74.704 828.234 73.072 828.81 71.152C829.258 69.872 829.93 68.4 830.826 66.736C831.786 65.072 832.938 63.152 834.282 60.976C834.922 59.888 835.242 59.024 835.242 58.384C835.242 57.616 834.858 57.232 834.09 57.232C833.45 57.232 832.554 57.552 831.402 58.192C830.314 58.832 828.938 59.952 827.274 61.552C826.25 62.512 825.034 63.856 823.626 65.584C822.282 67.248 820.906 69.072 819.498 71.056C818.09 73.04 816.874 74.992 815.85 76.912C814.826 78.832 814.154 80.528 813.834 82C812.874 82 812.106 81.616 811.53 80.848C810.954 80.016 810.666 79.056 810.666 77.968C810.666 77.776 810.666 77.584 810.666 77.392C810.666 77.2 810.698 76.976 810.762 76.72C811.082 74.736 811.594 72.88 812.298 71.152C813.002 69.424 813.802 67.632 814.698 65.776C815.402 64.432 816.106 62.992 816.81 61.456C817.514 59.856 817.866 58.64 817.866 57.808C817.866 57.296 817.674 57.04 817.29 57.04C816.842 57.04 816.106 57.392 815.082 58.096C814.058 58.736 812.65 59.888 810.858 61.552C809.258 63.088 807.306 65.296 805.002 68.176C802.762 71.056 800.298 75.152 797.61 80.464C797.226 81.168 796.778 81.616 796.266 81.808C795.754 81.936 794.954 82 793.866 82C793.162 82 792.586 82 792.138 82C791.626 82.064 791.114 82.224 790.602 82.48ZM839.35 82.768C841.654 78.096 843.862 73.488 845.974 68.944C848.15 64.336 850.358 59.952 852.598 55.792C853.878 53.488 854.934 51.888 855.766 50.992C856.662 50.032 857.846 49.552 859.318 49.552C859.83 49.552 860.374 49.648 860.95 49.84C861.526 49.968 862.102 50.032 862.678 50.032C863.062 50.032 863.35 50 863.542 49.936C862.646 50.448 861.494 51.728 860.086 53.776C858.678 55.76 857.238 58.064 855.766 60.688C854.294 63.312 852.982 65.776 851.83 68.08C853.046 66.608 854.294 65.136 855.574 63.664C856.918 62.192 858.39 60.784 859.99 59.44C861.526 58.096 863.35 56.72 865.462 55.312C867.638 53.84 869.75 52.624 871.798 51.664C873.846 50.704 875.478 50.224 876.694 50.224C877.142 50.224 877.462 50.256 877.654 50.32C877.654 50.32 877.302 50.96 876.598 52.24C875.894 53.456 874.998 55.088 873.91 57.136C872.886 59.12 871.83 61.264 870.742 63.568C869.654 65.808 868.662 67.984 867.766 70.096C866.934 72.144 866.39 73.872 866.134 75.28C865.942 76.112 865.846 76.88 865.846 77.584C865.846 78.608 866.038 79.28 866.422 79.6C866.806 79.92 867.222 80.08 867.67 80.08C868.886 80.08 870.166 79.44 871.51 78.16C872.854 76.816 874.134 75.184 875.35 73.264C876.63 71.344 877.75 69.488 878.71 67.696C879.734 65.84 880.47 64.432 880.918 63.472C881.174 62.96 881.366 62.672 881.494 62.608C881.622 62.48 881.814 62.416 882.07 62.416C882.454 62.416 882.646 62.672 882.646 63.184C882.646 63.504 882.55 63.856 882.358 64.24C881.59 65.712 880.662 67.472 879.574 69.52C878.55 71.568 877.366 73.584 876.022 75.568C874.678 77.488 873.206 79.12 871.606 80.464C870.006 81.744 868.278 82.384 866.422 82.384C865.142 82.384 863.798 81.936 862.39 81.04C861.046 80.144 860.374 78.48 860.374 76.048C860.374 75.344 860.438 74.608 860.566 73.84C860.694 73.008 860.918 72.112 861.238 71.152C861.75 69.872 862.358 68.496 863.062 67.024C863.766 65.552 864.918 63.536 866.518 60.976C866.966 60.272 867.222 59.728 867.286 59.344C867.414 58.96 867.478 58.64 867.478 58.384C867.478 57.616 867.126 57.232 866.422 57.232C865.846 57.232 864.982 57.552 863.83 58.192C862.742 58.832 861.366 59.952 859.702 61.552C858.102 63.088 856.182 65.264 853.942 68.08C851.766 70.896 849.238 75.056 846.358 80.56C845.91 81.392 845.398 81.84 844.822 81.904C844.31 81.968 843.574 82.032 842.614 82.096C841.974 82.16 841.366 82.192 840.79 82.192C840.214 82.256 839.734 82.448 839.35 82.768ZM867.76 112.624C864.432 112.624 862.064 111.952 860.656 110.608C859.248 109.328 858.544 107.792 858.544 106C858.544 105.04 858.672 104.208 858.928 103.504C859.184 102.8 859.568 101.904 860.08 100.816C860.976 98.96 862.224 97.36 863.824 96.016C865.424 94.672 867.152 93.584 869.008 92.752C872.336 91.216 876.112 89.968 880.336 89.008C884.624 88.048 888.72 86.992 892.624 85.84C893.84 83.728 894.96 81.328 895.984 78.64C897.008 75.888 897.936 73.232 898.768 70.672C899.6 68.048 900.272 65.904 900.784 64.24C900.016 65.648 899.024 67.376 897.808 69.424C896.656 71.408 895.344 73.36 893.872 75.28C892.4 77.2 890.8 78.8 889.072 80.08C887.408 81.36 885.648 82 883.792 82C883.088 82 882.224 81.84 881.2 81.52C880.24 81.2 879.376 80.624 878.608 79.792C877.904 78.896 877.552 77.584 877.552 75.856C877.552 74.192 877.936 72.592 878.704 71.056C879.536 69.456 880.304 67.92 881.008 66.448C880.816 66.448 880.592 66.384 880.336 66.256C880.144 66.128 880.048 65.936 880.048 65.68C880.048 65.424 880.112 65.168 880.24 64.912C880.496 64.4 880.784 63.856 881.104 63.28C881.424 62.704 881.712 62.096 881.968 61.456C882.928 59.472 883.888 57.584 884.848 55.792C885.808 53.936 886.64 52.304 887.344 50.896C888.048 49.488 889.264 48.784 890.992 48.784H896.944C896.496 49.168 895.92 49.616 895.216 50.128C894.576 50.576 893.968 51.28 893.392 52.24C891.664 55.184 890.16 58.032 888.88 60.784C887.6 63.472 886.224 66.352 884.752 69.424C884.048 70.896 883.536 72.24 883.216 73.456C882.896 74.672 882.736 75.728 882.736 76.624C882.736 78.736 883.44 79.792 884.848 79.792C886.384 79.792 888.24 78.544 890.416 76.048C892.208 73.936 894 71.44 895.792 68.56C897.648 65.616 899.408 62.608 901.072 59.536C902.8 56.4 904.304 53.52 905.584 50.896C906.288 49.488 907.536 48.784 909.328 48.784H914.608C912.752 50.064 911.312 51.728 910.288 53.776C909.328 55.824 908.24 58.448 907.024 61.648C905.68 65.168 904.4 68.816 903.184 72.592C902.032 76.304 900.72 80.048 899.248 83.824C901.36 83.12 903.728 82.032 906.352 80.56C909.04 79.088 911.312 76.976 913.168 74.224C914.64 72.048 915.888 69.968 916.912 67.984C918 65.936 918.768 64.464 919.216 63.568C919.472 62.928 919.824 62.608 920.272 62.608C920.72 62.608 920.944 62.896 920.944 63.472C920.944 63.792 920.848 64.144 920.656 64.528C918.992 67.856 917.488 70.672 916.144 72.976C914.864 75.216 913.424 77.168 911.824 78.832C910.288 80.432 908.4 81.84 906.16 83.056C903.92 84.336 901.072 85.616 897.616 86.896C896.08 89.648 894.32 92.496 892.336 95.44C890.416 98.448 888.208 101.232 885.712 103.792C883.28 106.416 880.56 108.528 877.552 110.128C874.608 111.792 871.344 112.624 867.76 112.624ZM865.456 110.704C867.568 110.704 869.744 110.064 871.984 108.784C874.224 107.504 876.4 105.872 878.512 103.888C880.624 101.968 882.544 99.984 884.272 97.936C886.064 95.952 887.504 94.192 888.592 92.656C888.912 92.208 889.264 91.632 889.648 90.928C890.032 90.224 890.416 89.552 890.8 88.912C887.664 89.744 884.208 90.64 880.432 91.6C876.72 92.624 873.488 93.744 870.736 94.96C867.664 96.24 865.264 98.064 863.536 100.432C861.744 102.8 860.848 104.912 860.848 106.768C860.848 107.92 861.232 108.848 862 109.552C862.704 110.32 863.856 110.704 865.456 110.704ZM939.987 82.288C939.283 82.352 938.483 82.192 937.587 81.808C936.691 81.424 935.891 80.72 935.187 79.696C934.547 78.672 934.227 77.232 934.227 75.376C934.227 73.84 934.515 71.984 935.091 69.808C934.323 71.024 933.331 72.528 932.115 74.32C930.899 76.048 929.587 77.584 928.179 78.928C926.963 80.08 925.811 80.912 924.723 81.424C923.635 81.936 922.643 82.192 921.747 82.192C920.083 82.192 918.739 81.456 917.715 79.984C916.691 78.448 916.179 76.464 916.179 74.032C916.179 71.472 916.819 68.56 918.099 65.296C919.379 62.032 921.459 58.64 924.339 55.12C926.195 52.88 928.435 51.088 931.059 49.744C933.747 48.336 936.371 47.632 938.931 47.632C940.403 47.632 941.811 47.888 943.155 48.4C944.499 48.848 945.683 49.616 946.707 50.704C947.155 51.152 947.379 51.664 947.379 52.24C947.379 52.624 947.219 52.944 946.899 53.2C946.579 53.456 946.163 53.52 945.651 53.392C944.947 51.152 943.443 50.032 941.139 50.032C940.051 50.032 938.803 50.384 937.395 51.088C935.219 52.24 932.947 54.128 930.579 56.752C928.275 59.376 926.259 62.096 924.531 64.912C924.275 65.296 923.859 66.032 923.283 67.12C922.771 68.208 922.259 69.424 921.747 70.768C921.235 72.112 920.883 73.424 920.691 74.704C920.627 75.088 920.595 75.376 920.595 75.568C920.595 75.696 920.595 75.92 920.595 76.24C920.595 78.352 921.395 79.408 922.995 79.408C924.915 79.408 927.091 78 929.523 75.184C931.187 73.136 932.691 70.992 934.035 68.752C935.379 66.512 936.755 64.112 938.163 61.552C939.123 59.824 940.019 58.384 940.851 57.232C941.683 56.08 942.867 55.504 944.403 55.504C945.107 55.504 945.811 55.6 946.515 55.792C947.219 55.984 947.955 56.016 948.723 55.888C948.211 56.4 947.507 57.36 946.611 58.768C945.779 60.176 944.883 61.776 943.923 63.568C942.963 65.36 942.099 67.184 941.331 69.04C940.563 70.896 940.019 72.496 939.699 73.84C939.635 74.224 939.539 74.768 939.411 75.472C939.347 76.176 939.315 76.688 939.315 77.008C939.315 78.8 939.827 79.696 940.851 79.696C941.875 79.696 942.963 79.088 944.115 77.872C945.331 76.656 946.515 75.152 947.667 73.36C948.819 71.568 949.875 69.776 950.835 67.984C951.795 66.128 952.563 64.624 953.139 63.472C953.395 62.832 953.779 62.512 954.291 62.512C954.611 62.512 954.771 62.736 954.771 63.184C954.771 63.376 954.675 63.728 954.483 64.24C953.715 65.84 952.787 67.664 951.699 69.712C950.611 71.696 949.427 73.648 948.147 75.568C946.867 77.424 945.523 78.992 944.115 80.272C942.771 81.488 941.395 82.16 939.987 82.288Z" fill="white"/>
</svg>
