<svg width="686" height="121" viewBox="0 0 686 121" fill="none" xmlns="http://www.w3.org/2000/svg">
<path d="M36.0073 91.024C31.3993 91.024 26.9513 90.448 22.6633 89.296C18.3753 88.208 14.5353 86.544 11.1432 84.304C7.75125 82.064 5.03125 79.248 2.98325 75.856C0.99925 72.464 0.00725013 68.464 0.00725013 63.856C0.00725013 60.464 0.61525 56.848 1.83125 53.008C2.53525 50.832 3.52725 48.976 4.80725 47.44C6.15125 45.904 7.52725 44.72 8.93525 43.888C10.3433 43.056 11.4633 42.64 12.2953 42.64C13.3833 42.64 13.8313 43.152 13.6393 44.176C13.2553 44.624 12.5833 45.168 11.6233 45.808C10.7273 46.384 9.73525 47.152 8.64725 48.112C7.62325 49.072 6.63125 50.32 5.67125 51.856C4.77525 53.328 4.13525 55.216 3.75125 57.52C3.62325 58.352 3.49525 59.184 3.36725 60.016C3.30325 60.848 3.27125 61.648 3.27125 62.416C3.27125 66.576 4.16725 70.256 5.95925 73.456C7.75125 76.656 10.0873 79.312 12.9673 81.424C15.9113 83.536 19.1113 85.104 22.5673 86.128C26.0873 87.216 29.5433 87.728 32.9353 87.664C38.1193 87.536 42.7273 86.8 46.7593 85.456C50.7913 84.176 54.3753 82.448 57.5113 80.272C60.6473 78.096 63.3993 75.696 65.7673 73.072C67.7513 70.896 69.7353 68.24 71.7193 65.104C73.7033 61.968 75.6233 58.608 77.4793 55.024C79.3993 51.376 81.1913 47.76 82.8553 44.176C84.5833 40.592 86.1833 37.2 87.6553 34C89.1273 30.8 90.4073 28.08 91.4953 25.84C92.5833 23.536 93.4793 21.936 94.1833 21.04C89.1273 19.504 84.2633 18.32 79.5913 17.488C74.9833 16.592 70.0553 16.016 64.8073 15.76C60.0073 15.504 55.7193 16.048 51.9433 17.392C48.2313 18.736 45.0633 20.56 42.4393 22.864C39.8793 25.104 37.8953 27.568 36.4873 30.256C35.1433 32.944 34.4713 35.536 34.4713 38.032C34.4713 40.208 35.0153 42.16 36.1033 43.888C37.2553 45.552 38.9833 46.768 41.2873 47.536C42.8233 47.984 44.3273 48.208 45.7993 48.208C48.1033 48.208 50.1193 47.728 51.8473 46.768C53.5753 45.808 55.0153 44.656 56.1673 43.312C57.3833 41.904 58.2793 40.592 58.8553 39.376C59.4953 38.096 59.8153 37.168 59.8153 36.592V36.496C60.1353 36.112 60.4553 35.92 60.7753 35.92C61.4153 35.92 61.7353 36.368 61.7353 37.264C61.4153 40.016 60.4233 42.416 58.7593 44.464C57.1593 46.512 55.2073 48.08 52.9033 49.168C50.5993 50.256 48.1673 50.8 45.6073 50.8C43.8153 50.8 42.0873 50.512 40.4233 49.936C36.9033 48.656 34.2473 46.608 32.4553 43.792C30.6633 40.912 29.7673 37.808 29.7673 34.48C29.7673 31.664 30.3753 28.88 31.5913 26.128C32.8073 23.312 34.6633 20.752 37.1593 18.448C39.6553 16.08 42.7593 14.192 46.4713 12.784C50.1833 11.376 54.5353 10.672 59.5273 10.672C60.3593 10.672 61.0313 10.672 61.5433 10.672C62.0553 10.672 62.9193 10.736 64.1353 10.864C67.1433 11.12 70.1833 11.632 73.2553 12.4C76.3273 13.104 79.2713 13.904 82.0873 14.8C84.9033 15.696 87.4953 16.56 89.8633 17.392C92.2313 18.224 94.1833 18.832 95.7192 19.216C95.9113 18.96 96.4553 18.512 97.3513 17.872C98.3113 17.232 99.2713 16.56 100.231 15.856C101.255 15.152 102.055 14.544 102.631 14.032C103.207 13.52 103.239 13.264 102.727 13.264H102.631C102.823 13.2 103.079 13.168 103.399 13.168C104.039 13.168 104.519 13.392 104.839 13.84C105.159 14.224 105.319 14.64 105.319 15.088C105.319 15.92 104.935 16.336 104.167 16.336C104.039 16.336 103.783 16.272 103.399 16.144C103.143 15.888 102.663 16.016 101.959 16.528C101.319 17.04 100.647 17.648 99.9433 18.352C99.3033 18.992 98.7913 19.536 98.4072 19.984C99.8153 20.432 101.575 20.976 103.687 21.616C105.863 22.192 108.167 22.8 110.599 23.44C113.095 24.016 115.527 24.496 117.895 24.88C120.263 25.264 122.375 25.456 124.231 25.456C126.023 25.456 127.431 25.232 128.455 24.784C129.543 24.336 130.087 23.6 130.087 22.576C130.087 22.192 130.151 21.872 130.279 21.616C130.471 21.296 130.791 21.136 131.239 21.136C131.559 21.136 131.783 21.424 131.911 22C132.039 22.512 132.103 22.928 132.103 23.248C132.103 24.784 131.271 26.032 129.607 26.992C128.007 27.952 125.991 28.432 123.559 28.432C123.175 28.432 122.791 28.432 122.407 28.432C122.023 28.368 121.607 28.304 121.159 28.24C113.991 27.344 108.391 26.192 104.359 24.784C100.391 23.376 97.8953 22.448 96.8713 22C93.9913 26.608 91.6233 31.344 89.7673 36.208C87.9113 41.072 86.1513 45.936 84.4873 50.8C82.8873 55.664 80.9993 60.368 78.8233 64.912C76.7113 69.456 73.8953 73.744 70.3753 77.776C67.8153 80.656 64.6793 83.088 60.9673 85.072C57.3193 87.056 53.3513 88.528 49.0633 89.488C44.7753 90.512 40.4233 91.024 36.0073 91.024ZM97.817 82.384C95.449 82.384 93.305 81.616 91.385 80.08C89.529 78.544 88.601 76.208 88.601 73.072C88.601 70.192 89.305 67.12 90.713 63.856C92.121 60.528 93.913 57.616 96.089 55.12C97.945 52.944 100.025 51.152 102.329 49.744C104.633 48.336 106.809 47.632 108.857 47.632C110.265 47.632 111.481 48.016 112.505 48.784C113.593 49.616 114.137 50.8 114.137 52.336C114.137 53.936 113.529 55.696 112.313 57.616C111.097 59.536 109.369 61.328 107.129 62.992C106.169 63.696 104.953 64.368 103.481 65.008C102.009 65.648 100.537 66.192 99.065 66.64C97.593 67.024 96.377 67.216 95.417 67.216C95.097 67.984 94.777 69.008 94.457 70.288C94.201 71.568 94.073 72.88 94.073 74.224C94.073 75.824 94.393 77.264 95.033 78.544C95.673 79.824 96.857 80.464 98.585 80.464C100.697 80.464 102.617 79.856 104.345 78.64C106.073 77.424 107.609 75.92 108.953 74.128C110.297 72.272 111.417 70.416 112.313 68.56C113.273 66.704 114.041 65.136 114.617 63.856C115.001 62.96 115.513 62.512 116.153 62.512C116.473 62.512 116.633 62.672 116.633 62.992C116.633 63.248 116.537 63.568 116.345 63.952C115.449 65.872 114.489 67.92 113.465 70.096C112.441 72.208 111.225 74.224 109.817 76.144C108.409 78 106.713 79.504 104.729 80.656C102.809 81.808 100.505 82.384 97.817 82.384ZM96.089 65.488C96.985 65.488 98.489 65.168 100.601 64.528C102.713 63.824 104.633 62.736 106.361 61.264C108.025 59.792 109.305 58.192 110.201 56.464C111.097 54.672 111.545 53.168 111.545 51.952C111.545 50.544 111.033 49.84 110.009 49.84C109.241 49.84 108.185 50.352 106.841 51.376C105.497 52.4 103.833 54.128 101.849 56.56C100.633 58.096 99.481 59.76 98.393 61.552C97.305 63.344 96.537 64.656 96.089 65.488ZM126.238 82.096C125.022 82.096 123.806 81.616 122.59 80.656C121.374 79.632 120.766 78 120.766 75.76C120.766 74.032 121.182 72.048 122.014 69.808C122.782 67.632 123.806 65.52 125.086 63.472C126.43 61.424 127.39 59.76 127.966 58.48C128.158 57.968 128.254 57.52 128.254 57.136C128.254 55.984 127.518 55.152 126.046 54.64C124.638 54.128 122.782 53.84 120.478 53.776L119.326 56.944C118.622 58.992 117.63 61.392 116.35 64.144C115.134 66.896 113.758 69.552 112.222 72.112C110.75 74.672 109.213 76.72 107.613 78.256C107.485 78.384 107.325 78.448 107.133 78.448C106.877 78.448 106.717 78.288 106.653 77.968C106.525 77.648 106.653 77.264 107.037 76.816C109.534 73.488 111.774 69.808 113.758 65.776C115.742 61.68 117.406 57.52 118.75 53.296C120.158 49.072 121.182 45.168 121.822 41.584C122.014 40.56 122.365 39.824 122.878 39.376C123.39 38.864 123.934 38.608 124.51 38.608C125.342 38.608 126.11 39.024 126.814 39.856C127.518 40.624 127.87 41.744 127.87 43.216C127.87 43.472 127.838 43.76 127.774 44.08C127.774 44.4 127.742 44.72 127.678 45.04C127.422 46.384 126.654 47.664 125.374 48.88C124.158 50.032 123.166 50.896 122.398 51.472C123.038 51.536 123.71 51.6 124.414 51.664C125.118 51.664 125.886 51.664 126.718 51.664C129.726 51.664 132.702 51.472 135.646 51.088C135.774 51.472 135.838 51.76 135.838 51.952C135.838 52.784 135.582 53.84 135.07 55.12C134.622 56.4 134.142 57.552 133.63 58.576C133.374 59.152 132.862 60.208 132.094 61.744C131.326 63.216 130.494 64.912 129.598 66.832C128.702 68.688 127.934 70.544 127.294 72.4C126.718 74.192 126.43 75.728 126.43 77.008C126.43 78.672 127.07 79.504 128.35 79.504C129.31 79.504 130.366 78.896 131.518 77.68C132.67 76.4 133.79 74.864 134.878 73.072C136.03 71.216 137.054 69.424 137.95 67.696C138.91 65.904 139.646 64.496 140.158 63.472C140.414 62.832 140.766 62.512 141.214 62.512C141.47 62.512 141.598 62.736 141.598 63.184C141.598 63.44 141.502 63.824 141.31 64.336C140.606 65.808 139.774 67.472 138.814 69.328C137.854 71.184 136.766 73.008 135.55 74.8C134.398 76.592 133.118 78.16 131.71 79.504C130.366 80.784 128.894 81.616 127.294 82C127.102 82.064 126.75 82.096 126.238 82.096ZM150.597 43.024C149.637 43.024 148.837 42.704 148.197 42.064C147.621 41.36 147.333 40.528 147.333 39.568C147.333 38.352 147.813 37.296 148.773 36.4C149.733 35.504 150.789 35.056 151.941 35.056C152.965 35.056 153.797 35.376 154.437 36.016C155.077 36.656 155.397 37.424 155.397 38.32C155.397 39.536 154.917 40.624 153.957 41.584C152.997 42.544 151.877 43.024 150.597 43.024ZM142.821 82C140.453 82 138.789 81.328 137.829 79.984C136.869 78.576 136.389 76.976 136.389 75.184C136.389 74.224 136.485 73.264 136.677 72.304C136.933 71.28 137.221 70.352 137.541 69.52L143.973 53.104C144.165 52.592 144.261 52.144 144.261 51.76C144.261 51.12 144.101 50.576 143.781 50.128C143.461 49.616 143.237 49.264 143.109 49.072L148.389 48.88C149.349 48.816 150.021 48.944 150.405 49.264C150.853 49.52 151.077 49.84 151.077 50.224C151.077 50.608 150.853 51.312 150.405 52.336L142.437 71.056C142.437 71.056 142.245 71.472 141.861 72.304C141.541 73.072 141.349 73.584 141.285 73.84C141.093 74.8 140.965 75.408 140.901 75.664C140.837 75.92 140.805 76.08 140.805 76.144C140.805 76.208 140.805 76.464 140.805 76.912C140.805 77.744 140.997 78.448 141.381 79.024C141.829 79.6 142.565 79.888 143.589 79.888C144.229 79.888 144.965 79.696 145.797 79.312C146.629 78.928 147.237 78.544 147.621 78.16C149.221 76.496 150.789 74.32 152.325 71.632C153.925 68.88 155.397 66.16 156.741 63.472C156.997 62.832 157.317 62.512 157.701 62.512C158.021 62.512 158.181 62.736 158.181 63.184C158.181 63.44 158.085 63.824 157.893 64.336C157.253 65.68 156.453 67.344 155.493 69.328C154.533 71.312 153.381 73.296 152.037 75.28C150.757 77.2 149.349 78.8 147.813 80.08C146.277 81.36 144.613 82 142.821 82ZM147.696 82.48C150.064 77.936 152.304 73.392 154.416 68.848C156.528 64.24 158.672 59.888 160.848 55.792C162.128 53.488 163.184 51.888 164.016 50.992C164.912 50.032 166.096 49.552 167.568 49.552C168.08 49.552 168.624 49.648 169.2 49.84C169.776 49.968 170.352 50.032 170.928 50.032C171.312 50.032 171.6 50 171.792 49.936C170.896 50.448 169.744 51.728 168.336 53.776C166.928 55.76 165.488 58.064 164.016 60.688C162.544 63.312 161.232 65.776 160.08 68.08C161.296 66.608 162.544 65.136 163.824 63.664C165.168 62.192 166.64 60.784 168.24 59.44C169.648 58.224 171.12 56.912 172.656 55.504C174.256 54.032 175.824 52.784 177.36 51.76C178.896 50.736 180.24 50.224 181.392 50.224C181.84 50.224 182.128 50.256 182.256 50.32C183.472 50.832 184.08 51.664 184.08 52.816C184.08 53.2 183.92 53.776 183.6 54.544C182.768 56.72 181.68 58.96 180.336 61.264C179.056 63.504 177.84 65.776 176.688 68.08C177.648 66.928 178.832 65.52 180.24 63.856C181.712 62.192 183.184 60.72 184.656 59.44C186.064 58.16 187.856 56.816 190.032 55.408C192.208 54 194.352 52.784 196.464 51.76C198.576 50.736 200.272 50.224 201.552 50.224C202 50.224 202.32 50.256 202.512 50.32C202.512 50.32 202.16 50.96 201.456 52.24C200.752 53.456 199.856 55.088 198.768 57.136C197.744 59.12 196.688 61.264 195.6 63.568C194.512 65.808 193.52 67.984 192.624 70.096C191.792 72.144 191.248 73.872 190.992 75.28C190.8 76.112 190.704 76.88 190.704 77.584C190.704 78.608 190.896 79.28 191.28 79.6C191.664 79.92 192.08 80.08 192.528 80.08C193.808 80.08 195.12 79.408 196.464 78.064C197.808 76.72 199.088 75.12 200.304 73.264C201.584 71.344 202.704 69.488 203.664 67.696C204.624 65.84 205.328 64.432 205.776 63.472C206.16 62.768 206.544 62.416 206.928 62.416C207.312 62.416 207.504 62.672 207.504 63.184C207.504 63.504 207.408 63.856 207.216 64.24C206.448 65.712 205.52 67.472 204.432 69.52C203.408 71.568 202.224 73.584 200.88 75.568C199.536 77.488 198.032 79.12 196.368 80.464C194.768 81.744 193.04 82.384 191.184 82.384C189.84 82.384 188.464 81.936 187.056 81.04C185.712 80.144 185.04 78.48 185.04 76.048C185.04 74.704 185.328 73.072 185.904 71.152C186.352 69.872 187.024 68.4 187.92 66.736C188.88 65.072 190.032 63.152 191.376 60.976C192.016 59.888 192.336 59.024 192.336 58.384C192.336 57.616 191.952 57.232 191.184 57.232C190.544 57.232 189.648 57.552 188.496 58.192C187.408 58.832 186.032 59.952 184.368 61.552C183.344 62.512 182.128 63.856 180.72 65.584C179.376 67.248 178 69.072 176.592 71.056C175.184 73.04 173.968 74.992 172.944 76.912C171.92 78.832 171.248 80.528 170.928 82C169.968 82 169.2 81.616 168.624 80.848C168.048 80.016 167.76 79.056 167.76 77.968C167.76 77.776 167.76 77.584 167.76 77.392C167.76 77.2 167.792 76.976 167.856 76.72C168.176 74.736 168.688 72.88 169.392 71.152C170.096 69.424 170.896 67.632 171.792 65.776C172.496 64.432 173.2 62.992 173.904 61.456C174.608 59.856 174.96 58.64 174.96 57.808C174.96 57.296 174.768 57.04 174.384 57.04C173.936 57.04 173.2 57.392 172.176 58.096C171.152 58.736 169.744 59.888 167.952 61.552C166.352 63.088 164.4 65.296 162.096 68.176C159.856 71.056 157.392 75.152 154.704 80.464C154.32 81.168 153.872 81.616 153.36 81.808C152.848 81.936 152.048 82 150.96 82C150.256 82 149.68 82 149.232 82C148.72 82.064 148.208 82.224 147.696 82.48ZM226.3 82.288C225.596 82.352 224.796 82.192 223.9 81.808C223.004 81.424 222.204 80.72 221.5 79.696C220.86 78.672 220.54 77.232 220.54 75.376C220.54 73.84 220.828 71.984 221.404 69.808C220.636 71.024 219.644 72.528 218.428 74.32C217.212 76.048 215.9 77.584 214.492 78.928C213.276 80.08 212.124 80.912 211.036 81.424C209.948 81.936 208.956 82.192 208.06 82.192C206.396 82.192 205.052 81.456 204.028 79.984C203.004 78.448 202.492 76.464 202.492 74.032C202.492 71.472 203.132 68.56 204.412 65.296C205.692 62.032 207.772 58.64 210.652 55.12C212.508 52.88 214.748 51.088 217.372 49.744C220.06 48.336 222.684 47.632 225.244 47.632C226.716 47.632 228.124 47.888 229.468 48.4C230.812 48.848 231.996 49.616 233.02 50.704C233.468 51.152 233.692 51.664 233.692 52.24C233.692 52.624 233.532 52.944 233.212 53.2C232.892 53.456 232.476 53.52 231.964 53.392C231.26 51.152 229.756 50.032 227.452 50.032C226.364 50.032 225.116 50.384 223.708 51.088C221.532 52.24 219.26 54.128 216.892 56.752C214.588 59.376 212.572 62.096 210.844 64.912C210.588 65.296 210.172 66.032 209.596 67.12C209.084 68.208 208.572 69.424 208.06 70.768C207.548 72.112 207.196 73.424 207.004 74.704C206.94 75.088 206.908 75.376 206.908 75.568C206.908 75.696 206.908 75.92 206.908 76.24C206.908 78.352 207.708 79.408 209.308 79.408C211.228 79.408 213.404 78 215.836 75.184C217.5 73.136 219.004 70.992 220.348 68.752C221.692 66.512 223.068 64.112 224.476 61.552C225.436 59.824 226.332 58.384 227.164 57.232C227.996 56.08 229.18 55.504 230.716 55.504C231.42 55.504 232.124 55.6 232.828 55.792C233.532 55.984 234.268 56.016 235.036 55.888C234.524 56.4 233.82 57.36 232.924 58.768C232.092 60.176 231.196 61.776 230.236 63.568C229.276 65.36 228.412 67.184 227.644 69.04C226.876 70.896 226.332 72.496 226.012 73.84C225.948 74.224 225.852 74.768 225.724 75.472C225.66 76.176 225.628 76.688 225.628 77.008C225.628 78.8 226.14 79.696 227.164 79.696C228.188 79.696 229.276 79.088 230.428 77.872C231.644 76.656 232.828 75.152 233.98 73.36C235.132 71.568 236.188 69.776 237.148 67.984C238.108 66.128 238.876 64.624 239.452 63.472C239.708 62.832 240.092 62.512 240.604 62.512C240.924 62.512 241.084 62.736 241.084 63.184C241.084 63.376 240.988 63.728 240.796 64.24C240.028 65.84 239.1 67.664 238.012 69.712C236.924 71.696 235.74 73.648 234.46 75.568C233.18 77.424 231.836 78.992 230.428 80.272C229.084 81.488 227.708 82.16 226.3 82.288ZM373.499 99.76C369.979 99.76 366.715 98.96 363.707 97.36C360.763 95.76 358.139 93.584 355.835 90.832C353.531 88.144 351.611 85.104 350.075 81.712C348.795 78.832 347.739 75.92 346.907 72.976C346.139 70.032 345.563 67.28 345.179 64.72C344.795 62.16 344.603 60.048 344.603 58.384C344.603 56.336 344.827 55.184 345.275 54.928C346.491 55.056 348.507 54.544 351.323 53.392C354.203 52.24 357.595 50.544 361.499 48.304C365.467 46.064 369.723 43.376 374.267 40.24C378.875 37.04 383.483 33.456 388.091 29.488C392.763 25.52 397.243 21.232 401.531 16.624C405.819 12.016 409.595 7.184 412.859 2.128C413.627 0.911999 414.363 0.303999 415.067 0.303999C415.643 0.303999 415.931 0.655998 415.931 1.36C415.931 1.936 415.707 2.576 415.259 3.27999C412.187 8.4 408.539 13.424 404.315 18.352C400.091 23.216 395.579 27.792 390.779 32.08C385.979 36.368 381.147 40.24 376.283 43.696C371.483 47.152 366.875 50.032 362.459 52.336C358.107 54.64 354.267 56.208 350.939 57.04C350.747 56.912 350.651 57.232 350.651 58C350.651 59.088 350.875 60.848 351.323 63.28C351.771 65.648 352.443 68.368 353.339 71.44C354.299 74.448 355.451 77.52 356.795 80.656C358.843 85.456 361.275 89.136 364.091 91.696C366.971 94.32 370.267 95.632 373.979 95.632C376.475 95.632 379.035 95.248 381.659 94.48C384.283 93.776 386.683 92.656 388.859 91.12C391.035 89.648 392.731 87.76 393.947 85.456C394.331 84.56 394.779 84.112 395.291 84.112C395.547 84.112 395.675 84.304 395.675 84.688C395.675 85.136 395.515 85.648 395.195 86.224C394.043 88.592 392.283 90.8 389.915 92.848C387.547 94.896 384.891 96.56 381.947 97.84C379.067 99.12 376.251 99.76 373.499 99.76ZM292.283 98.512C287.931 98.512 283.707 97.904 279.611 96.688C275.579 95.536 271.931 93.808 268.667 91.504C265.467 89.2 262.907 86.384 260.987 83.056C259.131 79.728 258.203 75.952 258.203 71.728C258.203 70.576 258.299 69.392 258.491 68.176C258.683 66.896 258.939 65.584 259.259 64.24C259.899 61.936 260.923 59.952 262.331 58.288C263.803 56.56 265.307 55.216 266.843 54.256C268.379 53.232 269.531 52.688 270.299 52.624H270.587C271.227 52.624 271.547 52.816 271.547 53.2C271.547 53.52 271.387 53.776 271.067 53.968C270.491 54.224 269.499 54.96 268.091 56.176C266.747 57.328 265.403 58.96 264.059 61.072C262.715 63.12 261.851 65.584 261.467 68.464C261.275 69.68 261.179 70.832 261.179 71.92C261.179 75.76 262.011 79.056 263.675 81.808C265.339 84.496 267.515 86.704 270.203 88.432C272.891 90.16 275.835 91.408 279.035 92.176C282.235 93.008 285.371 93.424 288.443 93.424C289.659 93.424 290.843 93.36 291.995 93.232C293.147 93.168 294.235 93.008 295.259 92.752C302.171 91.216 308.155 88.752 313.211 85.36C318.331 81.968 322.747 78.064 326.459 73.648C330.171 69.232 333.307 64.688 335.867 60.016C338.491 55.344 340.699 50.96 342.491 46.864C342.875 45.904 343.515 44.4 344.411 42.352C345.371 40.304 346.427 37.968 347.579 35.344C348.795 32.72 350.011 30.064 351.227 27.376C352.507 24.688 353.659 22.224 354.683 19.984C355.707 17.744 356.539 16.016 357.179 14.8C352.891 15.312 348.251 15.792 343.259 16.24C338.331 16.624 333.627 17.456 329.147 18.736C324.155 20.144 320.059 22.192 316.859 24.88C313.723 27.568 311.387 30.512 309.851 33.712C308.379 36.912 307.643 39.952 307.643 42.832C307.643 45.968 308.443 48.592 310.043 50.704C311.643 52.816 313.851 53.872 316.667 53.872C318.075 53.872 319.579 53.584 321.179 53.008C323.035 52.368 324.571 51.248 325.787 49.648C327.003 47.984 327.899 46.128 328.475 44.08C329.115 41.968 329.435 39.952 329.435 38.032C329.435 37.008 329.339 36.016 329.147 35.056V34.864C329.147 34.608 329.275 34.48 329.531 34.48C330.043 34.48 330.491 34.864 330.875 35.632C331.195 36.272 331.387 36.976 331.451 37.744C331.579 38.448 331.643 39.152 331.643 39.856C331.643 41.904 331.195 43.952 330.299 46C329.403 47.984 328.219 49.776 326.747 51.376C325.275 52.976 323.611 54.128 321.755 54.832C320.731 55.216 319.739 55.504 318.779 55.696C317.819 55.824 316.891 55.888 315.995 55.888C313.243 55.888 310.779 55.184 308.603 53.776C306.491 52.304 304.827 50.384 303.611 48.016C302.459 45.648 301.883 43.088 301.883 40.336C301.883 37.2 302.747 34.032 304.475 30.832C306.203 27.568 308.987 24.624 312.827 22C316.667 19.312 321.723 17.264 327.995 15.856C333.243 14.704 338.587 13.968 344.027 13.648C349.467 13.264 354.267 12.88 358.427 12.496C358.683 12.112 359.195 11.376 359.963 10.288C360.795 9.2 361.723 8.112 362.747 7.024C363.835 5.872 364.891 5.136 365.915 4.816C366.619 4.624 367.227 4.528 367.739 4.528C368.891 4.528 369.787 4.848 370.427 5.488C371.131 6.12799 371.483 6.89599 371.483 7.79199C371.483 9.072 370.587 10.448 368.795 11.92C367.067 13.328 364.123 14.256 359.963 14.704C357.915 18.48 356.027 22.672 354.299 27.28C352.571 31.824 350.843 36.592 349.115 41.584C347.451 46.512 345.595 51.472 343.547 56.464C341.563 61.392 339.291 66.16 336.731 70.768C334.171 75.312 331.131 79.472 327.611 83.248C324.155 87.024 320.059 90.192 315.323 92.752C310.651 95.312 305.211 97.072 299.003 98.032C297.915 98.16 296.795 98.256 295.643 98.32C294.491 98.448 293.371 98.512 292.283 98.512ZM361.787 12.304C363.771 11.984 365.179 11.6 366.011 11.152C366.907 10.64 367.547 10.128 367.931 9.616C368.379 9.104 368.603 8.656 368.603 8.272C368.603 7.632 368.283 7.31199 367.643 7.31199C367.067 7.31199 366.363 7.632 365.531 8.272C364.891 8.72 364.219 9.36 363.515 10.192C362.811 11.024 362.235 11.728 361.787 12.304ZM395.425 82.288C394.721 82.352 393.921 82.192 393.025 81.808C392.129 81.424 391.329 80.72 390.625 79.696C389.985 78.672 389.665 77.232 389.665 75.376C389.665 73.84 389.953 71.984 390.529 69.808C389.761 71.024 388.769 72.528 387.553 74.32C386.337 76.048 385.025 77.584 383.617 78.928C382.401 80.08 381.249 80.912 380.161 81.424C379.073 81.936 378.081 82.192 377.185 82.192C375.521 82.192 374.177 81.456 373.153 79.984C372.129 78.448 371.617 76.464 371.617 74.032C371.617 71.472 372.257 68.56 373.537 65.296C374.817 62.032 376.897 58.64 379.777 55.12C381.633 52.88 383.873 51.088 386.497 49.744C389.185 48.336 391.809 47.632 394.369 47.632C395.841 47.632 397.249 47.888 398.593 48.4C399.937 48.848 401.121 49.616 402.145 50.704C402.593 51.152 402.817 51.664 402.817 52.24C402.817 52.624 402.657 52.944 402.337 53.2C402.017 53.456 401.601 53.52 401.089 53.392C400.385 51.152 398.881 50.032 396.577 50.032C395.489 50.032 394.241 50.384 392.833 51.088C390.657 52.24 388.385 54.128 386.017 56.752C383.713 59.376 381.697 62.096 379.969 64.912C379.713 65.296 379.297 66.032 378.721 67.12C378.209 68.208 377.697 69.424 377.185 70.768C376.673 72.112 376.321 73.424 376.129 74.704C376.065 75.088 376.033 75.376 376.033 75.568C376.033 75.696 376.033 75.92 376.033 76.24C376.033 78.352 376.833 79.408 378.433 79.408C380.353 79.408 382.529 78 384.961 75.184C386.625 73.136 388.129 70.992 389.473 68.752C390.817 66.512 392.193 64.112 393.601 61.552C394.561 59.824 395.457 58.384 396.289 57.232C397.121 56.08 398.305 55.504 399.841 55.504C400.545 55.504 401.249 55.6 401.953 55.792C402.657 55.984 403.393 56.016 404.161 55.888C403.649 56.4 402.945 57.36 402.049 58.768C401.217 60.176 400.321 61.776 399.361 63.568C398.401 65.36 397.537 67.184 396.769 69.04C396.001 70.896 395.457 72.496 395.137 73.84C395.073 74.224 394.977 74.768 394.849 75.472C394.785 76.176 394.753 76.688 394.753 77.008C394.753 78.8 395.265 79.696 396.289 79.696C397.313 79.696 398.401 79.088 399.553 77.872C400.769 76.656 401.953 75.152 403.105 73.36C404.257 71.568 405.313 69.776 406.273 67.984C407.233 66.128 408.001 64.624 408.577 63.472C408.833 62.832 409.217 62.512 409.729 62.512C410.049 62.512 410.209 62.736 410.209 63.184C410.209 63.376 410.113 63.728 409.921 64.24C409.153 65.84 408.225 67.664 407.137 69.712C406.049 71.696 404.865 73.648 403.585 75.568C402.305 77.424 400.961 78.992 399.553 80.272C398.209 81.488 396.833 82.16 395.425 82.288ZM410.647 82.384C407.511 82.384 405.271 81.584 403.927 79.984C402.646 78.32 402.006 76.592 402.006 74.8C402.006 73.328 402.358 71.984 403.062 70.768C403.831 69.552 404.727 68.912 405.751 68.848C407.031 66.352 408.407 63.632 409.879 60.688C411.415 57.744 412.823 54.896 414.103 52.144C414.999 50.288 416.119 48.496 417.463 46.768C418.871 45.04 420.407 44.048 422.071 43.792H423.031C423.543 43.792 423.991 43.824 424.375 43.888C424.823 43.952 425.271 44.08 425.719 44.272C426.423 44.592 426.775 45.072 426.775 45.712C426.775 46.096 426.551 46.288 426.103 46.288C425.911 46.288 425.655 46.192 425.335 46C424.567 45.68 423.895 45.52 423.319 45.52C422.935 45.52 422.583 45.616 422.263 45.808C421.047 46.448 420.183 47.344 419.671 48.496C419.223 49.648 418.999 50.864 418.999 52.144C418.999 53.168 419.095 54.224 419.287 55.312C419.543 56.336 419.831 57.264 420.151 58.096C420.855 59.888 421.591 61.648 422.359 63.376C423.191 65.104 423.607 66.96 423.607 68.944C423.607 70.864 422.967 72.912 421.687 75.088C420.407 77.2 418.775 78.896 416.791 80.176L417.463 80.272C417.783 80.336 418.007 80.368 418.135 80.368C418.263 80.368 418.359 80.368 418.423 80.368C419.895 80.368 421.271 79.952 422.551 79.12C423.895 78.224 425.079 77.136 426.103 75.856C427.127 74.576 428.279 72.784 429.559 70.48C430.903 68.176 432.183 65.744 433.399 63.184C433.591 62.864 433.815 62.704 434.071 62.704C434.391 62.704 434.615 62.832 434.743 63.088C434.935 63.28 434.967 63.536 434.839 63.856C434.007 65.648 433.047 67.6 431.959 69.712C430.935 71.76 429.751 73.744 428.406 75.664C427.063 77.52 425.495 79.056 423.703 80.272C421.975 81.424 420.023 82 417.847 82C417.335 82 416.791 81.968 416.215 81.904C415.639 81.84 415.063 81.712 414.487 81.52C413.847 81.776 413.175 81.968 412.471 82.096C411.831 82.288 411.223 82.384 410.647 82.384ZM413.527 79.504C414.615 78.608 415.575 77.296 416.407 75.568C417.303 73.84 417.751 71.568 417.751 68.752C417.751 66.256 417.495 63.6 416.983 60.784C416.471 57.968 416.215 55.472 416.215 53.296C416.215 52.848 416.215 52.464 416.215 52.144C416.279 51.76 416.343 51.408 416.407 51.088C415.575 52.816 414.615 54.832 413.527 57.136C412.439 59.376 411.351 61.552 410.263 63.664C409.175 65.776 408.247 67.568 407.479 69.04C407.479 69.04 407.639 69.072 407.959 69.136C408.343 69.136 408.695 69.36 409.015 69.808C409.335 70.192 409.463 70.992 409.398 72.208C409.335 73.808 409.687 75.312 410.455 76.72C411.287 78.064 412.311 78.992 413.527 79.504ZM409.879 80.848C410.263 80.848 410.615 80.816 410.935 80.752C411.255 80.624 411.543 80.528 411.799 80.464C410.839 79.76 409.975 78.832 409.207 77.68C408.503 76.464 408.087 74.928 407.959 73.072C406.807 74.288 406.23 75.6 406.23 77.008C406.23 78.032 406.551 78.928 407.191 79.696C407.831 80.464 408.727 80.848 409.879 80.848ZM443.847 43.024C442.887 43.024 442.087 42.704 441.447 42.064C440.871 41.36 440.583 40.528 440.583 39.568C440.583 38.352 441.063 37.296 442.023 36.4C442.983 35.504 444.039 35.056 445.191 35.056C446.215 35.056 447.047 35.376 447.687 36.016C448.327 36.656 448.647 37.424 448.647 38.32C448.647 39.536 448.167 40.624 447.207 41.584C446.247 42.544 445.127 43.024 443.847 43.024ZM436.071 82C433.703 82 432.039 81.328 431.079 79.984C430.119 78.576 429.639 76.976 429.639 75.184C429.639 74.224 429.735 73.264 429.927 72.304C430.183 71.28 430.471 70.352 430.791 69.52L437.223 53.104C437.415 52.592 437.511 52.144 437.511 51.76C437.511 51.12 437.351 50.576 437.031 50.128C436.711 49.616 436.487 49.264 436.359 49.072L441.639 48.88C442.599 48.816 443.271 48.944 443.655 49.264C444.103 49.52 444.327 49.84 444.327 50.224C444.327 50.608 444.103 51.312 443.655 52.336L435.687 71.056C435.687 71.056 435.495 71.472 435.111 72.304C434.791 73.072 434.599 73.584 434.535 73.84C434.343 74.8 434.215 75.408 434.151 75.664C434.087 75.92 434.055 76.08 434.055 76.144C434.055 76.208 434.055 76.464 434.055 76.912C434.055 77.744 434.247 78.448 434.631 79.024C435.079 79.6 435.815 79.888 436.839 79.888C437.479 79.888 438.215 79.696 439.047 79.312C439.879 78.928 440.487 78.544 440.871 78.16C442.471 76.496 444.039 74.32 445.575 71.632C447.175 68.88 448.647 66.16 449.991 63.472C450.247 62.832 450.567 62.512 450.951 62.512C451.271 62.512 451.431 62.736 451.431 63.184C451.431 63.44 451.335 63.824 451.143 64.336C450.503 65.68 449.703 67.344 448.743 69.328C447.783 71.312 446.631 73.296 445.287 75.28C444.007 77.2 442.599 78.8 441.063 80.08C439.527 81.36 437.863 82 436.071 82ZM440.754 82.768C443.442 77.264 446.226 71.504 449.106 65.488C452.05 59.408 455.058 53.296 458.13 47.152C461.202 41.008 464.242 35.152 467.25 29.584C468.338 27.664 469.33 26.16 470.226 25.072C471.186 23.984 472.434 23.44 473.97 23.44C474.546 23.44 475.218 23.536 475.986 23.728C476.754 23.92 477.49 23.952 478.194 23.824C477.362 24.72 476.21 26.288 474.738 28.528C473.33 30.768 471.73 33.456 469.938 36.592C468.21 39.728 466.354 43.12 464.37 46.768C462.45 50.352 460.53 54 458.61 57.712C456.754 61.36 455.026 64.784 453.426 67.984C454.706 66.32 456.018 64.752 457.362 63.28C458.706 61.808 460.018 60.528 461.298 59.44C462.706 58.16 464.466 56.816 466.578 55.408C468.754 54 470.898 52.784 473.01 51.76C475.186 50.736 476.914 50.224 478.194 50.224C478.642 50.224 478.962 50.256 479.154 50.32C479.154 50.32 478.802 50.96 478.098 52.24C477.394 53.52 476.498 55.152 475.41 57.136C474.386 59.12 473.298 61.264 472.146 63.568C471.058 65.872 470.098 68.08 469.266 70.192C468.434 72.24 467.89 73.936 467.634 75.28C467.442 76.304 467.346 77.168 467.346 77.872C467.346 78.896 467.538 79.6 467.922 79.984C468.306 80.304 468.722 80.464 469.17 80.464C470.258 80.464 471.442 79.792 472.722 78.448C474.002 77.104 475.25 75.472 476.466 73.552C477.682 71.568 478.77 69.648 479.73 67.792C480.754 65.936 481.522 64.496 482.034 63.472C482.418 62.768 482.802 62.416 483.186 62.416C483.57 62.416 483.762 62.672 483.762 63.184C483.762 63.44 483.666 63.824 483.474 64.336C482.642 66 481.682 67.888 480.594 70C479.57 72.048 478.386 74.032 477.042 75.952C475.762 77.808 474.322 79.344 472.722 80.56C471.186 81.776 469.522 82.384 467.73 82.384C466.45 82.384 465.138 81.936 463.794 81.04C462.45 80.144 461.778 78.512 461.778 76.144C461.778 75.44 461.842 74.704 461.97 73.936C462.098 73.104 462.322 72.176 462.642 71.152C463.026 69.872 463.666 68.464 464.562 66.928C465.458 65.328 466.61 63.344 468.018 60.976C468.658 59.888 468.978 59.024 468.978 58.384C468.978 57.616 468.594 57.232 467.826 57.232C467.186 57.232 466.322 57.552 465.234 58.192C464.146 58.832 462.77 59.952 461.106 61.552C459.506 63.088 457.522 65.328 455.154 68.272C452.786 71.216 450.258 75.344 447.57 80.656C447.122 81.488 446.61 81.936 446.034 82C445.522 82 444.818 82.032 443.922 82.096C443.346 82.16 442.77 82.192 442.194 82.192C441.618 82.256 441.138 82.448 440.754 82.768ZM537.306 120.4C532.826 120.4 529.178 119.568 526.362 117.904C523.61 116.24 522.234 114.224 522.234 111.856C522.234 110.128 523.13 108.24 524.922 106.192C526.778 104.144 529.754 102.288 533.85 100.624C540.122 98 546.778 96.304 553.818 95.536C560.858 94.832 568.122 94.48 575.61 94.48C578.106 88.272 580.474 82.096 582.714 75.952C584.954 69.808 586.938 63.536 588.666 57.136C587.514 59.76 585.978 62.736 584.058 66.064C582.138 69.392 579.93 72.624 577.434 75.76C574.938 78.832 572.186 81.392 569.178 83.44C565.466 85.936 561.626 87.184 557.658 87.184C554.714 87.184 552.186 86.32 550.074 84.592C547.962 82.864 546.906 80.144 546.906 76.432C546.906 76.048 546.906 75.632 546.906 75.184C546.97 74.736 547.034 74.288 547.098 73.84C547.61 70.64 548.634 67.184 550.17 63.472C551.77 59.76 553.562 56.112 555.546 52.528C557.594 48.88 559.482 45.616 561.21 42.736C563.258 39.408 565.05 36.016 566.586 32.56C568.122 29.104 569.306 25.776 570.138 22.576C570.97 19.376 571.386 16.56 571.386 14.128C571.386 12.272 571.098 10.64 570.522 9.232C570.01 7.76 569.146 6.64 567.93 5.872C565.114 4.08 561.786 3.184 557.946 3.184C553.85 3.184 549.53 4.112 544.986 5.96799C540.442 7.824 535.994 10.352 531.642 13.552C527.354 16.688 523.514 20.272 520.122 24.304C516.73 28.336 514.106 32.528 512.25 36.88C511.098 39.632 510.234 42.192 509.658 44.56C509.146 46.928 508.89 49.104 508.89 51.088C508.89 54.544 509.562 57.424 510.906 59.728C512.25 61.968 514.01 63.664 516.186 64.816C518.362 65.968 520.698 66.544 523.194 66.544C525.242 66.544 527.29 66.192 529.338 65.488C531.578 64.72 533.658 63.44 535.578 61.648C537.562 59.856 539.29 57.84 540.762 55.6C542.298 53.36 543.482 51.088 544.314 48.784C545.146 46.48 545.562 44.4 545.562 42.544C545.562 40.688 545.082 39.184 544.122 38.032C543.226 36.816 541.722 36.208 539.61 36.208C538.842 36.208 538.01 36.304 537.114 36.496C536.858 36.56 536.634 36.592 536.442 36.592C536.25 36.592 536.09 36.592 535.962 36.592C535.386 36.592 535.098 36.464 535.098 36.208C535.098 36.08 535.29 35.888 535.674 35.632C536.058 35.312 536.474 35.12 536.922 35.056C538.778 34.608 540.346 34.384 541.626 34.384C544.25 34.384 546.17 35.12 547.386 36.592C548.602 38.064 549.21 39.952 549.21 42.256C549.21 44.944 548.378 47.952 546.714 51.28C545.114 54.544 542.81 57.68 539.802 60.688C536.794 63.632 533.178 65.968 528.954 67.696C526.65 68.656 524.282 69.136 521.85 69.136C518.65 69.136 515.642 68.336 512.826 66.736C510.074 65.072 507.834 62.736 506.106 59.728C504.378 56.72 503.514 53.168 503.514 49.072C503.514 46.576 503.834 44.144 504.474 41.776C505.114 39.344 506.042 36.848 507.258 34.288C509.626 29.36 512.762 24.88 516.666 20.848C520.57 16.752 524.858 13.2 529.53 10.192C534.266 7.184 539.066 4.88 543.93 3.27999C548.794 1.616 553.37 0.783998 557.658 0.783998C559.514 0.783998 561.274 0.943998 562.938 1.264C564.602 1.52 566.138 2 567.546 2.704C570.938 4.176 573.338 6.256 574.746 8.944C576.154 11.568 576.858 14.512 576.858 17.776C576.858 21.424 576.122 25.328 574.65 29.488C573.178 33.584 571.29 37.584 568.986 41.488C566.81 45.136 564.666 48.944 562.554 52.912C560.506 56.88 558.714 60.72 557.178 64.432C555.642 68.144 554.554 71.472 553.914 74.416C553.786 75.056 553.69 75.696 553.626 76.336C553.562 76.976 553.53 77.552 553.53 78.064C553.53 80.304 554.074 81.936 555.162 82.96C556.25 83.984 557.626 84.496 559.29 84.496C561.978 84.496 564.826 83.44 567.834 81.328C570.202 79.664 572.474 77.456 574.65 74.704C576.89 71.952 578.97 68.944 580.89 65.68C582.81 62.352 584.538 59.024 586.074 55.696C587.61 52.304 588.922 49.136 590.01 46.192C591.098 43.248 591.93 40.784 592.506 38.8C592.634 38.224 593.114 37.552 593.946 36.784C594.778 36.016 595.578 35.632 596.346 35.632C596.858 35.632 597.274 35.888 597.594 36.4C597.978 36.912 598.17 37.808 598.17 39.088C598.17 40.368 597.882 42.32 597.306 44.944C596.474 48.656 595.45 52.72 594.234 57.136C593.018 61.488 591.642 65.936 590.106 70.48C588.634 74.96 587.034 79.248 585.306 83.344C583.642 87.504 581.946 91.184 580.218 94.384C584.954 94.384 589.338 94.224 593.37 93.904C597.466 93.584 600.41 92.912 602.202 91.888C604.314 90.672 605.882 89.616 606.906 88.72C607.994 87.888 608.538 86.544 608.538 84.688V84.112C608.538 83.536 608.634 83.248 608.826 83.248C609.082 83.248 609.37 83.76 609.69 84.784C609.754 84.976 609.786 85.168 609.786 85.36C609.85 85.552 609.882 85.776 609.882 86.032C609.882 87.376 609.306 88.88 608.154 90.544C607.066 92.272 605.21 93.68 602.586 94.768C600.218 95.728 596.858 96.304 592.506 96.496C588.218 96.688 583.61 96.816 578.682 96.88C575.482 101.744 571.45 105.936 566.586 109.456C561.786 112.976 556.922 115.664 551.994 117.52C549.306 118.544 546.714 119.28 544.218 119.728C541.786 120.176 539.482 120.4 537.306 120.4ZM537.978 117.712C539.834 117.712 541.85 117.52 544.026 117.136C546.202 116.752 548.346 116.176 550.458 115.408C554.81 113.808 559.098 111.472 563.322 108.4C567.61 105.392 571.226 101.552 574.17 96.88C567.642 96.88 561.05 97.36 554.394 98.32C547.738 99.344 541.53 101.52 535.77 104.848C532.89 106.448 530.81 107.952 529.53 109.36C528.314 110.768 527.706 112.016 527.706 113.104C527.706 114.512 528.666 115.632 530.586 116.464C532.57 117.296 535.034 117.712 537.978 117.712ZM620.143 82.288C619.439 82.352 618.639 82.192 617.743 81.808C616.847 81.424 616.047 80.72 615.343 79.696C614.703 78.672 614.383 77.232 614.383 75.376C614.383 73.84 614.671 71.984 615.247 69.808C614.479 71.024 613.487 72.528 612.271 74.32C611.055 76.048 609.743 77.584 608.335 78.928C607.119 80.08 605.967 80.912 604.879 81.424C603.791 81.936 602.799 82.192 601.903 82.192C600.239 82.192 598.895 81.456 597.871 79.984C596.847 78.448 596.335 76.464 596.335 74.032C596.335 71.472 596.975 68.56 598.255 65.296C599.535 62.032 601.615 58.64 604.495 55.12C606.351 52.88 608.591 51.088 611.215 49.744C613.903 48.336 616.527 47.632 619.087 47.632C620.559 47.632 621.967 47.888 623.311 48.4C624.655 48.848 625.839 49.616 626.863 50.704C627.311 51.152 627.535 51.664 627.535 52.24C627.535 52.624 627.375 52.944 627.055 53.2C626.735 53.456 626.319 53.52 625.807 53.392C625.103 51.152 623.599 50.032 621.295 50.032C620.207 50.032 618.959 50.384 617.551 51.088C615.375 52.24 613.103 54.128 610.735 56.752C608.431 59.376 606.415 62.096 604.687 64.912C604.431 65.296 604.015 66.032 603.439 67.12C602.927 68.208 602.415 69.424 601.903 70.768C601.391 72.112 601.039 73.424 600.847 74.704C600.783 75.088 600.751 75.376 600.751 75.568C600.751 75.696 600.751 75.92 600.751 76.24C600.751 78.352 601.551 79.408 603.151 79.408C605.071 79.408 607.247 78 609.679 75.184C611.343 73.136 612.847 70.992 614.191 68.752C615.535 66.512 616.911 64.112 618.319 61.552C619.279 59.824 620.175 58.384 621.007 57.232C621.839 56.08 623.023 55.504 624.559 55.504C625.263 55.504 625.967 55.6 626.671 55.792C627.375 55.984 628.111 56.016 628.879 55.888C628.367 56.4 627.663 57.36 626.767 58.768C625.935 60.176 625.039 61.776 624.079 63.568C623.119 65.36 622.255 67.184 621.487 69.04C620.719 70.896 620.175 72.496 619.855 73.84C619.791 74.224 619.695 74.768 619.567 75.472C619.503 76.176 619.471 76.688 619.471 77.008C619.471 78.8 619.983 79.696 621.007 79.696C622.031 79.696 623.119 79.088 624.271 77.872C625.487 76.656 626.671 75.152 627.823 73.36C628.975 71.568 630.031 69.776 630.991 67.984C631.951 66.128 632.719 64.624 633.295 63.472C633.551 62.832 633.935 62.512 634.447 62.512C634.767 62.512 634.927 62.736 634.927 63.184C634.927 63.376 634.831 63.728 634.639 64.24C633.871 65.84 632.943 67.664 631.855 69.712C630.767 71.696 629.583 73.648 628.303 75.568C627.023 77.424 625.679 78.992 624.271 80.272C622.927 81.488 621.551 82.16 620.143 82.288ZM641.029 83.44C640.005 83.44 639.173 83.12 638.533 82.48C637.893 81.84 637.573 81.04 637.573 80.08C637.573 78.8 638.053 77.712 639.013 76.816C640.037 75.92 641.125 75.472 642.277 75.472C643.301 75.472 644.133 75.792 644.773 76.432C645.413 77.008 645.733 77.776 645.733 78.736C645.733 79.952 645.253 81.04 644.293 82C643.333 82.96 642.245 83.44 641.029 83.44ZM661.092 83.44C660.068 83.44 659.236 83.12 658.596 82.48C657.956 81.84 657.636 81.04 657.636 80.08C657.636 78.8 658.116 77.712 659.076 76.816C660.1 75.92 661.188 75.472 662.34 75.472C663.364 75.472 664.196 75.792 664.836 76.432C665.476 77.008 665.796 77.776 665.796 78.736C665.796 79.952 665.316 81.04 664.356 82C663.396 82.96 662.308 83.44 661.092 83.44ZM681.154 83.44C680.13 83.44 679.298 83.12 678.658 82.48C678.018 81.84 677.698 81.04 677.698 80.08C677.698 78.8 678.178 77.712 679.138 76.816C680.162 75.92 681.25 75.472 682.402 75.472C683.426 75.472 684.258 75.792 684.898 76.432C685.538 77.008 685.858 77.776 685.858 78.736C685.858 79.952 685.378 81.04 684.418 82C683.458 82.96 682.37 83.44 681.154 83.44Z" fill="white"/>
</svg>
